<svg xmlns="http://www.w3.org/2000/svg" width="256.742" height="285.381" viewBox="0 0 256.742 285.381">
  <path id="ad-green-leaf" d="M238.06,238.068c-11.6-14.3-19.2-30.4-24.6-47.9-5.2-16.7-9.6-30.7-19.4-45.4-1.6,27.2-2.3,52.9,13.3,76.5.6.9-.4,1.8-1.3,1.2-13.2-9-21-23.5-23.1-39.1a81.144,81.144,0,0,1,.9-26c1.3-7,7.5-21.6-2.4-25.3-9.7,24.1-11.8,48-8.8,73.8a1.17,1.17,0,0,1-2.1.8c-9.7-11.8-11.8-27.6-10.7-42.4a97.546,97.546,0,0,1,5.6-25.7c1.6-4.5,4.1-8.5,5.8-12.9,1.7-4.3-2.9-9.1-6.2-11.2-7,10.2-8.3,24.1-11.3,35.9a167.79,167.79,0,0,1-12.1,32.8,1.276,1.276,0,0,1-2.4-.3c-5.7-25.5-.6-51.4,16.2-71.5,1-1.2,2.9-2.5,2.2-4.3s-3.9-2.3-5.4-2c-7.6,1.3-13,26.2-14.5,32.7-3.6,15.8-3.5,31.7-4.6,47.8a1.276,1.276,0,0,1-2.4.3c-9.1-28.7-11.3-59.6,8.1-83.3,4-4.9,5.2-5.5-1.6-9.1-3.9-2.1-7.9-4-12-6.5-11.6,27.6-2.6,57.2-7.2,86.1a1.3,1.3,0,0,1-2.3.6c-7-10.1-10.4-22-11-34.2-.5-12.1,1.8-24.1,5.3-35.7,1-3.4,2.2-6.8,3.4-10.2.5-1.4,1.1-2.9,1.6-4.3.6-1.5,1.8-4.9,2.2-6.2,0-.1-11.6-10-14.3-1-4.4,12.9-5.1,26.2-3.6,39.7,1.2,11.5,3,23.1-.1,34.5-.3.9-1.7,1.7-2.3.6-14.7-25.5-15-58.1,1.1-82.7-6.3-1.8-16.3-7.2-20.3-4.1-2.5,2.9-2.9,8.2-3.5,11.9-.6,3.3-.9,6.7-1.2,10.1a103.725,103.725,0,0,0,6.6,43.8c.4,1.1-1,2.4-2,1.5-9.6-8.7-14.5-21.3-14.8-34.2a56.192,56.192,0,0,1,2.8-18.7c1.8-5.5,5.2-13,3.1-18.9-1.2-3.4-2.8-3.1-4.5-3.8-20.6-3.8-41.7-3.6-62.9-.6-1.6.2-1.9-5.6-.3-5.8,20.8-2.9,42-.9,62.6,3.2a.349.349,0,0,1,.2-.1c3.3-2.2,6.5-1.9,10-4.8,7.5-6.2,11.6-15.8,15.9-24.4a103.007,103.007,0,0,1,21-28.9c.8-.7,2.3-.4,2.1.9a119.9,119.9,0,0,1-28.9,58c8.5,4.8,16.2-11.1,20.9-16a70.81,70.81,0,0,1,17.8-13c15.5-8,33.1-10.5,50.3-11.4a1.161,1.161,0,0,1,.3,2.3,128.574,128.574,0,0,0-70.6,43.5c2.7.7,4.9.2,7.6.1,12.8-.7,26.5-4.9,38.4-9.3a208.479,208.479,0,0,0,42.1-21.4c.9-.6,2.4.3,1.8,1.4-7,12.7-21.1,18.6-33.5,24.5-13,6.2-26.5,11.8-41,12.8,2.9,3,9.7,2,13.3,1.7a112.715,112.715,0,0,0,13-1.7,157.848,157.848,0,0,0,25-7.1c16.3-6,31.6-14.1,46.9-22.2.9-.5,1.9.7,1.5,1.6-14.1,31.3-50.4,40-81.7,38.5,8,6.9,19.6,5,29.1,3.9a206.975,206.975,0,0,1,29.4-1.6c20.2.3,40.3,4,58.9,12,1,.5.9,2.2-.3,2.3-16.5.8-32.9,1.6-49.4,2.3-13.3.6-26.8,1.7-39.8-1.4a49.171,49.171,0,0,0,21.7,9.4c8.5,1.3,16.8-.5,25.2-.6,16.9-.1,34.6,6.1,49.9,12.9a1.055,1.055,0,0,1-.6,2c-26.8-5-56.1,3.6-81.5-8.1,5.1,5.1,10.1,7.9,16.7,10.4,8,3,16.8,3.5,25.1,5.8a100.274,100.274,0,0,1,41.3,23.2c.7.7.3,2.3-.8,2-23.4-6.1-45.8-10.8-66.5-23.5,9.3,11.1,17.8,19.4,30.6,26.7,13.7,7.8,28.8,12.7,43.7,17.6a1.1,1.1,0,0,1,0,2c-21.5,9.3-41.2-4.1-56.1-19.6,2.1,3.1,4.1,6.3,6.1,9.4,5.2,6.7,10.4,13.4,14.5,20.9,7.9,14.7,7.8,30.4,6.6,46.6.2.4-1.2.6-1.8-.1Z" transform="translate(0 268.742) rotate(-86)" fill="#c4cf53" fill-rule="evenodd"/>
</svg>
