<?xml version="1.0" encoding="utf-8"?>
<!-- Generator: Adobe Illustrator 27.2.0, SVG Export Plug-In . SVG Version: 6.00 Build 0)  -->
<svg version="1.1" id="Layer_1" xmlns="http://www.w3.org/2000/svg" xmlns:xlink="http://www.w3.org/1999/xlink" x="0px" y="0px"
	 viewBox="0 0 136.6 40" style="enable-background:new 0 0 136.6 40;" xml:space="preserve">
<style type="text/css">
	.st0{fill:#231F20;}
	.st1{fill:#518BC9;}
	.st2{fill:#FFFFFF;}
</style>
<g>
	<g id="Type" transform="translate(44.641 3.083)">
		<path id="Path_2747" class="st0" d="M15.6,14.2L15.6,14.2c0,0.3-0.2,0.4-0.5,0.4h-5c-0.3,0-0.4-0.1-0.4-0.4v-0.1
			c0-0.5,1.1-0.8,0.8-1.6l-0.4-1.2H5.3l-0.4,1.2c-0.3,0.9,0.8,1.1,0.8,1.6v0.1c0,0.2-0.2,0.4-0.5,0.4H2.4c-0.3,0-0.5-0.1-0.5-0.4
			v-0.1c0-0.5,0.7-0.6,1.1-1.6l3.6-9.3C6.9,2.5,6,1.9,6,1.5V1.4C6,1.2,6.1,1,6.4,1h2.5C9.4,1,10,1.4,10.2,2l4.4,10.6
			C14.9,13.5,15.6,13.7,15.6,14.2L15.6,14.2z M9.7,9.9L7.8,4.6L5.8,9.9L9.7,9.9L9.7,9.9z"/>
		<path id="Path_2748" class="st0" d="M26.2,14.1c0,0.5-0.7,0.6-2,0.6c-1.2,0-1.7-0.3-1.8-1.1c-0.6,0.8-1.7,1.3-2.7,1.2
			c-1.9,0.1-3.5-1.5-3.6-3.4c0-0.1,0-0.3,0-0.4V7.9c0-0.9-0.8-1.1-0.8-1.6V6.2c0-0.2,0.2-0.4,0.4-0.4l2.9-0.4c0.6-0.1,0.9,0,0.9,0.4
			l-0.1,5.7c0,1.6,0.4,2.2,1.2,2.2c0.7,0,1.3-0.7,1.3-1.9V7.9c0-0.9-0.8-1.1-0.8-1.6V6.2c0-0.2,0.2-0.4,0.4-0.4l2.9-0.4
			c0.6-0.1,0.8,0,0.8,0.4v6.8C25.3,14.1,26.2,13.3,26.2,14.1L26.2,14.1z"/>
		<path id="Path_2749" class="st0" d="M37.4,14.2L37.4,14.2c0,0.3-0.2,0.4-0.4,0.4h-2.7c-0.3,0-0.5-0.2-0.5-0.4c0,0,0,0,0-0.1V14
			c-0.6,0.6-1.5,0.9-2.3,0.8c-2.5,0-4.5-1.9-4.5-4.4c0-0.1,0-0.3,0-0.4c-0.1-2.5,1.9-4.7,4.4-4.8c0,0,0.1,0,0.1,0
			c0.7,0,1.4,0.2,2,0.5V3.2c0-0.9-1-1-1-1.6V1.6c0-0.2,0.2-0.4,0.4-0.5l3-0.9c0.6-0.2,0.8-0.1,0.8,0.5v11.9
			C36.7,13.4,37.4,13.7,37.4,14.2L37.4,14.2z M33.4,12.3V8.6c0-1.2-0.8-2.4-1.7-2.4c-0.9,0-1.5,0.8-1.5,2.4c-0.1,1.6,0.6,5.3,2,5.3
			C32.8,13.9,33.4,13.3,33.4,12.3L33.4,12.3z"/>
		<path id="Path_2750" class="st0" d="M48.9,14.1c0,0.5-0.7,0.6-2,0.6c-1.2,0-1.7-0.3-1.8-1.1c-0.6,0.8-1.7,1.3-2.7,1.2
			c-1.9,0.1-3.5-1.5-3.6-3.4c0-0.1,0-0.3,0-0.4V7.9C38.8,7,38,6.7,38,6.2V6.2c0-0.2,0.2-0.4,0.4-0.4l2.9-0.4c0.6-0.1,0.9,0,0.9,0.4
			l-0.1,5.7c0,1.6,0.4,2.2,1.2,2.2c0.7,0,1.3-0.7,1.3-1.9V7.9c0-0.9-0.8-1.1-0.8-1.6V6.2c0-0.2,0.2-0.4,0.4-0.4l2.9-0.4
			c0.6-0.1,0.8,0,0.8,0.4v6.8C48,14.1,48.9,13.3,48.9,14.1L48.9,14.1z"/>
		<path id="Path_2751" class="st0" d="M60.2,9.9c0.2,2.6-1.8,4.8-4.3,5c-0.1,0-0.1,0-0.2,0c-0.9,0-1.7-0.3-2.3-0.8v0.2
			c0,0.4-0.2,0.5-0.5,0.5l-2.9,0c-0.3,0-0.4-0.1-0.4-0.4v-0.1c0-0.5,0.8-0.8,0.8-1.7V3.8c0-0.9-0.9-1.1-0.9-1.6V2.1
			c0-0.2,0.1-0.3,0.5-0.5l2.9-1.4c0.5-0.2,0.9-0.1,0.9,0.4v5.1c0.6-0.4,1.3-0.6,2-0.6c2.4-0.1,4.5,1.9,4.5,4.3
			C60.3,9.7,60.3,9.8,60.2,9.9L60.2,9.9z M56.9,11.5c0-2.1-0.6-5.3-2-5.3c-0.7,0-1.1,0.6-1.1,1.7v3.7c0,1.2,0.8,2.3,1.6,2.3
			C56.4,13.9,56.9,13,56.9,11.5L56.9,11.5z"/>
		<path id="Path_2752" class="st0" d="M61,10c0.3-2.9,2.8-5,5.7-4.8c2.5,0.2,4.6,2.2,4.8,4.8c0,2.7-2.3,4.8-5,4.8
			c-0.1,0-0.1,0-0.2,0c-2.8,0.2-5.1-1.9-5.3-4.7C61.1,10.1,61.1,10.1,61,10z M68,11.5c0-1.5-0.8-5.3-2.3-5.3c-0.9,0-1.2,0.8-1.2,2.4
			s0.8,5.3,2.3,5.3C67.7,13.9,68,13,68,11.5L68,11.5z"/>
		<path id="Path_2753" class="st0" d="M83.5,14.2L83.5,14.2c0,0.3-0.2,0.4-0.5,0.4h-3.8c-0.3,0-0.5-0.1-0.5-0.4v-0.1
			c0-0.6,0.7-0.8,0.7-1.7l-0.2-3.4c-0.1-1.9-0.5-2.6-1.3-2.6c-0.8,0-1.2,0.7-1.2,1.9v4.2c0,0.9,0.8,1.1,0.8,1.7v0.1
			c0,0.2-0.2,0.4-0.5,0.4h-4.1c-0.3,0-0.5-0.1-0.5-0.4v-0.1c0-0.6,0.8-0.8,0.8-1.7V8.8c0-0.9-1-1-1-1.6V7.1c0-0.2,0.2-0.3,0.5-0.5
			l2.7-1.3c0.5-0.2,0.7,0.1,0.7,0.5v0.9c0.6-1,1.6-1.5,2.7-1.4c1.7,0,3.4,0.9,3.7,4l0.2,3.3C82.8,13.4,83.5,13.7,83.5,14.2
			L83.5,14.2z"/>
		<path id="Path_2754" class="st0" d="M15.6,32.4L15.6,32.4c0,0.3-0.2,0.4-0.5,0.4h-5c-0.3,0-0.4-0.1-0.4-0.4v-0.1
			c0-0.5,1.1-0.8,0.8-1.6l-0.4-1.2H5.3l-0.4,1.2c-0.3,0.9,0.8,1.1,0.8,1.6v0.1c0,0.2-0.2,0.4-0.5,0.4H2.4c-0.3,0-0.5-0.1-0.5-0.4
			v-0.1c0-0.5,0.7-0.6,1.1-1.6l3.6-9.3C6.9,20.7,6,20.1,6,19.6v-0.1c0-0.2,0.2-0.4,0.4-0.4h2.5c0.6,0,1.1,0.3,1.3,0.9l4.4,10.6
			C14.9,31.7,15.6,31.8,15.6,32.4L15.6,32.4z M9.7,28.1l-1.9-5.3l-1.9,5.3L9.7,28.1L9.7,28.1z"/>
		<path id="Path_2755" class="st0" d="M25.4,26.2v8.5c0,0.9,0.8,1.1,0.8,1.7v0.1c0,0.2-0.2,0.4-0.5,0.4h-3.9c-0.3,0-0.5-0.1-0.5-0.4
			v-0.1c0-0.6,0.8-0.8,0.8-1.7v-2.3c-0.6,0.4-1.3,0.6-2,0.6c-2.5,0-4.5-1.9-4.5-4.4c0-0.1,0-0.3,0-0.4c-0.1-2.5,1.9-4.7,4.4-4.8
			c0,0,0.1,0,0.1,0c0.8,0,1.7,0.2,2.3,0.8v-0.1c0-0.4,0.4-0.6,0.9-0.6l2.4,0.3c0.3,0,0.5,0.3,0.5,0.5v0.1
			C26.2,24.9,25.4,25.2,25.4,26.2z M22.1,30.4v-3.7c0-1.4-0.8-2.4-1.7-2.4c-0.9,0-1.5,0.8-1.5,2.4c-0.1,1.6,0.6,5.3,2,5.3
			C21.6,32.1,22.1,31.5,22.1,30.4L22.1,30.4z"/>
		<path id="Path_2756" class="st0" d="M37.6,32.3c0,0.5-0.7,0.6-2,0.6c-1.2,0-1.7-0.3-1.8-1.1c-0.6,0.8-1.7,1.3-2.7,1.2
			c-1.9,0.1-3.5-1.5-3.6-3.4c0-0.1,0-0.3,0-0.4V26c0-0.9-0.8-1.1-0.8-1.6v-0.1c0-0.2,0.2-0.4,0.4-0.4l2.9-0.4c0.6-0.1,0.9,0,0.9,0.4
			l-0.1,5.7c0,1.6,0.4,2.2,1.2,2.2c0.7,0,1.3-0.7,1.3-1.9V26c0-0.9-0.8-1.1-0.8-1.6v-0.1c0-0.2,0.2-0.4,0.4-0.4l2.9-0.4
			c0.6-0.1,0.8,0,0.8,0.4v6.8C36.8,32.2,37.6,31.5,37.6,32.3L37.6,32.3z"/>
		<path id="Path_2757" class="st0" d="M48.5,32.3c0,0.5-1.1,0.6-2.2,0.6c-1.1,0-1.7-0.2-1.9-0.9c-0.6,0.7-1.5,1.1-2.4,1
			c-2,0-3.6-0.9-3.6-2.9c0-1.9,1.6-2.9,3.4-2.9c0.7,0,1.3,0.1,1.9,0.5v-0.1c-0.2-2.3-0.4-3.2-1.4-3.2c-1.3,0-0.8,2.6-2.5,2.6
			c-0.7,0.1-1.3-0.4-1.3-1.1c0,0,0-0.1,0-0.1c0-1.6,1.9-2.2,3.8-2.2c2.3-0.2,4.4,1.5,4.7,3.9l0.4,3.4C47.7,32.1,48.5,31.7,48.5,32.3
			L48.5,32.3z M44.1,30.6L44,29.8c-0.1-1.1-0.6-1.6-1.2-1.6c-0.6,0-1,0.5-1,1.3c0,1.4,0.5,2.5,1.2,2.5C43.7,32,44.1,31.3,44.1,30.6z
			"/>
		<path id="Path_2758" class="st0" d="M57.2,25.3c0,1-0.4,1.8-1.5,1.8c-1.7,0-1-1.8-1.9-1.8c-0.6,0-0.7,1-0.7,1.8v3.6
			c0,0.9,1,1.1,1,1.6v0.1c0,0.2-0.2,0.4-0.5,0.4h-4.1c-0.3,0-0.5-0.1-0.5-0.4v-0.1c0-0.5,0.8-0.8,0.8-1.6v-3.8c0-0.9-0.9-1-0.9-1.5
			v-0.1c0-0.2,0.2-0.4,0.4-0.6l2.7-1.3c0.5-0.2,0.7,0,0.7,0.4v1.4c0.3-1.2,1.4-2,2.6-1.9c1,0,1.8,0.7,1.8,1.7
			C57.2,25.2,57.2,25.2,57.2,25.3L57.2,25.3z"/>
		<path id="Path_2759" class="st0" d="M57.7,32.4L57.7,32.4c0-0.6,0.8-0.9,0.8-1.7v-3.6c0-0.9-0.8-1.1-0.8-1.6v-0.1
			c0-0.2,0.2-0.3,0.4-0.4l2.9-1.4c0.5-0.3,0.9,0,0.9,0.4v6.8c0,0.9,0.9,1.1,0.9,1.7v0.1c0,0.2-0.2,0.4-0.5,0.4h-4.1
			C57.9,32.8,57.7,32.7,57.7,32.4L57.7,32.4z M58,20.6c-0.2-1.2,0.7-2.3,1.9-2.5c1.2-0.2,2.3,0.7,2.5,1.9c0.2,1.2-0.7,2.3-1.9,2.5
			c-0.1,0-0.2,0-0.3,0c-1.1,0.1-2.1-0.7-2.2-1.8C58,20.7,58,20.6,58,20.6L58,20.6z"/>
		<path id="Path_2760" class="st0" d="M74.2,32.3c0,0.5-0.7,0.6-2,0.6c-1.2,0-1.7-0.3-1.8-1.1c-0.6,0.8-1.7,1.3-2.7,1.2
			c-1.9,0.1-3.5-1.5-3.6-3.4c0-0.1,0-0.3,0-0.4V26c0-0.9-0.8-1.1-0.8-1.6v-0.1c0-0.2,0.2-0.4,0.4-0.4l2.9-0.4c0.6-0.1,0.9,0,0.9,0.4
			l-0.1,5.7c0,1.6,0.4,2.2,1.2,2.2c0.7,0,1.3-0.7,1.3-1.9V26c0-0.9-0.8-1.1-0.8-1.6v-0.1c0-0.2,0.2-0.4,0.4-0.4l2.9-0.4
			c0.6-0.1,0.8,0,0.8,0.4v6.8C73.4,32.2,74.2,31.5,74.2,32.3L74.2,32.3z"/>
		<path id="Path_2761" class="st0" d="M91.9,32.4L91.9,32.4c0,0.3-0.2,0.4-0.5,0.4h-3.8c-0.3,0-0.5-0.1-0.5-0.4v-0.1
			c0-0.5,0.7-0.8,0.7-1.7l-0.2-3.4c-0.1-1.9-0.5-2.6-1.3-2.6c-0.8,0-1.2,0.8-1.2,1.8c0,0.3,0.1,0.5,0.1,0.8v3.4
			c0,0.9,0.7,1.1,0.7,1.7v0.1c0,0.2-0.2,0.4-0.5,0.4h-3.8c-0.3,0-0.5-0.1-0.5-0.4v-0.1c0-0.5,0.7-0.8,0.7-1.7v-3.6
			c0-1.6-0.5-2.4-1.3-2.4c-0.9,0-1.3,0.8-1.3,1.8v4.2c0,0.9,0.8,1.1,0.8,1.7v0.1c0,0.2-0.2,0.4-0.5,0.4h-4.1c-0.3,0-0.5-0.1-0.5-0.4
			v-0.1c0-0.5,0.8-0.8,0.8-1.7v-3.8c0-0.9-1-1-1-1.6v-0.1c0-0.2,0.2-0.3,0.5-0.5l2.9-1.3c0.5-0.2,0.7,0.1,0.7,0.5v0.7
			c0.6-0.8,1.5-1.3,2.5-1.2c1.2-0.1,2.4,0.5,3.1,1.6c0.6-1,1.7-1.6,2.8-1.6c1.6,0,3.3,0.9,3.5,4l0.2,3.3
			C91.3,31.6,91.9,31.8,91.9,32.4L91.9,32.4z"/>
	</g>
	<g id="Shark">
		<rect id="Rectangle_1885" x="0.6" y="0.6" class="st1" width="38.9" height="38.9"/>
		<path id="Path_2762" class="st2" d="M37.1,8.3c-0.2,1.1-0.7,2.1-1.5,2.9c0,0,0,0,0,0c-0.2,0.2-0.5,0.5-0.7,0.7l0,0
			c-0.6,0.6-1.2,1.2-1.7,1.9c-1.9,2.3-2.3,3.6-11.7,7.7s-18.4,3.5-20,5.7c-1.6,2.1-0.5,6,1.4,6.4s4.6,0.8,5.5,0.5
			c1-0.3-1.6,2.6-1.6,2.6l-1.7-0.2l-1-0.1c0,0,0,0,0,0l-0.3,0L0.6,35V12.1c10.4-5.8,11.5-4.6,14-5.4c2.6-0.8,10-1.9,12.1-1.6
			S37.6,5.9,37.1,8.3L37.1,8.3z"/>
		<polygon class="st0" points="4.1,36.3 4.1,36.3 4.1,36.3 		"/>
		<path class="st0" d="M4.1,36.3C4.1,36.3,4.1,36.3,4.1,36.3C4.1,36.3,4.1,36.3,4.1,36.3C4.1,36.3,4.1,36.3,4.1,36.3z"/>
		<path class="st0" d="M0,0v40h40V0H0z M1.1,25c1.8-0.2,3.5-0.2,5.3,0c-1.9,0.1-3.6,0.7-5.3,1.6V25z M1.1,35.7c1,0.3,2,0.5,3,0.6
			c-0.1,0-0.2-0.1-0.4-0.1c-0.9-0.3-1.8-0.7-2.6-1.1v-2c1.5,0.9,3.6,1.6,7.1,1.5c-1.1,0.4-2.2,1.1-3,1.9c0,0,0,0,0,0
			c0.7,0.9,1.4,1.7,2.3,2.4H1.1V35.7z M38.9,38.9H9.1c-0.4-1.2-0.5-2.5-0.2-3.7c0,0,3.2-4.7,6.7-6.7c0,0-3.9-0.3-9.5,4.4
			c-2.7,2.3-7.8-3.4-1.7-5.7c1.5-0.5,4.6-1,8.4-2c3.6,1.3,7.1,3,10.3,5.2c-0.6-2.7-1.8-5.2-3.5-7.4c6.4-2.4,12.9-6,15.4-11.1
			c0,0,0,0,0,0c-6.5-1.8-12.9,2.3-12.9,2.3c3.1-0.3,6.2,0.1,9.1,1.3c-3.7,1.5-7.7,2.1-11.8,2c-2.4,0-3.4-4.1-3.4-4.1
			c0.2,2.3,0.9,4.6,2,6.7c-2.5-2-3.5-6.8-3.5-6.8c0.1,2.5,0.8,5,2.1,7.2c-2.4-1.8-3.5-7.2-3.5-7.2c0,5.3,2.2,7.8,2.2,7.8
			c-2.8-1.9-3.7-7.3-3.7-7.3c-0.1,2.7,0.5,5.4,1.9,7.7c-2.9-2.2-3.2-6.8-3.2-6.8c-0.2,1.2-0.2,2.5,0.1,3.7c-3,0.4-6,1-9,1.9v-4.5
			c7.6-4,17.5-6.4,26.3-7.5c0-0.1-0.1-0.1-0.1-0.2c-0.2-0.6,0-1.2,0.6-1.5c0.3-0.1,0.6-0.1,0.8,0.1c-0.4,0.2-0.6,0.7-0.5,1.2
			c0.1,0.2,0.2,0.4,0.4,0.5C29,8.5,29.5,8.4,29.7,8c2.3-0.2,4.1-0.3,6.1-0.4c0.7,0,1.1,0.4,1,1.2c-0.2,0.7-0.5,1.4-0.9,2
			c-0.1,0.1-0.2,0.2-0.3,0.3c0,0,0,0,0,0c0,0,0,0,0,0c1.1-0.8,2.1-1.9,2.8-3c0.5-0.9-0.1-1.4-0.8-1.6c-12.6-3.1-21-2.1-28.9,0
			C6.7,4.3,4,2.8,1.1,2.3V1.1h37.8V38.9z"/>
	</g>
</g>
</svg>
