<svg version="1.1" xmlns="http://www.w3.org/2000/svg" xmlns:xlink="http://www.w3.org/1999/xlink" viewBox="0 0 1280 11" style="enable-background:new 0 0 1280 11;" xml:space="preserve">
	<style type="text/css">
		.st0{fill:#D03D40;}
	</style>
	<path class="st0" d="M1260,11c-5.2,0-7.8-2.6-10.4-5.1c-2.5-2.5-4.9-4.9-9.6-4.9c0,0,0,0,0,0c-4.8,0-7.1,2.4-9.6,4.9c-2.5,2.5-5.1,5.1-10.4,5.1 s-7.8-2.6-10.4-5.1c-2.5-2.5-4.9-4.9-9.6-4.9c0,0,0,0,0,0c-4.8,0-7.1,2.4-9.6,4.9c-2.5,2.5-5.1,5.1-10.4,5.1s-7.8-2.6-10.4-5.1 c-2.5-2.5-4.9-4.9-9.6-4.9c0,0,0,0,0,0c-4.8,0-7.1,2.4-9.6,4.9c-2.5,2.5-5.1,5.1-10.4,5.1s-7.8-2.6-10.4-5.1 c-2.5-2.5-4.9-4.9-9.6-4.9c0,0,0,0,0,0c-4.8,0-7.1,2.4-9.6,4.9c-2.5,2.5-5.1,5.1-10.4,5.1s-7.8-2.6-10.4-5.1 c-2.5-2.5-4.9-4.9-9.6-4.9c0,0,0,0,0,0c-4.8,0-7.1,2.4-9.6,4.9c-2.5,2.5-5.1,5.1-10.4,5.1s-7.8-2.6-10.4-5.1 c-2.5-2.5-4.9-4.9-9.6-4.9c0,0,0,0,0,0c-4.8,0-7.1,2.4-9.6,4.9c-2.5,2.5-5.1,5.1-10.4,5.1s-7.8-2.6-10.4-5.1 c-2.5-2.5-4.9-4.9-9.6-4.9c0,0,0,0,0,0c-4.8,0-7.1,2.4-9.6,4.9c-2.5,2.5-5.1,5.1-10.4,5.1s-7.8-2.6-10.4-5.1 C967.2,3.4,964.8,1,960,1c0,0,0,0,0,0c-4.8,0-7.1,2.4-9.6,4.9c-2.5,2.5-5.1,5.1-10.4,5.1s-7.8-2.6-10.4-5.1C927.2,3.4,924.8,1,920,1 c0,0,0,0,0,0c-4.8,0-7.1,2.4-9.6,4.9c-2.5,2.5-5.1,5.1-10.4,5.1s-7.8-2.6-10.4-5.1C887.2,3.4,884.8,1,880,1c0,0,0,0,0,0 c-4.8,0-7.1,2.4-9.6,4.9c-2.5,2.5-5.1,5.1-10.4,5.1s-7.8-2.6-10.4-5.1C847.2,3.4,844.8,1,840,1c0,0,0,0,0,0c-4.8,0-7.1,2.4-9.6,4.9 c-2.5,2.5-5.1,5.1-10.4,5.1s-7.8-2.6-10.4-5.1C807.2,3.4,804.8,1,800,1c0,0,0,0,0,0c-4.8,0-7.1,2.4-9.6,4.9 c-2.5,2.5-5.1,5.1-10.4,5.1s-7.8-2.6-10.4-5.1C767.2,3.4,764.8,1,760,1c0,0,0,0,0,0c-4.8,0-7.1,2.4-9.6,4.9 c-2.5,2.5-5.1,5.1-10.4,5.1s-7.8-2.6-10.4-5.1C727.2,3.4,724.8,1,720,1c0,0,0,0,0,0c-4.8,0-7.1,2.4-9.6,4.9 c-2.5,2.5-5.1,5.1-10.4,5.1s-7.8-2.6-10.4-5.1C687.2,3.4,684.8,1,680,1c0,0,0,0,0,0c-4.8,0-7.1,2.4-9.6,4.9 c-2.5,2.5-5.1,5.1-10.4,5.1s-7.8-2.6-10.4-5.1C647.2,3.4,644.8,1,640,1c0,0,0,0,0,0c-4.8,0-7.1,2.4-9.6,4.9 c-2.5,2.5-5.1,5.1-10.4,5.1s-7.8-2.6-10.4-5.1C607.2,3.4,604.8,1,600,1c0,0,0,0,0,0c-4.8,0-7.1,2.4-9.6,4.9 c-2.5,2.5-5.1,5.1-10.4,5.1s-7.8-2.6-10.4-5.1C567.2,3.4,564.8,1,560,1c0,0,0,0,0,0c-4.8,0-7.1,2.4-9.6,4.9 c-2.5,2.5-5.1,5.1-10.4,5.1s-7.8-2.6-10.4-5.1C527.2,3.4,524.8,1,520,1c0,0,0,0,0,0c-4.8,0-7.1,2.4-9.6,4.9 c-2.5,2.5-5.1,5.1-10.4,5.1s-7.8-2.6-10.4-5.1C487.2,3.4,484.8,1,480,1c0,0,0,0,0,0c-4.8,0-7.1,2.4-9.6,4.9 c-2.5,2.5-5.1,5.1-10.4,5.1s-7.8-2.6-10.4-5.1C447.2,3.4,444.8,1,440,1c0,0,0,0,0,0c-4.8,0-7.1,2.4-9.6,4.9 c-2.5,2.5-5.1,5.1-10.4,5.1s-7.8-2.6-10.4-5.1C407.2,3.4,404.8,1,400,1c0,0,0,0,0,0c-4.8,0-7.1,2.4-9.6,4.9 c-2.5,2.5-5.1,5.1-10.4,5.1s-7.8-2.6-10.4-5.1C367.2,3.4,364.8,1,360,1c0,0,0,0,0,0c-4.8,0-7.1,2.4-9.6,4.9 c-2.5,2.5-5.1,5.1-10.4,5.1s-7.8-2.6-10.4-5.1C327.2,3.4,324.8,1,320,1c0,0,0,0,0,0c-4.8,0-7.1,2.4-9.6,4.9 c-2.5,2.5-5.1,5.1-10.4,5.1s-7.8-2.6-10.4-5.1C287.2,3.4,284.8,1,280,1c0,0,0,0,0,0c-4.8,0-7.1,2.4-9.6,4.9 c-2.5,2.5-5.1,5.1-10.4,5.1s-7.8-2.6-10.4-5.1C247.2,3.4,244.8,1,240,1c0,0,0,0,0,0c-4.8,0-7.1,2.4-9.6,4.9 c-2.5,2.5-5.1,5.1-10.4,5.1s-7.8-2.6-10.4-5.1C207.2,3.4,204.8,1,200,1c0,0,0,0,0,0c-4.8,0-7.1,2.4-9.6,4.9 c-2.5,2.5-5.1,5.1-10.4,5.1s-7.8-2.6-10.4-5.1C167.2,3.4,164.8,1,160,1c0,0,0,0,0,0c-4.8,0-7.1,2.4-9.6,4.9 c-2.5,2.5-5.1,5.1-10.4,5.1s-7.8-2.6-10.4-5.1C127.2,3.4,124.8,1,120,1c0,0,0,0,0,0c-4.8,0-7.1,2.4-9.6,4.9 c-2.5,2.5-5.1,5.1-10.4,5.1s-7.8-2.6-10.4-5.1C87.2,3.4,84.8,1,80,1c0,0,0,0,0,0c-4.8,0-7.1,2.4-9.6,4.9C67.8,8.4,65.2,11,60,11 s-7.8-2.6-10.4-5.1C47.2,3.4,44.8,1,40,1c0,0,0,0,0,0c-4.8,0-7.1,2.4-9.6,4.9C27.8,8.4,25.2,11,20,11S12.2,8.4,9.6,5.9 C7.2,3.4,4.8,1,0,1V0c5.2,0,7.8,2.6,10.4,5.1C12.8,7.6,15.2,10,20,10s7.2-2.4,9.6-4.9C32.2,2.6,34.8,0,40,0c0,0,0,0,0,0 c5.2,0,7.8,2.6,10.4,5.1C52.8,7.6,55.2,10,60,10s7.2-2.4,9.6-4.9C72.2,2.6,74.8,0,80,0c0,0,0,0,0,0c5.2,0,7.8,2.6,10.4,5.1 c2.5,2.5,4.9,4.9,9.6,4.9s7.2-2.4,9.6-4.9C112.2,2.6,114.8,0,120,0c0,0,0,0,0,0c5.2,0,7.8,2.6,10.4,5.1c2.5,2.5,4.9,4.9,9.6,4.9 s7.2-2.4,9.6-4.9C152.2,2.6,154.8,0,160,0c0,0,0,0,0,0c5.2,0,7.8,2.6,10.4,5.1c2.5,2.5,4.9,4.9,9.6,4.9s7.2-2.4,9.6-4.9 C192.2,2.6,194.8,0,200,0c0,0,0,0,0,0c5.2,0,7.8,2.6,10.4,5.1c2.5,2.5,4.9,4.9,9.6,4.9s7.2-2.4,9.6-4.9C232.2,2.6,234.8,0,240,0 c0,0,0,0,0,0c5.2,0,7.8,2.6,10.4,5.1c2.5,2.5,4.9,4.9,9.6,4.9s7.2-2.4,9.6-4.9C272.2,2.6,274.8,0,280,0c0,0,0,0,0,0 c5.2,0,7.8,2.6,10.4,5.1c2.5,2.5,4.9,4.9,9.6,4.9s7.2-2.4,9.6-4.9C312.2,2.6,314.8,0,320,0c0,0,0,0,0,0c5.2,0,7.8,2.6,10.4,5.1 c2.5,2.5,4.9,4.9,9.6,4.9s7.2-2.4,9.6-4.9C352.2,2.6,354.8,0,360,0c0,0,0,0,0,0c5.2,0,7.8,2.6,10.4,5.1c2.5,2.5,4.9,4.9,9.6,4.9 s7.2-2.4,9.6-4.9C392.2,2.6,394.8,0,400,0c0,0,0,0,0,0c5.2,0,7.8,2.6,10.4,5.1c2.5,2.5,4.9,4.9,9.6,4.9s7.2-2.4,9.6-4.9 C432.2,2.6,434.8,0,440,0c0,0,0,0,0,0c5.2,0,7.8,2.6,10.4,5.1c2.5,2.5,4.9,4.9,9.6,4.9s7.2-2.4,9.6-4.9C472.2,2.6,474.8,0,480,0 c0,0,0,0,0,0c5.2,0,7.8,2.6,10.4,5.1c2.5,2.5,4.9,4.9,9.6,4.9s7.2-2.4,9.6-4.9C512.2,2.6,514.8,0,520,0c0,0,0,0,0,0 c5.2,0,7.8,2.6,10.4,5.1c2.5,2.5,4.9,4.9,9.6,4.9s7.2-2.4,9.6-4.9C552.2,2.6,554.8,0,560,0c0,0,0,0,0,0c5.2,0,7.8,2.6,10.4,5.1 c2.5,2.5,4.9,4.9,9.6,4.9s7.2-2.4,9.6-4.9C592.2,2.6,594.8,0,600,0c0,0,0,0,0,0c5.2,0,7.8,2.6,10.4,5.1c2.5,2.5,4.9,4.9,9.6,4.9 s7.2-2.4,9.6-4.9C632.2,2.6,634.8,0,640,0c0,0,0,0,0,0c5.2,0,7.8,2.6,10.4,5.1c2.5,2.5,4.9,4.9,9.6,4.9s7.2-2.4,9.6-4.9 C672.2,2.6,674.8,0,680,0c0,0,0,0,0,0c5.2,0,7.8,2.6,10.4,5.1c2.5,2.5,4.9,4.9,9.6,4.9s7.2-2.4,9.6-4.9C712.2,2.6,714.8,0,720,0 c0,0,0,0,0,0c5.2,0,7.8,2.6,10.4,5.1c2.5,2.5,4.9,4.9,9.6,4.9s7.2-2.4,9.6-4.9C752.2,2.6,754.8,0,760,0c0,0,0,0,0,0 c5.2,0,7.8,2.6,10.4,5.1c2.5,2.5,4.9,4.9,9.6,4.9s7.2-2.4,9.6-4.9C792.2,2.6,794.8,0,800,0c0,0,0,0,0,0c5.2,0,7.8,2.6,10.4,5.1 c2.5,2.5,4.9,4.9,9.6,4.9s7.2-2.4,9.6-4.9C832.2,2.6,834.8,0,840,0c0,0,0,0,0,0c5.2,0,7.8,2.6,10.4,5.1c2.5,2.5,4.9,4.9,9.6,4.9 s7.2-2.4,9.6-4.9C872.2,2.6,874.8,0,880,0c0,0,0,0,0,0c5.2,0,7.8,2.6,10.4,5.1c2.5,2.5,4.9,4.9,9.6,4.9s7.2-2.4,9.6-4.9 C912.2,2.6,914.8,0,920,0c0,0,0,0,0,0c5.2,0,7.8,2.6,10.4,5.1c2.5,2.5,4.9,4.9,9.6,4.9s7.2-2.4,9.6-4.9C952.2,2.6,954.8,0,960,0 c0,0,0,0,0,0c5.2,0,7.8,2.6,10.4,5.1c2.5,2.5,4.9,4.9,9.6,4.9s7.2-2.4,9.6-4.9c2.5-2.5,5.1-5.1,10.4-5.1c0,0,0,0,0,0 c5.2,0,7.8,2.6,10.4,5.1c2.5,2.5,4.9,4.9,9.6,4.9s7.2-2.4,9.6-4.9c2.5-2.5,5.1-5.1,10.4-5.1c0,0,0,0,0,0c5.2,0,7.8,2.6,10.4,5.1 c2.5,2.5,4.9,4.9,9.6,4.9s7.2-2.4,9.6-4.9c2.5-2.5,5.1-5.1,10.4-5.1c0,0,0,0,0,0c5.2,0,7.8,2.6,10.4,5.1c2.5,2.5,4.9,4.9,9.6,4.9 s7.2-2.4,9.6-4.9c2.5-2.5,5.1-5.1,10.4-5.1c0,0,0,0,0,0c5.2,0,7.8,2.6,10.4,5.1c2.5,2.5,4.9,4.9,9.6,4.9s7.2-2.4,9.6-4.9 c2.5-2.5,5.1-5.1,10.4-5.1c0,0,0,0,0,0c5.2,0,7.8,2.6,10.4,5.1c2.5,2.5,4.9,4.9,9.6,4.9s7.2-2.4,9.6-4.9c2.5-2.5,5.1-5.1,10.4-5.1 c0,0,0,0,0,0c5.2,0,7.8,2.6,10.4,5.1c2.5,2.5,4.9,4.9,9.6,4.9s7.2-2.4,9.6-4.9c2.5-2.5,5.1-5.1,10.4-5.1c0,0,0,0,0,0 c5.2,0,7.8,2.6,10.4,5.1c2.5,2.5,4.9,4.9,9.6,4.9s7.2-2.4,9.6-4.9c2.5-2.5,5.1-5.1,10.4-5.1c0,0,0,0,0,0v1c0,0,0,0,0,0 c-4.8,0-7.1,2.4-9.6,4.9C1267.8,8.4,1265.2,11,1260,11z"/>
</svg>
