<?xml version="1.0" encoding="utf-8"?>
<!-- Generator: Adobe Illustrator 27.4.0, SVG Export Plug-In . SVG Version: 6.00 Build 0)  -->
<svg version="1.1" id="Layer_1" xmlns="http://www.w3.org/2000/svg" xmlns:xlink="http://www.w3.org/1999/xlink" x="0px" y="0px"
	 viewBox="0 0 1440 38" style="enable-background:new 0 0 1440 38;" xml:space="preserve">
<style type="text/css">
	.st0{fill:#5F9950;}
	.st1{fill:#FFFFFF;}
</style>
<path class="st0" d="M1440,35.2V3.5c-21.6-2.1-45.8-3.5-72.1-3.5c-49.4,0-86.9,4.8-126.6,9.8c-44.5,5.7-90.5,11.5-161.7,11.5
	s-120.8-5.4-172.2-10.7C856,5.4,802.8,0,736.9,0s-132,5.4-196.4,10.6c-65.2,5.3-132.6,10.8-199.9,10.8S198.6,15.6,128.8,10
	C83.8,6.4,40.6,2.9,0,1.2v34H1440z"/>
<g>
	<polygon class="st1" points="724.3,9.2 724.3,9.2 724.3,9.2 	"/>
	<path class="st1" d="M1092.5,35.1c-127.2,0-248.8-26-368.2-26c-119.3,0-189.9,26-318.4,26h0c-128.5,0-175.1-26-267.8-26
		C73.1,9.2,23.7,22,0,29.6V38h1440V9.4C1340,11.7,1213.3,35.1,1092.5,35.1z"/>
</g>
</svg>
