<svg xmlns="http://www.w3.org/2000/svg" width="112.628" height="103.754" viewBox="0 0 112.628 103.754">
  <path id="leaf-mask" d="M72.84,254.51a15.357,15.357,0,0,0,4.22-3.56,13.673,13.673,0,0,1,8.32-4.79A15.447,15.447,0,0,0,97.7,235.22a12.317,12.317,0,0,1,5.6-7.19c.31-.18.61-.38.91-.59,4.02-2.84,4.24-7.32,5.8-13.85a25.254,25.254,0,0,1,3.95-8.17,1.3,1.3,0,0,0-.32-1.8,1.352,1.352,0,0,0-.85-.23,25.381,25.381,0,0,1-9.06-.68c-6.45-1.93-10.44-3.97-14.92-1.92-.33.15-.66.32-.97.49a12.312,12.312,0,0,1-9.03,1.24,15.439,15.439,0,0,0-15.65,5.16,13.673,13.673,0,0,1-8.32,4.79,15.431,15.431,0,0,0-12.53,11.77,8.927,8.927,0,0,1-4.05,5.65l-.12.08c-2.98,1.85-8.26,12.74-5.63,19.51-4.89,2.03-10.15,4.06-15.83,6.04l.11,1.76q8.9-3.09,16.5-6.28c4.09,6.28,17.03,7.3,20.23,5.61l.13-.07a8.907,8.907,0,0,1,6.93-.66,15.387,15.387,0,0,0,12.26-1.37" transform="matrix(-0.809, -0.588, 0.588, -0.809, -25.136, 275.31)"/>
</svg>
