<svg xmlns="http://www.w3.org/2000/svg" width="132.762" height="198.631" viewBox="0 0 132.762 198.631">
  <path id="leaf-white" d="M154.152,222.728a34.161,34.161,0,0,0-12.08-.443,10.36,10.36,0,0,0-1.714.443h-7.78c.385-.872.629-1.809-.406-3.631-2.508-4.383-8.853-6.274-13.141-8.06a45.333,45.333,0,0,1-12.856-8.166c-7.7-6.962-12.754-16.551-13-27.011a1.038,1.038,0,0,1,1.94-.439,83.745,83.745,0,0,0,23.162,27.1q3.26,2.466,6.741,4.6c2.553,1.562,5.927,4.107,9.033,4.126,3.937-.841,5.979-9.745,8.169-14.531-23.468-3.147-43.121-20.426-50.9-42.818-.327-.966.86-1.432,1.561-1.1,8.561,4.087,14.693,11.309,21.043,18.127,7.419,7.969,15.845,14.6,26.032,18.688,6.888,3.09,6.943-9.193,6.891-9.245-.966-.412-3.707-1.52-4.9-1.95q-1.744-.621-3.477-1.283c-2.7-1.031-5.378-2.115-8.015-3.282C121.6,169.917,113.083,164.993,106,158.3a51.833,51.833,0,0,1-15.025-24.663,1.018,1.018,0,0,1,1.531-1.068c19.972,12.371,33.279,33.44,56.165,40.92.648-3.839,1.553-7.271,2.361-10.751,1.4-6,.35-5.594-4.721-5.738-24.625-.713-42.233-18.271-54.912-38.93a1,1,0,0,1,1.418-1.3c10.409,7.789,20.019,16.213,31.519,22.333,4.785,2.549,22.827,12.316,27.563,8.381.96-.8,2.357-3.058,1.628-4.38-.617-1.117-1.844-1.044-2.957-.972-.3.02-.593.04-.862.036-21.072-.317-39.5-10.868-52.042-27.758a1,1,0,0,1-.2-.925.988.988,0,0,1,1.231-.688,136.384,136.384,0,0,1,26.284,9.905c8.708,4.36,17.867,10.885,27.76,12.02.4-3.128-.1-8.452-3.574-9.691-3.557-1.26-7.344-1.879-10.912-3.238a77.985,77.985,0,0,1-18.606-10.146c-9.566-7.11-18.109-16.727-20.2-28.823a.951.951,0,0,1,.27-.872.939.939,0,0,1,1.332.028c14.134,15.361,29.778,26.7,49.525,33.46,2.892-7.952-9.23-11.887-14.166-14.776a65.8,65.8,0,0,1-16.259-13.142c-8.381-9.515-13.107-21.9-11.631-34.624a.723.723,0,0,1,.531-.641.708.708,0,0,1,.868.5c6.146,21.925,22.15,35.006,39.5,48.359-3.759-13.73-9.976-23.778-17.418-35.728-7.79-12.512-13.66-25.6-16.211-40.178l0,.014a.946.946,0,0,1,1.415-.99C127.7,32.067,137.312,40.2,142.09,52.775c2.423,6.4,3.765,13.081,5.089,19.775.89,2.882,1.74,5.773,2.525,8.693-1.535-17.2.676-36.21,17.625-44.413.632-.307,1.545.3,1.24,1.028-4.87,11.645-9.813,23.424-12.324,35.855-2.343,11.642-1.735,21.175.129,32.662,3.185-19.263,12.1-35.366,20.711-52.788.419-.854,1.61-.271,1.634.511a80.586,80.586,0,0,1-7.639,37.309c-2.947,6.216-7.252,11.819-9.66,18.29a34.659,34.659,0,0,0-2.467,15.627c6.223-21.582,26.842-34.849,37.929-53.825a.853.853,0,0,1,1.522.715c-3.919,12.874-9.493,26.878-18.446,37.15-4.464,5.129-9.963,9.2-13.613,15.042a38.785,38.785,0,0,0-5.742,18.153c4.964-9.562,12.707-17.209,20.086-24.969l27.423-28.822c.691-.723,1.867.134,1.589,1.012-4.883,15.543-13.24,29.687-23.666,42.15a171.593,171.593,0,0,1-16.449,17.049c-5.694,5.158-12.919,11.223-12.956,19.72,15.575-19.823,39.965-37.3,66.422-29.434.739.221.957,1.457.156,1.769-12.987,5.027-26,10.127-38.227,16.851a123.051,123.051,0,0,0-17.447,11.459,95.286,95.286,0,0,0-7.872,7c-2.054,2.064-6.3,5.611-5.983,9,8.2-8.3,18.712-13.61,29.318-18.22,10.169-4.428,21.185-9.887,32.557-7.47.976.211.74,1.582-.076,1.81a171.153,171.153,0,0,0-35.15,14.337c-9,4.909-18.706,11.041-25.873,18.447-1.552,1.612-2.984,2.67-3.97,4.683a103.331,103.331,0,0,0,63.646-20.061.947.947,0,0,1,1.272,1.4c-9.661,9.966-20.4,19.387-33.442,24.6a55.148,55.148,0,0,1-17.309,4,44.921,44.921,0,0,1-5.568-.3c-6.181-.536-13.976-1.073-15.137,4.594a96.789,96.789,0,0,1,44.124,9.561Z" transform="translate(-90.952 -24.096)" fill="#fff"/>
</svg>
