<?xml version="1.0" encoding="UTF-8"?>
<svg id="Layer_2" data-name="Layer 2" xmlns="http://www.w3.org/2000/svg" viewBox="0 0 80.16 48.49">
  <g id="Layer_1-2" data-name="Layer 1">
    <path d="M80.16,11.98c-.1-.02-.2-.05-.3-.06l-.15-.02c-2.4-.32-4.56-1.6-5.99-3.54-2.57-3.44-6.45-5.65-10.72-6.1-1.84-.2-3.71-.07-5.51.4-3.2.83-6.59.46-9.55-1.02-5.32-2.67-11.7-2.04-16.4,1.61-2.49,1.93-5.62,2.83-8.76,2.52-.36-.04-.72-.05-1.08-.06-4.92-.07-7.73,3.43-12.84,7.79-2.39,1.9-5.1,3.35-8,4.29-.67.24-1.03.97-.8,1.64.1.28.3.53.55.69,2.64,1.53,4.99,3.52,6.93,5.88,4.08,5.35,6.11,9.35,10.94,10.33.36.07.72.13,1.07.17,3.13.35,6.01,1.9,8.03,4.31,3.83,4.56,9.93,6.52,15.69,5.03,3.2-.83,6.59-.46,9.55,1.02,5.6,2.81,12.34,1.96,17.06-2.15,1.81-1.59,4.19-2.38,6.6-2.19h.14c.84.07,2.09-.22,3.52-.78V11.98Z"/>
  </g>
</svg>