<?xml version="1.0" standalone="no"?>
<!DOCTYPE svg PUBLIC "-//W3C//DTD SVG 20010904//EN"
 "http://www.w3.org/TR/2001/REC-SVG-20010904/DTD/svg10.dtd">
<svg version="1.0" xmlns="http://www.w3.org/2000/svg"
 width="500.000000pt" height="500.000000pt" viewBox="0 0 500.000000 500.000000"
 preserveAspectRatio="xMidYMid meet">
<metadata>
Created by potrace 1.14, written by Peter Selinger 2001-2017
</metadata>
<g transform="translate(0.000000,500.000000) scale(0.100000,-0.100000)"
fill="#000000" stroke="none">
<path d="M2408 4995 c-9 -9 3 -320 18 -471 44 -461 151 -875 339 -1319 67
-158 280 -541 307 -553 5 -2 8 -8 8 -13 0 -23 175 -241 290 -363 239 -253 581
-454 858 -507 57 -11 66 -16 91 -53 55 -79 131 -127 236 -148 70 -14 98 -6
132 39 24 31 28 46 28 98 l0 61 55 18 c73 24 115 43 178 83 l52 34 0 242 0
242 -29 -60 c-94 -196 -282 -300 -526 -291 -112 5 -198 23 -347 76 -181 64
-199 88 -51 69 83 -11 94 -11 164 10 153 47 272 136 391 295 121 161 187 215
270 221 62 4 82 -5 108 -48 l20 -32 0 110 0 111 -35 13 c-106 38 -385 293
-666 609 -67 75 -136 153 -153 172 -200 224 -643 781 -941 1183 l-130 176 -73
0 -72 1 16 -24 c21 -33 15 -65 -18 -89 -57 -43 -127 -17 -200 73 l-31 40 -142
0 c-78 0 -144 -2 -147 -5z m402 -354 c130 -57 236 -87 317 -90 31 -1 80 -47
88 -82 16 -71 -45 -124 -145 -124 -128 0 -258 93 -464 333 -10 11 -16 28 -13
37 7 17 17 14 217 -74z m-73 -599 c98 -50 236 -63 563 -52 123 4 141 0 193
-48 32 -31 34 -46 7 -90 -14 -22 -40 -42 -78 -60 -50 -23 -69 -27 -162 -27
-89 0 -119 5 -192 29 -114 37 -227 103 -337 196 -111 94 -109 110 6 52z m1032
-402 c46 -13 89 -56 97 -97 11 -60 -14 -122 -75 -183 -248 -247 -702 -209
-965 81 -82 91 -75 103 39 74 35 -10 103 -16 174 -16 118 0 121 0 336 61 145
41 330 89 345 90 8 0 31 -4 49 -10z m586 -494 c160 -74 152 -236 -20 -375
-135 -110 -265 -151 -474 -152 -258 0 -480 84 -653 249 -76 72 -79 105 -6 63
43 -25 130 -50 193 -54 62 -4 182 16 260 44 56 20 237 110 350 175 136 77 257
94 350 50z"/>
<path d="M3150 4994 c0 -3 46 -64 103 -136 56 -72 145 -186 197 -253 93 -119
290 -363 320 -395 8 -9 38 -43 65 -75 28 -33 57 -67 65 -76 8 -8 44 -49 80
-89 36 -41 72 -81 80 -90 8 -9 42 -45 74 -81 243 -263 634 -642 809 -783 l57
-47 0 125 0 125 -34 6 c-40 8 -96 40 -96 56 0 6 15 32 33 58 19 25 48 71 65
102 l32 56 0 640 0 639 -87 76 c-49 42 -109 92 -136 112 l-47 36 -255 0 c-140
0 -255 -2 -255 -3 0 -2 6 -17 14 -33 93 -193 134 -410 106 -573 -16 -99 -68
-197 -144 -276 -57 -60 -65 -65 -104 -65 -55 0 -98 22 -122 63 -31 51 -25 93
25 188 71 132 95 188 117 274 18 70 20 99 15 225 -4 80 -9 154 -11 165 -2 11
-5 23 -5 28 -1 4 -75 7 -165 7 l-164 0 5 -44 c11 -94 -42 -272 -95 -319 -47
-43 -127 -36 -164 13 -31 42 -25 103 21 212 64 150 80 138 -179 138 -121 0
-220 -3 -220 -6z m1493 -237 c96 -144 128 -204 170 -324 46 -130 61 -215 61
-348 0 -128 -13 -193 -60 -292 -56 -118 -168 -197 -253 -178 -39 8 -103 80
-119 133 -26 86 -10 162 68 332 86 187 117 304 119 453 2 111 -10 164 -60 272
-59 128 -32 110 74 -48z"/>
<path d="M1300 3987 c0 -8 -9 -22 -20 -32 -43 -39 -24 -100 70 -215 20 -25 51
-69 69 -98 30 -47 34 -62 34 -121 0 -52 -6 -81 -27 -126 -14 -31 -26 -62 -26
-69 0 -6 -12 -33 -25 -61 -14 -27 -25 -57 -25 -65 0 -8 -7 -28 -16 -45 -9 -16
-24 -52 -34 -80 -10 -27 -30 -81 -45 -120 -15 -38 -38 -99 -52 -135 -14 -36
-35 -92 -48 -125 -13 -33 -38 -96 -55 -140 -18 -44 -40 -102 -50 -130 -10 -27
-33 -86 -50 -130 -48 -120 -80 -204 -100 -261 -10 -28 -23 -60 -29 -70 -6 -10
-19 -44 -30 -74 -33 -97 -52 -144 -72 -186 -10 -22 -19 -46 -19 -54 0 -8 -9
-32 -19 -54 -11 -23 -26 -59 -35 -81 -8 -22 -26 -70 -40 -107 -15 -38 -38 -97
-51 -133 -14 -36 -36 -93 -49 -127 -13 -35 -28 -74 -34 -88 -6 -14 -28 -68
-47 -120 -99 -259 -115 -296 -168 -367 -40 -54 -182 -193 -197 -193 -6 0 -10
-33 -10 -75 0 -65 2 -75 18 -75 9 0 26 -7 36 -15 17 -13 83 -15 414 -15 270 0
400 4 415 11 52 27 72 91 46 142 -7 12 -54 65 -105 118 -67 70 -96 108 -105
138 -13 44 -7 68 81 311 17 47 38 108 46 135 9 28 27 60 40 73 l25 22 717 0
c592 -1 720 -3 735 -14 10 -8 27 -40 37 -73 10 -32 35 -103 55 -158 20 -55 40
-116 45 -135 5 -19 16 -52 25 -72 34 -82 12 -131 -120 -261 -89 -88 -95 -97
-95 -135 0 -33 6 -45 35 -71 l36 -31 633 0 c619 0 634 0 659 20 30 24 41 65
32 121 -6 35 -24 59 -114 153 -104 109 -164 197 -192 283 -6 21 -18 47 -24 58
-7 11 -18 38 -25 60 -7 22 -19 49 -25 60 -7 11 -18 38 -25 60 -7 22 -19 49
-25 60 -7 11 -18 38 -25 60 -7 22 -19 49 -25 60 -7 11 -18 38 -25 60 -7 22
-19 49 -25 60 -7 11 -18 38 -25 60 -7 22 -16 45 -21 51 -5 6 -16 31 -24 55 -8
24 -22 58 -30 74 -16 33 -44 101 -150 355 -14 33 -36 87 -50 120 -14 33 -36
87 -50 120 -14 33 -36 87 -50 120 -14 33 -36 87 -50 120 -14 33 -36 87 -50
120 -14 33 -36 87 -50 120 -14 33 -36 87 -50 120 -14 33 -37 88 -51 123 -14
34 -34 80 -45 102 -17 37 -31 74 -79 198 -11 27 -23 54 -28 60 -5 7 -15 30
-22 52 -7 22 -21 56 -31 75 -11 19 -19 42 -19 50 0 8 -8 29 -19 45 -10 17 -24
48 -31 70 -7 22 -18 49 -25 60 -6 11 -18 38 -25 60 -7 22 -18 51 -25 65 -7 14
-26 52 -41 85 -32 68 -101 147 -144 165 -17 7 -30 19 -30 26 0 12 -64 14 -380
14 -312 0 -380 -2 -380 -13z m450 -929 c6 -24 19 -63 29 -88 10 -25 31 -79 46
-120 15 -41 36 -95 46 -120 10 -25 27 -70 38 -100 10 -30 31 -86 46 -125 14
-38 33 -90 41 -115 8 -24 23 -63 34 -85 11 -23 20 -47 20 -54 0 -8 11 -39 24
-70 12 -31 29 -72 36 -91 46 -128 144 -388 178 -475 33 -83 34 -92 17 -109
-15 -14 -76 -16 -580 -16 -310 0 -570 3 -579 6 -22 8 -20 38 8 114 13 36 29
81 36 100 7 19 19 51 28 70 8 19 23 60 33 90 10 30 32 93 49 140 17 47 39 110
49 140 10 30 25 71 33 90 9 19 21 51 28 70 7 19 26 71 42 115 16 44 38 105 48
135 22 65 67 187 105 285 14 39 35 97 46 130 23 73 54 125 73 125 9 0 19 -17
26 -42z"/>
<path d="M4935 1721 c-61 -10 -99 -45 -133 -120 -41 -89 -49 -134 -28 -166 25
-37 113 -55 195 -39 l31 7 -2 160 c-2 97 -7 161 -13 162 -5 1 -28 -1 -50 -4z"/>
<path d="M3983 1640 c-53 -25 -194 -177 -224 -243 -34 -75 59 -166 208 -202
67 -16 103 -16 129 2 28 20 94 117 99 146 9 49 -63 264 -96 289 -35 26 -71 29
-116 8z"/>
<path d="M4345 1345 c-47 -21 -77 -59 -78 -99 -1 -47 21 -69 95 -93 96 -32
228 -7 228 44 0 18 -42 83 -71 110 -30 27 -90 53 -121 52 -13 0 -36 -7 -53
-14z"/>
<path d="M4815 1176 c-11 -7 -53 -31 -94 -52 -84 -44 -116 -83 -130 -159 -11
-59 3 -96 52 -135 30 -24 35 -25 172 -22 185 3 179 -3 183 175 2 116 0 135
-16 153 -42 49 -126 69 -167 40z"/>
<path d="M3658 1035 c3 -16 16 -44 29 -63 12 -19 23 -44 23 -54 0 -11 9 -31
20 -45 11 -14 22 -40 26 -59 10 -54 29 -62 66 -28 45 43 58 79 48 140 -5 29
-14 61 -21 72 -18 29 -72 52 -139 59 l-58 6 6 -28z"/>
<path d="M4161 900 c-79 -19 -161 -110 -147 -163 5 -20 65 -66 125 -97 28 -14
110 -6 151 15 51 26 80 98 60 149 -13 34 -42 61 -95 86 -44 21 -45 22 -94 10z"/>
<path d="M4735 576 c-16 -7 -38 -22 -47 -33 -21 -22 -71 -131 -88 -190 -16
-54 -2 -92 49 -130 20 -15 52 -43 72 -63 20 -20 50 -40 67 -43 42 -8 137 8
175 31 l32 18 0 194 0 195 -50 11 c-92 20 -178 24 -210 10z"/>
<path d="M4322 517 c-12 -13 -22 -28 -22 -34 0 -19 -46 -49 -95 -63 -53 -15
-60 -25 -69 -103 -12 -107 34 -158 134 -150 81 6 177 58 205 113 21 40 20 168
0 197 -15 21 -94 63 -120 63 -6 0 -21 -10 -33 -23z"/>
<path d="M3948 20 c-18 -20 -17 -20 39 -20 50 0 55 2 43 14 -27 26 -63 29 -82
6z"/>
</g>
</svg>
