<svg xmlns="http://www.w3.org/2000/svg" width="227.519" height="197.253" viewBox="0 0 227.519 197.253">
  <path id="tier-1-orange" d="M133.346,214.673c-5.08-13.9-6.54-28.17-6.05-42.9.47-14.07.83-25.88-2.78-39.65-8.35,20.24-15.67,39.57-10.03,61.63a.708.708,0,0,1-.5.87.723.723,0,0,1-.78-.29c-7.64-10.28-9.74-23.37-7.24-35.8a65.788,65.788,0,0,1,7.51-19.51c2.83-4.97,11.36-14.44,4.88-19.88-13.72,15.73-21.6,33.37-26.16,53.74a.939.939,0,0,1-1.14.69.95.95,0,0,1-.67-.62c-4.24-11.52-1.65-24.12,3.08-35.06a77.957,77.957,0,0,1,11.04-18.09c2.41-2.96,5.38-5.39,7.83-8.26,2.39-2.81.16-7.67-1.75-10.18-8,5.93-12.67,16.16-18.03,24.29a136.38,136.38,0,0,1-17.81,21.72.987.987,0,0,1-1.41.02,1,1,0,0,1-.29-.9c2.42-20.9,13.1-39.25,31.19-50.06,1.09-.65,2.87-1.1,2.84-2.72-.03-1.51-2.37-2.77-3.6-2.98-6.07-1.04-16.81,16.44-19.68,21.04-6.9,11.05-11.01,23.15-16.13,35.1a1,1,0,0,1-1.88-.42c.65-24.23,7.12-48.24,28.09-61.17,4.32-2.66,5.43-2.83,1.22-7.33-2.44-2.61-4.94-5.13-7.42-8.13-16.08,17.92-17.07,42.82-28.18,63.52a1.013,1.013,0,0,1-1.38.41,1,1,0,0,1-.48-.57,51.831,51.831,0,0,1,.68-28.87c2.79-9.34,7.7-17.86,13.41-25.7,1.7-2.33,3.48-4.61,5.3-6.85q1.17-1.44,2.37-2.85c.82-.97,2.64-3.3,3.27-4.14.02-.07-6.17-10.68-10.59-4.56-6.78,8.63-10.76,18.59-13.2,29.2-2.09,9.08-3.79,18.4-9.16,26.22-.44.64-1.7.83-1.9-.17-4.46-23.28,3.92-48.07,22.67-62.53-4.29-3.05-10.51-9.74-14.34-8.5-2.68,1.57-4.33,5.46-5.76,8.09q-1.95,3.585-3.54,7.35a83.746,83.746,0,0,0-6.51,35.05,1.038,1.038,0,0,1-1.9.59c-5.02-9.18-5.44-20.01-2.25-29.89a45.335,45.335,0,0,1,7.05-13.5c2.82-3.69,7.37-8.5,7.35-13.55-.02-2.93-1.34-3.11-2.39-4.04-14.66-8.33-30.73-13.71-47.67-17.04-1.28-.25.02-4.78,1.3-4.52,16.6,3.28,32.15,10.39,46.75,18.96a.835.835,0,0,1,.15-.04c3.1-.84,5.41.24,8.84-1.03,7.3-2.71,12.99-8.91,18.54-14.38A82.008,82.008,0,0,1,99.676.093c.77-.35,1.88.34,1.36,1.25a96.811,96.811,0,0,1-37.29,36.48c5.19,5.85,15.21-4.18,20.08-6.63A55.139,55.139,0,0,1,100.816,26c13.9-2.01,27.91.78,41.26,4.58a.947.947,0,0,1-.4,1.85,103.333,103.333,0,0,0-65.15,14.45c1.86,1.25,3.63,1.45,5.78,2.07,9.91,2.83,21.38,3.29,31.63,3.04a171.131,171.131,0,0,0,37.61-5.16c.82-.21,1.71.86.97,1.53-8.64,7.78-20.91,8.56-31.93,9.81-11.49,1.31-23.25,1.97-34.5-1.12,1.42,3.09,6.87,4.04,9.68,4.8a95.393,95.393,0,0,0,10.32,2.13,123.1,123.1,0,0,0,20.84,1.2c13.95-.29,27.77-2.38,41.53-4.52.85-.13,1.28,1.05.75,1.61-18.98,20.04-48.84,17.1-72.24,7.72,4.28,7.34,13.57,8.98,21.08,10.6a171.52,171.52,0,0,1,22.77,6.54c15.26,5.58,29.57,13.65,41.57,24.67.68.62.09,1.95-.87,1.67l-38.16-11.25c-10.27-3.03-20.8-5.78-29.88-11.58a38.791,38.791,0,0,0,14.05,12.85c6.08,3.23,12.88,4.01,19.31,6.22,12.89,4.42,24.72,13.76,34.55,22.95a.853.853,0,0,1-.96,1.38c-19.09-10.89-43.58-12.07-59.76-27.65a34.658,34.658,0,0,0,9.95,12.3c5.32,4.4,11.85,7.1,17.51,11.01a80.588,80.588,0,0,1,25.27,28.49c.37.69-.37,1.79-1.16,1.26-16.17-10.78-31.94-20.27-44.33-35.36,4.13,10.88,8.37,19.44,16.22,28.35,8.39,9.51,18.56,17.24,28.6,24.89.63.48.14,1.46-.56,1.51-18.78,1.37-30.2-13.99-37.47-29.65.78,2.92,1.49,5.85,2.16,8.79,2.2,6.46,4.38,12.92,5.48,19.67,2.15,13.28-2.11,25.13-7.28,37.16a.946.946,0,0,1-1.72-.15" transform="translate(227.519 15.019) rotate(94)" fill="#f16122"/>
</svg>
