<?xml version="1.0" encoding="utf-8"?>
<!-- Generator: Adobe Illustrator 27.4.0, SVG Export Plug-In . SVG Version: 6.00 Build 0)  -->
<svg version="1.1" id="b" xmlns="http://www.w3.org/2000/svg" xmlns:xlink="http://www.w3.org/1999/xlink" x="0px" y="0px"
	 viewBox="0 0 1442.2 178" style="enable-background:new 0 0 1442.2 178;" xml:space="preserve">
<style type="text/css">
	.st0{clip-path:url(#SVGID_00000125567483480435696030000002370296652160133301_);}
	.st1{fill:#EE5FA1;}
	.st2{fill:#F29FBB;}
	.st3{fill:#CE3D3E;}
	.st4{fill:#F16324;}
	.st5{fill:#40BEAD;}
	.st6{fill-rule:evenodd;clip-rule:evenodd;fill:#F16324;}
	.st7{fill:#518BC9;}
</style>
<g>
	<defs>
		<rect id="SVGID_1_" width="1442.2" height="178"/>
	</defs>
	<clipPath id="SVGID_00000131336930712565388510000009965684125748236959_">
		<use xlink:href="#SVGID_1_"  style="overflow:visible;"/>
	</clipPath>
	<g style="clip-path:url(#SVGID_00000131336930712565388510000009965684125748236959_);">
		<g>
			<path class="st1" d="M1085.9-11.4c7.4,3.6-3.5,15.6-3.5,21c0,4.6,1.7,8.9,3.9,12.9c-3.5,0.6-7.8-3.5-11-4.4
				c-4.5-1.3-8.5,1.3-12.7,2.7c-4,1.4-2.6,7.9,1.4,6.5c2.2-0.8,4.3-1.8,6.6-2.5c2.9-0.9,5.1,0.5,7.4,2c3.8,2.3,7.8,3.7,11.9,1.6
				c0,0.1,0.1,0.1,0.1,0.2c9.5,14.2,26.1,0.2,38.5,4.5c-6.7,7.3-7.5,17.3-13,25.8c-5.5,8.4-15.5,12.6-24.6,17
				c-3.3-3.5-8.2-6.1-13-6.8c-2.1-0.3-4.2-0.2-6.4,0c-1.6,0.2-4.5,1-6.1,0.5c-4.1-1.4-6,5-2,6.4c2.5,0.9,5.8,0,8.3-0.3
				c4.7-0.5,9.3,0.5,12.8,3.4c-7,4.1-12.7,9.5-15,17.4c-1.6,5.4-0.2,11.9,0.2,17.3c0.2,2.3,0,4.4-0.4,6.4c-8.6-1.8-15.1,3.3-23,6.1
				c-4,1.4-2.6,8,1.4,6.5c6.1-2.1,12.4-7.1,19.1-6.2c-2.7,4.6-6.9,8.4-11.4,12.1c-3.3,2.8,1.2,7.7,4.5,5
				c8.8-7.3,15.6-14.4,16.6-26.2c0.3-4.3-0.3-8.7-0.6-13c4.9,10.6,13.8,20.3,8.9,31.7c-1.7,4,4.7,5.9,6.4,2
				c3.1-7.3,1.7-14.5-1.6-21.4c-3.6-7.7-10.3-15-10-23.9c0-0.5-0.1-0.9-0.2-1.2c3-3.5,7.3-6.1,11.2-8.3c8.5-4.9,17.9-8.3,25.3-14.9
				c0.2-0.2,0.5-0.5,0.7-0.7c0.7,2.5,2,4.8,3.7,7.2c5.2,7.4,5.6,14.8,0.9,22.7c-2.2,3.7,3.4,7.3,5.6,3.6c3.6-5.9,5.1-12.2,4.2-19.1
				c-0.9-7.7-9.8-12.9-8.5-20.8c0.1-0.7,0-1.4-0.2-1.9c1-2.1,1.9-4.4,2.8-6.6c1.4,3.8,2.6,7.5,5.3,11.2c4.8,6.8,20.1,9.3,20.6,18
				c0.2,4.3,6.9,4.6,6.7,0.3c-0.5-8.3-5.6-12-12.7-15.5c-5.9-2.9-11.4-7.5-13.5-14c-0.9-2.9-1.4-6-2.7-8.8c1.3-2.5,2.8-4.9,4.8-7
				c3.9-4,9-6.7,13-10.7c5.1-5,7.4-12,12.9-16.7c2.1-1.8,4.1-3.6,6-5.5c2.5,11.5,7.7,21.3,11.1,32.8c2.8,9.2-2,15.2-3.1,23.7
				c-1.2,8.8,1.3,17.2-0.3,26c-0.7,3.9,0.6,7.9,2.8,11.7c-0.3,0.4-0.5,0.8-0.6,1.4c-1.4,7.5-8.5,9.8-10.6,16.5
				c-3.1,9.9-0.7,21.5-10.4,28.3c-3.5,2.4,1,7.4,4.5,5c6.5-4.5,9.1-11,10.2-18.7c1.2-8.1,2.6-13.7,8.4-19.8c1.8-1.9,2.8-3.9,3.6-6.1
				c1.8,2,3.7,3.7,5.5,5c0.3,0.3,0.7,0.5,1.1,0.8c-3.3,6.5-4.8,13.2-2.6,20.6c1.9,6.4,10.5,14.5,5.7,21.1c-2.6,3.5,3.1,7,5.6,3.6
				c4.2-5.6,2.6-11.6-0.3-17.4c-1.8-3.7-3.9-6.9-5.1-10.9c-1.5-4.9,0.4-9.9,2.8-14.3c0.8,0.1,1.7,0.1,2.6,0
				c3.9-0.4,12.7-5.5,16.2-2.4c3.2,2.8,8.2-1.6,5-4.5c-5.9-5.2-11.7-2.5-18.4-0.4c-1.7,0.5-3.3,0.5-4.8,0.1
				c-0.6-0.4-1.2-0.7-1.9-0.7c-4.3-2.1-7.6-7-10.1-10.6c-3.7-5.4-0.8-14.4-1.5-20.9c-1.6-15.3,6-27,1.5-42.2
				c-3.4-11.5-9-21.3-10.9-33.4c0-0.1-0.1-0.2-0.1-0.3c2.4-2.8,4.7-5.6,7-8.8c2.1-3,4.7-5.6,7.4-8.2c0.9-0.2,1.7-0.9,2.1-2
				c1.5-1.4,3-2.8,4.4-4.3c0.4,0.7,0.9,1.4,1.4,2.1c4.6,6.3,5,12.4,7.8,19.2c5.2,12.7,21.3,16,25.2,29.1c1.2,4.1,7.8,2.7,6.5-1.4
				c-2.8-9.5-9.6-14.4-17.3-20.1c-2.1-1.5-3.6-3.2-4.9-4.9c1.2,0.1,2.5,0,4-0.4c2.6-0.8,4.5-2.7,6.5-4.5c2.5-2.2,7.1-1.2,10.2-1.5
				c4.3-0.3,4.6-7,0.3-6.7c-3.8,0.3-8.4-0.5-11.9,1.3c-2.4,1.2-3.9,3.1-6.1,4.6c-2.8,1.9-5-1.2-6.9-2.8c-0.2-0.2-0.4-0.3-0.6-0.4
				c-0.7-2.3-1.3-4.6-2.1-7c-1.5-4.7-5.5-7.8-7.6-12.1c1.5-2.3,2.7-4.7,3.4-7.6c1.3-5.4-1.2-10.8-1.3-16.2c-0.2-8,50.4-46.5,56-51.1
				c3.3-2.8-1.2-7.7-4.5-5c-0.1,0.1-41.8,28.2-41.9,28.3c-0.8-0.4,39.8-28.4,38.8-27.7c-8.4,5.5-53.6,41.3-55.2,51.2
				c-0.9,5.8-1.3,11.3-1.5,17.1c-0.2,6.1-4.3,9.8-7.1,14.4c-1.7,1.3-3.4,2.7-4.7,4.3c-4.3,5.2-7.4,10.6-12.6,15.1
				c-3.7,3.2-4.4,7.7-8.5,10.7c-4.2,3-6.7,5.9-9.6,10.2c-4.1,6.1-8.5,10.6-14,15.1c-4.8-2.8-9.5-3-15.1-2.3
				c-3.8,0.4-7.6,1.6-11.3,2.3c-8.6,1.7-13-4.4-16.5-11c-4.8-9,2.2-14,3.9-22.3c1-5.1-1.1-9.7-5.6-12
				C1085.7-18.9,1082-13.3,1085.9-11.4L1085.9-11.4z"/>
			<path class="st1" d="M1087.9-174.5c0.2,1.7,0.6,3,1.2,4.2c-2.3-0.6-4.6-1.5-7-3c-8.9-5.5-16.6-10.5-27.3-9.5
				c-4.7,0.4-3.5,7.6,1.1,7.2c14.9-1.3,24.7,13.8,39.7,14c8.1,0.1,14.4-1.9,22.7,0.3c0.9,0.2,1.8,0.5,2.7,0.6
				c-0.9,2-10.7,25.4-15.3,30.6c-0.1,0-0.2,0-0.4,0c-13,2.9-25.2,1.2-38.3,2.3c-17.3,1.5-26.2,13.9-42.4,18.4
				c-6.9,1.9-14.8,8.5-21.9,6.9c-4.7-1.1-11.1-2.5-14.9-6c-0.3-0.7-0.8-1.3-1.5-1.7c-1-1.4-1.6-3-1.8-4.9
				c-0.5-7.8-0.2-14.7-7.8-18.6c-4.2-2.1-6.7,4.7-2.6,6.8c4.5,2.3,2.9,13.3,4,17.5c0.3,1,0.6,1.8,1.1,2.6c-3.5,4.2-7.8,8.1-13.4,8.5
				c-4.5,0.4-8.7-0.4-13.1-0.8c-7.1-0.7-13.8,0.1-17.8,6.7c-2.5,4,3.4,8.3,5.9,4.3c4.7-7.6,16.4-2,23.7-2.7
				c8.5-0.7,14.7-4.9,19.9-10.9c0.4,0.3,0.8,0.5,1.2,0.8c2.1,1.2,4.6,2.5,7.3,3.5c-2,1.6-3.6,3.5-4.8,6.1c-3.9,8.3-9,12-16.8,16.4
				c-7.4,4.2-13,9.5-14.9,17.9c-1.1,4.5,5.8,7.2,6.8,2.6c2.9-12.6,15.8-14.8,24.6-22c6-4.9,5.5-13.1,12.6-17.4
				c0.5-0.3,0.9-0.7,1.2-1.1c4.7,0.8,9.4,0.5,13-1.8c8.4-5.2,17.9-6,26.4-10.8c8.2-4.6,12.4-11.8,22.9-12.7
				c13.1-1.1,25.1,0.2,37.8-1.8c-1.1,2.7-2.2,5.5-3.2,8.3c-2.6,7.5-8.8,12.6-11.9,19.8c-2.4,5.7-3.2,12-5.7,17.6
				c-1.3,2.9-3.1,5.4-5.2,7.7c-3.3-0.2-6.7,0.5-10,0.7c-7.5,0.5-14.3-3.2-19.7-8.1c-6.4-5.8-12.2-9.6-20.8-6.7
				c-4.5,1.5-1.5,8.2,2.9,6.7c9.1-3,17.8,11.6,26.6,13.7c4.9,1.2,9.1,1,13.5,0.9c-1.9,1.8-3.8,3.5-5.6,5.4c-0.7,0-1.4,0.2-2.1,0.6
				c-7.5,4.6-16.4-2.4-24.6-0.3c-7.3,1.9-13.1,6-17.7,11.9c-2.9,3.7,3,8,5.9,4.3c6.1-7.9,13.8-10.5,23.4-8.2
				c3.2,0.8,6.1,1.1,8.9,0.9c-0.1,0.3-0.3,0.6-0.4,1c-3.8,10.2-3.5,21.1-5.1,31.7c-0.7,4.8-1.6,10.3-4,14.7c-0.4,0-0.9,0.1-1.3,0.3
				c-9,3.8-19.1-0.1-28.3-0.6c-8.4-0.5-16.3,0.9-22.5,7c-3.3,3.3,1.2,9,4.6,5.7c9.7-9.5,23.2-4.4,35.9-3.6
				c-4.5,1.4-9.3,2.5-13.5,4.6c-11.7,5.7-16.2,15.5-20.1,27.4c-1.5,4.5,5.4,7.1,6.8,2.6c2-6.2,4.2-11.9,7.8-16.5
				c3.5,6.5,1,14.9,1.3,22c0.2,4.7,7.4,3.5,7.2-1.1c-0.3-9.1,2.2-17.9-3-25.9c1.8-1.2,3.9-2.2,6.3-3c5.7-1.8,12.8-3,17.7-6.8
				c7.1-5.5,10.4-13.5,11.8-22.2c4.4,2.5,7.2,6.8,8.6,11.7c0.8,2.7,1.2,6.4,3.1,8.6c3.1,3.6,8.8-1,5.7-4.6c-1.2-1.4-1.4-4.7-1.9-6.4
				c-0.7-2.3-1.4-4.4-2.5-6.5c-2.5-4.6-7.2-8.5-12.1-10.5c0.9-11,1.1-22.9,7.5-31.9c6.4-9.1,16.3-13.8,21-23.6
				c9.3,10.8,1.7,33.4,20,37.3c0.1,0,0.1,0,0.2,0c-0.5,5,2.5,8.5,6.4,11.5c2.4,1.8,4.7,3.5,5,6.8c0.2,2.6,0,5.1,0.1,7.7
				c0.2,4.7,7.4,3.5,7.2-1.1c-0.2-4.8,0.7-9.8-2.4-14c-2.2-3-8.2-5.7-8.9-9.5c5,0.7,10,0.7,14.7-1.1c5.5-2.2,13.3-18.1,20-12
				c3.5,3.2,7.7-2.8,4.3-5.9c-4.1-3.7-9.7-4-14.4-0.9c-7.8,5-10.1,14.1-21.1,12.9c-8.1-0.9-16.1-3-17.8-12.4
				c-0.7-4.1-1.1-8.4-2.2-12.4c-1.6-6-3.7-10.6-8.4-14.4c2.3-7.4,5.2-13.6,9.7-20.3c3.2-4.7,5.1-8.4,6.6-13.9
				c1.4-5.4,5.7-7.8,7.4-12.9c2.5-7.2,6.7-12.4,10.3-18.9c1.1-2,1.9-4.3,2.5-6.6c1-1.3,1.8-2.7,2.7-4.1l-18.8-13.6c-0.3,0-0.7,0-1,0
				c-2.8,0.2-5.4,0.5-8,0.7c-0.2-0.2-0.4-0.3-0.7-0.4c-2.4-1.2-6.4-2.3-5.6-5.9c0.4-1.6,0.9-3,1.4-4.5l-6.5-4.7
				c0.1,0.8,0,1.6-0.3,2.3C1088.9-180.2,1087.7-177.5,1087.9-174.5L1087.9-174.5z"/>
			<g>
				<path class="st2" d="M1082.1,38.7C1082.1,38.7,1082.1,38.6,1082.1,38.7c1-0.9,1.5-2.2,0.9-3.9c-2.2-5.5-6.8-11.3-12.9-12.3
					c-7-1.1-12.9,6.8-12.3,13.3C1058.9,48.7,1078.5,51.8,1082.1,38.7L1082.1,38.7z M1065.4,34.8c0.1-2.4,2.1-5.7,4.7-4.2
					c2.1,1.2,3.8,3.3,4.9,5.5c-0.2,0.3-0.4,0.7-0.5,1.1C1073.2,41.9,1065.1,39.3,1065.4,34.8L1065.4,34.8z"/>
				<path class="st2" d="M1102.6,21.6c0.9-0.9,1.3-2.2,1-3.7c-1.1-4.3-4.4-8.2-8.6-9.9c2.8-5.6,1.2-12.9-3.3-17.2
					c-3.9-3.7-9.3-4.3-13.4-1.4c0-0.1-0.1-0.2-0.1-0.2c0-0.1-0.1-0.2-0.1-0.3c0-0.1-0.1-0.1-0.1-0.2c-0.2-0.6-0.5-1.1-0.8-1.7
					c-0.5-0.8-1.1-1.3-1.8-1.6c-2.2-1.8-4.9-2.4-7.6-2c0.6-2.8,0.1-5.8-1.3-8.2c1.8-0.7,3.2-1.9,4.3-3.3c2.5,2.2,6.2,2.9,9.6,2.1
					c5.3-1.3,9.3-5.5,10.8-10.6c0.8-0.9,1.2-2.1,0.7-3.6c-0.1-0.2-0.2-0.5-0.3-0.7c3.9,1.6,8.5,1.6,12.2-0.8c1.8,0.3,3.7-0.6,4-2.9
					c0.8-6.1-0.5-14-5.9-17.7c-2.8-1.9-6-2.1-8.9-1.1c2.4-6-0.8-12-7-14.1c-6.4-2.2-14.1,0.8-16.7,7.2c-2.5,6.1-1.3,14,5.5,16.8
					c3.2,1.3,6.2,1.3,9,0.3c-0.3,2-0.1,3.8,0.6,5.5c-2.3-0.8-4.8-0.9-7.3-0.2c-2.3,0.7-4.3,2-5.8,3.7c-0.2-0.2-0.3-0.4-0.5-0.5
					c-2.4-1.8-5.5-2.8-8.5-2.2c-6.4,1.1-12.4,6.3-11.4,13.5c0.3,1.8,1,3.5,2,4.9c-1.8,0.9-3.4,2.3-4.6,4.2
					c-2.9,4.4-3.1,10.5,1.5,13.9c1.9,1.4,4,2.1,6.2,2.2c-2.3,4-2.6,9,1,13.5c4.6,5.7,12.4,5,17.6,0.4c0.3-0.3,0.5-0.5,0.8-0.8
					c1.7,3,4.4,5.3,7.5,6.4c-2,2.4-2.9,5.6-2.3,8.9c1.1,6.1,6,10.3,12.3,10.2C1097.8,30.2,1102.5,26.8,1102.6,21.6L1102.6,21.6z
					 M1062.2-31.6c-1.5,0-3.6-0.7-3.7-2.4c-0.2-2.8,1.4-4.7,4.1-5.3c1.2-0.3,2.2-0.2,3,0.3c-0.2-0.1,0.2,0.3,0.3,0.4
					c0.1,0.3,0.1,0.6,0.1,1c-0.3,0.6-0.5,1.3-0.5,2.1C1065.6-32.9,1064.4-31.6,1062.2-31.6z M1059.9-16.6c-3.5,1.6-8.6,0-5.1-4.1
					c2.8-3.2,6.3-0.5,5.2,3.4C1060-17.1,1059.9-16.8,1059.9-16.6z M1085.1-64c-0.1,0.1-0.1,0.1-0.2,0.2c-1.3,2.2-4.1,4.6-6.8,3.2
					c-2.5-1.2-3.3-3.8-2.1-6.4c1.4-2.9,4-4.4,7.2-3.5c2.4,0.7,3.5,2.3,2.3,4.6C1085.2-65.2,1085.1-64.6,1085.1-64z M1091.5-53
					c1.3-2.1,4.4-5,6.6-2.5c1.5,1.8,2.2,4.4,2.2,6.9c-0.2,0.1-0.4,0.2-0.5,0.3C1097-46.5,1089-48.8,1091.5-53L1091.5-53z
					 M1083.9-39.3c-0.6,2.4-2.1,4.6-4.5,5.5c-1.1,0.4-2.1,0.6-3.1,0.3c-0.3-0.1-0.6-0.4-0.7-0.6C1074-39.2,1081.1-43.1,1083.9-39.3
					L1083.9-39.3z M1069.2,0c-1.5,1.4-4.8,2.6-6.2,0.5c-2.1-3-1.2-5.9,1.9-7.9c2.4-1.6,4.9-2.4,6.4,0.1
					C1072.2-4.7,1071.5-2,1069.2,0L1069.2,0z M1088.5,3.1C1088.5,3.1,1088.5,3.1,1088.5,3.1c-3.6,3.8-9.7-3.3-6.5-6.7
					c1.8-1.9,3.6-1.2,5,0.9C1088.2-1,1088.9,1.1,1088.5,3.1z M1094.9,21.9c0.2-0.2-0.2,0.2-0.4,0.3c-0.3,0.2-1.4,0.5-2.2,0.4
					c-2.4-0.3-4.3-1.5-4.3-4.2c0.1-2.5,1.5-3.9,3.7-3.2c1.7,0.5,2.9,1.7,3.6,3.1c-0.4,0.6-0.7,1.4-0.5,2.4
					C1095,21.5,1095.1,21.5,1094.9,21.9L1094.9,21.9z"/>
				<path class="st2" d="M1083.8,21.4c0.7-0.5,1.2-1.2,1.5-2.2c1.9-7.6-2.8-18.5-12.1-16.9c-6.5,1.1-13.7,7.7-12.5,14.9
					c0.9,5.5,5,10.5,10.6,11.7C1077.3,30.1,1081.6,26.6,1083.8,21.4L1083.8,21.4z M1077.9,16.8c-0.5,0.5-0.9,1.1-1.1,1.8
					c-0.5,1.4-1.2,2.2-2.1,2.7c-0.3,0.1-1.2,0.2-2.3-0.1c-0.5-0.2-1.7-0.9-2.6-1.8c-0.6-0.7-1.3-1.8-1.6-2.9c-0.1-0.7,0-1.8,0.5-2.8
					c0.9-1.5,2.7-2.7,4.4-3.5C1077.1,8.3,1078.2,13.7,1077.9,16.8L1077.9,16.8z"/>
				<path class="st2" d="M1116,10c1.2-0.6,2.1-1.8,2.1-3.4c0.1-5.8-2.9-14.2-9.7-15.1c-6.7-0.9-13,5.4-13.9,11.9
					c-0.8,5.9,2.2,11.8,8.2,13.5C1108.5,18.6,1113.6,15,1116,10L1116,10z M1110.4,4.6c-0.3,0.3-0.6,0.7-0.8,1.2
					c-0.9,2.2-2.8,4.6-4.7,3.8c-1.7-0.7-3.2-2.3-2.7-4.6c0.4-1.8,3-7,5.3-5.8C1109.3,0.2,1110.1,2.4,1110.4,4.6L1110.4,4.6z"/>
				<path class="st2" d="M1055.4,9c4.9-5.3,5.2-12.8,1.4-18.9c-0.4-0.6-0.9-1.1-1.4-1.3c-3.8-3.4-9.6-2.8-13.9,1.4
					c-5.2,5-7.1,12.7-2.5,18.7C1043.1,14.5,1050.9,13.9,1055.4,9L1055.4,9z M1050.5,3c-1.3,1.6-3.5,3.2-4.9,1.8
					c-2.4-2.4-1.8-5.7,0.3-8c1.4-1.6,4-4.1,5-1.4c0.1,0.2,0.2,0.4,0.3,0.5C1052.1-1.8,1052.2,0.9,1050.5,3L1050.5,3z"/>
				<path class="st2" d="M1039,6.2c-0.1-0.4-0.3-0.7-0.5-1c-0.4-3.3-2.2-5.9-4.9-7.4c1.4-1,2.9-2.3,4.2-2.2c3,0.1,4-2.7,3.2-4.9
					c2.3-5.2-0.5-11.3-5.4-14.2c-5.8-3.4-12.5-2-16.3,3.6c-3.8,5.7-3.1,13.9,2.9,17.7c-5.2,2.6-8.2,8.6-6.2,14.6
					C1020.4,25.7,1043.8,19.9,1039,6.2L1039,6.2z M1033.3-11.4c-0.2,0.3-0.3,0.5-0.4,0.8c-1.4,0.9-2.7,2-4.4,2.5
					c-3.4,0.9-4.6-4-3.5-6.3c1.3-2.8,3.6-4.3,6.5-2.6C1033.9-15.7,1034.8-13.7,1033.3-11.4L1033.3-11.4z M1031.5,10.7
					c-0.6,0.6-1.5,1.2-2.7,1.5c-2,0.5-4.6,0.3-5.2-1.6c-1-3,0.3-5.7,3.4-6.4c1.7-0.4,4.1,0.1,4,1.7c-0.1,1.2,0.2,2.3,0.8,3.2
					C1032,9.9,1031.9,10.3,1031.5,10.7L1031.5,10.7z"/>
				<path class="st2" d="M1099.9,37c0.2-5.5-5.1-10.1-10.7-9.5c-6.3,0.7-11.6,7.4-9.6,13.8c1.7,5.5,7.8,7.8,13.1,6.7
					C1098.2,47,1100.5,42.1,1099.9,37L1099.9,37z M1092.1,40C1092.1,40,1092.1,40,1092.1,40c-0.1,0.1-0.2,0.2-0.3,0.3
					c-0.1,0.1-0.2,0.1-0.2,0.2c-0.4,0.1-1,0.3-0.9,0.3c-0.3,0-0.6,0.1-0.8,0.1c-0.1,0-0.2,0-0.2,0c-0.1,0-0.1,0-0.2,0
					c-0.3-0.1-0.7-0.1-1-0.2c0,0,0,0,0,0c-0.2-0.1-0.5-0.2-0.7-0.4c-0.1-0.1-0.3-0.2-0.4-0.3c0,0-0.4-0.6-0.3-0.2
					c0-0.1-0.1-0.6-0.2-0.6c0-0.3,0-0.7-0.1-0.2c0.1-0.9,0.2-1.3,0.7-2.1c0.6-1,1.2-1.4,2.1-1.5c1.1-0.1,1.8,0.2,2.3,0.7
					c0.1,0.1,0.2,0.2,0.2,0.3c0,0.2,0,0.5,0,0.7c0,0.2-0.1,0.5-0.2,0.9C1091.7,38.6,1091.8,39.3,1092.1,40L1092.1,40z"/>
				<path class="st2" d="M1062.3,29.5c1.7-0.9,2.1-2.4,1.7-3.8c1.1-5.1-1.3-11-5.9-13.6c-5.7-3.2-12.1-0.5-14.5,5.4
					c-2.1,5.4-1.5,12.5,3.6,16c2.6,1.8,5.7,1.9,8.5,0.5c1.8-0.9,3.2-2.2,4.7-3.4C1061.2,30.5,1061.8,30.1,1062.3,29.5
					C1062.3,29.6,1062.3,29.5,1062.3,29.5L1062.3,29.5z M1056.3,24.5c-1.7,1.4-3.9,3.2-4.4,2.9c-2-1.1-1.9-4.1-1.4-6.1
					C1052.1,15.6,1057.6,20.3,1056.3,24.5L1056.3,24.5z"/>
			</g>
			<path class="st3" d="M946.8-2.3c0.2,0.5,0.6,0.6,1,0.5c0.4-0.1,0.7-0.3,1-0.4c7.2-2,14.5-2.8,21.9-1.1c1.9,0.4,3.8,0.9,5.5,2
				c-0.5,0.5-1,0.3-1.5,0.3c-5-0.3-9.8,0.5-14.6,2.2c-4,1.4-7.8,3.2-11.5,5.1c-0.4,0.2-0.9,0.4-1.2,0.9c-0.3,0.5-0.3,0.9,0.1,1.3
				c0.4,0.3,0.7,0.2,1.2,0c2.4-1.5,5.1-2.7,7.7-3.8c5.7-2.5,11.6-4.1,17.9-3.9c1.1,0,2.1,0,3.2,0.4c-0.2,0.4-0.4,0.5-0.6,0.5
				c-7.8,2.3-14.5,6.6-20.5,12c-0.9,0.8-1.7,1.6-2.5,2.4c-0.3,0.3-0.6,0.6-0.9,0.9c-0.4,0.5-0.5,1,0,1.5c0.5,0.5,1,0.1,1.4-0.3
				c2.7-2.7,5.5-5.2,8.6-7.4c3.9-2.8,8-5.1,12.5-6.8c0.8-0.3,1.7-0.7,3-0.6c-1.1,1.3-2,2.4-3,3.5c-4.2,4.7-8.4,9.5-12.7,14.2
				c-2.6,2.9-5.2,5.8-7.9,8.6c-1.1,1.2-1.1,1.2-2.7,0.4c-2.9-1.4-6-2-9.2-1.5c-5.2,0.7-10.2,2.2-15.1,4.2c-0.8,0.3-1.5,0.8-2.2,1.3
				c-0.3,0.3-0.5,0.6-0.3,1c0.2,0.5,0.6,0.6,1.1,0.5c0.3-0.1,0.6-0.2,0.8-0.4c4.9-2.4,10.1-3.7,15.4-4.6c2.3-0.4,4.6-0.2,6.9,0.4
				c0.5,0.1,0.9,0.3,1.3,0.5c-0.1,0.2-0.2,0.3-0.3,0.3c-4.6,0.5-8.2,2.9-11.7,5.7c-3.8,3.1-7.3,6.6-11,9.9c-0.3,0.3-0.6,0.6-0.8,1
				c-0.2,0.3-0.1,0.7,0.2,1c0.3,0.3,0.7,0.3,1,0.1c0.6-0.5,1.1-1,1.6-1.4c3.3-3,6.5-6.1,9.9-9c2.3-1.9,4.7-3.6,7.6-4.7
				c1.1-0.4,2.1-0.8,3.3-0.7c-0.1,0.7-0.5,0.8-0.8,1.1c-4.5,3.3-8.4,7.4-12.1,11.6c-1.9,2.2-3.9,4.4-5.8,6.6c-0.4,0.5-0.9,1-1.2,1.6
				c-0.3,0.4-0.2,0.8,0.2,1.1s0.8,0.2,1.2-0.1c0.7-0.7,1.3-1.4,2-2.2c3.5-4.1,7-8.2,10.8-12c2.2-2.2,4.4-4.2,6.9-6
				c0.3-0.2,0.6-0.6,1.2-0.5c0.2,0.7-0.3,1.4-0.5,2c-1.6,3.7-3.8,7-5.9,10.3c-2.4,3.9-5.1,7.6-8.1,11.1c-0.4,0.5-0.8,1.1-1.2,1.6
				c-0.3,0.5-0.3,1.1,0.2,1.5c0.6,0.4,1,0,1.4-0.5c2.5-3.4,5.3-6.7,7.6-10.3c2.4-3.6,4.7-7.3,6.6-11.2c0.4-0.9,0.8-1.7,1.2-2.6
				c0.7,0.2,0.4,0.7,0.4,1.1c0,2.8-0.6,5.6-1.5,8.2c-2.1,6.5-4.9,12.6-7.9,18.7c-0.2,0.4-0.4,0.8-0.5,1.2c-0.1,0.4,0,0.8,0.3,1
				c0.4,0.3,0.8,0.2,1.2-0.1c0.2-0.3,0.5-0.6,0.6-0.9c2.8-6,5.7-12,7.8-18.3c1.2-3.6,1.9-7.3,1.7-11.1c-0.1-1.2-0.1-2.4-1.2-3.3
				c-0.6-0.5-0.2-0.9,0.2-1.4c2.9-3.2,5.9-6.4,8.8-9.6c3.4-3.8,6.7-7.5,10.1-11.3c1.9-2.2,3.9-4.3,5.9-6.7c0.4,0.9,0.1,1.5-0.1,2.1
				c-1.1,4-3,7.7-4.9,11.4c-1.9,3.6-3.8,7.1-5.9,10.5c-0.3,0.5-0.6,1.1-0.8,1.6c-0.2,0.4-0.1,0.9,0.4,1.1c0.4,0.2,0.7,0.1,1-0.2
				c0.3-0.3,0.5-0.7,0.7-1c2.8-5,5.7-9.9,8.2-15.1c1.3-2.8,2.5-5.7,3.2-8.7c0.1-0.3,0.1-0.8,0.5-0.9c0.5,0.6,0.4,1.2,0.5,1.9
				c0.4,3.7-0.3,7.3-1.4,10.8c-1.2,3.8-2.9,7.5-4.6,11.1c-0.2,0.5-0.6,0.9-0.9,1.4c-0.3,0.4-0.5,0.9,0,1.3c0.5,0.3,0.9,0.2,1.3-0.1
				c0.6-0.5,1-1.3,1.3-2c1.4-2.9,2.7-5.9,3.9-8.9c0.8-2,1.4-4,1.8-6.1c0.8-4,0.7-7.9-0.4-11.8c-0.4-1.5-0.1-2.4,0.9-3.4
				c5.7-5.9,11.6-11.6,17.9-17c2.8-2.4,5.7-4.8,8.6-7.1c0.5-0.4,0.9-0.7,1.6-1c0.1,0.9-0.5,1.4-0.8,1.9c-3.7,6-7.9,11.6-12.2,17.1
				c-0.3,0.4-0.7,0.9-1,1.3c-0.3,0.5-0.2,0.9,0.3,1.3c0.5,0.3,0.8,0.1,1.1-0.3c0.2-0.3,0.5-0.6,0.7-0.8c5.2-6.3,9.9-13,14-20.1
				c0.1-0.2,0.3-0.4,0.5-0.7c0.5,0.5,0.2,0.9,0.2,1.4c-0.6,4.9-2.5,9.3-4.8,13.5c-2,3.5-4,7-6,10.5c-0.3,0.5-0.6,1.1-0.5,1.7
				c0,0.4,0.2,0.7,0.6,0.8c0.3,0.1,0.6,0,0.8-0.3c0.1-0.1,0.2-0.3,0.3-0.5c1.9-4,4.4-7.6,6.5-11.4c2-3.7,3.7-7.6,4.5-11.7
				c0.1-0.3,0-0.6,0.4-0.9c0.4,0.3,0.4,0.8,0.4,1.3c0.4,3.6,0.1,7.2-0.6,10.7c-0.9,4.4-2.3,8.7-3.4,13.1c-0.2,0.6-0.3,1.2-0.4,1.8
				c-0.1,0.5,0.2,1,0.7,1.1c0.6,0.2,0.9-0.2,1-0.8c1.5-6,3.6-11.9,4.4-18.1c0.6-4.8,0.4-9.6-1.6-14.2c-0.3-0.7-0.4-1.3,0.4-1.8
				c1.7-1.2,3.4-2.4,5.2-3.5c6.9-4.4,14.3-8.3,22-11c3.9-1.4,7.9-2.5,11.9-3.3c1.8-0.4,3.8-0.8,5.6-0.7c1.8,0.1,3.8-0.5,5.4,0.7
				c1.4,1.1,1.4,3,1.4,4.7c0.1,3.8-0.7,7.4-1.7,11c-1.2,4.3-2.8,8.5-5.4,12.2c-0.3,0.4-0.4,0.9-1.1,1c-0.2-0.3-0.4-0.5-0.5-0.8
				c-1.2-2.2-3.1-3.5-5.5-4.3c-2.9-0.9-5.8-1.2-8.9-0.8c-4.8,0.5-8.9,2.7-12.8,5.5c-4.2,3-8.2,6.4-12.2,9.7
				c-0.2,0.2-0.5,0.4-0.7,0.6c-0.4,0.4-0.6,1-0.2,1.5c0.4,0.5,1,0.4,1.5,0.1c0.5-0.3,0.9-0.7,1.3-1c2.7-2.1,5.3-4.3,8-6.4
				c2.4-1.9,4.8-3.7,7.5-5.2c4-2.2,8.2-3.1,12.7-2.5c1.6,0.2,3.2,0.6,4.7,1.3c1.7,0.8,2.8,2.2,3.4,4.2c-0.5-0.1-0.8-0.1-1-0.1
				c-3.9-1.6-7.9-1.4-11.9-0.4c-4.1,1-7.8,2.9-11.2,5.2c-3.8,2.6-7.5,5.2-11.2,7.9c-0.3,0.2-0.6,0.4-0.8,0.7
				c-0.3,0.3-0.4,0.8-0.1,1.2c0.3,0.4,0.7,0.5,1.1,0.4c0.6-0.2,1.1-0.6,1.6-0.9c3.1-2.2,6.3-4.5,9.4-6.6c3-2.1,6.1-3.8,9.5-5
				c3.3-1.1,6.6-1.8,10.1-1.3c0.7,0.1,1.4,0.2,2.1,0.5c0.2,0.1,0.4,0.3,0.4,0.5c0,0.3-0.2,0.4-0.4,0.5c-0.3,0.1-0.7,0.2-1.1,0.3
				c-3.9,1-7.7,2.4-11.2,4.5c-5.2,3-10.1,6.6-15,10.2c-0.3,0.2-0.7,0.5-0.9,0.9c-0.3,0.4-0.4,0.9,0,1.3c0.3,0.4,0.8,0.4,1.2,0.1
				c0.5-0.3,0.9-0.6,1.4-0.9c3.8-2.8,7.7-5.6,11.7-8.1c3.3-2.2,6.9-3.9,10.7-5.2c0.4-0.1,0.9-0.5,1.4-0.1c-0.1,0.7-0.7,1-1.1,1.4
				c-3,3-6,5.9-9,8.9c-5.4,5.4-10.5,10.9-13.6,18c-0.3,0.7-0.7,0.7-1.3,0.4c-1.7-1-3.6-1.1-5.5-1.1c-6.6,0.3-12.5,2.4-17.6,6.8
				c-3.4,2.9-6.7,6.1-9.9,9.3c-0.3,0.3-0.5,0.5-0.8,0.8c-0.7,0.8-0.9,1.5-0.4,1.9c0.8,0.6,1.4,0.1,1.9-0.4c0.3-0.2,0.5-0.5,0.8-0.8
				c3.2-3.1,6.4-6.2,9.7-9.1c4.1-3.5,8.9-5.5,14.2-6.2c0.7-0.1,1.4-0.2,2.1,0c0,0.2,0,0.2,0,0.3c-0.1,0.1-0.3,0.2-0.5,0.3
				c-4.4,2-8,5-11.2,8.6c-4.1,4.7-7.7,9.8-11.4,14.8c-0.2,0.3-0.4,0.6-0.6,0.9c-0.2,0.5-0.1,1,0.3,1.3c0.5,0.3,0.9,0.2,1.3-0.2
				c0.3-0.3,0.5-0.7,0.8-1c3-4.2,6.1-8.4,9.4-12.4c2.9-3.5,6.1-6.8,10.1-9.1c0.4-0.2,0.8-0.6,1.5-0.5c-1.3,1.6-2.5,3-3.6,4.5
				c-3.8,5.2-6.7,10.9-9.8,16.5c-0.4,0.8-0.8,1.5-1.2,2.2c-0.3,0.5-0.2,1,0.3,1.3c0.5,0.4,1,0.3,1.5-0.2c0.3-0.3,0.5-0.7,0.7-1.1
				c0.8-1.5,1.7-3.1,2.5-4.7c2.6-4.9,5.3-9.6,8.6-14c1-1.4,2-2.9,3.7-3.9c0,0.7-0.4,1.2-0.6,1.6c-1.4,2.6-2.4,5.4-3.3,8.3
				c-1.5,4.9-2.3,9.9-3.2,14.8c-0.1,0.7-0.3,1.4-0.4,2.1c-0.1,0.5,0.2,1,0.7,1.2c0.6,0.2,1.1,0,1.3-0.6c0.2-0.5,0.3-1.1,0.4-1.6
				c0.5-2.8,1-5.5,1.5-8.3c1-4.8,2.2-9.6,4.3-14.1c0.2-0.4,0.3-1,0.9-1.2c0.2,0.4,0.2,0.7,0.1,1c-0.5,2.9-0.7,5.8-0.7,8.7
				c0,3.4,0.1,6.8,0.1,10.2c0.1,6.6-0.9,13-2.9,19.3c-0.6,1.8-0.6,1.8-2.5,1.6c-0.7-0.1-1.3-0.1-2-0.2c-6.9-0.2-13.3,1.5-19.1,5.2
				c-3.6,2.3-7,4.9-10.4,7.4c-0.2,0.1-0.4,0.3-0.6,0.4c-0.4,0.4-0.7,0.9-0.3,1.5c0.4,0.5,0.9,0.5,1.5,0.2c0.4-0.2,0.8-0.6,1.2-0.8
				c3.3-2.4,6.6-4.9,10-7.1c3.9-2.5,8.1-3.9,12.6-4.6c0.6-0.1,1.2-0.3,1.9,0.1c-0.2,0.2-0.3,0.3-0.4,0.3c-0.3,0.1-0.7,0.3-1,0.4
				c-4,1.4-7.6,3.4-10.9,5.9c-3.6,2.7-6.8,6-10,9.1c-0.9,0.9-1,1.5-0.5,2.1c0.5,0.5,1.1,0.3,2-0.6c2-1.9,4-3.9,6.1-5.8
				c4.8-4.4,10.2-7.7,16.5-9.5c0.6-0.2,1.2-0.5,1.9-0.3c-0.1,0.6-0.6,0.7-1,0.9c-1.7,1-3.4,2.1-4.9,3.5c-2.7,2.3-5.2,4.8-7.5,7.5
				c-1.6,1.8-3.1,3.7-4.7,5.6c-0.5,0.6-0.9,1.2-0.3,1.9c0.4,0.5,1.2,0.3,2-0.6c0.5-0.5,1-1.1,1.4-1.7c3.3-4.2,7-8.1,11.1-11.7
				c1.4-1.2,2.8-2.2,4.5-3c0.4,0.7-0.1,1.1-0.3,1.6c-1.6,3.5-3.5,7-5.5,10.4c-2.3,4.1-4.7,8.1-7.1,12.2c-0.3,0.6-0.6,1.1-1.4,0.6
				c-2.6-1.6-5.5-1.4-8.3-0.9c-5,0.8-9.3,3.3-13.1,6.5c-4.1,3.5-7.7,7.4-11.4,11.3c-0.1,0.1-0.3,0.3-0.4,0.4c-0.4,0.5-0.5,1-0.1,1.5
				c0.5,0.5,1,0.4,1.5,0c0.3-0.3,0.6-0.6,0.9-0.9c2.8-2.9,5.6-5.8,8.5-8.6c3.8-3.7,8.1-6.6,13.4-8c2-0.5,4-0.8,6-0.5
				c0.4,0.1,0.9,0,0.9,0.6c-0.2,0.1-0.3,0.2-0.5,0.2c-4.4,0.4-8.1,2.4-11.6,5.1c-5.7,4.4-9.9,10.1-13.8,16c-0.4,0.6-0.8,1.4,0,1.9
				c0.8,0.6,1.3-0.2,1.7-0.8c1.5-2.1,2.9-4.3,4.4-6.3c3.2-4.2,6.8-7.9,11.3-10.8c2.3-1.5,4.7-2.6,7.4-3c0.4-0.1,0.8-0.2,1.1,0.2
				c-0.3,0.7-0.9,0.9-1.4,1.2c-3.5,2.2-6.6,4.8-9.2,8c-3.5,4.1-6.7,8.6-9.6,13.2c-0.5,0.7-0.9,1.4-1.4,2.2c-0.3,0.5-0.6,1.1,0.1,1.6
				c0.7,0.4,1.2,0,1.6-0.4c0.5-0.6,0.9-1.3,1.4-1.9c2.4-3.8,4.9-7.4,7.7-10.9c2-2.5,4.1-4.9,6.5-6.9c0.5-0.4,1-1.1,1.9-1.2
				c-0.1,0.3,0,0.4-0.1,0.6c-1.5,2.8-2.9,5.6-4.7,8.3c-2.6,3.9-5.1,7.9-7.7,11.8c-0.5,0.8-1,1.5-1.5,2.3c-0.3,0.5-0.3,1,0.1,1.3
				c0.4,0.4,0.9,0.3,1.4,0c0.5-0.3,0.8-0.9,1.2-1.4c1.8-2.7,3.4-5.5,5.2-8.2c3.1-4.6,6-9.3,8.4-14.4c0.2-0.5,0.4-1.1,1-1.4
				c0.3,0.5,0.2,0.8,0.1,1.2c-0.4,3.3-1.1,6.6-2.3,9.8c-1.8,4.7-4.4,9-6.9,13.3c-0.5,0.9-1,1.8-1.5,2.7c-0.3,0.5-0.3,1,0.2,1.3
				c0.6,0.4,1,0.1,1.4-0.4c0.2-0.3,0.4-0.6,0.6-0.9c1.3-2.1,2.6-4.3,3.9-6.4c4-6.5,6.5-13.5,6.9-21.2c0-0.3-0.1-0.6,0.5-0.7
				c0.1,0.3,0.2,0.6,0.3,0.8c1,5.9,0.8,11.7-1.8,17.2c-1.7,3.6-3.6,7.1-5.6,10.5c-0.1,0.2-0.3,0.4-0.4,0.6c-0.3,0.5-0.3,1,0.2,1.3
				c0.5,0.4,1,0.2,1.3-0.2c0.4-0.4,0.8-0.9,1.1-1.5c1.3-2.3,2.6-4.7,4-7c3.1-5.3,4.5-11,4-17.2c-0.2-2-0.5-3.9-0.9-6.1
				c0.9,0.4,1.2,1.1,1.5,1.7c0.5,1.2,0.9,2.4,1.1,3.7c1.3,7,1.5,14.1-0.3,21.1c-0.6,2.2-1,4.5-1.8,6.7c-0.2,0.6-0.3,1.2,0.5,1.5
				c0.7,0.3,1.2-0.1,1.5-0.7c0.3-0.5,0.4-1,0.6-1.5c0.6-2.3,1.1-4.6,1.7-6.9c1.6-6.9,1.3-13.8-0.1-20.7c-0.6-3.2-1.7-6.1-4.9-7.7
				c-0.6-0.3-0.6-0.7-0.3-1.2c0.2-0.3,0.3-0.7,0.5-1c3.5-5.9,6.9-11.8,10.2-17.8c0.2-0.3,0.2-0.8,0.9-0.9c-0.2,0.7-0.3,1.3-0.5,1.8
				c-1.4,4.8-3.5,9.3-5.6,13.9c-0.1,0.3-0.4,0.6-0.5,1c-0.2,0.5-0.1,1,0.4,1.3c0.5,0.2,1,0.1,1.3-0.3c0.4-0.5,0.7-1.1,1-1.7
				c0.8-1.7,1.5-3.4,2.3-5.2c2.3-5.3,4.2-10.7,4.3-16.5c0-0.2,0.1-0.2,0.3-0.2c0.1,0.3,0.2,0.5,0.2,0.8c0.1,1,0.3,2.1,0.3,3.1
				c0.6,7.2-0.7,14.2-2,21.2c-0.1,0.4-0.2,0.7-0.2,1.1c-0.1,0.5,0.1,0.9,0.5,1.1c0.5,0.2,0.9,0,1.3-0.4c0.4-0.5,0.5-1.1,0.6-1.7
				c0.7-3.6,1.3-7.2,1.7-10.8c0.6-4.9,0.5-9.7-0.3-14.6c-0.1-0.3-0.3-0.7,0.2-1c1.5,1.5,2.2,3.4,2.7,5.5c0.8,3.3,0.9,6.6,0.7,10
				c-0.2,4-0.6,7.9-1,11.8c-0.1,0.5-0.1,1-0.1,1.5c0,0.5,0.3,0.8,0.8,0.9c0.5,0.1,0.8-0.1,1.1-0.5c0.3-0.5,0.3-1,0.4-1.6
				c0.5-4.7,1-9.5,1.1-14.2c0.1-3.5-0.3-6.9-1.4-10.3c-0.1-0.3-0.3-0.5-0.1-0.8c1.5,1.4,2.7,3.5,3.5,6.3c1.8,6.3,1.4,12.7,0.4,19
				c-0.1,0.4-0.2,0.7-0.2,1.1c-0.1,0.5,0.2,0.8,0.7,1c0.4,0.1,0.7,0,1-0.3c0.6-0.6,0.8-1.4,0.9-2.2c0.6-4.9,0.9-9.7,0.3-14.6
				c-0.6-5-2.4-9.4-6-13.1c-1.2-1.3-2.5-2.5-4.1-3.3c-1.3-0.7-1.4-0.7-0.9-2.1c2.1-6.6,3.1-13.4,3-20.4c-0.1-2.3-0.1-4.6-0.1-7
				c0-4.1,0-8.2,0.9-12.2c0.1-0.4,0-0.9,0.7-1c0.4,0.9,0.7,1.9,0.9,2.9c0.6,2.6,0.7,5.2,0.7,7.8c0,3.9-0.3,7.8-0.6,11.7
				c-0.1,1.4,0.2,2.1,1,2c1.2-0.1,1-1,1.1-1.8c0.5-3.9,0.7-7.8,0.7-11.7c0-4.3-0.4-8.5-2.1-12.5c-0.1-0.2-0.2-0.4-0.3-0.6
				c1.2,0.9,1.4,1.1,2.2,2.9c2.6,6.4,4.1,13,2.9,20c-0.4,2.3-0.6,4.7-1.2,7c-0.1,0.3-0.2,0.6-0.2,0.9c0,0.5,0.2,0.8,0.6,1
				c0.5,0.1,0.9,0,1.1-0.4c0.4-0.5,0.6-1.2,0.7-1.9c2.3-9.7,2-19.1-2.4-28.2c-0.2-0.4-0.6-0.8-0.4-1.3c0.5-0.2,0.8,0.1,1.2,0.3
				c3,1.6,4.7,4.2,5.8,7.2c2.5,6.5,3.3,13.2,3.7,20.1c0,0.2,0,0.5,0,0.7c0,0.7,0.3,1.2,1,1.2c0.7,0,1-0.4,1-1.1
				c0.1-0.5,0.1-1,0.1-1.5c-0.4-5.3-0.8-10.6-2.3-15.7c-0.1-0.4-0.4-0.9-0.2-1.4c0.3,0,0.3,0.2,0.4,0.3c1.6,3.9,2.8,7.8,3.6,11.9
				c0.1,0.6,0.1,1.2,0.2,1.8c0.1,0.5,0.4,0.8,0.8,0.8c0.6,0.1,0.9-0.3,1.1-0.8c0.2-0.8,0.1-1.6,0-2.4c-1.1-5.3-2.6-10.4-5.1-15.2
				c-1.1-2.1-2.5-4.1-4.4-5.5c-2.7-2-5.6-3.4-8.8-4.4c-1.1-0.3-1.2-0.5-0.7-1.5c0.7-1.5,1.5-2.9,2.4-4.3c2.5-3.7,5.4-6.9,8.4-10.1
				c1.2-1.2,2.4-2.6,3.8-3.7c0.2,0.5-0.1,0.8-0.3,1.1c-2,2.9-4.2,5.5-6.4,8.3c-0.7,0.9-1.5,1.8-2.2,2.7c-0.3,0.4-0.4,0.9,0,1.3
				c0.4,0.4,0.9,0.4,1.3,0.1c0.4-0.2,0.7-0.5,1-0.8c1.9-2.3,3.8-4.6,5.6-7c3-3.9,5.8-8,8.2-12.4c0.6-1,1.3-2,2.4-2.6
				c0.3,0.8,0.1,1.5,0.1,2.1c-0.3,2.4-0.9,4.8-1.7,7.1c-1.7,5.1-4.3,9.8-6.8,14.6c-0.7,1.3-1.5,2.7-2.2,4c-0.3,0.5-0.3,1.1,0.2,1.5
				c0.5,0.4,1.1,0.2,1.4-0.3c0.5-0.7,1-1.5,1.5-2.3c1.4-2.7,2.9-5.4,4.3-8.1c2.8-5.4,4.9-11,5.4-17.2c0-0.2,0-0.5,0.4-0.7
				c0.5,0.5,0.5,1.2,0.6,1.8c1,4.8,0.7,9.6-0.2,14.4c-0.7,3.8-1.6,7.6-2.4,11.5c-0.1,0.6-0.3,1.2-0.3,1.8c-0.1,0.7,0.1,1.4,1,1.5
				c0.8,0.1,1-0.6,1.1-1.2c0-0.2,0.1-0.4,0.1-0.5c0.6-3,1.3-6,1.9-8.9c0.7-3.2,1.3-6.5,1.5-9.8c0.2-4.6-0.2-9-2-13.3
				c-0.1-0.2-0.1-0.4,0.1-0.5c0.5,0,0.8,0.3,1.1,0.6c2.3,2.1,4.1,4.5,5.1,7.5c1.3,3.9,1.8,7.8,1.6,11.9c-0.1,4.4-0.4,8.8-0.8,13.1
				c-0.1,0.6-0.2,1.2,0,1.8c0.1,0.5,0.5,0.7,0.9,0.8c0.5,0,0.8-0.2,0.9-0.7c0.1-0.4,0.2-0.8,0.2-1.3c0.4-4.7,0.7-9.4,0.9-14.1
				c0.1-2.9-0.1-5.7-0.7-8.6c-0.8-3.8-2.2-7.3-5-10.2c-0.2-0.3-0.5-0.5-0.5-1c0.6,0.2,1,0.6,1.5,1c2.2,2,3.8,4.5,5.1,7.1
				c2,3.9,3.4,7.9,4.9,12c0.9,2.7,1.8,5.4,2.3,8.3c0.1,0.7,0.3,1.5,1.2,1.5c0.7,0,1-0.6,0.8-1.9c-0.2-1.1-0.4-2.2-0.7-3.2
				c-1.6-5.4-3.4-10.7-5.8-15.8c-1.1-2.5-2.5-4.9-4.2-7c-2-2.4-4.2-4.4-7.4-5.1c-0.1,0-0.2-0.2-0.4-0.4c0.2-0.3,0.3-0.6,0.5-0.8
				c3.9-5.6,6-12,7.2-18.6c0.3-1.8,0.5-3.5,0.5-5.3c0-1.9-0.3-3.9,0.3-5.7c0.2-0.7,1-1.5,0.8-2.2c-0.2-0.8-1.4-1.4-1.9-1.8
				c-0.3-0.2-0.5-0.4-0.9-0.4c-0.6-0.1-0.9,0.4-1.3,0.7c-0.4,0.3-0.9,0.4-1.4,0.6c-1.4,0.5-3,0.4-4.4,0.5
				c-5.6,0.6-11.1,1.9-16.4,3.6c-9.9,3.3-19,8.2-27.6,14.1c-2.2,1.5-2.2,1.5-4.2-0.2c-2.9-2.2-6.2-3.5-9.7-3.9
				c-5.7-0.6-11.4-0.5-17.2,0.2c-0.9,0.1-1.8,0.3-2.6,0.7c-0.5,0.3-1,0.6-0.7,1.3c0.2,0.6,0.8,0.5,1.3,0.4c5.5-1.4,11-1.1,16.6-1
				c3.1,0.1,6.2,0.7,9,2.1c0.5,0.3,1.1,0.4,1.4,1c-0.3,0.4-0.7,0.2-1,0.2c-1.1-0.1-2.2-0.2-3.3-0.3c-7.6-1.4-14.6,0.9-21.5,3.7
				c-1.3,0.5-1.7,1-1.3,1.6c0.6,0.8,1.3,0.4,2,0.1c2.9-1.2,6-2.2,9-3c2-0.6,4.1-0.9,6.1-0.9c0.6,0,1.2-0.2,1.8,0.2
				c-0.2,0.6-0.7,0.5-1.1,0.6c-5.2,1.5-10.4,3.1-15.5,5.1c-1.1,0.4-2.2,1-3.3,1.5c-0.3,0.2-0.6,0.5-0.4,0.9c0.2,0.5,0.6,0.7,1,0.6
				c0.6-0.1,1.2-0.4,1.7-0.6c6.9-2.7,14-5.1,21.3-6.7c1.7-0.4,3.3-0.7,5-0.6c0.1,0.7-0.4,0.6-0.7,0.7c-8.7,2.2-16,7.2-23.1,12.3
				c-0.5,0.4-0.9,0.8-1.2,1.4c-0.2,0.5-0.2,1,0.3,1.3c0.4,0.3,0.8,0,1.1-0.3c4.3-3.8,9.1-6.7,14.1-9.4c1.6-0.9,3.3-1.8,5.1-2.2
				c0.2,0.6-0.2,0.7-0.5,0.9c-8.7,6.8-16.7,14.4-24.4,22.3c-0.6,0.7-1.3,1.3-1.9,2c-0.5,0.5-1,0.6-1.6,0.2c-1.6-0.9-3.2-1.8-4.8-2.6
				c-4.8-2.1-9.8-2.8-15-2.6c-4,0.1-8,0.8-11.9,1.9c-0.7,0.2-1.4,0.4-2,0.9C946.9-3.1,946.7-2.7,946.8-2.3L946.8-2.3z"/>
			<path class="st4" d="M1470.2,83.2c1-4.3,2.5-8,4.1-11.7c0.6-1.4,1-2.8,1.6-4.3c0.9-2.5,0.4-4.7-1.2-6.7c-2.1-2.6-4.4-5.2-6.5-7.8
				c-3.2-4.1-4.8-8.7-4.5-13.9c0-0.8,0-1.6,0-2.4c-0.1-2.3-1-4.1-2.6-5.7c-1.9-1.9-3.3-2-5.4-0.4c-3.1,2.3-6.5,8.8-5,13.9
				c0.9,3.2,2,6.3,3.3,9.3c1.3,2.9,2.4,6,2.6,9.2c0.4,4.7-1,8.8-4.4,12.2c-2.2,2.2-4.7,3.7-7.9,2.9c-3.3-0.8-4.8-3.5-5.6-6.6
				c-0.9-3.4-0.6-6.9,0-10.3c0.1-0.3,0.2-0.7,0.3-1c3-9.4,1.9-8-0.4-16.6c-0.7-2.7-1.9-3.1-4.3-1.8c-1.7,0.9-2.9,2.3-3.9,4
				c-3.8,6.9-4.8,14.1-1.8,21.6c1.7,4.2,3.8,8.3,5.7,12.4c1.9,3.9,2.8,8.1,2.5,12.4c-0.1,2.4-0.5,4.8-1.2,7.1
				c-1.8,6.2-0.6,11.6,3.8,16.3c2,2.1,4.1,3.9,6.3,5.7c7.8,6.5,15.4,13.2,21.9,21.1c5,6,8.8,12.5,10.3,20.3c0.6,3,0.8,6,0.3,9
				c-0.3,1.9-1,3.6-2.1,5.1c-1.5,2.1-3.5,3.2-6.1,3.2c-3.2,0-5.2-1.8-5.8-4.9c-0.4-2-0.2-4.1,0.1-6.1c0.1-0.6,0.2-1.2,0.4-1.8
				c1.5-7.1-0.2-13-6.2-17.6c-2.3-1.8-4.5-3.7-6.9-5.4c-3.2-2.3-7.9,0.8-8.5,4.1c-0.2,1,0.2,1.9,0.7,2.8c0.8,1.4,1.7,2.7,2.6,4.1
				c1.4,2.3,2.7,4.6,3.3,7.3c1.1,4.4-0.8,8.1-4.9,9.8c-4.1,1.6-8.5,0.2-10.7-3.5c-1.2-2-1.7-4.3-1.8-6.6c-0.2-3,0.3-5.8,1.1-8.7
				c1.2-4.1,3-8,4.2-12.1c0.6-1.8,0.9-3.6,0.4-5.5c-0.9-3-2.9-3.8-5.4-1.9c-3.7,2.8-5.8,6.7-7.4,10.9c-1.8,4.9-2.6,10-3.3,15.1
				c-0.4,3.2-1.1,6.3-2.8,9.1c-2.2,3.7-5.4,6.1-9.6,7.1c-3.9,0.9-6.8-0.4-8.7-4c-1.9-3.7-1.8-7.2,0.8-10.5c1-1.3,2.1-2.4,3.2-3.6
				c1.5-1.7,2.9-3.3,4.1-5.3c1.1-1.8,1.7-3.7,1.7-5.8c0.1-2.8,0.3-5.5,0.9-8.2c0.7-3.3,2.3-5.9,4.9-8.1c1.7-1.4,3.4-2.9,4.8-4.6
				c1.6-2,2-3.9,0.8-6.4c-2.3-4.7-2.8-9.5-0.4-14.4c1.5-3,1.5-6-0.5-8.8c-2.1-3.1-3.2-6.5-2.6-10.4c0.3-2-0.6-2.9-2.5-3.5
				c-0.9-0.3-1.8-0.3-2.6-0.1c-5.3,1.1-9.7,7.3-8.9,12.6c0.3,2.1,1,4.2,1.6,6.2c2.2,6.6,1.6,13-1.4,19.2c-1.4,2.8-3.2,5.1-6.1,6.5
				c-1.4,0.7-2.8,1-4.4,0.9c-3.2-0.2-5.1-3.1-3.8-6.1c0.6-1.5,1.5-2.8,2.3-4.2c0.8-1.3,1.7-2.5,2.4-3.9c1.3-2.5,1.4-4.9-0.7-7.1
				c-2.7-2.8-3.6-6.2-3.8-10c-0.2-3.4-1.1-3.9-4.1-2.1c-3.3,2.1-5.3,5.2-6.3,8.9c-0.6,2.2-0.7,4.4-1.3,6.5c-1.9,6.3-7,10-13.6,9.8
				c-2.1-0.1-4.1-0.4-6-1.1c-2.8-0.9-4.2-2.9-4.5-5.8c-0.3-2.6,1-4.4,3-5.8c1.5-1,3.1-1.7,4.8-2.3c3.7-1.3,6.2-3.8,7.8-7.2
				c0.8-1.7,1.4-3.5,2.3-5.1c1.4-2.4,3.2-4.3,5.8-5.4c4.2-1.7,8-4.3,12.3-5.8c3.1-1.1,5.3-3.5,7.2-6.2c1-1.5,1.3-3.1,1.2-4.8
				c-0.1-2-0.1-3.9-0.2-5.9c-0.1-3.4,1-6.4,3.2-9.1c0.8-1,1.5-2,2.3-3c2.5-3.4,4.4-7.1,5.1-11.3c0.6-3.5,1.9-6.6,4.5-9.2
				c1.6-1.5,2.6-3.4,3.1-5.5c0.6-2.7-1.3-4.6-4-3.9c-2.4,0.6-4.6,1.9-6.6,3.4c-5.2,4-9.1,8.9-12,14.8c-2.6,5.4-5,10.8-7.6,16.2
				c-3.5,7-8.7,12.1-15.8,15.3c-6.8,3.1-13.5,6.5-19.8,10.5c-5.2,3.3-9.7,7.3-12.5,12.9c-2.5,4.7-4,9.7-4,15.1
				c0,4.1,1.4,7.6,4.4,10.6c3.7,3.7,7.8,7,12,10.2c4.3,3.4,8.6,6.7,12.6,10.4c5.9,5.5,9.7,12,10.6,20.1c0.4,3.3-0.4,6.2-2.4,8.8
				c-1.6,2.2-3.8,3.5-6.7,2.9c-2.6-0.5-3.9-1.8-4.2-4.5c-0.4-3.1-0.6-6.2-0.9-9.3c-0.1-0.8-0.2-1.6-0.2-2.4
				c-0.1-6.7-3.8-10.9-9.7-13.4c-3.7-1.6-6.8-0.7-9,2.7c-0.9,1.4-1,2.7-0.1,4c0.7,1,1.5,2,2.2,3.1c2.3,3.4,1.9,7.5-1,9.6
				c-3.1,2.2-7.6,1.6-10.1-1.4c-1.9-2.3-2.9-4.9-3.1-7.8c-0.1-2.3,0-4.6,0.5-6.9c0.6-2.3,1.1-4.7,1.6-7c0.7-3.2-0.8-5.5-3.1-7.4
				c-1.1-0.9-2.2-0.6-3.2,0.1c-1.1,0.8-1.9,1.8-2.8,2.9c-1.8,2.2-3.4,4.5-5.5,6.6c-1.2,1.2-2.5,2.3-4,3c-1.8,0.8-2.8,0.4-3.9-1.1
				c-3.5-5-3.1-12.5,1-17.1c1.3-1.5,2.8-2.7,4.4-3.9c2-1.5,4-3,5.8-4.8c1.5-1.4,2.3-3.1,2.4-5.2c0.2-2.5,0.6-4.9,1.1-7.4
				c0.9-4.5,2.7-8.7,5.5-12.3c0.9-1.2,1.8-2.4,2.6-3.7c1.7-2.8,0.2-5.6-3.1-5.9c-1.7-0.1-3.3,0.4-4.8,1.3c-4.2,2.4-7.1,5.9-9.1,10.2
				c-1.1,2.3-2,4.8-3.1,7.1c-2.3,4.8-5.6,8.7-10.5,11c-1.5,0.7-3,1.2-4.6,0.8c-3.1-0.6-4.7-3-4.1-6.1c0.4-2,1.2-3.7,2.4-5.3
				c1.9-2.5,4.1-4.7,6.4-6.8c1.4-1.2,2.8-2.5,3.6-4.3c0.9-2,0.8-2.4-1.3-3.1c-0.8-0.2-1.6-0.4-2.3-0.6c-2.5-0.7-4.5-1.8-4.8-4.7
				c-0.4-2.7,1-5.6,3.4-7c1.6-1,3.5-1.4,5.4-1.5c1.2,0,2.5,0,3.7,0c4.2,0.2,8.1-0.8,11.9-2.6c2.1-1,3.7-2.4,4.8-4.5
				c1.5-2.9,0.7-4.4-2.6-4.6c-1.3-0.1-2.7,0-4,0.2c-3.4,0.4-6.6,1.3-9.8,2.6c-1.6,0.7-3.3,1.4-5,2c-1.9,0.7-3.9,1.1-6,1.2
				c-2.4,0.1-4.5-0.4-5.7-2.6c-1.3-2.2-0.5-4.4,0.6-6.3c1.1-1.9,2.8-3.2,4.6-4.4c8.3-5.2,17.2-7.6,27-5.8c2.4,0.4,4.5,1.6,6.7,2.5
				c5.6,2.5,11.4,4.2,17.3,5.2c6.8,1.2,12.7-1,17.8-5.3c4.4-3.7,7.4-8.4,9.1-13.9c1.3-4-0.4-7.1-4.4-8.3c-3.6-1.1-7.2-1-10.9-0.7
				c-2.2,0.2-4.4,0.5-6.6,1c-9.7,2-19.4,2.5-29.2,1.4c-3.5-0.4-7.1-0.4-10.7-0.2c-5.3,0.4-10.4,1.7-15,4.4
				c-6.5,3.7-12.3,8.4-17.4,14.1c-5.8,6.5-8,14-6.7,22.5c0.3,2.2,0.8,4.4,1.2,6.6c0.8,4.2,1.3,8.5,0.9,12.8c-0.6,5.4-3.3,9.1-8.4,11
				c-2,0.7-4,0.9-5.9-0.4c-1.9-1.3-2.6-3.1-1.8-5.3c0.5-1.5,1.3-2.8,2.1-4c2.2-3.2,2-6.2-0.2-9.4c-4.8-6.9-6.6-14.8-6.9-23
				c-0.4-8.6,3.2-15.4,10.9-19.7c2.4-1.3,4.9-2.6,7.3-4c1.7-0.9,3.3-2.1,4.6-3.6c0.9-1,1.5-2.1,0.9-3.4c-0.6-1.2-1.6-1.9-3-2
				c-5-0.5-9.6,0.6-13.8,3.3c-6.3,4.1-10.3,9.7-10.3,17.6c0,4.6-0.4,9.3-2.1,13.7c-0.7,1.9-1.8,3.7-3.3,5.1c-2.3,2.1-5,2.7-7.9,1.3
				c-2.8-1.4-4.2-3.8-4.1-6.9c0-2.8,1.2-5.2,3-7.2c1-1.1,2.1-2.2,3.1-3.3c2.2-2.4,2.2-3.6,0.2-6.1c-1.1-1.4-2.3-2.8-3.4-4.1
				c-5.8-6.8-2.9-17.3,2.1-21.6c0.5-0.4,1-0.8,1.5-1.1c5.1-3.2,9.1-1.7,10.9,4.1c0.1,0.4,0.2,0.9,0.3,1.3c0.8,2.7,1.5,3.1,3.9,1.7
				c1.5-0.9,2.8-1.9,3.8-3.4c1.8-2.6,2.2-5.4,0.7-8.3c-2.2-4.2-5.9-6.9-9.7-9.3c-1.5-0.9-3.2-1.6-4.7-2.5c-3.2-1.9-3.8-4.3-1.8-7.4
				c0.7-1.1,1.5-2,2.5-2.8c4.7-3.8,10-5.3,16-4.8c5.1,0.5,7.8,3.6,8,8.7c0.1,2.3,0,4.7-0.3,6.9c-1,6.7,2.1,10.4,8.2,12.9
				c3.9,1.6,10.3,3.6,14.2,1.2c2.6-1.6,2.7-3.7,1.9-6.3c-1.3-4.2-3.4-7.9-2.2-12.4c1-3.6,4-6.6,4.7-10.3c0.5-2.6-0.1-5.3-0.7-8
				s-1.1-5.4-0.3-7.9c2.5-8.4,11.2-4.1,12,2.7c0.4,3.8-0.8,7.6-2.2,11.2s-2.8,7.3-2.6,11.1c0.1,3,1.4,6,3.8,7.8
				c2.4,1.9,5.5,1.7,7.9,3.6c4.1,3.2,8.5,5.8,13.3,7.9c5.5,2.4,11,3,16.4-0.1c0.8-0.4,1.5-0.9,2.3-1.2c0.5-0.2,1.2-0.3,1.6-0.7
				c0.9-1.2-0.5-3.2-1.5-3.8c-1.5-1-3.3-1.1-5-1.5c-1.7-0.5-3.5-1.5-3.8-3.3c-0.3-1.8,1.2-3.5,1.8-5.2c1.1-2.9-0.7-6.5-3.6-7.5
				c-2.4-0.8-5.1,0-7.6-0.4c-2.1-0.4-3.9-1.7-5.4-3.2c-2-2.1-3.6-4.6-4.1-7.5c-0.5-2.8,0.3-6,2.4-7.9s5.5-2.6,7.9-1.1
				c2.9,1.8,3.7,5.7,5.9,8.4c1.6,1.8,3.9,3,6.3,3.1c1.7,0.1,3.8-0.6,4.1-2.3c0.2-1-0.2-1.9-0.6-2.9c-0.9-2.1-1.5-4.3-1.9-6.5
				c-0.3-1.5-0.4-2.9-0.1-4.4c0.3-1.4,1.1-2.8,2.3-3.6c1.8-1.1,4.2-0.7,6.3-0.1c3.5,1,7.1,2.2,9.8,4.6s4.7,6,4.3,9.6
				c-0.5,3.8-3.3,6.8-6.2,9.3s-6,5.1-7.3,8.7c-0.9,2.5-0.8,5.4,0.3,7.9c0.8,1.8,2.2,3.4,3.8,4.5c1.7,1.1,3.4,0.1,5.3-0.2
				c4.4-0.8,8.1,0.3,11.3,3.2c1.3,1.2,2.7,2.3,4.3,3.1c2.1,1.1,4.3,1.6,6.7,1.5c2.5-0.1,4.2-1.2,5.1-3.6c1.3-3.4,1.5-6.7-0.9-9.9
				c-1-1.3-1.9-2.8-2.4-4.4c-1.2-4.3,0.1-7.6,3.9-9.7c1.7-0.9,3.5-1.5,5.3-1.9c1.2-0.2,3.2-0.2,4.2-0.9c0.6-0.4,1-1.3,0.8-2.1
				c-0.3-1.1-1.6-1.8-2.7-1.8c-1.2,0-2.3,0.5-3.4,0.9c-2.6,0.8-5.4,1-7.9,0c-2.5-0.9-4.7-3-5.4-5.6s0-5.6,2.1-7.3
				c2.4-2,6-1.9,8.9-0.8c2.9,1.1,5.5,3,8.3,4.3c2.8,1.4,6.1,2.2,9,1c0.7-0.3,1.4-0.7,1.5-1.4c0.2-0.7-0.3-1.5-0.9-1.9
				s-1.3-0.7-2-0.9c-3.2-1.3-5.7-4.2-6.4-7.5c-0.4-1.8-0.3-3.9,1.2-5c1.5-1.2,3.8-0.7,5.6,0c3.2,1.1,6.4,2.5,8.7,5
				c1.5,1.6,2.6,3.7,3.9,5.5s2.9,3.6,5,4.4c1.5,0.5,4.2,0.5,5.3-1c0.9-1.3-0.1-4.5-0.3-6c-0.4-2.6-0.2-5.3,0.9-7.7
				c1.1-2.4,2.8-3.1,4.7-4.7c4-3.2,7.4-7.2,10-11.6c0.8-1.4,1.7-2.9,3.2-3.5c1-0.4,2.1-0.2,3.1-0.1c7.1,1,14.1,2.4,21,4.3
				c2,0.6,4.2,1.2,5.7,2.6c1.9,1.7,2.4,4.6,2.1,7.1c-0.8,6.2-2.9,12.6-0.3,18.7c1.5,3.5,3.8,6.7,6.4,9.5c2.5,2.7,4.8,5.5,7.3,8.2
				c1.8,2,3.5,4,5.6,5.7c3.3,2.8,6.9,4.6,11.4,4.5c3.3,0,6.6,0.6,9.7,1.7c3.8,1.3,6.6,3.6,7.6,7.6c1.6,5.8,5.2,9.6,10.9,11.6
				c1.5,0.5,2.9,1.3,4.2,2.2c3,2.2,4.5,5.2,4,8.8c-0.8,5.8-3.8,10.1-9.2,12.6c-1.4,0.7-2.9,1-4.4,1c-3,0.1-5.4-1.1-6.8-3.9
				c-1.2-2.3-1.8-4.9-1.6-7.5c0.5-4.4-1.5-8.1-3.8-11.4c-2.4-3.3-7-4.7-11.4-3.4c-2,0.6-2.8,2.4-3.1,4.3c-0.3,1.6-0.3,3.2-0.4,4.8
				c-0.1,1.8-0.1,3.6-0.6,5.3c-0.3,0.9-0.5,1.9-0.9,2.8c-1.5,3.4-4.2,5.2-7.2,4.8c-2.7-0.4-5-3-5.5-6.5c-0.6-3.9,0.4-7.6,1.1-11.4
				c0.2-0.8,0.4-1.5,0.6-2.3c1.6-6.3-0.3-11.6-4.6-16.2c-1.9-2-3.4-2.1-5.7-0.6c-0.7,0.4-1.3,0.9-1.8,1.5c-4.8,5.4-8,11.6-9,18.8
				c-0.6,4.7,0.5,9.2,2.8,13.4c2.2,3.9,4.9,7.5,8.2,10.4c4.8,4.2,9.9,7.9,15.2,11.3c6,3.9,11.5,8.4,15.9,14.1
				c2.6,3.4,4.5,7,5.5,11.2c1.1,4.4,0.7,8.7-0.8,12.9c-0.9,2.4-2.3,4.4-4.4,5.9c-4.5,3.4-10.6,2-13.1-3.1c-1.2-2.3-1.7-4.9-2-7.4
				c-0.3-2.7-0.5-5.5-0.6-8.3c-0.2-4.2-2-7.5-5.1-10.3c-1.8-1.6-3.7-3.1-5.9-4.1c-2.6-1.3-4.3-0.9-6.1,1.4c-1.8,2.4-2.6,5-2.5,8
				c0.1,3.8,0.6,7.5,1.3,11.1c0.5,2.8,0.8,5.6,0.5,8.5c-0.4,3.5-1.8,6.5-5,8.3c-3.4,1.9-6.9,1.1-9.2-2c-1.4-1.9-1.9-4-2.1-6.2
				c-0.3-4.7,0.5-9.2,1.5-13.8C1469.8,84.7,1470.1,83.8,1470.2,83.2L1470.2,83.2z"/>
			<path class="st5" d="M1119.1,54.2c0.4,0.4,0.9,0.4,1.4,0.1c0.3-0.2,0.6-0.6,1-0.9c6.9-5.4,14.5-9.5,23.3-10.9
				c2.2-0.4,4.5-0.7,6.8-0.3c-0.3,0.8-0.9,0.8-1.5,0.9c-5.6,1.9-10.4,5-14.9,8.8c-3.7,3.3-7,6.9-10.3,10.7c-0.4,0.4-0.8,0.9-0.9,1.5
				c-0.1,0.6,0,1.2,0.7,1.4c0.6,0.2,0.9-0.1,1.2-0.5c2-2.7,4.3-5.1,6.7-7.6c5.1-5.3,10.8-9.6,17.7-12.1c1.2-0.4,2.3-0.9,3.6-1
				c0,0.5-0.2,0.7-0.4,0.9c-7.5,5.9-12.8,13.6-17,22.1c-0.6,1.2-1.1,2.5-1.7,3.7c-0.2,0.5-0.4,0.9-0.5,1.4c-0.2,0.7-0.1,1.3,0.6,1.6
				c0.8,0.3,1.1-0.3,1.4-0.9c1.7-4.1,3.7-8.1,6-11.8c2.9-4.8,6.5-9.1,10.6-12.9c0.7-0.7,1.5-1.5,2.9-2c-0.6,1.9-1.1,3.5-1.7,5.1
				c-2.5,7-5,14-7.5,21c-1.5,4.3-3.1,8.6-4.7,12.9c-0.7,1.8-0.7,1.8-2.8,1.6c-3.8-0.3-7.4,0.5-10.7,2.4c-5.4,3.1-10.2,6.9-14.6,11.2
				c-0.7,0.7-1.3,1.5-1.8,2.4c-0.2,0.4-0.3,0.8,0.1,1.2c0.4,0.4,0.9,0.4,1.4,0c0.3-0.2,0.5-0.5,0.8-0.8c4.2-4.8,9.3-8.5,14.6-11.9
				c2.3-1.5,4.9-2.3,7.7-2.6c0.5-0.1,1.1,0,1.7,0c-0.1,0.3-0.1,0.5-0.1,0.5c-4.7,2.6-7.6,6.8-10.1,11.4c-2.8,5.1-5,10.4-7.5,15.7
				c-0.2,0.4-0.3,0.9-0.4,1.4c-0.1,0.5,0.2,0.8,0.6,1c0.5,0.2,0.9,0.1,1.1-0.4c0.4-0.7,0.8-1.5,1.1-2.3c2.2-4.7,4.3-9.5,6.8-14.1
				c1.7-3.1,3.5-6.1,6.1-8.5c1-0.9,2-1.8,3.3-2.3c0.2,0.7-0.2,1.1-0.4,1.5c-3.4,5.7-5.8,11.8-8,18c-1.1,3.2-2.2,6.5-3.3,9.7
				c-0.3,0.7-0.5,1.5-0.6,2.3c-0.1,0.5,0.1,1,0.7,1.2c0.5,0.2,1-0.1,1.2-0.6c0.4-1.1,0.8-2.1,1.2-3.2c2-6,4-11.9,6.4-17.8
				c1.4-3.3,2.9-6.5,4.8-9.6c0.3-0.4,0.4-0.9,1.1-1.1c0.5,0.7,0.3,1.6,0.3,2.4c-0.1,4.7-1,9.2-1.8,13.8c-0.9,5.3-2.2,10.5-3.8,15.6
				c-0.2,0.7-0.4,1.5-0.5,2.3c-0.1,0.7,0.1,1.4,0.9,1.5c0.8,0.2,1.1-0.5,1.3-1.1c1.2-4.9,2.8-9.6,3.7-14.6c1-5,1.9-10,2.2-15.1
				c0.1-1.1,0.1-2.3,0.2-3.4c0.8,0,0.8,0.6,1,1c1.2,3.1,1.8,6.3,2,9.6c0.6,7.9,0.2,15.9-0.3,23.8c0,0.5-0.1,1-0.1,1.5
				c0,0.5,0.3,0.8,0.8,0.9c0.5,0.1,1-0.1,1.2-0.7c0.2-0.4,0.2-0.8,0.3-1.2c0.4-7.8,0.9-15.6,0.4-23.4c-0.3-4.5-1.1-8.8-3.1-12.9
				c-0.6-1.3-1.2-2.6-2.8-3.1c-0.8-0.3-0.7-0.9-0.4-1.6c1.8-4.8,3.6-9.5,5.3-14.3c2-5.6,4-11.2,6-16.8c1.1-3.2,2.3-6.4,3.5-9.8
				c0.9,0.8,0.7,1.6,0.8,2.3c0.6,4.9,0.2,9.7-0.3,14.6c-0.4,4.7-1,9.4-1.7,14.1c-0.1,0.7-0.2,1.4-0.2,2.1c0,0.6,0.3,1,0.9,1
				c0.5,0,0.8-0.2,1-0.6c0.2-0.5,0.3-1,0.4-1.5c0.8-6.7,1.8-13.3,2.2-20c0.2-3.7,0.1-7.3-0.4-10.9c-0.1-0.4-0.3-0.8,0.1-1.2
				c0.8,0.4,1,1.2,1.3,1.8c2.1,3.9,2.9,8,3.3,12.4c0.3,4.7,0.1,9.4-0.1,14.1c0,0.6-0.2,1.3-0.4,1.9c-0.2,0.6-0.1,1.2,0.6,1.4
				c0.6,0.2,1.1-0.1,1.4-0.7c0.4-0.9,0.5-1.8,0.6-2.7c0.2-3.8,0.3-7.6,0.2-11.4c0-2.5-0.3-5-0.8-7.5c-0.9-4.7-2.7-8.9-5.7-12.6
				c-1.1-1.4-1.1-2.6-0.5-4.1c3.6-9,7.5-17.8,11.8-26.4c2-3.9,4.1-7.7,6.2-11.5c0.3-0.6,0.7-1.2,1.3-1.8c0.5,0.9,0.1,1.7,0,2.4
				c-1.4,8.1-3.5,16.1-5.7,24c-0.2,0.6-0.3,1.2-0.4,1.9c-0.1,0.6,0.2,1.1,0.9,1.3c0.6,0.1,0.9-0.3,1.1-0.8c0.1-0.4,0.3-0.8,0.4-1.2
				c2.8-9.2,4.9-18.5,6.3-28c0-0.3,0.1-0.5,0.2-0.9c0.7,0.3,0.7,0.9,0.8,1.4c1.5,5.6,1.4,11.2,0.7,16.8c-0.6,4.7-1.2,9.4-1.9,14
				c-0.1,0.7-0.2,1.4,0.2,2.1c0.2,0.4,0.6,0.6,1.1,0.6c0.4-0.1,0.6-0.3,0.7-0.7c0.1-0.2,0.1-0.4,0.1-0.6c0.3-5.1,1.4-10.2,2-15.3
				c0.5-4.9,0.6-9.8-0.3-14.7c-0.1-0.3-0.2-0.7,0.1-1.1c0.6,0.2,0.8,0.7,1,1.2c2,3.8,3.3,7.8,4.1,11.9c1,5.2,1.4,10.5,2.1,15.7
				c0.1,0.7,0.2,1.4,0.4,2.1c0.2,0.6,0.6,1,1.3,0.9c0.7-0.1,0.9-0.7,0.8-1.3c-1.1-7.2-1.4-14.5-3.3-21.6c-1.5-5.5-3.9-10.6-8-14.7
				c-0.7-0.7-1-1.2-0.4-2.2c1.3-2.1,2.7-4.1,4.1-6.1c5.6-7.9,11.8-15.3,19.1-21.7c3.6-3.2,7.5-6.2,11.5-8.9c1.8-1.2,3.7-2.6,5.8-3.2
				c2.1-0.7,3.9-2.2,6.2-1.6c2.1,0.5,2.9,2.7,3.6,4.4c1.8,4,2.5,8.3,3,12.7c0.6,5.2,0.7,10.4-0.4,15.6c-0.1,0.5-0.1,1.1-0.7,1.5
				c-0.3-0.2-0.6-0.4-0.9-0.6c-2.3-1.8-4.9-2.4-7.8-2.2c-3.6,0.3-6.9,1.3-10,3c-5,2.7-8.5,6.9-11.5,11.6c-3.2,5.2-6,10.6-8.9,15.9
				c-0.2,0.3-0.3,0.6-0.4,1c-0.2,0.7-0.3,1.3,0.5,1.7c0.7,0.4,1.3,0,1.6-0.6c0.4-0.5,0.7-1.1,1-1.7c1.9-3.5,3.8-7,5.8-10.5
				c1.7-3.1,3.6-6.2,5.9-9c3.3-4.2,7.5-7,12.7-8.4c1.9-0.5,3.8-0.8,5.7-0.7c2.2,0.2,4,1.1,5.5,3.1c-0.6,0.2-0.9,0.3-1.1,0.3
				c-4.9,0-9.2,2-13.1,4.8c-4,2.9-7.2,6.6-9.9,10.6c-3,4.5-5.8,9-8.7,13.5c-0.2,0.4-0.4,0.7-0.6,1.1c-0.2,0.5-0.1,1,0.4,1.3
				c0.5,0.3,1,0.3,1.4-0.1c0.6-0.4,0.9-1.1,1.3-1.7c2.4-3.8,4.8-7.6,7.3-11.4c2.3-3.5,4.9-6.9,8.1-9.7c3-2.7,6.4-4.9,10.3-5.9
				c0.8-0.2,1.7-0.4,2.5-0.4c0.3,0,0.6,0.1,0.7,0.4c0.1,0.3,0,0.6-0.3,0.8c-0.3,0.3-0.7,0.5-1,0.8c-3.8,2.9-7.3,6-10.2,9.8
				c-4.3,5.6-8.1,11.6-11.7,17.7c-0.3,0.4-0.5,0.9-0.6,1.4c-0.2,0.6,0,1.2,0.6,1.4c0.5,0.2,1,0.1,1.3-0.4c0.4-0.5,0.7-1.1,1.1-1.6
				c2.9-4.7,5.9-9.5,9.1-14c2.7-3.8,5.7-7.3,9.3-10.4c0.4-0.3,0.7-0.9,1.4-0.7c0.1,0.8-0.3,1.4-0.5,2c-1.9,4.5-3.9,9.1-5.8,13.6
				c-3.5,8.2-6.6,16.5-6.8,25.5c0,0.9-0.5,1.1-1.2,1c-2.3-0.3-4.4,0.3-6.4,1.3c-7.1,3.2-12.5,8.2-16.1,15.1
				c-2.4,4.7-4.6,9.5-6.6,14.4c-0.2,0.4-0.3,0.8-0.5,1.2c-0.4,1.2-0.3,2,0.4,2.2c1.1,0.3,1.5-0.5,1.9-1.3c0.2-0.4,0.3-0.8,0.5-1.2
				c2.1-4.8,4.2-9.6,6.5-14.2c2.9-5.7,7.2-9.9,12.7-13c0.7-0.4,1.4-0.9,2.3-1c0.1,0.2,0.1,0.2,0.1,0.3c-0.1,0.2-0.2,0.4-0.4,0.5
				c-3.9,4.1-6.5,9-8.4,14.3c-2.4,6.9-4,14-5.8,21.1c-0.1,0.4-0.2,0.8-0.2,1.3c0,0.6,0.3,1.1,0.9,1.2c0.7,0.1,1.1-0.2,1.3-0.8
				c0.2-0.5,0.3-1,0.4-1.4c1.5-5.9,2.9-11.8,4.7-17.6c1.6-5.1,3.6-10.1,7-14.4c0.3-0.4,0.6-0.9,1.4-1.2c-0.7,2.3-1.3,4.4-1.9,6.5
				c-1.8,7.3-2.5,14.8-3.3,22.3c-0.1,1-0.3,2-0.4,3c-0.1,0.7,0.3,1.1,0.9,1.3c0.7,0.2,1.3-0.1,1.5-0.8c0.2-0.5,0.2-1,0.3-1.5
				c0.2-2.1,0.5-4.1,0.7-6.2c0.7-6.4,1.6-12.8,3.1-19c0.5-2,0.9-4,2.3-5.9c0.4,0.8,0.1,1.4,0.1,2c-0.4,3.5-0.2,7,0.1,10.5
				c0.6,5.9,1.9,11.7,3.1,17.5c0.2,0.8,0.3,1.7,0.5,2.5c0.1,0.6,0.6,1,1.3,1c0.8,0,1.2-0.5,1.2-1.3c0-0.6-0.1-1.3-0.3-1.9
				c-0.7-3.2-1.4-6.4-2-9.7c-1.1-5.7-1.9-11.4-1.6-17.3c0-0.6-0.1-1.2,0.4-1.7c0.4,0.3,0.5,0.7,0.6,1c0.7,3.4,1.8,6.6,3.1,9.8
				c1.5,3.7,3.1,7.4,4.7,11.1c3,7.1,4.8,14.5,5.4,22.2c0.2,2.3,0.2,2.3-2,2.8c-0.8,0.2-1.5,0.4-2.2,0.7c-7.6,2.8-13.8,7.5-18.4,14.1
				c-2.9,4.1-5.4,8.4-8.1,12.7c-0.1,0.2-0.3,0.5-0.4,0.7c-0.3,0.6-0.3,1.3,0.3,1.7c0.7,0.4,1.3,0.2,1.7-0.4c0.4-0.4,0.6-1,0.9-1.4
				c2.6-4.1,5-8.2,7.8-12.1c3.1-4.4,7.1-7.9,11.7-10.6c0.6-0.4,1.2-0.9,2.1-0.8c-0.2,0.3-0.2,0.4-0.3,0.5c-0.3,0.3-0.6,0.6-1,0.9
				c-3.7,3.2-6.7,7-9.2,11.2c-2.7,4.5-4.7,9.5-6.9,14.3c-0.6,1.3-0.4,2.1,0.4,2.5c0.7,0.3,1.3-0.1,1.9-1.5c1.4-3,2.7-6,4.1-9
				c3.3-6.9,7.6-12.9,13.7-17.6c0.6-0.5,1.1-1,1.9-1.1c0.1,0.7-0.4,1-0.6,1.4c-1.4,1.9-2.8,3.8-3.8,5.9c-1.9,3.7-3.5,7.5-4.8,11.4
				c-0.9,2.7-1.7,5.5-2.6,8.2c-0.3,0.9-0.5,1.7,0.5,2.3c0.7,0.4,1.4-0.2,1.9-1.5c0.3-0.8,0.5-1.6,0.8-2.5c1.8-6.1,4-11.9,6.8-17.6
				c1-1.9,2.1-3.7,3.6-5.3c0.7,0.6,0.4,1.3,0.4,1.9c-0.2,4.6-0.7,9.1-1.3,13.7c-0.7,5.5-1.5,10.9-2.3,16.4c-0.1,0.8-0.2,1.5-1.2,1.3
				c-3.6-0.6-6.6,0.9-9.5,2.7c-5.1,3.1-8.7,7.7-11.4,12.9c-2.9,5.6-5.1,11.5-7.4,17.3c-0.1,0.2-0.2,0.4-0.2,0.6
				c-0.2,0.7-0.1,1.3,0.6,1.7c0.7,0.3,1.2,0,1.6-0.7c0.2-0.4,0.4-0.9,0.6-1.4c1.8-4.4,3.5-8.8,5.4-13.1c2.5-5.7,5.9-10.8,11-14.6
				c1.9-1.4,4-2.6,6.3-3.2c0.4-0.1,0.9-0.4,1.3,0.3c-0.2,0.2-0.3,0.3-0.5,0.4c-4.6,2.4-7.8,6.2-10.3,10.6
				c-4.3,7.3-6.3,15.3-7.8,23.5c-0.2,0.9-0.2,1.9,0.9,2.1c1.2,0.2,1.4-0.7,1.6-1.6c0.7-2.9,1.2-5.9,2-8.8c1.6-6,3.9-11.7,7.4-16.8
				c1.8-2.6,3.9-4.9,6.7-6.5c0.4-0.2,0.8-0.6,1.3-0.3c0,0.9-0.6,1.3-1,1.9c-2.8,3.9-5,8.2-6.5,12.8c-2,6.1-3.4,12.3-4.6,18.5
				c-0.2,1-0.4,2-0.5,3c-0.1,0.7-0.1,1.5,0.8,1.7c0.9,0.2,1.3-0.5,1.5-1.2c0.3-0.9,0.5-1.8,0.6-2.7c0.9-5.2,2-10.2,3.5-15.3
				c1-3.6,2.3-7.1,4-10.4c0.4-0.7,0.6-1.6,1.5-2.1c0.1,0.3,0.1,0.5,0.1,0.7c-0.4,3.7-0.7,7.4-1.4,11.1c-1.2,5.4-2.1,10.8-3.1,16.2
				c-0.2,1.1-0.5,2.1-0.7,3.1c-0.1,0.6,0.1,1.2,0.7,1.4c0.6,0.2,1.1-0.1,1.5-0.6c0.4-0.6,0.5-1.3,0.6-2c0.7-3.7,1.3-7.5,2.1-11.2
				c1.4-6.4,2.4-12.8,2.8-19.3c0-0.6,0-1.4,0.5-1.9c0.5,0.4,0.6,0.8,0.7,1.2c1,3.8,1.7,7.7,1.8,11.6c0.2,5.9-0.8,11.7-1.6,17.5
				c-0.2,1.2-0.3,2.4-0.4,3.6c-0.1,0.6,0.2,1.2,0.8,1.3c0.8,0.2,1.2-0.4,1.3-1.1c0.1-0.4,0.2-0.8,0.2-1.3c0.4-2.9,0.9-5.8,1.3-8.7
				c1.4-8.8,1-17.5-1.8-26.1c-0.1-0.3-0.3-0.7,0.2-0.9c0.2,0.3,0.5,0.5,0.7,0.8c3.7,6,6,12.3,5.6,19.5c-0.2,4.6-0.7,9.3-1.5,13.9
				c0,0.3-0.2,0.6-0.2,0.8c-0.1,0.6,0.1,1.2,0.8,1.4c0.7,0.2,1.2-0.2,1.4-0.8c0.3-0.7,0.4-1.4,0.5-2.1c0.4-3.1,0.8-6.2,1.2-9.4
				c1-7.2,0-14-3.3-20.4c-1.1-2.1-2.3-4.1-3.6-6.2c1.2,0,1.8,0.6,2.4,1.2c1.1,1,2,2.2,2.8,3.5c4.5,7.1,7.9,14.6,9,23
				c0.4,2.7,0.9,5.4,1,8.1c0,0.8,0.3,1.5,1.2,1.5c0.9,0,1.2-0.7,1.3-1.4c0.1-0.6,0-1.3-0.1-1.9c-0.4-2.8-0.8-5.5-1.2-8.3
				c-1.3-8.2-4.7-15.6-9.3-22.4c-2.1-3.2-4.6-5.9-8.8-6.2c-0.7-0.1-0.9-0.5-0.9-1.2c0-0.4,0.1-0.9,0.1-1.3
				c1.2-7.9,2.3-15.9,3.2-23.8c0-0.4-0.1-1,0.6-1.3c0.1,0.8,0.2,1.5,0.3,2.2c0.6,5.9,0.3,11.7,0.1,17.6c0,0.4-0.1,0.9-0.1,1.3
				c0.1,0.6,0.4,1.1,1,1.2c0.6,0.1,1.1-0.3,1.3-0.9c0.2-0.8,0.3-1.5,0.3-2.3c0.1-2.2,0.1-4.4,0.2-6.6c0.1-6.8-0.2-13.4-2.7-19.8
				c-0.1-0.2,0-0.3,0.3-0.4c0.2,0.2,0.4,0.5,0.6,0.8c0.6,1.1,1.2,2.1,1.7,3.2c3.8,7.6,5.5,15.8,7.2,24c0.1,0.4,0.1,0.8,0.2,1.3
				c0.1,0.5,0.4,0.9,1,0.9c0.7,0,1-0.4,1.2-1c0.2-0.7,0.1-1.4-0.1-2.1c-0.9-4.2-1.8-8.4-2.9-12.5c-1.6-5.5-3.7-10.8-6.8-15.7
				c-0.2-0.3-0.6-0.6-0.2-1.2c2.3,1,3.9,2.8,5.3,4.7c2.3,3.2,3.9,6.8,5.2,10.6c1.5,4.4,2.9,8.8,4.2,13.3c0.2,0.5,0.3,1.1,0.5,1.6
				c0.2,0.5,0.7,0.8,1.2,0.6c0.5-0.1,0.8-0.5,0.9-1.1c0.1-0.7-0.1-1.3-0.3-1.9c-1.6-5.4-3.1-10.7-5.1-15.9
				c-1.5-3.8-3.4-7.4-6.1-10.5c-0.2-0.3-0.6-0.5-0.4-0.9c2.2,0.9,4.5,2.6,6.5,5.3c4.8,6,7.1,13.2,8.9,20.5c0.1,0.4,0.1,0.9,0.2,1.3
				c0.2,0.6,0.6,0.8,1.1,0.8c0.5,0,0.8-0.3,0.9-0.8c0.4-0.9,0.2-1.8,0-2.7c-1.5-5.5-3.3-11-6.1-16c-2.9-5.1-6.8-9.2-12.3-11.6
				c-1.9-0.8-3.8-1.7-5.9-1.8c-1.8-0.1-1.8-0.1-1.9-1.9c-0.7-8.1-2.6-15.9-5.8-23.4c-1.1-2.5-2.2-5-3.2-7.5
				c-1.9-4.4-3.6-8.9-4.4-13.6c-0.1-0.4-0.4-1,0.3-1.4c0.9,0.8,1.6,1.8,2.3,2.8c1.7,2.6,3.1,5.3,4.2,8.2c1.7,4.3,3.2,8.6,4.5,13
				c0.5,1.5,1.2,2.1,2,1.8c1.2-0.6,0.7-1.6,0.4-2.4c-1.2-4.4-2.7-8.7-4.4-13c-1.9-4.7-4.3-9.1-7.9-12.7c-0.2-0.2-0.4-0.4-0.6-0.6
				c1.7,0.4,2.1,0.6,3.6,2.2c5.7,5.8,10.2,12.4,12,20.4c0.6,2.7,1.5,5.4,1.8,8.2c0,0.4,0.1,0.7,0.2,1c0.2,0.5,0.5,0.8,1.1,0.8
				c0.6,0,0.9-0.4,1.1-0.9c0.2-0.8,0.1-1.6-0.1-2.3c-1.8-11.5-6.3-21.6-15.2-29.6c-0.4-0.4-1-0.6-1-1.3c0.4-0.5,0.9-0.2,1.4-0.2
				c3.9,0.4,6.9,2.5,9.5,5.3c5.6,5.9,9.5,12.9,12.9,20.2c0.1,0.3,0.2,0.5,0.3,0.8c0.3,0.7,0.8,1.2,1.7,0.9c0.7-0.3,0.9-0.9,0.7-1.6
				c-0.2-0.5-0.3-1.1-0.6-1.6c-2.8-5.6-5.6-11.1-9.5-16c-0.3-0.4-0.9-0.7-0.8-1.4c0.3-0.1,0.4,0.1,0.6,0.2c3.4,3.5,6.5,7.2,9.2,11.3
				c0.4,0.6,0.7,1.3,1,1.9c0.3,0.5,0.7,0.7,1.3,0.5c0.7-0.2,0.9-0.7,0.8-1.3c-0.1-0.9-0.6-1.8-1.1-2.6c-3.5-5.3-7.4-10.2-12.3-14.3
				c-2.1-1.8-4.5-3.3-7.3-4c-3.8-0.9-7.6-1.3-11.5-0.9c-1.4,0.1-1.5,0-1.4-1.3c0.1-1.9,0.3-3.8,0.7-5.7c1-5.1,2.7-9.9,4.7-14.7
				c0.8-1.9,1.4-3.8,2.5-5.7c0.4,0.5,0.2,0.9,0.1,1.3c-0.8,4-2.1,7.9-3.3,11.8c-0.4,1.3-0.9,2.6-1.2,3.9c-0.2,0.6,0,1.2,0.6,1.5
				c0.6,0.3,1.1,0,1.5-0.5c0.3-0.4,0.5-0.9,0.7-1.3c1-3.4,2.1-6.7,3-10.1c1.6-5.6,2.7-11.3,3.4-17c0.2-1.4,0.5-2.7,1.4-3.9
				c0.7,0.7,0.8,1.6,1,2.3c0.8,2.8,1.1,5.6,1.3,8.5c0.5,6.3-0.3,12.6-0.9,18.8c-0.2,1.8-0.4,3.5-0.6,5.3c-0.1,0.7,0.1,1.3,0.9,1.5
				c0.8,0.2,1.3-0.3,1.4-1c0.3-1,0.5-2.1,0.6-3.2c0.4-3.6,0.7-7.1,1-10.7c0.6-7.1,0.4-14.1-1.8-21c-0.1-0.3-0.2-0.5,0.1-0.9
				c0.7,0.3,1,1.1,1.5,1.7c3.2,4.8,5,10.1,6.1,15.7c0.9,4.5,1.7,9,2.5,13.5c0.1,0.7,0.3,1.4,0.5,2.1c0.2,0.8,0.7,1.5,1.7,1.2
				c0.9-0.2,0.8-1.1,0.7-1.8c0-0.2-0.1-0.4-0.1-0.6c-0.6-3.5-1.2-7-1.9-10.6c-0.7-3.8-1.4-7.6-2.7-11.3c-1.8-5.1-4.2-9.7-8.1-13.5
				c-0.1-0.1-0.3-0.3-0.1-0.6c0.5-0.2,1,0,1.4,0.2c3.4,1.2,6.4,3.1,8.9,5.8c3.2,3.6,5.4,7.7,7.1,12.2c1.8,4.8,3.4,9.7,5,14.6
				c0.2,0.7,0.4,1.4,0.8,2c0.3,0.4,0.8,0.6,1.3,0.4c0.5-0.2,0.8-0.6,0.7-1.2c-0.1-0.5-0.2-1-0.3-1.5c-1.6-5.3-3.3-10.5-5.3-15.6
				c-1.2-3.2-2.7-6.2-4.6-9c-2.6-3.8-5.7-7-10-8.8c-0.4-0.2-0.8-0.3-1-0.9c0.7-0.1,1.4,0.2,2,0.4c3.3,1.2,6.1,3.2,8.7,5.4
				c3.9,3.3,7.2,7.1,10.6,10.9c2.2,2.5,4.4,5.1,6.2,7.9c0.5,0.7,1,1.5,2,1.1c0.8-0.3,0.8-1.1,0-2.4c-0.7-1.1-1.4-2.2-2.2-3.2
				c-4.1-5.1-8.5-10.1-13.3-14.6c-2.3-2.2-4.8-4.2-7.7-5.8c-3.2-1.7-6.5-2.9-10.3-2.2c-0.2,0-0.4-0.1-0.6-0.2c0-0.4,0.1-0.7,0.1-1.1
				c1.8-7.8,1.2-15.6-0.4-23.4c-0.4-2-1-4.1-1.8-6c-0.8-2.1-2-4.1-2.2-6.3c-0.1-0.8,0.4-2-0.1-2.7c-0.5-0.8-2.1-0.9-2.9-1.1
				c-0.4-0.1-0.8-0.2-1.1-0.1c-0.7,0.2-0.8,0.8-1.1,1.3c-0.3,0.5-0.8,0.8-1.3,1.2c-1.3,1.1-3.1,1.7-4.6,2.5
				c-5.8,3.2-11.2,6.9-16.2,11.2c-9.4,7.9-17,17.3-23.7,27.5c-1.7,2.6-1.7,2.5-4.7,1.7c-4.1-1.2-8.2-1-12.3,0.1
				c-6.5,1.8-12.7,4.5-18.5,7.8c-0.9,0.5-1.8,1.1-2.6,1.9c-0.4,0.5-0.8,1.1-0.2,1.7c0.5,0.5,1.1,0.2,1.5-0.1
				c5.3-3.9,11.5-6.1,17.6-8.4c3.4-1.3,7-1.9,10.7-1.7c0.7,0,1.4,0,2,0.5c-0.2,0.5-0.6,0.6-1,0.7c-1.2,0.4-2.5,0.8-3.7,1.1
				c-8.9,1.8-15.5,7.5-21.7,13.5c-1.2,1.2-1.4,1.9-0.7,2.3c1,0.6,1.6-0.2,2.2-0.8c2.6-2.6,5.5-5,8.5-7.3c1.9-1.5,4-2.8,6.2-3.7
				c0.6-0.3,1.2-0.7,2-0.6c0,0.7-0.5,0.8-0.9,1.1c-5,3.9-9.9,8-14.6,12.4c-1,1-2,2.1-2.9,3.1c-0.3,0.3-0.4,0.8-0.1,1.2
				c0.4,0.4,0.9,0.5,1.4,0.2c0.6-0.4,1.1-0.9,1.6-1.4c6.3-6.1,13-11.7,20.1-16.7c1.6-1.1,3.3-2.2,5.2-2.9c0.4,0.7-0.2,0.8-0.4,1
				c-8.5,6.3-14.2,14.8-19.6,23.6c-0.4,0.6-0.7,1.3-0.7,2c0,0.6,0.2,1.1,0.9,1.3c0.6,0.1,0.9-0.3,1.1-0.8c3-6,7-11.3,11.2-16.5
				c1.4-1.7,2.8-3.4,4.6-4.7c0.5,0.6,0.1,0.9-0.1,1.2c-6.4,11.3-11.8,23-16.6,35c-0.4,1-0.8,2-1.2,3c-0.3,0.8-0.8,1-1.7,0.9
				c-2.1-0.3-4.2-0.6-6.4-0.6c-6.1-0.1-11.9,1.4-17.5,3.8c-4.3,1.9-8.3,4.4-12.1,7.3c-0.7,0.5-1.4,1-1.8,1.8
				C1118.9,53.4,1118.8,53.9,1119.1,54.2L1119.1,54.2z"/>
			<path id="e" class="st6" d="M121.5-4.8c-7.9-14.7-28-13.1-37.4-25.8c4.1-2.5,15.9,7.1,16.9-2.4c-7.3-2.6-16.1-11.7-24-7.2
				c-2.3-1.4-3.5-8.3-2.4-11.1c4.6-0.1,12.5,5.4,14.7-0.5c-7-9.5-23.5-6.3-26.1-21.7c2.8-2.2,6.9,0.1,8.5-3.7
				c-7.1-6.9-23.9-5.6-25.4-16.9c1.1-4.2,12.5-0.7,11.4-6.6c-8-5-24.6,1.5-27.7-10c0.5-3.7,9.8-0.8,8.2-6.1
				c-3.2-6.3-16.9,1.5-21-3.6c1.3-5.3,13.7-2.2,16.3-6.4c-0.3-4.1-3.7-4-6.4-4.8c-1.1-4,2.7-4.2,1.3-8.4c-5.2,1.2-6.3,0.9-12.1,1.7
				c-0.3-4.1-6.1-6.1-4.8-10.8c-5.8,0.6-9.2,3.1-13.2,5.2c-1.1-4.6-1-8.4,0-11.5c-12-7.8-27.7,7.5-38.7,4.7
				c3.8-8.4,18.4-8.7,19.4-19.2c-11.6-1.1-18.7,12.2-30.8,8.5c1.1-5.9,11.2-5,10.5-12.2c-6.1-0.6-17.6,4.3-23.2,4.2
				c0.8-5.7,10.1-4.9,11.7-9.9c-2.7-5.2-9.4-0.2-14.7,0.5c-1.5-3.5,3.3-2.3,1.6-6c-15.3-2.3-93-0.1-116,38c0.8,5.6,8.7,1.7,12.8,3.1
				c-5.2,10.5-25.8-8.2-22.5,9c-4.8,0.6-15.8,1.6-11.9,8.3c3,2.1,11.3-3,13.2,0.6c-4.5,8.6-13.3,15.4-26.2,12
				c-2.4,1.8-3.1,4.8-1.9,9.3c2.5,1.1,7.2-0.7,9.2,1.1c-3,5.8-6.6,11.3-8.9,17.7c-8.4,1.1-18.2,1.2-16.6,9.8
				c4.3,1.1,10.3-0.9,14.5-2.1c1.5,3.9-0.6,10.9-0.1,16.4c-4.3,4-14.7,3.4-13.1,11.7c3.9,3.3,7.9-1.6,11.9-2.5c1.8,2.8,0,9,0.2,13.1
				c-4.1,8-20.4,6.7-20.4,17.7c7.3,3.2,12.2-5.5,19.5-6.9c1.1,6.2-1,15.9-1.6,23.2c-4.1,3.4-12.2,3.8-10.7,11.4c3,2.1,5-0.5,8.9-1.3
				c4.6,9.8-8.2,12.4-7.6,21.6c5.7,1.9,8.5-4,11.4-6.6c5.1,2.4,5.9,10.7,13.7,9.5c0.6-11.4-14.1-17-8.4-30c2.3-4.5,10.9-4.2,9-12
				c-4.2-0.3-4.3,2.5-7.8,2.8c2.9-22,2.6-46.4,4-69.5c3.9-3.1,0.7-13.6,8.1-11.8c-1.7,5.7,0.8,13.6,1.9,18.6c4.2,0,5-2.4,8.6-2.9
				c4.2,11.3-8.8,15.9-9.4,26c3.4,2,5.5-1.7,8.7-2.1c7.5,14-8.2,20.6-5.4,31.1c5.4-0.3,6.3-3.9,9-6.2c2.1,2.6,1.7,8.6,2.7,12.7
				c-2.1,4.7-8.6,6-8,12.6c2.5,2.6,5-0.2,9-0.5c6.1,16.5-17.5,10.8-15.4,24.4c7.4,0.1,9.7-3.8,14.8-5.4c1.7,4.6,0.5,12.7-1.7,16.7
				c-5.9,4-20.7,1.3-18,11.6c5,1.6,10.1-2.3,15.2-3c4.4,14.1-23.9,9.8-23.8,23.1c6,1.6,10.9-3.2,16.7-4c1.2,12-15.6,16.5-18.1,28
				c6.2,2.1,8.2-4.8,13.1-6c4.6,4.4,6,13,14.1,12.7c2.4-8.1-14.7-21.6-1.6-28.5c4.5,6.4,9.6,12.1,14.1,18.5c0.2,3.5-3.2,4.3-2.1,8.5
				c8.6,1.8,11-7,17.6-9.1c0.1,5.5,0.2,11.3-1.8,15.8c-3.1,7.1-14.4,9.6-12.8,19.1c6.7,1.7,8.4-5.3,12.8-7.6
				c6.5,16.3-2.5,23-1.7,33.9c7.6-0.8,6.7-7.9,10.7-11.4c6.5,3.8,9.4,12.4,19,12c-5-13.5-16.2-18.7-20.3-33.2
				c7.5,0.8,8.6,10.3,17,9.9c-0.5-12.2-18.5-18.3-16-31.3c6.3,0.2,9.1,9.1,15.6,6c-3.8-11.2-20.2-17.7-7.7-30.9
				c4.8,2.6,6.3,9.5,12.9,9.6c4.7-7.4-7.9-11.4-8.5-19.3c-0.6-6.9,5.8-12,8-18.4c6.2,4.5,9.2,13.2,17.7,14.7
				c1.3-13.6-22-21.4-13.1-40c6.6,2.7,8.1,12.2,15.8,13.3c1.8-12-12.7-18-14.4-31.6c3.4-2,8.6,6.1,13.4,2.2
				c-4.7-11.4-23.3-14.9-19-29.3c6.4,3.6,11.1,9.5,19.5,10.3c2.3-7.8-7.9-10-12.8-14.6c-5.3-5-10-11.1-10.1-19.1
				c6.6,1.4,9.2,8.2,17.5,7.3c1.7-3-3-6.9,0.3-9.1c9.5,5.4,2.6,14.6,0.6,21.3c3.9,2,5.8-2.5,9.4-3c2.2,2.5,3.4,6.3,5.4,9.1
				c-0.9,4.4-7.6,4.4-5.8,10.7c3.9,1.8,6.8-2.3,9.3-3.8c3.4,2.2,5.2,6.5,7.2,10.4c-0.6,6.7-10.7,6.3-9.4,14.5c6,1.7,8.6-4.9,13-6.8
				c2.1,2.6,1.7,8.6,2.6,12.7c-1.5,7.8-18.7,3.7-15.9,14.6c6.8-0.4,10.3-3.3,14.8-5.4c3,5.6-1.1,12.1-0.7,18.1
				c-4.8,4.7-20.4,4.6-16.1,13.8c6.8,0.1,9-3.3,13.2-5.2c1.2,6.2-2.8,14.6-6.2,19.8c-7.5,1.7-16.8-1.3-15.3,7.9
				c3.2,0.9,8-0.5,12.2-0.9c-0.1,5.5-3.2,8.6-4.7,13c-6.9,1.5-16.5,1-14.2,9.4c3.2,0.7,7.6-2.4,11.4-0.8c-1.4,4-2,8.5-4,12.1
				c-6.1,2.6-16.3,5.2-13,12.5c5.1-0.2,6.5-3.3,10.9-4c3.9,12.3-11.8,16-13.4,26.5c5.6,2.5,7.6-3.2,10.8-4.8
				c6.5,10.7-12.8,18-10.8,27.8c7,1.5,9.1-6.5,12.5-10c9.1,8.2-2.9,18.7,0.6,27c5.6-1.1,4-7.5,7.6-10.1c9.2,1.7,7.1,18.6,14,23.4
				c7.1-3.7-3.2-14-0.5-20.4c4.5-0.6,9,3,13.1-0.2c-4.6-10.8-26.5-3.4-24.9-19.4c5.6-0.6,9.4,5.7,15,1.9c-3-10.6-17.5-5.9-18.4-19.5
				c6.1-3.1,9.8,6.9,16.8,2.5c-3-6.9-8.9-9.8-15.6-11.7c-0.8-5.2-0.2-9.2,1.5-12.5c5.8,2.2,10,10.5,16.8,8.3
				c-4.1-10-20.6-16.4-11.6-29.5c6.3,1.9,10.5,11.4,18.4,8c-1.6-6.6-10.8-11-14.8-17.6c1.3-3.3,1.8-7.2,4.4-9.6
				c7.1,2.3,9.7,10.7,18.7,10.4c-1.2-7.8-10.6-12.6-15.1-19.2c1.8-4.9,3-10.2,5.3-14.7c3.8,0,4.6,4.1,9.4,2.7
				c2-6.5-5.1-8.3-7.5-12.1c-0.1-8.4,2-15.2,3.3-22.6c4.3,1,5.8,5.7,12.1,4C-69,14.8-76,13.7-80.1,8.5C-79.8,3.7-81.2,0-81-3.6
				c7.5-0.9,13.6,6.9,19.6,5.4c6.3-1.5,4.5-8.6,9.7-12.9c10.5,15-4.3,21.6-5.8,33.7c8,2.5,8.3-6.6,13.6-8.5
				c8.8,17.8-10.2,21.1-9.7,35c8.7,0.3,8.4-6.1,12.6-9.2C-35,56.3-57.5,60.9-55,74.7c9.3-0.5,8-8.8,13.9-11.8
				c5.1,21.5-12.5,26-15.4,41.6c7.5,0.7,10.2-8.1,14.7-12c6.6,18.1-15.2,21.1-16.2,36c9.4-1.1,11-8,16.3-12.2
				c6.6,16.2-14.2,18-14.3,31.6c7.9,0.4,11.8-7.7,17.2-11.5C-33,151-50.9,154-49.9,167.5c8.8,1.2,9.6-9.5,15.4-12.9
				c0,5.8-2.2,26.3,5.3,31.2c6-3.2-1.6-16.5,2.7-20.9c7.7,4.8,13.8,16.6,24.2,14.6c-4.9-10-15.2-12.9-19.1-24.3
				c4.5-2.3,10.1,5.6,15.8,1.8c-3.7-12.7-24.8-7-24.5-21.9c8.5-1.1,13.8,7.1,21.8,3.4c-4.9-9.4-16.7-9.6-24.4-15.4
				c-0.2-3.7-2.1-8.7-0.8-11.4c6.5-0.2,14.4,10.6,22.5,8.3c-2.3-9.4-14.1-14.4-22.4-18.9c-1.1-5.2-0.6-9.1-0.2-13.1
				c7.1,0.6,12,8.8,19.6,5.4c-3.8-8.9-13.2-10.5-19.5-16.1c-0.7-4.6-0.7-8.6-0.1-12.3c9.7-0.4,16,8.6,25.4,5.4
				c-5.2-9.6-16.6-11-25.3-16.1c0.4-4-0.1-8.7,0.7-12.4c5.8-0.9,11.2,6.2,15.7,1c-3.1-6.8-10.6-7.5-16.3-10.8
				c-0.6-7.9-3.6-16.2-1.3-20.3c6.1-0.1,12.5,4.2,19,0.6C-23,2.5-42,8.2-42.7-10.8c6.2,0.6,19.8-1.1,23.1,6.5
				c8.3-0.2,6.9-7.7,10.7-11.4C-6-9.6-2.1-2.1-2.8,4c-0.9,8.1-15.3,12.5-10.1,21.1c7.4-1.4,7.5-8.3,12.3-11.6
				C9.8,29.6-8,35.9-6.4,47.2c6.3,1.6,8.1-5.1,11.1-8.2c7.8,15-6.9,19.2-8,29.9c5.1,3.7,9-3,11.5-5.8c8.5,12.2-5.4,18.5-3.9,30.1
				c7.7,1.9,6.5-7,10.9-9.8c10,12.3-0.4,20.8-1.9,32.3c7.8,2.6,8.6-5.9,10.9-9.8c9.5,9.7-3.5,18.7-2.4,29.1c4.9,1.3,7.6-3.4,9.8-6.3
				c-0.3,7-2.5,12.5-0.2,21.4c2.3,0.6,4.1-0.4,6.3-1.7c1.1-3-0.8-8.3,0-11.5c7.8,2.2,15.5,13.1,23.4,8.9
				c-1.6-9.3-15.1-10.4-18.5-20.3c4.2-2.5,11.3,5.2,14.6-1.3c-6.8-7.1-15.8-11.4-23.1-18c4.3-5.5,13.7,5.1,18.7-1
				c-7.7-9.9-24.4-7.7-28.6-22.2c4.6-3.7,14.2,4.6,16.9-2.4c-6.4-7.5-24.1-4.7-23.2-18.8c6.6-0.8,12.7,7,18.3,1.5
				C30.4,53,11.2,55.6,13.5,37.7c6.2,0.3,8.5,5.9,16.2,4.2C28.4,29.6,7.1,30.8,8.6,14.7c6.1-0.4,15,7.3,19,0.6
				C19.3,5.8,2,8.5,2.2-12.3c7.9-0.2,16.2,7.8,23.3,2.4C15.5-21.1-8.3-19-9-39.4C-4.9-40.6,5.5-33,10.7-39C4-47.9-14.5-46.1-18-56.2
				c4.2-1.6,15.4,4.3,20.3-1.3c-9.2-10.4-30.1-5.2-36.4-19.4c5.5-2.9,14.2,6.4,19.7,0.4c-1.5-6.9-10.2-4.2-12.9-9.6
				c4.6-3,15.2-4.8,18-0.1c1,6.7-2.3,10.2-0.8,17.3c8.6,0.7,6.3-6.8,9.2-10.3c4.2,3.6,11,6.1,12.3,11.4c1.5,5.7-4.3,9.3-2.6,16
				c5.4,1.3,7.5-4.6,9.5-7.9c14.4,5.6,5.1,20.1,4.6,32.1c9.9,0.3,6.7-9.3,10.3-13.8c12.5,12.1,2.1,23.9-1.5,35.5
				c6.7,3.4,9-5.9,12.6-9.2c8.6,16.4-5.6,22.6-6.3,36.2c8.1,2.2,8.8-7.2,12.4-10.8c9,13.9-7.3,19.4-6.1,32c6.5,1.4,8-6.8,11.7-9.9
				c7.5,15-7.7,19.1-6.1,32c6.9-0.6,6.7-6.5,10.1-9.7c7.5,10.8-6.8,17.3-4,29.3c9,0,6.2-8.7,10.6-12.2c1.3,7.2-5.4,21.4,1.1,30.2
				c7.3-0.5,5.1-8.1,5.4-13.9c7.6,1,11.7,6.7,21.2,5.2c-2.2-10.8-15.6-6.6-17.4-18c5.5-1.7,12.1,7.9,19.4,3.8
				C94.4,66.7,75,69.1,70.4,56.7c4.4-2.5,7.6,4.4,14.2,2.1C84.3,46.3,62,50.1,65.3,32.8c8.1,1.1,14.3,9.5,23.1,6.5
				C83.1,25.9,61.7,29,60.8,12.9c8.3,1.1,12.4,7.7,22.3,6.6C76.8,4,54.6,9.8,53.8-13.2c6.7,1.2,10.4,6.5,18.8,5.5
				c-5.4-14.4-24.9-10.1-27.1-28.9c6.4-1.1,9.9,6.3,16,2.6c-4.2-10-16.2-10.5-23.7-16.3c-5.4-4.3-7.9-11-13-16.2
				c6.2-1.5,10.8,4.7,14.8,0.3c-6.3-7.2-14.4-12.1-26.3-11.8c-1.8-0.8-3.1-2.3-3.9-4.4c4-2.8,15.5,2.5,15.6-5.5
				C13.5-93.1-5.9-88-12.7-99.6c8.7-0.6,22.8,2.9,27.2-4.7c-2.7-3.7-9.7-1.7-13.7-3.8c-0.2-1.6-0.5-3.2-0.7-4.8
				c5.6-7.9,17.3,4.1,24.5,10.4c15.1,13.2,37.5,36.8,42.9,58.7c1.3,5.3,1.4,12,3.9,15.8c7.5,11.7,27.8,15,29,30.3
				c7,8.3,12.7,23.1,23.8,22.8c-2.6-10.9-13.5-19.1-16.9-32C112.5-7.3,117.7-0.4,121.5-4.8L121.5-4.8z M-166.5,63.6
				c5.7,0.1,8.3-7.6,14.6-7c0.1,13.7-7.7,21.5-19.2,26.5c-6.1-9.8-23.8-25.9-11.2-37.8C-177.5,52-174.3,63.5-166.5,63.6L-166.5,63.6
				z M-147.4-66.3c-4.7,4.6-14,5.8-13.6,14.2c1.2,0,1.6,1.1,2.7,1.3c5.5-0.6,8.2-6.5,12.3-5.9c0.1,4.6-1,8.3,0.3,13.9
				c-3.4,5.8-14.7,5.7-12.5,15.7c7.6,0,8.7-4.9,13.8-6.9c0.5,3.5,1,7,1.5,10.5c-4.1,5.7-17,8.1-14,16.8c8.3-0.3,9.2-6,15.3-7.9
				c1.9,3.2,1.9,9,2.8,13.5c-6.8,3.6-27.7,12.5-11.4,18c3.9-3.3,4.9-8.8,12.6-9.2c-0.1,3.3,0.1,6.8-1.1,9.2
				c-7.9,7.2-23.8,8.5-25.8,20.1c9.3,1.1,14.5-6.8,21.6-9.7c4.6,6-0.3,14.2-3,19.3c-1-1.5-3.3-1.3-5.9-0.8c-5.1,3.1-8.2,7.7-15,9.5
				c-6.3-6.7-10.8-19-11.4-27.9c4.9-0.5,4.6,6,9.8,5.2c3-10.8-15-19.8-8.1-33.3c3.5,1.7,4.3,7,9.9,6c1.6-0.5,1.3-2.4,2-3.6
				c-6.2-7.3-12.3-19.1-15.4-27.3c1.6-2,6.4,3.4,8.1-1.2c-3-10.3-15-13.6-12-26.2c3.2-0.2,6.4,3.5,8.2-0.3c-0.1-0.8,0.5-1,0.6-1.7
				c-5.9-4.6-13.4-11.4-7.9-21c3.4,0.2,3.9-1.8,7.1-1.8c2.9,7.3,4.7,16.1,10.9,18.9c5.1-3.7-1.8-10-1.5-16.2c5,0.6,5.1,7.9,10.2,8.4
				c3.2-1.5,4.3-4.4,7.4-6C-147.7-71.6-147.9-68.6-147.4-66.3L-147.4-66.3z M-121.6-63.4c-3.5,12.2-20.1-1.7-11-8.3
				C-129.6-68-124.6-67.1-121.6-63.4z M-54.5-36.2c7.9,0,14.8,1.3,22.4,1.7c1.7,0.7-1,5.3,2.4,5.4c7.4,0,6.5-6.2,10.2-8.9
				c3.2,3.4,5.3,8.3,6.9,13.8c-2.3,3.1-3,7.3-6.9,9.2C-33.4-19-52.1-16.7-54.5-36.2L-54.5-36.2z M-92.1-52.1
				c-4,1.4-10.6-3.6-15.6-0.2c-0.2-3.4-3.7-5.8-2.1-8.7c8.4-2,11.9,2.6,17.8,4c4.2-4.7-8.4-10.8-0.5-14.7
				C-83.4-69.1-84.4-54.8-92.1-52.1L-92.1-52.1z M-68.3-40.7c-2.1,3.9-2.6,9.1-6.5,11.6c-7.5,0-12.5-5.9-20.8-1.9
				c-3.1-4.2-6.7-7.7-7.8-14.5c7-1.4,11.3,0.9,18-0.1c3.3-2.8,2.9-8.3,6.7-10.8C-75.2-51.3-71.5-46.4-68.3-40.7L-68.3-40.7z
				 M-62.9-31.7c8.5,8.1,4.7,20.8-2.7,26.6c-5.8-2.5-9.5-7.7-18.2-6.4c-2-4.4-4.8-7.6-6.7-12.2c6-2,15.3,2.2,21.4,0.2
				C-65.4-25-67.1-30.6-62.9-31.7L-62.9-31.7z M-28.6-55.5c1.7,3.2,4.3,5.1,4.7,10c-1.2,2.4-2.8,4.6-4.8,6.4
				c-9.3-3.2-20.1-4.5-31.1-5.4c-2.7-3.7-6-6.7-7.5-12.1c4,0.1,4.9,4.3,9.5,3.6c1.5-2.4-0.8-5.3-1.9-7.1c10.4-0.4,16.9,0.3,23.3-3.3
				c3.9,6.9-6.2,9.1-4.1,17C-33.2-44.3-32-52.5-28.6-55.5L-28.6-55.5z M-5.8-142.4c-1.6,1.4-3.6,2.6-7,2.6c-0.3-1.4-0.2-2.5,0.3-3.3
				C-9.8-143.4-7.4-143.4-5.8-142.4z"/>
			<path class="st1" d="M481.9-9.6c-1.8-3.5-2.9-6.9-3.9-10.3c-0.4-1.3-0.9-2.5-1.4-3.8c-0.8-2.3-2.5-3.5-4.7-3.9
				c-3-0.6-6-1-8.9-1.6c-4.5-0.9-8.3-3.2-11.1-6.9c-0.4-0.6-0.9-1.1-1.4-1.7c-1.3-1.5-3-2.3-5-2.4c-2.4-0.2-3.4,0.6-3.9,2.9
				c-0.8,3.4,0.7,9.8,4.6,12.4c2.5,1.6,5,3.2,7.6,4.4c2.6,1.2,5.1,2.7,7.1,4.8c3,3,4.4,6.6,4,10.8c-0.2,2.7-1.1,5.3-3.7,6.6
				c-2.7,1.3-5.3,0.3-7.6-1.3c-2.6-1.8-4.4-4.3-5.9-7.1c-0.2-0.3-0.3-0.6-0.4-0.9c-3.4-8.2-3.3-6.5-9.8-11.1c-2-1.4-3.1-1-4,1.3
				c-0.6,1.6-0.7,3.3-0.3,4.9c1.4,6.9,4.8,12.4,11.2,15.8c3.6,1.9,7.3,3.5,11,5.1c3.6,1.6,6.6,3.9,8.9,7.1c1.3,1.7,2.4,3.6,3.3,5.6
				c2.3,5.3,6.3,8.3,12,9c2.5,0.3,5.1,0.3,7.6,0.3c9.1-0.1,18.2,0.2,27.1,1.8c6.8,1.2,15.4,4,12.6,10.2c-2.6,5.6-8.9-5.5-14.6,0
				c-1.9,1.8-5.2,0.1-7.9,0.3c-3.5,0.3-4.9,5.1-3.4,7.7c0.5,0.8,1.2,1.2,2.1,1.5c1.4,0.4,2.7,0.8,4.1,1.3c2.3,0.7,4.5,1.6,6.5,3
				c3.3,2.4,4.2,6,2.3,9.5c-1.8,3.5-5.7,5-9.3,3.7c-2-0.7-3.6-2-5.1-3.5c-1.8-1.9-3.1-4.2-4.2-6.6c-1.6-3.5-2.6-7.2-4.1-10.7
				c-0.7-1.6-1.5-3-2.9-4c-2.4-1.6-4.2-0.9-4.8,1.8c-0.9,4-0.1,7.9,1.2,11.7c1.5,4.4,4,8.3,6.5,12.2c1.6,2.4,2.9,5,3.4,7.9
				c0.6,3.8-0.1,7.3-2.4,10.4c-2.2,2.9-4.9,3.7-8.2,2.3c-3.4-1.4-5.4-3.9-5.5-7.6c-0.1-1.4,0-2.9,0.1-4.3c0.1-2,0.1-4-0.2-6
				c-0.3-1.8-1-3.5-2.2-5c-1.5-1.9-3-3.9-4.1-6.1c-1.4-2.6-1.9-5.4-1.3-8.3c0.3-2,0.6-3.9,0.6-5.9c0-2.3-0.9-3.8-3.1-4.8
				c-4.3-1.8-7.4-4.9-8.6-9.6c-0.7-2.9-2.4-4.9-5.4-5.8c-3.2-0.9-5.9-2.6-7.8-5.6c-0.9-1.5-2-1.7-3.7-1c-0.8,0.3-1.4,0.8-1.9,1.5
				c-3,3.8-2.4,10.6,1.2,13.7c1.4,1.3,3.1,2.3,4.7,3.3c5.3,3.3,8.6,7.9,10.1,13.9c0.7,2.7,0.7,5.4-0.4,7.9c-0.6,1.3-1.4,2.3-2.5,3.1
				c-2.3,1.7-5.3,0.8-6.1-2c-0.4-1.4-0.6-2.8-0.9-4.2c-0.2-1.3-0.3-2.7-0.6-4c-0.5-2.5-1.9-4.1-4.6-4.4c-3.4-0.4-6.1-2.2-8.4-4.6
				c-2.1-2.2-3-2-4,0.9c-1.1,3.3-0.7,6.6,0.8,9.8c0.9,1.8,2.1,3.4,2.9,5.2c2.3,5.4,1,10.9-3.6,14.5c-1.5,1.1-3,2-4.7,2.7
				c-2.4,1-4.5,0.4-6.4-1.3c-1.7-1.6-1.9-3.6-1.3-5.7c0.5-1.5,1.2-3,2-4.3c1.8-3,2-6.1,1.1-9.4c-0.4-1.6-1.1-3.2-1.4-4.8
				c-0.4-2.4-0.3-4.8,0.8-7c1.9-3.6,3-7.5,5.1-11c1.5-2.5,1.6-5.5,1.4-8.4c-0.1-1.6-0.9-2.9-2-4c-1.2-1.3-2.3-2.6-3.5-3.9
				c-2.1-2.3-3-5-3.1-8.1c0-1.1-0.1-2.2-0.1-3.3c-0.2-3.8-1.1-7.4-3-10.7c-1.6-2.7-2.6-5.6-2.2-8.9c0.2-1.9-0.2-3.8-1.1-5.6
				c-1.1-2.2-3.5-2.4-5-0.3c-1.3,1.8-2.1,3.9-2.6,6.1c-1.2,5.7-1.1,11.3,0.3,17c1.3,5.2,2.8,10.3,4.1,15.5c1.7,6.8,1,13.3-2,19.6
				c-2.9,6-5.5,12.2-7.5,18.6c-1.6,5.3-2.4,10.6-1.2,16c1,4.7,2.9,8.9,6,12.6c2.4,2.8,5.3,4.4,9.1,4.7c4.7,0.4,9.4,0.3,14.1,0.1
				c4.9-0.2,9.7-0.4,14.6-0.1c7.2,0.4,13.6,2.6,18.9,7.6c2.1,2,3.3,4.5,3.5,7.4c0.2,2.4-0.6,4.6-2.9,5.9c-2.1,1.2-3.7,1-5.4-0.7
				c-2-1.9-4-3.9-6-5.9c-0.5-0.5-1-1-1.5-1.5c-4-4.5-8.9-5.2-14.4-3.6c-3.5,1-5,3.4-4.6,7c0.2,1.4,0.9,2.4,2.3,2.8
				c1.1,0.3,2.2,0.5,3.2,0.8c3.5,1,5.6,4,4.9,7.1c-0.8,3.3-4.3,5.5-7.7,4.9c-2.6-0.5-4.8-1.7-6.6-3.6c-1.4-1.5-2.7-3.1-3.6-5
				c-1-1.9-2-3.8-3-5.7c-1.4-2.6-3.7-3.3-6.4-3.3c-1.2,0-1.8,0.8-2.1,1.9c-0.3,1.2-0.2,2.4-0.2,3.6c0.1,2.5,0.3,5.1,0,7.6
				c-0.1,1.5-0.3,3-1,4.4c-0.8,1.6-1.6,1.9-3.3,1.5c-5.3-1.4-9.4-6.8-9.2-12.3c0-1.8,0.4-3.5,0.8-5.2c0.5-2.2,1-4.3,1.2-6.6
				c0.2-1.8-0.3-3.4-1.3-4.9c-1.3-1.8-2.5-3.7-3.5-5.7c-2-3.6-3.1-7.5-3.4-11.6c-0.1-1.4-0.2-2.7-0.3-4c-0.4-2.9-3.1-4-5.5-2.2
				c-1.3,0.9-2.1,2.2-2.6,3.7c-1.5,4-1.4,8.1-0.3,12.2c0.6,2.2,1.4,4.4,2,6.6c1.2,4.6,1.2,9.1-0.9,13.5c-0.6,1.3-1.4,2.5-2.7,3.3
				c-2.5,1.3-4.9,0.7-6.3-1.8c-0.9-1.6-1.3-3.2-1.4-5c-0.2-2.8,0-5.6,0.4-8.3c0.2-1.7,0.5-3.3,0-5c-0.5-1.9-0.9-2.1-2.7-1.3
				c-0.7,0.3-1.3,0.6-1.9,0.9c-2.1,1-4.1,1.4-6-0.4c-1.8-1.7-2.5-4.4-1.7-6.8c0.6-1.6,1.5-3,2.8-4.1c0.8-0.7,1.7-1.5,2.6-2.1
				c3-2.3,5.1-5.2,6.6-8.6c0.8-1.9,1.1-3.8,0.7-5.8c-0.6-2.8-2-3.4-4.4-1.7c-1,0.7-1.8,1.5-2.6,2.4c-2.1,2.2-3.8,4.7-5.2,7.4
				c-0.7,1.4-1.5,2.8-2.2,4.2c-0.9,1.6-2.1,3-3.4,4.3c-1.6,1.5-3.3,2.3-5.4,1.5c-2.2-0.8-2.9-2.7-3.2-4.7c-0.3-1.9,0.1-3.8,0.7-5.7
				c2.7-8.4,7.4-15.1,15.1-19.5c1.9-1.1,4-1.6,6.1-2.2c5.2-1.5,10.2-3.7,14.9-6.4c5.3-3.1,8.1-8,9.1-13.9c0.9-5.1,0.2-10-1.8-14.7
				c-1.4-3.4-4.4-4.6-7.8-3.1c-3.1,1.3-5.5,3.5-7.8,5.8c-1.4,1.4-2.7,2.9-3.9,4.5c-5.5,6.9-11.8,12.9-19.2,17.8
				c-2.7,1.8-5.1,3.8-7.4,6c-3.4,3.3-6.1,7.2-7.7,11.6c-2.3,6.3-3.6,12.9-3.8,19.6c-0.2,7.8,2.6,14.1,8.4,19.2
				c1.5,1.3,3.1,2.5,4.6,3.8c3,2.4,5.8,5,7.9,8.2c2.7,4,3,8.2,0.6,12.4c-0.9,1.6-2.2,2.9-4.3,3.1c-2.1,0.2-3.5-0.7-4.3-2.6
				c-0.5-1.3-0.7-2.6-0.8-4c-0.3-3.5-2.2-5.4-5.5-6.3c-7.3-1.9-13-6.3-18-11.7c-5.3-5.7-6.7-12.3-3.9-19.7c0.9-2.3,1.8-4.6,2.7-6.9
				c0.6-1.6,1.1-3.3,1.1-5.1c0-1.2-0.2-2.3-1.4-2.8c-1.1-0.5-2.2-0.3-3.2,0.3c-3.7,2.5-6.2,6-7.5,10.2c-1.9,6.5-1.4,12.6,3.2,18
				c2.7,3.2,5.1,6.5,6.5,10.5c0.6,1.8,0.9,3.6,0.7,5.4c-0.4,2.8-1.9,4.7-4.6,5.4c-2.7,0.7-5-0.2-6.8-2.3c-1.6-1.9-2.2-4.2-2.1-6.7
				c0-1.4,0.2-2.7,0.3-4.1c0.1-2.9-0.5-3.7-3.3-4.3c-1.6-0.3-3.1-0.6-4.7-0.8c-7.8-1.3-11.9-10.1-11.1-15.9c0.1-0.5,0.2-1.1,0.4-1.6
				c1.7-5.1,5.2-6.4,9.8-3.5c0.3,0.2,0.6,0.5,1,0.7c2.1,1.4,2.8,1.2,3.6-1.1c0.5-1.4,0.8-2.9,0.6-4.5c-0.2-2.9-1.6-5-4.3-6.1
				c-3.9-1.6-8-1.3-12-0.7c-1.6,0.2-3.1,0.7-4.7,1c-3.3,0.6-5-0.7-5.5-4c-0.2-1.1-0.1-2.2,0.1-3.3c1-5.3,3.8-9.4,8.2-12.5
				c3.8-2.6,7.4-2.1,10.5,1.4c1.4,1.5,2.7,3.2,3.8,4.9c3.2,5.1,7.4,5.9,13.1,4.1c3.6-1.1,9.1-3.4,10.4-7.3c0.9-2.6-0.3-4.1-2.3-5.4
				c-3.3-2.1-6.9-3.4-8.7-7.2c-1.4-3.1-1.1-6.8-2.7-9.7c-1.2-2.1-3.2-3.6-5.1-5s-3.9-3-4.8-5.2c-3.1-7.2,5.3-9.3,9.7-5.1
				c2.5,2.3,3.8,5.7,4.9,8.9c1.2,3.2,2.3,6.6,4.6,9.1c1.8,2,4.4,3.3,7.1,3.2c2.7-0.1,4.7-2,7.4-2.1c4.6-0.2,9.2-0.9,13.6-2.3
				c5.1-1.6,9.2-4.3,11.2-9.5c0.3-0.7,0.5-1.5,0.9-2.2c0.2-0.4,0.7-0.9,0.7-1.4c-0.1-1.3-2.2-1.9-3.2-1.8c-1.6,0.2-2.9,1.2-4.3,1.8
				s-3.3,1-4.5-0.1c-1.3-1.1-1.2-3.1-1.7-4.6c-1-2.6-4.2-4-6.8-3c-2.1,0.8-3.4,3-5.4,4.1c-1.7,0.9-3.6,1.1-5.5,0.9
				c-2.6-0.2-5.1-1.1-7.1-2.8c-1.9-1.7-3.2-4.3-2.9-6.8c0.3-2.6,2.3-4.9,4.8-5.3c3-0.4,5.8,1.8,8.9,2.3c2.1,0.4,4.4-0.2,6.1-1.5
				c1.2-0.9,2.2-2.6,1.5-3.9c-0.4-0.8-1.3-1.2-2.1-1.6c-1.8-0.9-3.5-2-5.1-3.3c-1-0.8-2-1.8-2.6-2.9s-0.9-2.6-0.5-3.8
				c0.6-1.8,2.5-2.9,4.2-3.7c3-1.4,6.1-2.5,9.4-2.5s6.7,1.3,8.5,4.1c1.9,2.8,1.6,6.5,1.2,9.9s-1.1,6.9,0,10.1
				c0.8,2.3,2.6,4.2,4.7,5.2c1.6,0.8,3.4,1.1,5.2,0.8c1.8-0.2,2.4-1.9,3.5-3.2c2.5-3.1,5.7-4.5,9.6-4.3c1.6,0.1,3.2,0,4.7-0.4
				c2.1-0.5,3.9-1.4,5.5-2.8c1.7-1.5,2.2-3.2,1.4-5.4c-1.1-3.1-2.9-5.5-6.3-6.2c-1.5-0.3-2.9-0.8-4.2-1.6c-3.3-2.2-4.3-5.2-2.9-8.9
				c0.6-1.6,1.5-3,2.5-4.3c0.7-0.9,2.1-1.9,2.3-3c0.2-0.7,0-1.5-0.6-1.9c-0.8-0.6-2.1-0.3-2.9,0.4c-0.8,0.7-1.2,1.7-1.8,2.6
				c-1.3,2-3.1,3.8-5.4,4.6s-4.9,0.6-6.9-0.7c-2-1.3-3.2-3.8-2.8-6.2c0.5-2.7,3-4.7,5.6-5.7s5.5-1.1,8.2-1.8c2.7-0.7,5.5-2,6.8-4.5
				c0.3-0.6,0.5-1.3,0.2-1.9c-0.3-0.6-1-0.9-1.7-0.8c-0.7,0-1.3,0.3-1.9,0.5c-2.9,1-6.3,0.4-8.7-1.4c-1.3-1-2.4-2.5-2.1-4.1
				c0.4-1.7,2.2-2.7,3.8-3.3c2.8-1.1,5.9-2,8.9-1.6c2,0.2,3.9,1,5.8,1.5c1.9,0.5,4.1,0.8,5.9,0.1c1.4-0.5,3.2-2.1,3.1-3.7
				c-0.1-1.4-2.7-3-3.7-3.9c-1.8-1.5-3.2-3.5-3.8-5.7c-0.6-2.3,0.1-3.7,0.5-5.9c0.9-4.5,0.9-9.2,0.1-13.7c-0.2-1.4-0.6-3,0.2-4.2
				c0.5-0.8,1.3-1.4,2.1-1.9c5.4-3.4,11-6.5,16.8-9.2c1.7-0.8,3.5-1.6,5.4-1.5c2.3,0.1,4.3,1.8,5.5,3.6c3,4.7,5.3,10.3,10.6,12.9
				c3.1,1.5,6.5,2.4,9.9,2.8c3.2,0.4,6.5,0.9,9.7,1.4c2.4,0.4,4.7,0.7,7.1,0.7c3.8,0,7.4-0.9,10.4-3.5c2.2-1.9,4.9-3.3,7.6-4.4
				c3.3-1.3,6.6-1.3,9.6,0.8c4.4,3.1,9.1,3.5,14.1,1.6c1.3-0.5,2.7-0.8,4.2-0.9c3.3-0.2,6,1,7.8,3.7c2.8,4.4,3.2,9.1,1,13.9
				c-0.6,1.2-1.4,2.3-2.4,3.2c-2,1.8-4.3,2.3-6.9,1.3c-2.2-0.9-4.1-2.3-5.4-4.2c-2.2-3.3-5.7-4.7-9.2-5.6c-3.5-0.9-7.5,0.9-9.7,4.2
				c-1,1.5-0.5,3.3,0.4,4.8c0.7,1.2,1.6,2.4,2.5,3.5c1,1.3,2,2.5,2.6,4c0.4,0.8,0.7,1.6,1,2.4c1,3.2,0.1,6-2.2,7.4
				c-2.1,1.3-5.1,0.8-7.5-1.3c-2.6-2.3-4.1-5.4-5.8-8.4c-0.3-0.6-0.6-1.3-0.9-1.9c-2.5-5.2-6.9-7.8-12.5-8.4
				c-2.4-0.3-3.5,0.5-4.2,2.9c-0.2,0.7-0.3,1.4-0.4,2.1c-0.2,6.4,1.2,12.5,4.7,18c2.3,3.6,5.7,6,9.6,7.5c3.8,1.4,7.6,2.3,11.6,2.4
				c5.7,0.1,11.3-0.3,16.9-1c6.4-0.8,12.7-0.9,19,0.4c3.7,0.8,7.1,2.2,10.2,4.5c3.3,2.4,5.5,5.5,6.9,9.3c0.8,2.1,0.9,4.4,0.4,6.6
				c-1.1,5-6.1,7.5-10.8,5.5c-2.2-0.9-4-2.3-5.7-3.9c-1.8-1.7-3.5-3.5-5.2-5.3c-2.6-2.7-5.7-3.9-9.4-4.1c-2.2-0.1-4.3,0.1-6.4,0.6
				c-2.5,0.6-3.5,1.9-3.3,4.5c0.1,2.6,1.2,4.9,2.9,6.9c2.2,2.5,4.7,4.7,7.3,6.9c2,1.6,3.8,3.4,5.3,5.5c1.8,2.6,2.6,5.5,1.4,8.6
				c-1.2,3.3-4.1,4.7-7.4,3.9c-2-0.5-3.6-1.6-5-3.1c-2.9-3-5-6.6-6.9-10.3C482.5-8.3,482.1-9.1,481.9-9.6L481.9-9.6z"/>
			<g>
				<path class="st7" d="M130.7,50C130.7,50,130.7,50,130.7,50c1.5-0.9,2.4-2.5,1.9-4.7c-1.6-7.4-6.1-15.8-13.7-18.5
					c-8.6-3-17.8,5.8-18.5,14.2C99.1,57.7,123.2,65.8,130.7,50L130.7,50z M110.4,41.4c0.7-3,4-6.8,6.9-4.3c2.4,2,4.1,5,5.1,8
					c-0.3,0.4-0.6,0.8-0.9,1.3C118.8,52.2,109.1,47,110.4,41.4z"/>
				<path class="st7" d="M160.4,32.9c1.3-0.9,2.2-2.4,2-4.4c-0.4-5.7-3.8-11.4-8.7-14.4c4.7-6.5,4.4-16.1-0.4-22.5
					c-4.1-5.6-10.8-7.5-16.6-4.7c0-0.1,0-0.2-0.1-0.3c0-0.1,0-0.2-0.1-0.4c0-0.1-0.1-0.2-0.1-0.3c-0.2-0.8-0.4-1.6-0.7-2.3
					c-0.4-1.2-1.1-2-1.9-2.4c-2.4-2.8-5.6-4.1-9.2-4.2c1.3-3.4,1.4-7.3,0.1-10.7c2.4-0.5,4.5-1.7,6.2-3.2c2.7,3.3,7.2,5,11.7,4.7
					c7.1-0.4,12.9-5,16.1-11.1c1.2-0.9,2-2.4,1.7-4.4c0-0.3-0.2-0.6-0.2-1c4.6,2.9,10.4,3.9,15.6,1.7c2.2,0.7,4.8,0,5.7-2.9
					c2.4-7.5,2.4-17.8-3.6-23.8c-3.1-3-7.1-4-11.1-3.4c4.3-7.1,1.7-15.3-5.8-19.4c-7.6-4.2-18-2.1-22.7,5.5
					c-4.4,7.1-4.8,17.5,3.3,22.4c3.7,2.3,7.6,3,11.3,2.4c-0.9,2.4-0.9,4.8-0.4,7.1c-2.7-1.5-5.9-2.2-9.2-1.8
					c-3.1,0.4-5.9,1.6-8.2,3.5c-0.2-0.3-0.4-0.5-0.6-0.8c-2.6-2.8-6.3-4.7-10.3-4.7c-8.4,0-17.1,5.3-17.4,14.6
					c-0.1,2.4,0.5,4.7,1.5,6.7c-2.5,0.7-4.8,2.1-6.8,4.3c-4.6,5-6.3,12.7-1.1,18c2.1,2.2,4.6,3.5,7.4,4.2
					c-3.8,4.6-5.2,10.8-1.6,17.3c4.6,8.2,14.7,9.1,22.2,4.4c0.4-0.3,0.8-0.6,1.2-0.9c1.5,4.1,4.4,7.7,8.1,9.7c-3,2.6-5,6.5-4.9,10.7
					c0.1,7.9,5.3,14.3,13.3,15.6C152.6,42.7,159.2,39.4,160.4,32.9L160.4,32.9z M120.9-43.4c-1.9-0.3-4.4-1.6-4.2-3.9
					c0.3-3.6,2.8-5.7,6.4-5.9c1.6-0.1,2.8,0.2,3.8,1.1c-0.2-0.2,0.2,0.5,0.2,0.6c0,0.4,0,0.8-0.1,1.2c-0.5,0.7-0.9,1.5-1.1,2.5
					C125.5-44.4,123.8-43,120.9-43.4L120.9-43.4z M114.7-24.9c-4.8,1.2-10.9-1.9-5.5-6.3c4.3-3.5,8.1,0.8,5.8,5.4
					C114.9-25.5,114.8-25.2,114.7-24.9z M157.2-79.5c-0.1,0.1-0.2,0.1-0.2,0.2c-2.1,2.5-6.2,4.9-9.3,2.6c-2.9-2.1-3.4-5.6-1.3-8.6
					c2.4-3.4,6-4.7,9.9-2.9c2.9,1.4,3.9,3.7,1.9,6.3C157.6-81,157.3-80.3,157.2-79.5L157.2-79.5z M162.8-64.1
					c2.1-2.4,6.7-5.4,8.9-1.8c1.5,2.6,1.8,6.1,1.3,9.2c-0.3,0.1-0.5,0.1-0.8,0.3C168.4-54.7,158.7-59.3,162.8-64.1L162.8-64.1z
					 M150.2-48.4c-1.3,2.9-3.6,5.4-6.9,5.9c-1.5,0.2-2.8,0.3-4-0.3c-0.3-0.2-0.7-0.7-0.8-1C137.6-50.5,147.5-53.9,150.2-48.4z
					 M122.9-1.9c-2.3,1.4-6.6,2.3-8-0.8c-2-4.3-0.2-7.7,4.1-9.6c3.4-1.5,6.7-1.9,8.1,1.5C127.7-7.2,126.2-3.9,122.9-1.9L122.9-1.9z
					 M146.7,6.3C146.7,6.3,146.7,6.3,146.7,6.3c-5.4,4-11.6-6.3-6.7-10c2.6-2,4.8-0.7,6.1,2.2C147.2,1.1,147.6,3.8,146.7,6.3z
					 M150.6,31.5c0.2-0.3-0.3,0.2-0.6,0.3c-0.5,0.2-1.9,0.3-2.8,0c-2.9-1-5.2-2.9-4.5-6.3c0.6-3.1,2.7-4.6,5.5-3.2
					c2,1,3.2,2.7,3.9,4.8c-0.7,0.7-1.2,1.7-1.2,3C150.8,31.1,150.9,31.1,150.6,31.5L150.6,31.5z"/>
				<path class="st7" d="M136.7,28.5c1-0.5,1.8-1.3,2.4-2.5c4-9.3,0.5-24.1-11.6-24.1c-8.5,0-19.1,6.7-19.1,16.1
					c0,7.2,4,14.3,10.9,17.2C126.5,38.1,132.7,34.5,136.7,28.5L136.7,28.5z M130.2,21.3c-0.7,0.5-1.3,1.2-1.8,2.1
					c-0.9,1.6-2,2.6-3.3,3c-0.4,0.1-1.5,0-2.8-0.7c-0.6-0.3-2-1.5-2.9-2.8c-0.6-1-1.3-2.5-1.3-4c0-0.9,0.4-2.3,1.3-3.4
					c1.4-1.7,4-2.9,6.3-3.5C131.1,10.4,131.3,17.5,130.2,21.3L130.2,21.3z"/>
				<path class="st7" d="M180.1,21.1c1.6-0.5,3-1.8,3.4-3.9c1.5-7.3-0.6-18.6-8.9-21.2c-8.4-2.6-17.7,3.9-20.3,12
					c-2.4,7.4,0.2,15.4,7.4,19C168.6,30.4,175.9,27,180.1,21.1L180.1,21.1z M174,13c-0.5,0.3-0.9,0.8-1.3,1.4
					c-1.6,2.5-4.5,5.2-6.8,3.7c-2-1.3-3.5-3.7-2.4-6.5c0.9-2.2,5.3-8.2,8-6.2C173.7,7.2,174.2,10.2,174,13L174,13z"/>
				<path class="st7" d="M103.5,6.5c7.4-5.7,9.5-15.1,5.9-23.6c-0.4-0.9-0.9-1.5-1.5-2c-4.1-5.2-11.5-5.6-18-1.3
					C82.2-15.3,78.1-6,82.6,2.7C86.7,10.7,96.7,11.7,103.5,6.5z M98.5-2.2c-2,1.7-5.2,3.3-6.7,1.2c-2.5-3.5-1-7.6,2.2-10.1
					c2.2-1.8,5.9-4.3,6.7-0.7c0.1,0.3,0.1,0.5,0.2,0.7C101.6-7.9,101.1-4.5,98.5-2.2L98.5-2.2z"/>
				<path class="st7" d="M83.2-0.7c-0.1-0.5-0.3-1-0.4-1.4c0.3-4.3-1.5-8-4.5-10.5c1.9-1,4.1-2.2,5.8-1.9c3.8,0.8,5.7-2.5,5.2-5.5
					c4.1-6.1,1.9-14.4-3.7-19.1c-6.5-5.6-15.5-5.3-21.4,1c-6,6.3-6.9,16.9-0.2,23.1c-7.2,2.2-12.3,9.1-11.1,17.2
					C55.3,19.9,86.3,17.8,83.2-0.7z M79.9-24.2c-0.3,0.3-0.5,0.6-0.7,0.9c-1.9,0.9-3.8,2-6.1,2.2c-4.5,0.4-5-6.1-3.1-8.7
					c2.3-3.3,5.6-4.6,8.8-1.8C81.5-29.5,82.3-26.7,79.9-24.2L79.9-24.2z M72.7,3.4c-0.9,0.7-2.2,1.2-3.7,1.3
					c-2.7,0.2-5.9-0.7-6.3-3.2c-0.6-4,1.6-7.2,5.7-7.3c2.2-0.1,5.2,1,4.7,3c-0.4,1.5-0.3,3,0.3,4.2C73.6,2.5,73.3,2.9,72.7,3.4
					L72.7,3.4z"/>
				<path class="st7" d="M153.7,51.8c1.4-6.9-4.2-13.9-11.5-14.4c-8.2-0.5-16.3,6.8-15.2,15.4c1,7.3,8.1,11.6,15.1,11.4
					C149.3,64.1,153.3,58.3,153.7,51.8L153.7,51.8z M143.1,53.9C143.1,53.9,143.1,53.9,143.1,53.9c-0.2,0.1-0.3,0.2-0.4,0.3
					c-0.2,0.1-0.3,0.1-0.3,0.1c-0.5,0.1-1.3,0.1-1.1,0.2c-0.4,0-0.7,0-1.1-0.1c-0.1,0-0.2,0-0.3,0c-0.1,0-0.1,0-0.2-0.1
					c-0.4-0.1-0.8-0.3-1.2-0.5c0,0,0,0,0,0c-0.3-0.2-0.6-0.4-0.8-0.6c-0.2-0.2-0.4-0.4-0.4-0.5c0,0-0.4-0.8-0.3-0.3
					c0-0.1-0.1-0.8-0.1-0.8c0.1-0.4,0.1-0.9,0-0.3c0.4-1.2,0.6-1.6,1.3-2.5c1-1.2,1.9-1.6,3-1.4c1.4,0.2,2.2,0.6,2.8,1.4
					c0.1,0.2,0.2,0.3,0.2,0.4c-0.1,0.3-0.1,0.6-0.1,0.9c-0.1,0.3-0.3,0.6-0.5,1.1C142.9,52,142.9,53,143.1,53.9L143.1,53.9z"/>
				<path class="st7" d="M107.7,34.1c2.3-0.8,3.2-2.6,3-4.5c2.5-6.2,0.8-14.3-4.4-18.5c-6.5-5.3-15.3-3.3-19.5,3.7
					c-3.9,6.3-4.7,15.5,1,21.1c2.9,2.8,6.8,3.7,10.7,2.6c2.4-0.7,4.5-2.1,6.8-3.3C106,35,106.8,34.7,107.7,34.1
					C107.6,34.1,107.6,34.1,107.7,34.1z M101.1,26.3c-2.5,1.4-5.6,3.2-6.2,2.7c-2.3-1.8-1.5-5.6-0.4-8
					C97.8,14.1,103.7,21.3,101.1,26.3z"/>
			</g>
			<path id="f" class="st1" d="M126.6,144.6c3.8-6.3,11.8-8.7,16.6-14c2.5-2.7,0.1-1.5-1.9-0.6c-2,0.9-11.6,7.9-12.8,6.8
				c-0.1,0-0.3-0.1-0.4-0.2c-5.9-3.8,3.6-9,6.6-10.6c3.7-2,7.9-3.6,10.9-6.6c3.4-3.3,7.8-12.6,11.1-15.2c1.3-1.1,2.7-1.7,3.9-1.8
				c4.3-11.9,8.6-23.2,10.2-35.9c1.5-11.7,2.2-23.8,5.3-35.3c2.9-10.9,7.3-21.3,10.4-32.1c2.5-8.6,4.5-17.4,8.8-25.3
				c0.3-0.6,0.8-0.8,1.3-0.9c2.9-0.9,3.6,1.7,3.8,2.3c13.7,15.9,13.1,40,12.1,59.7c-0.9,19.4-2.4,39.1,4.1,56.6
				c2.8-0.4,5.1,1.4,7.1,3.7c1.4,1.6,2.5,3.3,4.7,3.9c1.6,0.5,3.3,0.8,4.7,1.9c1.1,1,0.5,2.4-0.5,2.9c0.1,0,0.3,0.1,0.4,0.1
				c4.6-0.3,9.3-1.3,14.1-0.8c1.7,0.2,1.9,2.8,0.3,3.3c-7.3,2.5-16.8,0.9-17.1,1c2.1,0.8,4.3,1.5,6.5,1.9c0.9,0,1.8,0.1,2.8,0
				c3.2-0.2,6.1-0.3,9.3,0.4c1.9,0.4,1.8,3.2-0.2,3.4c-3.9,0.5-7.7,0.4-11.4-0.2c-0.3,0-0.6,0-0.9,0c0.4,0.2,0.9,0.4,1.3,0.6
				c3.4,0.9,6.9,1.5,10.6,2.3c1.9,0.4,1.8,3.3-0.2,3.4c-4.6,0.3-8.7-1.1-12.5-3c-1.2-0.4-2.4-0.8-3.6-1.2c0.5,0.2,0.9,0.5,1.4,0.6
				c2.1,0.6,1.5,4.1-0.6,3.4c-3-0.9-7.3-5.7-9.2-7.9c-0.2-0.2-0.5,0-0.3,0.2c0.8,1.5,2,3.7,2.2,4c1.3,1.5-1.1,3.7-2.5,2.3
				c-0.3-0.3-1.8-1.9-2.1-2.5c-2-3-3.2-6.5-5.1-9.6c-0.6-1-4.6-9.2-1.9-12.4c-5.5-14.1-6.3-29.9-5.3-45.9c1.2-18.3,3.9-41.5-4-59.3
				c1.6,6.5,2.5,13,1.9,19.9c-1.3,14.2-6.6,27.9-6.3,42.2c0.3,13.7,3.1,26.9,5.4,40.3c1.2,6.8,1.9,13.5,2.3,20.2
				c2.3,2.3,2.7,7.1,5.3,9.1c4.4,3.5,9.6,4.1,14.9,4c1.1,0,2.2-0.1,3.3-0.1c2.2-0.1,2.5,3.4,0.2,3.5c0,0,0,0,0,0
				c4.2,0.4,8.5,0.1,11.9-0.1c1.9-0.1,2.6,2.7,0.7,3.4c-7.3,2.4-14.4,0.1-21.6-0.4c3.3,2,6.7,3.4,10.4,4.9c2.6,1.1,4.6,2.1,6.3,4.4
				c0.9,1.2-0.3,3-1.7,2.7c-6.4-1.2-11.6-5.5-17.5-8c5.4,4.2,11.9,8.5,12.1,14.9c0,1.4-1.7,2.6-2.9,1.5
				c-11.2-11.4-31.9-19-27.4-38.3c0.3-1.2,2.2-2.2,2.3-2.2c-0.5-7.4-1.3-14.7-2.7-22.1c-2.3-12.2-5-24.7-4.9-37.3
				c0.2-11.7,3.3-22.6,5.2-34.1c1.8-11.2,0.8-21.2-1.9-31.4c0.3,9.1,0.1,18.2-1,27.2c-1.7,13.3-5.8,26-7.9,39.1
				c-2.4,14.4-2.2,28.9-0.5,43.3c0.8,6.6,0.9,14.1,3,20.5c0.2,0.7,9.1,16.8,10.2,19.2c4.1,8.9,11.9,14.4,17.3,22.3
				c0.9,1.3-0.3,2.8-1.7,2.7c-5.9-0.6-8.2-6.1-11.5-10.2c1.3,5.8,6.2,10.7,7,16.7c0.1,0.9-0.7,1.8-1.6,1.9
				c-3.8,0.3-6.5-8.4-8.8-14.4c0.1,3.7,0.7,7.3,0.9,11c0.1,1.7-2.1,2.6-3.1,1.1c-1.8-2.5-1.1-3.4-2.3-7.9c-1.2-5.2-1.4-10.6-4-15.3
				c-1.9-3.4-3.7-6.9-4.8-10.6c-0.8-2.5-0.4-5.9,1.7-7.4c-1.9-2.9-2.9-8.2-3.2-10.2c-2.4-15.6-4.4-31.2-3.8-47.1
				c0.5-15,5.4-29,7.9-43.7c1.6-9.2,2.5-18.4,2.7-27.7c-3.4,16.9-8.9,33.2-12.1,50.3c-4.3,22.7-5.6,46.8-3.7,69.8
				c7.2,1.7,7.6,16.7,8,22c0.4,5.6,1.4,10.7,3.6,15.6c0.2,0.2,0.3,0.4,0.3,0.7c0.7,1.5,1.5,2.9,2.4,4.3c2.8,4.2,3,7,4.1,11.6
				c0.3,1.3-0.5,2.4-1.9,2.3c-12.2-1.1-10.8-11.6-13.4-20.8c-1.7-5.7-3.4-2.7-3.2,2.1c0.2,3.1,0.7,6.2,0.6,9.3
				c-0.2,4.2-0.9,7.4-4.4,10c-0.8,0.6-1.9,0.3-2.4-0.4c-4.1-5.6-1.8-12-1-18.3c-3.3,5-0.2,16.5-9.4,16.1c-1.1-0.1-2-0.8-1.9-2
				c0.1-0.3,0.1-0.7,0.2-1c0.1-0.6,7.7-14.5,8.6-22.3c0.6-5,0.6-10,0.9-15c0.3-4.4,0.8-12.4,5.5-14.1l-0.1-0.7c0,0,0-0.1,0-0.1
				c-1.7-21.8-0.9-45.2,3.2-66.7c4.1-21.4,11.5-42,14.5-63.6c-2.3,6.7-3.9,13.8-6.3,20.5c-4.1,11.9-8.7,23.8-10.7,36.3
				c-1.8,11.8-2.4,23.9-4.9,35.6c-2,9.2-5.5,17.8-8.8,26.6c0.9,0.9,1.5,2.4,1.6,4.4c0.3,8.9-2.5,17.8-4.8,26.3
				c-2.1,7.7-0.7,18.2-6.3,24.1c-0.9,1-2.4,0.7-3-0.5c-1.9-4.3-2-8.6-1-13.2c0.5-2.4,1.1-4.9,1.4-7.3c0.4-2.9-0.4-2.4-1.1,0.7
				c-1.1,4.9-2.2,10.3-4.8,14.7c-1.3,2.2-4.4,2.1-5.1-0.6c-1.8-7.4,3.3-12.9,6.2-19.3c-6.2,5.1-9.6,15.8-19,14.3
				C126.8,146.9,126,145.6,126.6,144.6L126.6,144.6z"/>
			<path class="st5" d="M284.7-106.1c4,4,7.2,8.6,9.8,13.5c3.2,6.2,5.8,12.7,8.7,19.1c0.4,0.9,0.8,1.7,1.3,2.5c0.4,0.7,1.2,1,2,0.6
				c0.9-0.4,0.9-1.2,0.5-1.9c-4.2-8.7-7.3-17.9-12.5-26.1c-4-6.4-9-11.9-15.8-15.5c-1.1-0.6-1.8-1.1-1.4-2.6
				c0.9-3.1,1.8-6.2,2.8-9.3c4-12.1,9.1-23.9,15.8-34.9c3.3-5.5,7.1-10.7,11.2-15.7c1.9-2.2,3.7-4.7,6.1-6.4
				c2.3-1.6,4.1-4.3,7.3-4.4c2.8-0.1,4.7,2.3,6.3,4.2c3.8,4.4,6.4,9.6,8.7,14.9c2.7,6.4,4.9,12.9,5.5,19.9c0.1,0.7,0.3,1.5-0.3,2.2
				c-0.5-0.2-1-0.2-1.4-0.4c-3.6-1.4-7.2-1.2-10.8,0.2c-4.4,1.7-8.2,4.3-11.5,7.7c-5.3,5.4-8.1,12-10,19.2
				c-2.1,7.8-3.6,15.7-5.2,23.6c-0.1,0.5-0.2,0.9-0.2,1.4c0,0.9,0.2,1.8,1.2,2c1,0.2,1.6-0.5,1.9-1.3c0.3-0.8,0.4-1.7,0.6-2.5
				c1.1-5.2,2.2-10.4,3.3-15.6c1-4.6,2.2-9.2,4-13.6c2.6-6.5,6.8-11.7,12.8-15.5c2.2-1.4,4.5-2.5,7-3.1c2.9-0.7,5.5-0.1,8.2,1.8
				c-0.7,0.4-1,0.7-1.3,0.8c-6.2,1.9-10.8,6.1-14.7,11.1c-3.9,5.2-6.5,11.1-8.4,17.3c-2.1,6.8-3.9,13.7-5.8,20.5
				c-0.2,0.5-0.3,1.1-0.3,1.7c0,0.7,0.3,1.3,1,1.5c0.7,0.2,1.3,0,1.8-0.6c0.6-0.8,0.7-1.7,1-2.6c1.6-5.7,3.2-11.5,4.8-17.2
				c1.6-5.4,3.6-10.6,6.5-15.4c2.8-4.6,6.2-8.6,10.8-11.4c1-0.6,2-1.1,3.1-1.5c0.4-0.1,0.8-0.1,1,0.2c0.2,0.3,0.2,0.7,0,1.1
				c-0.3,0.5-0.7,0.9-1,1.4c-3.7,5.1-6.9,10.5-9.1,16.3c-3.3,8.8-5.7,17.8-8.1,26.9c-0.2,0.6-0.3,1.3-0.2,2c0,0.8,0.4,1.5,1.3,1.6
				c0.8,0.1,1.3-0.3,1.6-1c0.3-0.8,0.5-1.6,0.7-2.4c1.9-7.1,3.8-14.3,6.1-21.3c1.9-5.9,4.5-11.5,7.8-16.7c0.4-0.6,0.6-1.4,1.5-1.5
				c0.5,0.9,0.2,1.9,0.1,2.8c-0.7,6.5-1.4,13-2.1,19.5c-1,10-1.7,20,0.1,29.9c1-0.5,2-1,3.1-1.5c-0.2-1.2-0.4-2.4-0.5-3.7
				c-0.6-6.8-0.3-13.6,0.3-20.4c0.2-2.7,0.3-5.4,1-8.1c0.8,0.5,0.6,1.1,0.7,1.6c0.5,5.4,0.4,10.8,0.4,16.2c0,1.8-0.1,3.6-0.1,5.4
				c0,0.8,0.5,1.5,1.3,1.6c0.9,0.1,1.4-0.4,1.7-1.2c0.3-0.6,0.3-1.3,0.3-1.9c0-4.6,0-9.3-0.1-13.9c-0.2-7.7-0.9-15.3-2.3-22.9
				c-0.3-1.8-0.4-3.6,0.3-5.5c1.2,0.7,1.6,1.7,2.2,2.5c2.1,3.2,3.6,6.7,4.9,10.2c3,7.8,4.5,16,6.1,24.2c0.5,2.3,0.8,4.7,1.2,7
				c0.2,0.9,0.7,1.6,1.7,1.5c1-0.1,1.5-0.8,1.5-1.8c-0.1-1.4-0.2-2.8-0.5-4.2c-0.9-4.7-1.8-9.3-2.8-13.9c-2-9.2-5-18.1-10.3-26
				c-0.2-0.3-0.5-0.6-0.2-1.2c1,0.2,1.7,1,2.5,1.6c5.9,4.8,10.2,10.9,13.8,17.5c2.9,5.3,5.6,10.8,8.4,16.1c0.4,0.8,0.9,1.7,1.4,2.5
				c0.6,1,1.5,1.6,2.6,0.9c1-0.7,0.6-1.7,0.2-2.5c-0.1-0.3-0.3-0.5-0.4-0.7c-2.2-4.2-4.3-8.4-6.5-12.7c-2.3-4.5-4.8-9.1-7.8-13.2
				c-4.2-5.7-9.1-10.7-15.4-14c-0.2-0.1-0.5-0.3-0.4-0.7c0.5-0.5,1.2-0.4,1.9-0.3c4.8,0.3,9.3,1.4,13.5,4c5.4,3.4,9.8,7.7,13.6,12.7
				c4.1,5.4,8.1,11,11.9,16.6c0.5,0.8,1,1.6,1.8,2.2c0.6,0.4,1.3,0.4,1.9,0c0.6-0.4,0.8-1.1,0.5-1.8c-0.3-0.6-0.6-1.2-1-1.7
				c-4.1-6.1-8.3-12-12.7-17.8c-2.7-3.5-5.7-6.8-9.2-9.6c-4.7-3.8-9.9-6.7-16.1-7.3c-0.5-0.1-1.1-0.1-1.6-0.8
				c0.9-0.4,1.8-0.3,2.7-0.3c4.6,0.3,8.9,1.7,13.1,3.5c6.2,2.7,11.9,6.2,17.6,9.7c3.8,2.3,7.5,4.7,10.9,7.7c0.9,0.7,1.8,1.6,3,0.6
				c0.8-0.7,0.6-1.7-0.9-3.1c-1.3-1.2-2.6-2.3-4-3.2c-7.2-4.9-14.6-9.5-22.4-13.4c-3.8-1.9-7.8-3.5-12-4.3
				c-4.7-0.9-9.4-1.1-13.9,1.1c-0.2,0.1-0.5,0-0.8,0c-0.1-0.5-0.2-1-0.2-1.4c-0.8-10.6-4.5-20.3-9.6-29.5c-1.3-2.4-2.9-4.7-4.6-6.9
				c-1.9-2.3-4.1-4.4-5.2-7.2c-0.4-1-0.3-2.7-1.2-3.4c-1-0.8-3-0.3-4.1-0.3c-0.5,0-1,0.1-1.5,0.3c-0.8,0.5-0.7,1.3-1,2.1
				c-0.2,0.8-0.7,1.4-1.1,2.1c-1.2,1.9-3.2,3.3-4.8,4.9c-6.1,6.2-11.5,13.1-16.2,20.4c-8.8,13.7-14.9,28.5-19.5,44
				c-1.2,3.9-1.2,3.9-5.2,3.9c-5.6,0.1-10.8,1.9-15.5,4.9c-7.5,4.8-14.3,10.6-20.5,17c-1,1-1.9,2.1-2.5,3.4
				c-0.4,0.8-0.6,1.7,0.4,2.2c0.8,0.4,1.4-0.1,1.9-0.8c5.2-7,12.2-12.1,19-17.4c3.9-3,8.2-5.2,12.9-6.3c0.9-0.2,1.8-0.6,2.7-0.2
				c0,0.7-0.6,1-1.1,1.3c-1.4,0.9-2.8,2-4.3,2.8c-10.6,5.8-16.7,15.4-22.3,25.5c-1.1,2-1,2.9,0,3.2c1.5,0.4,1.9-0.9,2.4-1.8
				c2.3-4.4,5.1-8.4,7.9-12.5c1.9-2.6,4-5,6.5-7.1c0.7-0.6,1.3-1.4,2.3-1.5c0.3,0.9-0.4,1.2-0.7,1.7c-4.8,6.9-9.5,14-13.7,21.3
				c-0.9,1.6-1.7,3.4-2.5,5.1c-0.2,0.5-0.2,1.2,0.4,1.5c0.6,0.4,1.3,0.3,1.8-0.3c0.6-0.7,1-1.6,1.5-2.4c5.7-10.1,11.9-19.8,19-28.9
				c1.6-2.1,3.3-4.1,5.5-5.7c0.8,0.7,0.1,1.1-0.2,1.5C263-99,259.1-85.9,255.6-72.7c-0.2,0.9-0.3,1.9-0.1,2.8
				c0.2,0.8,0.7,1.4,1.6,1.3c0.8-0.1,1-0.7,1.1-1.4c1.5-8.7,4.5-17,7.8-25.2c1.1-2.7,2.2-5.4,4-7.7c0.8,0.5,0.5,1.1,0.4,1.6
				c-3.8,16.7-6,33.7-7.6,50.8c-0.1,1.4-0.2,2.8-0.3,4.2c-0.1,1.1-0.6,1.6-1.8,1.8c-2.8,0.4-5.6,0.9-8.3,1.7
				c-7.8,2.2-14.6,6.3-20.6,11.6c-4.7,4.1-8.9,8.8-12.5,13.9c-0.7,0.9-1.4,1.8-1.6,3c-0.1,0.6,0,1.2,0.6,1.5
				c0.7,0.4,1.3,0.2,1.8-0.4c0.3-0.4,0.6-1,0.9-1.4c6.7-9.5,14.7-17.6,25.3-22.8c2.7-1.3,5.4-2.6,8.5-3c-0.1,1.1-0.9,1.3-1.5,1.7
				c-6.3,4.6-11.3,10.3-15.4,16.9c-3.5,5.6-6.2,11.5-8.9,17.5c-0.3,0.7-0.6,1.4-0.5,2.2c0.1,0.8,0.5,1.5,1.4,1.5
				c0.8,0,1.1-0.4,1.4-1.2c1.4-4.2,3.5-8.2,5.5-12.1c4.4-8.6,10-16.3,17.8-22.2c1.3-1,2.6-2.1,4.2-2.6c0.2,0.7,0,1-0.2,1.3
				c-7.2,10.4-11,22.2-13,34.5c-0.3,1.8-0.5,3.6-0.7,5.3c-0.1,0.7-0.1,1.3-0.1,2c0,0.9,0.4,1.7,1.4,1.8c1.2,0.1,1.3-0.8,1.4-1.7
				c0.6-5.9,1.6-11.6,3.1-17.3c1.9-7.2,4.7-14,8.4-20.4c0.7-1.2,1.3-2.4,3-3.6c-0.1,2.7-0.1,4.9-0.2,7.1c-0.4,9.8-0.9,19.7-1.4,29.5
				c-0.3,6.1-0.7,12.1-1,18.2c-0.2,2.6-0.2,2.5-2.9,3.1c-4.9,1.1-9.2,3.5-12.7,7.2c-5.6,6-10.2,12.7-14.2,19.8
				c-0.6,1.2-1.1,2.4-1.4,3.7c-0.1,0.6,0,1.2,0.6,1.5c0.7,0.4,1.3,0.1,1.7-0.5c0.3-0.4,0.5-0.8,0.7-1.2c3.5-7.7,8.5-14.3,13.9-20.6
				c2.4-2.8,5.3-4.8,8.7-6.2c0.7-0.3,1.4-0.5,2.1-0.7c0,0.4,0.1,0.6,0,0.7c-5,5.1-7.1,11.6-8.5,18.3c-1.6,7.5-2.4,15.1-3.5,22.7
				c-0.1,0.6-0.1,1.3,0,2c0.1,0.6,0.5,1,1.2,1c0.6,0,1.2-0.3,1.3-0.9c0.2-1.1,0.4-2.2,0.6-3.4c1-6.8,1.8-13.7,3.1-20.5
				c0.9-4.6,2.1-9,4.5-13.1c0.9-1.5,1.8-3,3.3-4.1c0.6,0.9,0.2,1.5,0.1,2.1c-2.2,8.5-2.8,17.2-3.2,25.9c-0.2,4.5-0.3,9.1-0.5,13.6
				c0,1,0,2.1,0.1,3.1c0.1,0.7,0.6,1.2,1.3,1.2c0.8,0,1.2-0.5,1.3-1.3c0.1-1.5,0.2-3,0.3-4.5c0.2-8.3,0.4-16.7,1.3-25
				c0.5-4.7,1.2-9.4,2.4-14c0.2-0.6,0.2-1.3,1-1.8c0.9,0.7,1,1.9,1.3,2.9c1.7,5.9,2.3,12.1,3,18.2c0.8,7.1,1.3,14.2,1.2,21.3
				c0,1,0,2.1,0.2,3.1c0.1,0.9,0.7,1.7,1.7,1.6c1.1-0.1,1.2-1,1.2-1.9c-0.3-6.6-0.2-13.3-0.9-19.9c-0.7-6.7-1.4-13.4-3-19.9
				c-0.3-1.5-0.7-2.9-1.1-4.4c1-0.3,1.2,0.5,1.6,0.9c2.7,3.4,4.7,7.3,6.3,11.4c3.9,9.8,6.4,20,8.8,30.2c0.2,0.6,0.3,1.3,0.5,1.9
				c0.2,0.6,0.7,0.9,1.3,0.9c0.7-0.1,1.2-0.6,1.3-1.3c0-0.6,0-1.1-0.2-1.7c-2.5-10-4.8-20.1-8.5-29.7c-2.1-5.5-4.8-10.7-8.9-15.1
				c-1.3-1.4-2.5-2.8-4.7-2.9c-1.1,0-1.2-0.9-1.1-1.8c0.4-6.7,0.8-13.4,1.2-20.1c0.4-7.8,0.7-15.7,1.1-23.6c0.2-4.5,0.4-9,0.6-13.8
				c1.4,0.7,1.6,1.8,1.9,2.6c2.6,5.9,4,12.2,5.3,18.5c1.2,6.1,2.3,12.3,3.2,18.5c0.1,0.9,0.3,1.9,0.6,2.8c0.2,0.7,0.8,1.1,1.5,0.9
				c0.6-0.1,1-0.6,1-1.2c0-0.7,0-1.3-0.1-2c-1.5-8.8-2.8-17.6-5-26.2c-1.2-4.7-2.6-9.3-4.7-13.7c-0.2-0.5-0.7-1-0.3-1.6
				c1.1,0.2,1.7,1.1,2.4,1.8c4.1,4.1,6.8,9.1,8.9,14.4c2.2,5.8,3.8,11.9,5.3,18c0.2,0.8,0.2,1.7,0.3,2.5c0,0.9,0.3,1.5,1.3,1.5
				c0.9,0,1.3-0.6,1.5-1.4c0.2-1.2-0.1-2.5-0.3-3.7c-1.2-4.9-2.5-9.7-4.1-14.5c-1-3.2-2.3-6.2-3.8-9.2c-2.9-5.6-6.9-10.2-12.1-13.8
				c-1.9-1.3-2.4-2.8-2.2-5c1.1-12.7,2.6-25.4,4.8-38c1-5.7,2.2-11.3,3.5-17c0.2-0.9,0.4-1.8,1-2.7c1,1,0.8,2.1,0.9,3
				c1.3,10.8,1.8,21.7,2.1,32.6c0,0.9,0,1.7,0.2,2.6c0.1,0.9,0.6,1.4,1.6,1.3c0.8-0.1,1-0.7,1.1-1.4c0-0.6,0-1.1,0-1.7
				c0-12.7-0.9-25.4-2.8-37.9c-0.1-0.4,0-0.7-0.1-1.3c1,0.1,1.2,0.9,1.6,1.4c4,6.5,6.1,13.6,7.4,21c1.1,6.2,2,12.3,3,18.5
				c0.2,0.9,0.3,1.9,1,2.6c0.4,0.4,1,0.6,1.5,0.3c0.5-0.2,0.7-0.7,0.7-1.2c0-0.3-0.1-0.6-0.1-0.8c-1.6-6.6-2.1-13.5-3.4-20.2
				c-1.2-6.5-3-12.7-6.1-18.5c-0.2-0.4-0.6-0.8-0.3-1.4C283.8-107.2,284.2-106.5,284.7-106.1L284.7-106.1z"/>
			<path class="st5" d="M338.4,139.5c-0.2-0.8-0.5-1.6-0.8-2.4c-1.6-3.3-3.1-6.7-4.8-10c-4.8-9.9-11.9-17.9-20.4-24.9
				c-3.9-3.2-8.1-5.7-13.5-4.5c-1,0.2-1.4-0.3-1.5-1.2c-0.1-0.6-0.3-1.1-0.3-1.7c-1.6-10.5-3.2-21-5.2-31.4
				c-0.1-0.6-0.5-1.2,0.2-1.9c0.5,1,0.9,1.8,1.2,2.7c3,7.2,4.9,14.7,6.9,22.2c0.1,0.5,0.2,1.1,0.4,1.7c0.3,0.8,0.9,1.3,1.8,1.1
				c0.8-0.2,1.3-0.8,1.3-1.7c-0.1-1-0.2-2.1-0.5-3.1c-0.7-2.8-1.5-5.7-2.3-8.5c-2.4-8.6-5.4-17-11.1-24.1c-0.1-0.2-0.1-0.4,0.2-0.6
				c0.3,0.2,0.7,0.5,1,0.8c1.2,1.1,2.3,2.2,3.4,3.4c7.7,8.1,13.1,17.8,18.4,27.6c0.3,0.5,0.5,1,0.8,1.5c0.4,0.6,0.9,1,1.7,0.8
				c0.8-0.2,1.2-0.9,1.2-1.7c0-1-0.5-1.8-0.9-2.7c-2.7-5-5.5-10-8.5-14.8C303,59.9,298.2,54,292.4,49c-0.4-0.3-1-0.5-0.7-1.4
				c3.3,0.3,6,2,8.6,4c4.2,3.2,7.5,7.2,10.6,11.4c3.6,5,7.1,10.1,10.4,15.2c0.4,0.6,0.8,1.3,1.3,1.9c0.5,0.5,1.1,0.7,1.8,0.3
				c0.6-0.4,0.9-1,0.8-1.7c-0.1-0.9-0.6-1.6-1.1-2.3c-4-6.2-8.1-12.4-12.6-18.2c-3.3-4.3-7.2-8-11.8-11c-0.4-0.2-0.9-0.4-0.9-1
				c3.1,0.2,6.7,1.6,10.3,4.2c8.4,5.8,14,14,19.2,22.5c0.3,0.5,0.5,1,0.8,1.5c0.4,0.6,1.1,0.8,1.8,0.5c0.6-0.2,0.8-0.7,0.9-1.3
				c0.1-1.3-0.4-2.4-1.1-3.5c-4-6.5-8.4-12.6-13.9-17.9c-5.6-5.4-12.1-9.1-20-9.9c-2.7-0.3-5.5-0.6-8.2,0c-2.3,0.5-2.3,0.5-3.1-1.6
				c-4-10-9.4-19.2-16.4-27.4c-2.3-2.7-4.7-5.5-7-8.2c-4.1-4.9-8-9.9-10.9-15.6c-0.3-0.5-0.9-1.1-0.2-1.9c1.4,0.7,2.7,1.7,3.9,2.7
				c3.2,2.6,5.9,5.6,8.5,8.8c3.8,4.7,7.3,9.7,10.7,14.7c1.2,1.8,2.3,2.2,3.2,1.5c1.3-1.2,0.2-2.2-0.4-3.2c-3.3-5.1-6.8-10-10.6-14.8
				c-4.2-5.2-8.9-9.8-14.9-13c-0.3-0.2-0.7-0.3-1-0.5c2.4-0.1,2.9,0,5.5,1.4c9.4,5.2,17.7,11.7,23.1,21.3c1.8,3.2,3.9,6.3,5.4,9.7
				c0.2,0.4,0.4,0.9,0.7,1.2c0.4,0.6,1,0.9,1.7,0.6c0.7-0.3,1-0.9,1-1.6c0-1.1-0.5-2-1-2.9c-6.7-13.9-16.4-25-30.6-31.6
				c-0.6-0.3-1.5-0.4-1.7-1.2c0.3-0.8,1.1-0.7,1.7-0.8c5.1-1,9.7,0.5,14.1,3c9.3,5.4,16.9,12.7,24.1,20.6c0.3,0.3,0.5,0.6,0.7,0.9
				c0.7,0.8,1.5,1.2,2.5,0.5c0.8-0.6,0.7-1.5,0.2-2.3c-0.4-0.6-0.8-1.3-1.4-1.8c-5.7-6-11.4-11.9-18.2-16.7
				c-0.6-0.4-1.4-0.6-1.5-1.5c0.3-0.2,0.6-0.1,0.8,0.1c5.6,3.1,11.1,6.6,16,10.8c0.7,0.6,1.3,1.4,2,2c0.5,0.5,1.2,0.6,1.8,0.2
				c0.8-0.5,0.8-1.2,0.5-2c-0.5-1.2-1.4-2-2.3-2.8c-6.5-5.3-13.3-10-21.1-13.3c-3.4-1.5-7-2.5-10.8-2.3c-5.2,0.3-10.1,1.3-14.9,3.3
				c-1.7,0.7-1.9,0.6-2.3-1.1c-0.6-2.5-1.1-5-1.3-7.6c-0.6-6.8-0.3-13.6,0.3-20.4c0.2-2.7,0.3-5.4,1-8.1c0.8,0.5,0.6,1.1,0.7,1.6
				c0.5,5.4,0.4,10.8,0.4,16.2c0,1.8-0.1,3.6-0.1,5.4c0,0.8,0.5,1.5,1.3,1.6c0.9,0.1,1.4-0.4,1.7-1.2c0.3-0.6,0.3-1.3,0.3-1.9
				c0-4.6,0-9.3-0.1-13.9c-0.2-7.7-0.9-15.3-2.3-22.9c-0.3-1.8-0.4-3.6,0.3-5.5c1.2,0.7,1.6,1.7,2.2,2.5c2.1,3.2,3.6,6.7,4.9,10.2
				c3,7.8,4.5,16,6.1,24.2c0.5,2.3,0.8,4.7,1.2,7c0.2,0.9,0.7,1.6,1.7,1.5c1-0.1,1.5-0.8,1.5-1.8c-0.1-1.4-0.2-2.8-0.5-4.2
				c-0.9-4.7-1.8-9.3-2.8-13.9c-2-9.2-5-18.1-10.3-26c-0.2-0.3-0.5-0.6-0.2-1.2c1,0.2,1.7,1,2.5,1.6c5.9,4.8,10.2,10.9,13.8,17.5
				c2.9,5.3,5.6,10.8,8.4,16.1c0.4,0.8,0.9,1.7,1.4,2.5c0.6,1,1.5,1.6,2.6,0.9c1-0.7,0.6-1.7,0.2-2.5c-0.1-0.3-0.3-0.5-0.4-0.7
				c-2.2-4.2-4.3-8.4-6.5-12.7c-2.3-4.5-4.8-9.1-7.8-13.2c-4.2-5.7-9.1-10.7-15.4-14c-0.2-0.1-0.5-0.3-0.4-0.7
				c0.5-0.5,1.2-0.4,1.9-0.3c4.8,0.3,9.3,1.4,13.5,4c5.4,3.4,9.8,7.7,13.6,12.7c4.1,5.4,8.1,11,11.9,16.6c0.5,0.8,1,1.6,1.8,2.2
				c0.6,0.4,1.3,0.4,1.9,0c0.6-0.4,0.8-1.1,0.5-1.8c-0.3-0.6-0.6-1.2-1-1.7c-4.1-6-8.3-12-12.7-17.8c-2.7-3.5-5.7-6.8-9.2-9.6
				c-4.7-3.8-9.9-6.7-16.1-7.3c-0.5-0.1-1.1-0.1-1.6-0.8c0.9-0.4,1.8-0.3,2.7-0.3c4.6,0.3,8.9,1.7,13.1,3.5
				c6.2,2.7,11.9,6.2,17.6,9.7c3.8,2.3,7.5,4.7,10.9,7.7c0.9,0.7,1.8,1.6,3,0.6c0.8-0.7,0.6-1.7-0.9-3.1c-1.3-1.2-2.6-2.3-4-3.2
				c-7.2-4.9-14.6-9.5-22.4-13.4c-3.8-1.9-7.8-3.5-12-4.3c-4.7-0.9-9.4-1.1-13.9,1.1c-0.2,0.1-0.5,0-0.8,0c-0.1-0.5-0.2-1-0.2-1.4
				c-0.8-10.6-4.5-20.3-9.6-29.5c-1.3-2.4-2.9-4.7-4.6-6.9c-1.9-2.3-4.1-4.4-5.2-7.2c-0.4-1-0.3-2.7-1.2-3.4c-1-0.8-3-0.3-4.1-0.3
				c-0.5,0-1,0.1-1.5,0.3c-0.8,0.5-0.7,1.3-1,2.1c-0.2,0.8-0.7,1.4-1.1,2.1c-1.2,1.9-3.2,3.3-4.8,4.9c-1.2,1.2-2.4,2.5-3.5,3.8
				c0.6,0.8,1.1,1.6,1.5,2.5c1.2-1.4,2.5-2.7,3.9-3.7c2.3-1.6,4.1-4.3,7.3-4.4c2.8-0.1,4.7,2.3,6.3,4.2c3.8,4.4,6.4,9.6,8.7,14.9
				c2.7,6.4,4.9,12.9,5.5,19.9c0.1,0.7,0.3,1.5-0.3,2.2c-0.5-0.2-1-0.2-1.4-0.4c-3.6-1.4-7.2-1.2-10.8,0.2
				c-4.4,1.7-8.2,4.3-11.5,7.7c-5.3,5.4-8.1,12-10,19.2c-2.1,7.8-3.6,15.7-5.2,23.6c-0.1,0.5-0.2,0.9-0.2,1.4c0,0.9,0.2,1.8,1.2,2
				c1,0.2,1.6-0.5,1.9-1.3c0.3-0.8,0.4-1.7,0.6-2.5c1.1-5.2,2.2-10.4,3.3-15.6c1-4.6,2.2-9.2,4-13.6c2.6-6.5,6.8-11.7,12.8-15.5
				c2.2-1.4,4.5-2.5,7-3.1c2.9-0.7,5.5-0.1,8.2,1.8c-0.7,0.4-1,0.7-1.3,0.8c-6.2,1.9-10.8,6.1-14.7,11.1c-3.9,5.2-6.5,11.1-8.4,17.3
				c-2.1,6.8-3.9,13.7-5.8,20.5c-0.2,0.5-0.3,1.1-0.3,1.7c0,0.7,0.3,1.3,1,1.5c0.7,0.2,1.3,0,1.8-0.6c0.6-0.8,0.7-1.7,1-2.6
				c1.6-5.7,3.2-11.5,4.8-17.2c1.6-5.4,3.6-10.6,6.5-15.4c2.8-4.6,6.2-8.6,10.8-11.4c1-0.6,2-1.1,3.1-1.5c0.4-0.1,0.8-0.1,1,0.2
				c0.2,0.3,0.2,0.7,0,1.1c-0.3,0.5-0.7,0.9-1,1.4c-3.7,5.1-6.9,10.5-9.1,16.3c-3.3,8.8-5.7,17.8-8.1,26.9c-0.2,0.6-0.3,1.3-0.2,2
				c0,0.8,0.4,1.5,1.3,1.6c0.8,0.1,1.3-0.3,1.6-1c0.3-0.8,0.5-1.6,0.7-2.4c1.9-7.1,3.8-14.3,6.1-21.3c1.9-5.9,4.5-11.5,7.8-16.7
				c0.4-0.6,0.6-1.4,1.5-1.5c0.5,0.9,0.2,1.9,0.1,2.8c-0.7,6.5-1.4,13-2.1,19.5c-1.2,11.7-2,23.4,1.2,35c0.3,1.1-0.2,1.5-1.2,1.7
				c-3,0.5-5.4,2.1-7.7,4.1c-7.7,6.8-12.7,15.2-14.6,25.4c-1.2,6.9-2.1,13.9-2.8,20.8c-0.1,0.6-0.1,1.1-0.2,1.7
				c-0.1,1.6,0.4,2.7,1.4,2.7c1.5,0,1.7-1.3,1.9-2.4c0.1-0.6,0.1-1.1,0.2-1.7c0.7-6.9,1.6-13.7,2.8-20.5c1.5-8.3,5.3-15.3,11.1-21.4
				c0.8-0.8,1.5-1.7,2.5-2.1c0.1,0.2,0.3,0.3,0.2,0.3c-0.1,0.3-0.1,0.6-0.2,0.8c-3.4,6.7-4.8,13.9-5.1,21.4
				c-0.4,9.7,0.3,19.3,0.8,29c0,0.6,0.1,1.1,0.2,1.7c0.2,0.8,0.8,1.3,1.7,1.2c0.9-0.1,1.3-0.7,1.4-1.5c0.1-0.7,0-1.3-0.1-2
				c-0.4-8-0.9-16.1-0.9-24.1c0-7.1,0.6-14.2,3.3-20.9c0.3-0.7,0.4-1.4,1.3-2c0,3.2,0,6.1,0.1,9c0.5,10,2.5,19.7,4.4,29.5
				c0.2,1.3,0.4,2.6,0.7,3.9c0.2,0.9,0.8,1.3,1.6,1.3c1,0,1.6-0.6,1.6-1.6c0-0.7-0.1-1.3-0.2-2c-0.5-2.7-1-5.4-1.5-8.1
				c-1.6-8.4-3-16.8-3.4-25.3c-0.1-2.7-0.4-5.4,0.6-8.3c0.8,0.9,0.7,1.8,0.9,2.5c0.9,4.6,2.4,9,4.2,13.3c3,7.3,6.9,14.1,10.7,21
				c0.5,1,1,2,1.6,3c0.4,0.7,1.1,1,2,0.7c1-0.3,1.3-1.1,1-2c-0.2-0.8-0.7-1.6-1.1-2.3c-2.1-3.8-4.2-7.6-6.2-11.5
				c-3.5-6.8-6.8-13.8-8.7-21.3c-0.2-0.7-0.5-1.5-0.1-2.3c0.7,0.2,0.9,0.7,1.1,1.1c2.2,4,4.9,7.7,7.7,11.2
				c3.4,4.1,6.8,8.1,10.2,12.2c6.6,7.8,11.6,16.6,15.3,26.1c1.1,2.8,1.1,2.8-1.4,4.3c-0.9,0.5-1.7,1.2-2.6,1.8
				c-8.5,6.5-14.6,14.8-17.9,25c-2.1,6.3-3.7,12.7-5.3,19.2c-0.1,0.4-0.2,0.7-0.3,1.1c-0.1,0.9,0.1,1.8,1.1,2c1,0.3,1.7-0.3,2-1.1
				c0.3-0.7,0.4-1.5,0.6-2.2c1.7-6.1,3.2-12.3,5.2-18.3c2.3-6.8,5.9-12.7,10.7-17.9c0.6-0.7,1.2-1.6,2.4-1.8
				c-0.1,0.4-0.1,0.6-0.2,0.8c-0.3,0.5-0.6,1-0.9,1.5c-3.4,5.5-5.8,11.5-7.4,17.8c-1.7,6.8-2.3,13.8-3.2,20.8
				c-0.3,1.9,0.3,2.8,1.4,3c1,0.1,1.6-0.7,1.9-2.7c0.6-4.3,1.1-8.6,1.7-13c1.5-10,4.7-19.3,10.6-27.6c0.6-0.8,1-1.7,2-2.2
				c0.4,0.8-0.1,1.4-0.3,2c-1.1,2.9-2,5.9-2.6,9c-1,5.4-1.5,10.9-1.7,16.4c-0.1,3.8-0.1,7.6-0.1,11.4c0,1.2,0,2.4,1.5,2.7
				c1,0.2,1.7-0.8,1.8-2.6c0.1-1.1,0.1-2.3,0-3.4c-0.1-8.4,0.5-16.7,1.9-24.9c0.5-2.8,1.2-5.5,2.5-8.1c1.1,0.5,1,1.5,1.2,2.2
				c1.5,5.9,2.6,11.8,3.6,17.8c1.2,7.2,2.3,14.4,3.4,21.6c0.2,1,0.3,2-1.1,2.1c-4.8,0.6-8,3.7-10.9,7.1c-5.2,5.9-8,13-9.5,20.7
				c-1.6,8.2-2,16.5-2.7,24.8c0,0.3-0.1,0.6,0,0.9c0,0.9,0.4,1.7,1.4,1.9c1,0.1,1.6-0.5,1.8-1.5c0.1-0.6,0.2-1.3,0.3-2
				c0.6-6.2,1.1-12.4,1.9-18.7c1-8.2,3.3-15.9,8.3-22.7c1.9-2.5,4-4.8,6.7-6.4c0.5-0.3,1.1-0.8,1.8-0.2c-0.2,0.3-0.2,0.5-0.4,0.7
				c-4.9,4.8-7.4,10.9-9,17.4c-2.6,10.9-2.1,21.8-0.9,32.8c0.1,1.2,0.4,2.5,1.9,2.3c1.5-0.2,1.4-1.5,1.3-2.6
				c-0.3-4-0.7-7.9-0.9-11.9c-0.3-8.2,0.5-16.3,3-24.1c1.3-4,3.1-7.7,6-10.8c0.4-0.4,0.8-1.1,1.5-0.9c0.4,1.1-0.2,1.9-0.5,2.8
				c-2,6.1-3.2,12.3-3.3,18.7c-0.2,8.5,0.4,16.9,1.3,25.2c0.2,1.3,0.3,2.6,0.5,3.9c0.1,1,0.4,2,1.7,1.8c1.2-0.1,1.5-1.1,1.5-2.1
				c0-1.2-0.1-2.5-0.3-3.7c-0.9-6.9-1.4-13.8-1.5-20.7c-0.1-4.9,0.1-9.9,1.1-14.7c0.2-1,0.1-2.3,1.1-3.2c0.2,0.4,0.4,0.6,0.4,0.8
				c1,4.8,2,9.7,2.4,14.6c0.6,7.3,1.5,14.5,2.4,21.8c0.2,1.4,0.2,2.8,0.4,4.2c0.1,0.9,0.6,1.4,1.5,1.5c0.9,0.1,1.4-0.6,1.6-1.3
				c0.3-0.9,0.1-1.9,0-2.8c-0.6-5-1.3-10-1.7-15c-0.7-8.6-1.9-17.1-4-25.5c-0.2-0.8-0.6-1.7-0.1-2.6c0.8,0.3,1,0.8,1.3,1.3
				c2.8,4.4,5.1,9.1,6.8,14c2.5,7.4,3.5,15.1,4.8,22.8c0.3,1.6,0.6,3.2,0.9,4.8c0.2,0.8,0.7,1.4,1.5,1.4c1.1-0.1,1.3-0.9,1.2-1.9
				c0-0.6-0.1-1.1-0.2-1.7c-0.5-3.8-1.1-7.7-1.6-11.5c-1.6-11.7-5.4-22.6-12.4-32.3c-0.2-0.3-0.7-0.7-0.1-1.3
				c0.4,0.2,0.8,0.5,1.1,0.8c7,6.1,12.4,13.3,14.7,22.5c1.5,6,2.7,12,3.5,18.1c0,0.4,0,0.8,0.1,1.1c0.1,0.8,0.6,1.5,1.5,1.4
				c0.9,0,1.4-0.7,1.4-1.5c0.1-0.9,0-1.9-0.1-2.8c-0.7-4.1-1.4-8.2-2.1-12.3c-1.5-9.4-5.4-17.7-12.1-24.6c-2.1-2.2-4.5-4.3-7-6.5
				c1.5-0.4,2.5,0.1,3.5,0.6c1.8,0.9,3.4,2.1,4.9,3.3c8.4,7.2,15.6,15.5,20.3,25.7c1.5,3.3,3.3,6.4,4.4,9.8c0.3,1,0.9,1.8,2.1,1.4
				C338.5,141.5,338.6,140.5,338.4,139.5L338.4,139.5z"/>
		</g>
	</g>
</g>
</svg>
