<?xml version="1.0" encoding="utf-8"?>
<!-- Generator: Adobe Illustrator 27.4.0, SVG Export Plug-In . SVG Version: 6.00 Build 0)  -->
<svg version="1.1" id="b" xmlns="http://www.w3.org/2000/svg" xmlns:xlink="http://www.w3.org/1999/xlink" x="0px" y="0px"
	 viewBox="0 0 1442.2 186" style="enable-background:new 0 0 1442.2 186;" xml:space="preserve">
<style type="text/css">
	.st0{clip-path:url(#SVGID_00000114057247857806452420000001555545647760549524_);}
	.st1{fill:#4F8636;}
	.st2{fill-rule:evenodd;clip-rule:evenodd;fill:#4F8636;}
	.st3{fill:#0B6343;}
	.st4{fill-rule:evenodd;clip-rule:evenodd;fill:#0B6343;}
	.st5{fill:#DCE080;}
	.st6{fill-rule:evenodd;clip-rule:evenodd;fill:#C2CD51;}
	.st7{fill-rule:evenodd;clip-rule:evenodd;fill:#A2AA34;}
</style>
<g>
	<defs>
		<rect id="SVGID_1_" width="1442.2" height="186"/>
	</defs>
	<clipPath id="SVGID_00000135665658112298012150000001990659369659930271_">
		<use xlink:href="#SVGID_1_"  style="overflow:visible;"/>
	</clipPath>
	<g style="clip-path:url(#SVGID_00000135665658112298012150000001990659369659930271_);">
		<g>
			<path id="e" class="st1" d="M-16.6,69.5c0,0,1.4-1,1.4-1c7.2-5.7,40.7-33.2,55.1-64c13.8-29.5,5.7-52.7,3-59l0.5-1.1l2.5-5.4
				l33.1,46.9l-2.7,5.7L76-7.8c-5,1.5-26.3,9.5-38.7,36.1C25.3,53.9,25.4,88.4,25.7,98.7c0,0,0,3,0,3.1c0,0,1.6-1.2,1.6-1.2
				c6.8-5.4,35.4-29.1,47.9-55.7C87,19.3,80.2-0.8,77.8-6.5l0.5-1.1l2.1-4.5L111,31.3l-2.2,4.7l-0.3,0.7
				c-4.6,1.5-22.2,8.3-32.6,30.6c-10,21.3-10.1,50.1-9.8,59.3c0,0,0,3,0,3.1l1.7-1.3c6.3-5,29.9-24.8,40.3-47
				c10-21.3,4.5-38.2,2.4-43.3l0.5-1.1l1.7-3.5l26.8,38.1l-1.7,3.7l-0.3,0.7c-4.1,1.4-17.8,7-25.9,24.5c-7.8,16.8-8.1,39.4-7.9,47.2
				c0,0,0,2.9,0.1,2.9c0.1,0,1.6-1.4,1.6-1.4c5.6-4.5,23.9-20.1,32-37.5c7.8-16.8,3.8-30.1,2-34.5l0.5-1l1.2-2.5l23.9,33.9l-1.3,2.7
				l-0.4,0.8c-3.5,1.2-13.7,5.8-19.8,18.9c-5.9,12.7-6.3,29.6-6.2,36.1c0,0,0.1,2.6,0.2,2.6c0.1,0.1,1.6-1.2,1.6-1.2
				c4.8-3.9,18.3-15.7,24.4-28.8c5.9-12.7,3.1-22.8,1.7-26.5l0.5-1l0.7-1.5l7.7,10.9l0.5,0.7c-0.9,3.9-2.7,16.7,7.2,30.6
				c9.5,13.4,27,23.5,33.5,27c0,0,2.4,1.2,2.5,1.2c0.1,0-0.3-1.9-0.3-1.9c-1-6.5-4.7-27.1-14.5-40.9c-9.5-13.3-21.8-16.3-26.3-17
				l-0.6-0.9l-7.7-10.9l1.7-0.1l1.1-0.1c3,2.6,11.7,8.7,25.8,7.7c14.6-1.1,30.4-9.5,35.8-12.6c0,0,1.8-1.1,1.8-1.2
				c0-0.1-2.5-1-2.5-1c-6.2-2.4-22.3-7.9-36.4-6.8c-14.6,1.1-22.4,8.9-24.8,11.8l-0.9,0.1l-3,0.2l-23.9-33.9l2.8-0.2l1.2-0.1
				c3.6,3.2,14.8,11.6,33.5,10.1c19.4-1.5,40.6-13,46.8-16.6c0,0,1.6-0.9,1.6-1.1c0-0.1-2.5-1.1-2.5-1.1
				c-7.4-2.9-28.9-10.5-47.6-9.1c-19.4,1.5-29.6,12.2-32.3,15.5l-0.8,0.1l-4.1,0.3l-26.8-38.1l3.9-0.3l1.2-0.1
				c4.1,3.8,18.2,14.7,41.9,12.9c24.7-1.9,51.7-16.9,58.6-20.9c0,0,1.5-0.9,1.5-1c0-0.1-2.5-1.1-2.5-1.1c-8.6-3.4-36-13.3-59.7-11.5
				c-24.7,1.9-37.4,15.8-40.3,19.6l-0.8,0.1l-5.3,0.4L82.3-13.3l5-0.4l1.2-0.1c4.6,4.2,21.3,17.5,49.7,15.4
				c29.6-2.2,62.1-20.5,69.6-24.9c0,0,1.3-0.8,1.3-0.9c0-0.1-2.5-1.2-2.5-1.2c-9.7-3.9-42.5-15.9-70.9-13.8C106-37,91-20.1,87.8-16
				l-0.7,0.1l-6.3,0.5L47.7-62.3l6-0.5l1.2-0.1c5,4.7,24.2,20.2,57,17.7c34.3-2.6,72.1-24,80-28.7c0,0,1.5-0.8,1.4-1
				c0-0.1-2.8-1.1-2.8-1.1c-10.4-4.2-46.8-17.7-79.1-16L63.3-74.2c-4.9,4-7.9,7.6-9.1,9.2L53.6-65l-7.3,0.6l-1.9-2.8l-2.2,0.8
				l2.3,3.2l-3.1,6.6L41-56c-5.3,1.6-30.1,10.5-44.5,41.4c-13.8,29.6-13.6,69.7-13.2,81C-16.8,66.4-16.6,69.4-16.6,69.5L-16.6,69.5z
				"/>
			<path class="st2" d="M13.7-35.3l-52.3,0.1c-13.3,0-26.5,0.6-39.7,0.8c-2.3,1.1-4.6,2.3-6.8,3.6c15.5-0.1,30.9-0.7,46.5-0.7
				c19.8,0,39.6,0.1,59.4,0.1h0.7C18.9-32.8,16.4-34.1,13.7-35.3L13.7-35.3L13.7-35.3z M-31.3,170.2c-5.3,0-10.6-0.4-15.7-1.1
				c13.2-1.8,25.8-2.1,38.2-1.2C-16.1,169.4-23.6,170.2-31.3,170.2L-31.3,170.2z M-76.7,160.2c-2.1-1-4.1-2-6.1-3.1
				c11.9,0,23.8-0.1,35.7-0.2c8.5-0.1,17-1,25.5-0.8c6.6,0.1,13.2,0.7,19.8,0.9c6.6,0.2,13,0.9,19.5,1.5c-2,1-3.9,1.9-6,2.8
				c-8-0.6-16-1.3-23.9-1.8c-14.7-0.9-29.4,0.5-44.2,0.5C-63.2,160.1-70,160.1-76.7,160.2L-76.7,160.2L-76.7,160.2z M-95.6,148.9
				c-1.7-1.2-3.3-2.5-4.8-3.8l30.7,0.1c17.1,0,34-0.7,51-0.7c18.8,0,37.7,0.1,56.5,0.7c-1.2,1-2.5,2-3.8,3
				c-17.6-0.4-35.3-0.3-52.7-0.3c-17,0-34,0.9-51,0.9L-95.6,148.9L-95.6,148.9L-95.6,148.9z M-103.8,142.2c-1.5-1.4-3-2.8-4.4-4.2
				c4.3,0.3,8.7,0.6,13,0.9c7.5,0.6,13.3,1.6,21.2,1c7.2-0.6,14.3-0.6,21.4-1.4c14.8-1.7,30.9-0.2,46-0.1
				c16.9,0.1,33.7,0.2,50.5-0.8l2.1-0.1c-0.8,0.8-1.6,1.6-2.4,2.4l-3.1,0.1c-17,0.5-33.8,0.9-50.9,1c-8.5,0.1-16.9,0.3-25.4,0
				c-8.4-0.2-15.9,0.9-24.1,1.7c-6.2,0.6-13.1,1-19.4,1.1c-6.6,0.2-12.5-1.4-18.8-1.5C-99.9,142.3-101.9,142.3-103.8,142.2
				L-103.8,142.2L-103.8,142.2z M-117.9,126.6c-0.9-1.3-1.8-2.5-2.7-3.8c22.8,0.4,45.6,0.5,68.5,1.3c16.6,0.6,33.2,0.5,49.8,0.5
				c13.3,0,26.9,1.5,40.1,0.5c6.3-0.5,12.6-0.5,19-0.4c-0.9,1.3-1.8,2.5-2.8,3.8l-1.5,0c-7.4-0.1-14.4,0.8-21.7,0.9
				c-6.7,0.1-13.1-0.9-19.7-0.9c-6.9-0.1-13.9,0-20.8,0c-15.4,0-30.7-0.1-46.1-0.7c-16.6-0.7-33.1-1-49.8-1
				C-109.8,126.8-113.9,126.7-117.9,126.6L-117.9,126.6L-117.9,126.6z M-124.3,116.9c-0.7-1.3-1.4-2.5-2.1-3.8l26.3,0
				c15.3,0,30.2,0.9,45.4,0.9c33.4,0,66.7,1,100.1,1.3c5.9,0.1,11.8-0.2,17.6-0.6c-0.7,1.3-1.4,2.5-2.2,3.8
				c-7.6,0.3-15.2,0.3-22.7,0.1c-17.2-0.4-34.7,0.6-51.9-0.2c-14.8-0.7-29.5-0.7-44.4-0.7c-16.7,0-33.2-0.8-50-0.7
				C-113.5,117-118.9,116.9-124.3,116.9L-124.3,116.9L-124.3,116.9z M-128.6,108.8c-0.6-1.3-1.3-2.7-1.8-4.1
				c25.6-0.2,51.1-0.7,76.8-0.6c14.3,0,30.6,0.4,44.5-1.3c12.9-1.6,28.6-0.1,41.9-0.1c12.1,0,24.3-0.9,36.4-1.4
				c-0.4,1.1-0.8,2.2-1.3,3.2C55,105.1,42.2,106,29.3,106c-14.2,0-28.3,0.2-42.4,0.8c-13.5,0.6-27,1-40.5,1.1
				C-78.7,108-103.6,108.6-128.6,108.8L-128.6,108.8L-128.6,108.8z M-133.3,97.3c-0.4-1.3-0.8-2.6-1.2-3.9
				c7.6,0.4,15.2,0.9,22.8,0.8c7.2,0,14.3-1.2,21.4-1.1c8.3,0.1,16.6,0.6,24.9,0.2C-31,91.9,4,91.7,38.4,91.3c8-0.1,15.9-1,23.9-1
				c3.5,0,7,0.1,10.4,0.3c-0.3,1-0.6,2.1-0.9,3.1c-13.3-0.1-26.3,0.5-39.8,0.7c-17.6,0.3-35.2,1-52.8,1.4
				c-17.1,0.4-34.7,1.5-51.8,1.3c-10.1-0.1-19.4-0.2-29.5,0.6c-6.1,0.5-12.4,0.5-18.5,0.1C-124.9,97.5-129.1,97.3-133.3,97.3
				L-133.3,97.3L-133.3,97.3z M-136.8,84.4c-0.3-1.2-0.5-2.4-0.7-3.7c5.5-0.2,10.9-0.4,16.4-0.4c17.1,0,33.9,0.1,50.9-1.1
				c17.8-1.3,36.2-0.5,54.1-0.3c18.4,0.2,36.8,0.5,55.2,0.3c12.2-0.1,24.1-1,36.2-1.5c-0.1,1-0.3,2-0.5,3
				c-11.9,0.6-23.7,1.5-35.7,1.7c-18.4,0.2-36.8,0-55.2-0.1c-18.9-0.1-38.5-1.1-57.2,0.8C-88.8,84.7-105.3,84-121,84
				C-126.3,84-131.5,84.2-136.8,84.4L-136.8,84.4L-136.8,84.4z M-138.2,75.9c-0.1-1.2-0.3-2.3-0.4-3.5c12.3,0.2,24.7,0.3,36.8-0.3
				c14.8-0.7,30.8,0.3,45.3-1.5c7.7-0.9,16.7,0.1,24.5-0.3c9.2-0.5,18.4-0.7,27.6-0.7c19.7,0.1,39.7,1.1,59.4-0.3
				c7.3-0.5,14.2-0.2,21.2-0.7c-0.1,1.2-0.2,2.4-0.3,3.6c-1,0-1.9,0.1-2.9,0.1c-8.7,0-17.2,0.5-25.9,0.8
				c-19.8,0.7-39.6-0.2-59.5,0.1c-17.4,0.3-34.7,1.3-52,1.7C-88.9,75.5-113.5,75.8-138.2,75.9C-138.2,75.9-138.2,75.9-138.2,75.9z
				 M-138.9,67.3c-0.1-1.2-0.1-2.5-0.1-3.7c29.5-1,59.1-2.3,88.7-2.9c19.5-0.4,38.6-1,58.3-0.6c19.1,0.4,38.5,1.8,57.5,1.5
				c3.6-0.1,7.3-0.1,10.9-0.1c0,0.3,0,0.7,0,1c0,0.6,0,1.2,0,1.8c-3.7,0-7.3,0-11,0.1C45,64.6,24.5,63.3,4.1,63
				c-10-0.2-19.9,0-29.9-0.1c-8.3,0-16.4,1-24.6,0.9c-20.3-0.2-41.3,1.1-61.4,2.2C-120.8,66.5-129.9,67-138.9,67.3L-138.9,67.3
				L-138.9,67.3z M-138.9,57c0-1,0.1-1.9,0.2-2.9c8.8,0.3,17.5,0.7,26.2,0.9c10,0.2,19.9,0.1,29.9,0.2c8.3,0.1,16.4-0.9,24.6-0.8
				c20.3,0.3,41.3-0.9,61.4-1.9c15.9-0.7,31.7-1.4,47.7-1.4c8.1,0,16.4,0.5,24.7,0.9c0.1,1.2,0.2,2.4,0.3,3.7l-0.2,0
				c-8.3-0.5-16.7-1.2-25-1c-36.4,0.8-72.7,2.4-109.1,3c-19.5,0.3-38.6,0.8-58.3,0.3C-123.8,57.7-131.3,57.3-138.9,57L-138.9,57
				L-138.9,57z M-138.1,48.3c0.2-1.1,0.3-2.3,0.5-3.4c13.8,0,27.6,0.4,41.5,0.2c17.4-0.3,34.7-1.3,52-1.7c35.4-0.9,70.8-1,106.3-1
				c4,0,8.2,0.1,12.3,0.2c0.2,1.3,0.5,2.6,0.7,3.9c-7,0-14.1-0.2-21.1-0.2c-20,0-40.7-1-60.6,0C-21.4,47-37.3,46-51.9,47.7
				c-7.7,0.9-16.7-0.1-24.5,0.3c-9.2,0.5-18.4,0.7-27.6,0.7C-115.3,48.7-126.7,48.3-138.1,48.3L-138.1,48.3L-138.1,48.3z
				 M-135.3,34.3c0.3-1.1,0.6-2.1,0.9-3.2c14,0,28,0.1,42,0.2c18.9,0.1,38.5,1.1,57.2-0.8c15.6-1.6,32.1-0.9,47.8-0.9
				c16,0,31.9-1.2,47.8-2.4c3.3-0.2,6.6-0.4,9.8-0.6c0.4,1.2,0.9,2.5,1.3,3.8c-3.7,0.1-7.4,0.3-11.1,0.6
				c-15.9,1.1-31.8,2.3-47.8,2.2c-17.1,0-33.9-0.1-50.9,1.1c-17.8,1.3-36.2,0.5-54.1,0.3C-106.6,34.6-120.9,34.4-135.3,34.3
				C-135.3,34.3-135.3,34.3-135.3,34.3z M-131.2,22.2c0.4-1.1,0.9-2.1,1.3-3.2c14.1-0.3,28.2-0.9,42.3-1.2
				c17.1-0.4,34.7-1.5,51.8-1.3c10.1,0.1,19.4,0.2,29.5-0.6c6.1-0.5,12.4-0.5,18.5-0.1c16.8,1.1,32.4-0.1,49.1-0.8
				c1.3-0.1,2.6-0.1,4-0.1c0.7,1.4,1.3,2.8,2,4.2c-6.4,0.2-12.7,0.5-19.2,1c-15,1.2-29.8-0.9-44.8-0.8c-7.2,0-14.3,1.2-21.4,1.1
				c-8.3-0.1-16.6-0.6-24.9-0.2C-72.2,21.5-101.8,21.9-131.2,22.2L-131.2,22.2L-131.2,22.2z M-126.1,11.4c0.7-1.3,1.4-2.6,2.2-3.8
				c9.6-0.1,19.1-0.3,28.7-0.7c13.5-0.6,27-1,40.5-1.1c30.7-0.1,61.2-0.9,91.9-1C44.5,4.8,51.8,4,59.1,4c0.9,1.4,1.7,2.8,2.6,4.2
				l-0.3,0c-7,0-13.8,0.8-20.8,0.8c-31.8,0-63.4,0.8-95.3,0.7c-14.3,0-30.5-0.4-44.5,1.3C-107.5,11.9-116.9,11.7-126.1,11.4
				L-126.1,11.4L-126.1,11.4z M-118.2-1.1c1-1.3,2-2.6,3-3.9c6.9-0.1,13.8,0,20.6,0.3C-79.7-4.1-65.1-4-50.2-4.1
				c16.7,0,33.2,0.8,50,0.7c17.2,0,34.9,0.7,52.1-0.1l1.9-0.1c1,1.2,1.9,2.5,2.8,3.8c-4.2,0.2-8.4,0.4-12.7,0.4
				C26.5,0.6,9.2,0.6-8.2,0.6c-15.3,0-30.2-0.9-45.4-0.9C-75.1-0.3-96.6-0.7-118.2-1.1L-118.2-1.1L-118.2-1.1z M-110-11
				c1.2-1.3,2.4-2.6,3.7-3.8c2.6,0,5.2,0,7.8,0c15.4,0,30.7,0.1,46.1,0.7c16.6,0.7,33.1,1,49.8,1c14.7,0,29.3,0.9,44,1
				c1.6,0,3.2,0,4.9,0c1.2,1.2,2.3,2.5,3.4,3.7c-3.9,0.1-7.9,0.1-11.8,0c-31.4-1.2-62.7-0.9-94.1-2c-16.6-0.6-33.2-0.5-49.8-0.5
				C-107.3-10.9-108.7-10.9-110-11L-110-11L-110-11z M-94.6-24.6c1.3-0.9,2.6-1.9,4-2.8c6-0.1,12.1-0.1,18.1,0.1
				c8.4,0.2,15.9-0.9,24.1-1.7c6.2-0.6,13.1-1,19.4-1.1c6.6-0.2,12.5,1.4,18.8,1.5c12.7,0.1,25.5,1.1,38.4,1.4
				c1.9,1.3,3.8,2.6,5.6,4C18.1-23.2,2.3-24-13.1-25.2c-7.5-0.6-13.3-1.6-21.2-1c-7.2,0.6-14.3,0.6-21.4,1.4
				C-68.2-23.4-81.7-24.3-94.6-24.6L-94.6-24.6L-94.6-24.6z M-51-43.4c6.4-1.2,12.9-1.8,19.7-1.8c6.4,0,12.6,0.6,18.7,1.6
				C-25.4-43.5-38.2-43.4-51-43.4L-51-43.4z"/>
			<path id="f" class="st3" d="M-43.1,32.4c-2.5,3.7-10.4,16.4-14.3,32.9c0,0,0,0,0,0l13.3-7.5c0,0,0,0,0,0l-14.7,14.2c0,0,0,0,0,0
				c-1.4,9.2-1.3,19.4,1.7,29.7c0,0,0,0,0,0l16.4-9.2c0,0,0,0,0,0l-14.7,14.2c0,0,0,0,0,0c1.2,3.1,2.6,6.2,4.4,9.3
				c2.7,4.7,6,9.1,9.7,13.4c0,0,0,0,0,0l20.8-11.7c0,0,0,0,0,0l-16.7,16.1c0,0,0,0,0,0c6.5,6.5,14,12.4,21.7,17.6c0,0,0,0,0,0
				l19.6-11.1c0,0,0,0,0,0l-14.7,14.2c0,0,0,0,0,0c9.6,6,19.3,11,27.8,14.9c0,0,0,0,0,0l8.8-5c0,0,0,0,0,0l-6.3,6.1c0,0,0,0,0,0
				c9.9,4.5,22.6,9.4,22.7,9c0.7-3.8,2.8-13.9,4-24c0,0,0,0,0,0l-8.5,2.2c0,0,0,0,0,0l8.8-5c0,0,0,0,0,0c0.9-9.2,1.6-20,1.3-31.3
				c0,0,0,0,0,0l-19.9,5.2c0,0,0,0,0,0L48,115.8c0,0,0,0,0,0c-0.5-9.2-1.8-18.6-4.1-27.5c0,0,0,0,0,0l-22.5,5.9c0,0,0,0,0,0
				l20.8-11.7c0,0,0,0,0,0c-1.7-5.3-3.9-10.4-6.6-15.1c-1.8-3.1-3.7-5.9-5.8-8.5c0,0,0,0,0,0L9.9,64.1c0,0,0,0,0,0l16.4-9.2
				c0,0,0,0,0,0C18.9,47,10.2,41.8,1.4,38.2c0,0,0,0,0,0l-19.8,5.2c0,0,0,0,0,0l13.3-7.5c0,0,0,0,0,0c-16.3-5.2-31.4-4.9-35.9-4.7
				c0,0,0,0,0,0c-0.4-0.6-37.8-66-38.8-67.7c0,0,0,0,0,0l35.3,12.5c0,0,0,0,0,0c0.4,3.5,2.1,13.6,7.6,23.9c0,0,0,0,0,0l3.9-10.1
				c0,0,0,0,0,0L-34.4,4c0,0,0,0,0,0c3.6,5.6,8.4,11,14.9,15.3c0,0,0,0,0,0l4.7-12.4c0,0,0,0,0,0l-1.5,14.3c0,0,0,0,0,0
				c2.1,1.1,4.4,2.2,6.8,3c3.7,1.3,7.6,2.2,11.7,2.8c0,0,0,0,0,0l6-15.8c0,0,0,0,0,0L6.8,27.6c0,0,0,0,0,0
				c6.7,0.6,13.6,0.3,20.4-0.4c0,0,0,0,0,0l5.7-14.9c0,0,0,0,0,0l-1.5,14.3c0,0,0,0,0,0c8.2-1.1,15.9-2.8,22.5-4.5c0,0,0,0,0,0
				l2.5-6.7c0,0,0,0,0,0l-0.6,6.1c0,0,0,0,0,0c7.1-2,16.5-5.8,16.5-5.8c-1.4-2.4-4.7-8.5-8.8-14.4c0,0,0,0,0,0l-3.6,5c0,0,0,0,0,0
				l2.5-6.6c0,0,0,0,0,0c-3.8-5.4-8.6-11.5-14.1-17.5c0,0,0,0,0,0L39.9-5.9c0,0,0,0,0,0l5.7-14.9c0,0,0,0,0,0
				c-4.7-4.7-9.8-9.2-15.2-13c0,0,0,0,0,0l-9.7,13.4c0,0,0,0,0,0l6-15.8c0,0,0,0,0,0c-3.5-2.1-7.1-3.9-10.8-5.2
				c-2.4-0.9-4.8-1.5-7.2-2c0,0,0,0,0,0L0-31.4c0,0,0,0,0,0l4.7-12.4c0,0,0,0,0,0c-7.8-0.8-15.1,0.3-21.6,2.3c0,0,0,0,0,0l-8.5,11.8
				c0,0,0,0,0,0l3.9-10.1c0,0,0,0,0,0c-11.1,4.4-19.1,11.1-21.9,13.5c0,0,0,0,0,0l-37.8-13.4c0,0-0.1,0-0.1,0L-104-78.8
				c-0.3-0.5-0.9-0.7-1.5-0.5c-0.1,0-0.1,0-0.2,0.1c-0.6,0.3-0.8,1.1-0.5,1.6L-43.1,32.4C-43.1,32.3-43.1,32.4-43.1,32.4L-43.1,32.4
				z"/>
			<path class="st4" d="M466.4,137.7c-11.6-14.3-19.2-30.4-24.6-47.9c-5.2-16.7-9.6-30.7-19.4-45.4c-1.6,27.2-2.3,52.9,13.3,76.5
				c0.6,0.9-0.4,1.8-1.3,1.2c-13.2-9-21-23.5-23.1-39.1c-1.2-8.6-0.7-17.4,0.9-26c1.3-7,7.5-21.6-2.4-25.3
				c-9.7,24.1-11.8,48-8.8,73.8c0.1,1.2-1.4,1.7-2.1,0.8c-9.7-11.8-11.8-27.6-10.7-42.4c0.7-8.8,2.6-17.5,5.6-25.7
				c1.6-4.5,4.1-8.5,5.8-12.9c1.7-4.3-2.9-9.1-6.2-11.2c-7,10.2-8.3,24.1-11.3,35.9c-2.9,11.3-6.9,22.3-12.1,32.8
				c-0.6,1.2-2.1,0.8-2.4-0.3c-5.7-25.5-0.6-51.4,16.2-71.5c1-1.2,2.9-2.5,2.2-4.3c-0.7-1.8-3.9-2.3-5.4-2
				c-7.6,1.3-13,26.2-14.5,32.7c-3.6,15.8-3.5,31.7-4.6,47.8c-0.1,1.2-2,1.4-2.4,0.3c-9.1-28.7-11.3-59.6,8.1-83.3
				c4-4.9,5.2-5.5-1.6-9.1c-3.9-2.1-7.9-4-12-6.5c-11.6,27.6-2.6,57.2-7.2,86.1c-0.2,1.1-1.6,1.5-2.3,0.6c-7-10.1-10.4-22-11-34.2
				c-0.5-12.1,1.8-24.1,5.3-35.7c1-3.4,2.2-6.8,3.4-10.2c0.5-1.4,1.1-2.9,1.6-4.3c0.6-1.5,1.8-4.9,2.2-6.2c0-0.1-11.6-10-14.3-1
				c-4.4,12.9-5.1,26.2-3.6,39.7c1.2,11.5,3,23.1-0.1,34.5c-0.3,0.9-1.7,1.7-2.3,0.6c-14.7-25.5-15-58.1,1.1-82.7
				c-6.3-1.8-16.3-7.2-20.3-4.1c-2.5,2.9-2.9,8.2-3.5,11.9c-0.6,3.3-0.9,6.7-1.2,10.1c-1,14.9,1.3,29.9,6.6,43.8
				c0.4,1.1-1,2.4-2,1.5c-9.6-8.7-14.5-21.3-14.8-34.2c-0.1-6.4,0.8-12.7,2.8-18.7c1.8-5.5,5.2-13,3.1-18.9
				c-1.2-3.4-2.8-3.1-4.5-3.8c-20.6-3.8-41.7-3.6-62.9-0.6c-1.6,0.2-1.9-5.6-0.3-5.8c20.8-2.9,42-0.9,62.6,3.2c0,0,0.1-0.1,0.2-0.1
				c3.3-2.2,6.5-1.9,10-4.8c7.5-6.2,11.6-15.8,15.9-24.4c5.3-10.8,12.3-20.5,21-28.9c0.8-0.7,2.3-0.4,2.1,0.9
				c-4.2,21.7-14.1,41.7-28.9,58c8.5,4.8,16.2-11.1,20.9-16c5.2-5.3,11.3-9.6,17.8-13c15.5-8,33.1-10.5,50.3-11.4
				c1.5-0.1,1.7,2,0.3,2.3c-27.6,6.2-52.6,21.7-70.6,43.5c2.7,0.7,4.9,0.2,7.6,0.1c12.8-0.7,26.5-4.9,38.4-9.3
				c14.8-5.5,28.9-12.7,42.1-21.4c0.9-0.6,2.4,0.3,1.8,1.4c-7,12.7-21.1,18.6-33.5,24.5c-13,6.2-26.5,11.8-41,12.8
				c2.9,3,9.7,2,13.3,1.7c4.4-0.3,8.7-0.9,13-1.7c8.5-1.6,16.8-4.1,25-7.1c16.3-6,31.6-14.1,46.9-22.2c0.9-0.5,1.9,0.7,1.5,1.6
				c-14.1,31.3-50.4,40-81.7,38.5c8,6.9,19.6,5,29.1,3.9c9.8-1.2,19.6-1.8,29.4-1.6c20.2,0.3,40.3,4,58.9,12c1,0.5,0.9,2.2-0.3,2.3
				c-16.5,0.8-32.9,1.6-49.4,2.3c-13.3,0.6-26.8,1.7-39.8-1.4c6.3,4.8,13.8,8.1,21.7,9.4c8.5,1.3,16.8-0.5,25.2-0.6
				c16.9-0.1,34.6,6.1,49.9,12.9c1.1,0.5,0.6,2.2-0.6,2c-26.8-5-56.1,3.6-81.5-8.1c5.1,5.1,10.1,7.9,16.7,10.4
				c8,3,16.8,3.5,25.1,5.8c15.4,4.3,29.6,12.3,41.3,23.2c0.7,0.7,0.3,2.3-0.8,2c-23.4-6.1-45.8-10.8-66.5-23.5
				c9.3,11.1,17.8,19.4,30.6,26.7c13.7,7.8,28.8,12.7,43.7,17.6c0.9,0.3,0.8,1.7,0,2c-21.5,9.3-41.2-4.1-56.1-19.6
				c2.1,3.1,4.1,6.3,6.1,9.4c5.2,6.7,10.4,13.4,14.5,20.9c7.9,14.7,7.8,30.4,6.6,46.6C468.4,138.2,467,138.4,466.4,137.7
				L466.4,137.7z"/>
			<path class="st4" d="M974.6,11.8c-3.5,19.9-3.6,40.4-0.5,60.3c0.7,4.8,1.7,9.5,2.8,14.2c1.2,5,2.2,10.4,4.3,15.1
				c2,4.3,6.1,5.1,10.5,5.4c5.2,0.4,10.5,0.4,15.7,0.1c20.7-1.1,40.9-7.3,59.8-15.7c9.6-4.3,19-9.2,28.1-14.4
				c10.5-6.1,20.8-12.9,29.8-21.2c14.6-13.6,25.4-32.6,24.2-53.1c-0.6-10.1-4.5-19.5-10.8-27.4c-3.5-4.4-7.5-8.3-11.7-11.9
				c-1.1-0.9-2.2-1.9-3.3-2.8c3.6-2.5,7.3-4.9,11-7.3c13.9-8.8,30.6-14.2,47.2-19.3c1.4-0.3-1.7-5.5-3.1-5.3
				c-17.6,3.5-34,13.3-48.4,22.7c-2.2,1.4-4.4,2.9-6.5,4.4c1.8-5.2,2-11,0.7-16.5c-2.3-10-9.6-17.9-18.3-23
				c-17.3-10.1-39.2-10-57.7-3.8C1006.2-73.4,982-29.6,974.6,11.8L974.6,11.8z M985.1,20.5c-1.4,0.6-2.4,1-2.5,0.8
				c-0.2-0.3,1.2-1.5,5.3-4.6c5.2-3.9,11.2-7,17.5-8.6c5.8-1.5,11.8-1.8,17.6-0.6c1.4,0.3,2.9,0.8,4.2,1.4c1.3,0.7,2.5,1.6,3.4,2.8
				l0.1,0.1c0.7,1,1.2,1.7,0.6,2.7c-0.3,0.5-0.7,0.9-1.2,1.3c-0.5,0.4-1.2,0.8-1.7,1.1c-1.3,0.6-2.7,0.9-4.1,1
				c-1.4,0.1-2.9,0-4.2-0.1c-5.1-0.4-9.9-0.8-14.8-0.8c-4.8,0-9.6,0.4-14.6,1.6C988.9,19,986.7,19.9,985.1,20.5L985.1,20.5z
				 M983.1,53c-0.4-0.3,0.1-1.2,1.5-2.9c3.3-3.9,7.9-8.4,12.9-11.4c3.8-2.3,7.9-3.8,11.9-3.7c1.3,0,3,0.5,4.5,1.2
				c1,0.5,1.8,1,2.5,1.8c0.6,0.7,1,1.6,1,2.5c0,0.5-0.1,1-0.4,1.5c-0.5,1-1.3,1.7-2.2,2.2s-2,0.7-3,0.9l0,0
				c-7.6,0.1-16.4,3.6-22.2,6C986.1,52.5,983.6,53.5,983.1,53L983.1,53z M997.5,68.7c-1.6,0.4-3.2,0.9-4.7,1.4
				c-0.9,0.3-1.8,0.8-2.7,1.2c-1.4,0.7-2.5,1.2-2.9,0.9c-0.4-0.3,0.3-1.6,3.1-5l0.4-0.5c2.9-3.6,6.6-8.2,12.6-5.2
				c0.8,0.4,1.3,1,1.6,1.6c0.2,0.4,0.2,0.7,0.2,1.1c0,0.4-0.1,0.8-0.3,1.1c-0.3,0.6-0.9,1.2-1.7,1.5
				C1001.4,67.7,999.4,68.2,997.5,68.7L997.5,68.7z M1025.9,85.6c-0.9,1.5-1.8,2.9-3,4.2c-1.1,1.3-2.3,2.5-3.7,3.6
				c-3.9,3.2-5.4,4.1-5.8,3.7c-0.3-0.3,0.3-1.5,1-3.1c0.4-0.8,0.8-1.7,1.2-2.7c0.8-1.9,0.7-4.2,0.6-6.5c-0.1-2-0.1-4,0.3-5.6
				c0.2-0.7,0.5-1.3,0.9-1.9c0.6-0.9,1.4-1.6,2.3-2c0.9-0.4,1.9-0.5,3-0.2c0.5,0.1,0.9,0.4,1.4,0.7c1.6,1.1,2.4,2.6,2.7,4.2
				C1027.2,81.9,1026.8,83.9,1025.9,85.6L1025.9,85.6z M1047.4,83.8c-3.8,5.4-5.2,7.3-5.5,7.1c-0.2-0.1,0.1-1.1,0.6-2.5
				c0.9-2.7,2.3-7.2,2.2-11c-0.1-1.9-0.3-3.9-0.7-5.8c-0.4-1.9-1-3.8-1.7-5.6c-0.9-2.1-2-4-3.2-5.9c-0.6-0.9-1.2-1.8-1.7-2.8
				c-0.6-1-1.1-2-1.2-3.1c-0.2-1.1-0.1-2.2,0.5-3.3c0.5-0.9,1.4-1.6,2.4-2c1.1-0.5,2.3-0.6,3.4-0.5c1.5,0.2,2.8,0.9,3.9,1.9
				c1.1,0.9,2.1,2.1,2.9,3.3c3.1,4.5,4.2,9.6,4,14.6C1052.7,73.8,1050.6,79.2,1047.4,83.8L1047.4,83.8z M1078.8,66.4
				c-4.8,10.3-6.8,13.4-7.5,13.1c-0.7-0.3,0-3.7,0.6-7.1l0.1-0.6c0.6-3.3,0.7-8.5,0.3-13.5c-0.3-4.5-1.1-8.9-2.2-11.4
				c-1-2.3-2.2-4.5-3.6-6.6c-1.3-2.1-2.8-4.2-4.4-6.1c-0.2-0.3-0.5-0.6-0.7-0.9c-2-2.4-4.3-5.2-2.5-8.3c0.7-1.3,1.9-2.2,3.2-2.8
				c1.4-0.6,3-0.8,4.5-0.5c4.1,0.8,7.2,4.3,9.9,7.4l0.5,0.5c4,4.6,5.8,10.3,6.1,16.3C1083.5,52.9,1081.7,60.3,1078.8,66.4
				L1078.8,66.4z M1103.8,52.8c-5.1,7.7-6.9,10.1-7.2,9.9c-0.2-0.2,0.4-1.5,1.1-3.3c0.2-0.5,0.4-1,0.7-1.6c1.1-2.6,1.7-4.7,1.8-6.8
				c0.2-2.1-0.1-4.3-0.6-7.2c-0.6-3-1.5-5.9-2.7-8.7c-1.2-2.8-2.7-5.5-4.3-8.1c-0.6-1-1.4-2.2-2.2-3.4c-4.1-6.1-9.4-14-4-20.3
				c0.5-0.6,1.1-1.1,1.7-1.5c2.1-1.4,4.5-1.5,7-0.7c2.4,0.7,4.8,2.2,6.8,3.9c1.7,1.4,3.1,3,4,4.4c4.1,6.1,5.7,13.4,5.3,20.8
				C1110.9,38.1,1108.2,46.2,1103.8,52.8L1103.8,52.8z M1121.3-17.5c4.6,1.7,8,4.8,10.3,8.6c2.7,4.5,4,10,4.3,15.4
				c0.2,5.2-0.1,10.7-1.4,16c-1.1,4.6-2.9,8.9-5.5,12.8c-1.6,2.3-2.7,4-3.4,5c-0.8,1.2-1.1,1.7-1.2,1.4c0-0.1,0.1-0.4,0.2-1
				c0.7-2.2,2.6-8.1,1.8-15.1c-0.2-2.5-0.6-5-1.2-7.4c-0.5-2.5-1.2-4.9-2-7.3c-1.7-4.9-3.9-9.6-6.7-14c-2.8-4.4-6-8.4-9.7-12
				c0,0-0.1-0.1-0.1-0.1c-0.1-0.1-0.1-0.3-0.1-0.4c0-0.2,0.1-0.3,0.2-0.4c0,0,0.1-0.1,0.1-0.1c2.1-1.4,4.4-2.2,6.7-2.4
				C1116.2-18.8,1118.9-18.4,1121.3-17.5L1121.3-17.5z M1110.3-36.4c4.5-1.7,8.8-0.2,6.1,1.8c-1.1,0.8-2.1,1.6-3.2,2.5
				c-5.7,4.4-11.7,8.9-16.9,13.4c-25.2,21.7-48.1,45.7-68.7,71.6c-12.2,14.8-24.7,30.3-33.6,44.3c-0.6,0.9-2.1-0.3-1.5-1.1
				C1000.7,80,1081.9-25.5,1110.3-36.4L1110.3-36.4z M1048-71.2c3.4-1.2,6.9-2.4,10.4-3.3c3.5-1,7.1-1.7,10.7-2.2
				c6.3-0.8,12.9-0.5,19,1.2c5.5,1.5,10.5,4.2,14.7,8.3c1.2,1.1,2.2,2.4,3.2,3.8c0.9,1.3,1.7,2.7,2.4,4.1c0.5,1,0.9,2.1,1.2,3.2
				c0.3,1,0.5,2.1,0.7,3.2l0,0l0,0c0.1,7.4-2.7,9.1-5.8,9.1c-1.4,0-2.8-0.3-4-0.6c-0.2,0-0.5-0.1-0.7-0.2l0,0
				c-0.8-0.3-1.7-0.7-2.5-1.1c-0.8-0.4-1.5-0.9-2.3-1.4c-2.8-2-5.3-4.5-7.7-7c-1.4-1.4-2.8-2.9-4.2-4.2c-5.1-4.6-11.2-8.6-17.8-10.8
				c-5.5-1.8-11.4-2.3-17.2-0.7c-0.3,0.1-0.5,0-0.6-0.2c-0.1-0.1-0.1-0.1-0.1-0.2s0-0.2,0-0.3C1047.6-70.9,1047.8-71.1,1048-71.2
				L1048-71.2z M1005.5-34.7c4.7-4.9,10.5-8.4,16.7-10.7c7.1-2.6,14.7-3.7,22.2-3.6c4.6,0,9.4,0.6,14,1.7c4.2,1,8.2,2.6,11.8,4.7
				c6.7,3.9,10,7.6,11,10.9c0.5,1.7,0.4,3.3-0.2,4.6c-0.6,1.4-1.7,2.5-3.2,3.4c-3.2,2-8,2.6-12.8,1.5c-5.2-1.3-10.2-3.6-15.1-5.9
				c-1.5-0.7-3-1.4-4.5-2.1c-6.1-2.7-12.7-5.3-19.5-6.3c-6.7-1-13.5-0.5-19.8,2.9c-0.2,0.1-0.4,0.1-0.6,0c-0.1,0-0.2-0.1-0.2-0.2
				c-0.1-0.1-0.1-0.2-0.1-0.3C1005.3-34.3,1005.4-34.5,1005.5-34.7L1005.5-34.7z M992.5-12.2c0.9-0.8,1.8-1.5,2.8-2.1
				c1-0.6,2-1.2,3-1.8c2.2-1.1,4.4-2,6.7-2.8c2.4-0.7,4.8-1.3,7.2-1.7c4.5-0.6,9.1-0.6,13.6,0.1c4.5,0.7,8.8,2.1,12.8,4.1
				c1.8,0.9,3.7,1.9,5.4,3.2c1.7,1.3,3.2,2.7,4.3,4.5c0.8,1.4,1.3,3.1,1.2,4.6c-0.1,1.3-0.7,2.6-1.9,3.5c-3.1,2.5-7.9,1.4-11.6,0.5
				c-0.5-0.1-0.9-0.2-1.4-0.3c-2.9-0.6-5.8-1.4-8.7-2.1c-1.9-0.5-3.7-0.9-5.6-1.4c-1.4-0.3-2.7-0.7-3.9-1c-5.5-1.4-9.7-2.5-20.4-2.1
				c-1.6,0.1-3.4,0.5-5.1,0.9c-2,0.5-3.7,0.9-4.2,0.4C986.3-6.1,987.7-7.9,992.5-12.2L992.5-12.2z"/>
			<path class="st2" d="M1221.5,168.5c6.2-18.1,16.3-33.6,28.7-47.9c11.9-13.7,21.8-25.3,29.3-42c-24.8,13.5-47.8,27-60,53.7
				c-0.4,1-1.8,0.6-1.7-0.4c0.7-16.5,9.2-31.3,21.7-41.8c6.9-5.8,15-10.2,23.3-13.5c6.9-2.7,23.1-5.3,21-16
				c-26.5,4.7-48.7,16-69.8,32.7c-1,0.8-2.3-0.3-1.9-1.4c5.1-15,17.9-25.5,31.5-32.7c8.1-4.2,16.8-7.3,25.7-9.2
				c4.8-1,9.8-1,14.6-1.9c4.7-0.9,6.4-7.6,6.5-11.6c-12.8-0.5-25.8,6-37.8,9.8c-11.5,3.7-23.4,6.1-35.5,7.4c-1.3,0.1-1.9-1.4-1-2.3
				c19.4-19,45-28.8,71.9-24.9c1.6,0.2,3.8,1.2,5.1-0.4c1.2-1.5-0.1-4.7-1.2-5.9c-5.3-6-30.2,2.9-36.8,5.2
				c-15.9,5.5-29.8,14.3-44.6,22.1c-1.1,0.6-2.4-1-1.6-1.9c20.3-23.8,46.2-42.6,77.8-38.6c6.5,0.8,7.7,1.6,7.2-6.4
				c-0.3-4.6-0.8-9.2-0.9-14.2c-30.7,5-51.8,29.1-79.8,40.9c-1,0.4-2.2-0.6-1.7-1.7c5-11.7,13.6-21.3,24.1-28.4
				c10.4-7.1,22.2-11.7,34.3-14.9c3.6-1,7.2-1.8,10.9-2.6c1.6-0.3,3.1-0.6,4.7-0.9c1.6-0.3,5.3-1.2,6.6-1.5
				c0.1-0.1,2.5-15.7-6.9-13.2c-13.8,3.2-25.9,9.9-36.9,18.6c-9.5,7.4-18.7,15.4-30.4,18.9c-1,0.3-2.4-0.5-1.8-1.7
				c14.4-27,42.9-45.1,73.4-44.4c-1.8-6.5-2.7-18.3-7.5-20.2c-4-0.6-8.8,2-12.3,3.5c-3.2,1.3-6.4,2.9-9.5,4.5
				c-13.7,7.3-25.5,17.6-34.9,29.9c-0.8,1-2.6,0.4-2.4-1c2.4-13.3,10.8-24.5,22-31.8c5.5-3.6,11.6-6.3,18-7.8
				c5.8-1.4,14.3-2.6,18.4-7.6c2.4-3,1.2-4.2,0.9-6c-7.9-20.2-19.7-38.7-34-55.7c-1.1-1.3,3.9-4.8,5-3.5
				c14,16.7,23.8,36.5,31.5,56.9c0.1,0,0.1,0,0.2,0.1c3.8,1.7,5.2,4.6,9.7,6.1c9.5,3.2,20.3,1.6,30.3,0.6
				c12.4-1.2,24.8-0.4,36.9,2.7c1.1,0.3,1.6,1.9,0.4,2.4c-21.3,8.2-44.5,10.4-67,6.4c0.5,10.1,18.7,8.1,25.5,9.6
				c7.5,1.6,14.7,4.6,21.3,8.6c15.6,9.2,27.4,23.4,37.7,38c0.9,1.3-0.8,2.6-1.9,1.5c-20.6-20.9-48-34.4-77.1-38.3
				c0.8,2.8,2.5,4.4,4.1,6.8c7.6,10.9,18.8,20.6,29.3,28.7c13,10,27.1,18.4,41.9,25.3c1,0.5,1,2.2-0.3,2.3c-15,0.8-27.9-8.4-40-16
				c-12.6-8-24.9-16.9-33.7-29.1c-1.1,4.2,3.6,9.6,5.8,12.7c2.7,3.7,5.6,7.2,8.6,10.5c6.1,6.6,12.8,12.6,19.9,18.1
				c14.2,11,29.8,20.1,45.3,29.1c1,0.6,0.4,2.1-0.6,2.2c-35.3,4.7-62.9-22.4-78.7-50.8c-1.7,10.8,6.3,20,12.6,27.7
				c6.4,7.9,12.3,16.3,17.5,25c10.8,18,18.6,37.7,21.7,58.5c0.2,1.2-1.5,2-2.2,1c-9.7-14.1-19.4-28.1-29.2-42.2
				c-7.9-11.4-16.2-22.7-20.6-35.8c-0.8,8.2,0.4,16.6,3.7,24.3c3.5,8.2,9.7,14.5,14.3,21.9c9.3,14.9,13.7,33.8,16.1,51
				c0.2,1.2-1.6,1.8-2.1,0.6c-10.3-26.4-33.9-47.4-37.5-76.2c-1.7,7.3-1.4,13.2,0,20.4c1.8,8.7,6.1,16.7,8.6,25.2
				c4.7,15.9,5.4,32.8,2.3,49.1c-0.2,1-1.8,1.5-2.2,0.3c-7.5-23.9-15.6-46.2-15.8-71.4c-4.7,14.3-7.4,26.3-6.7,41.6
				c0.7,16.3,4.6,32.3,8.5,48.2c0.2,1-1,1.6-1.8,1.1c-20-13.8-19-38.5-13.6-60.1c-1.6,3.6-3.2,7.1-5,10.6c-3,8.3-6.1,16.5-10.4,24.2
				c-8.6,15.1-22.5,23.5-37.4,31.4C1222.1,170.6,1221.2,169.4,1221.5,168.5L1221.5,168.5z"/>
			<path id="g" class="st5" d="M1344.9-88.6c0,0,1.6,0.8,1.6,0.8c8.8,4.2,50.6,23.1,86.7,22.2c34.5-0.8,52.7-19.3,57.4-24.9l1.3,0
				l6.3-0.1l-29,53.5l-6.6,0.1l-0.8,0c-3.8-4-21.3-20.5-52.5-19.8c-29.9,0.7-62.7,16.9-72.3,22.1c0,0-2.9,1.5-2.9,1.5
				c0,0,1.9,0.9,1.9,0.9c8.3,3.9,44.3,20,75.4,19.3c29.8-0.7,45.7-16.5,50-21.6l1.3,0l5.2-0.1L1441,14.7l-5.5,0.1l-0.8,0
				c-3.5-3.7-18.3-17.2-44.3-16.6c-25,0.6-52.4,14-60.9,18.5c0,0-2.9,1.4-2.9,1.4l2.1,0.9c7.7,3.6,37.6,16.8,63.6,16.2
				c25-0.6,38.4-13.7,42.2-18.1l1.2,0l4.1-0.1l-23.6,43.4l-4.3,0.1l-0.9,0c-3.2-3.3-15.1-13.6-35.4-13.1
				c-19.7,0.4-41.2,10.8-48.6,14.7c0,0-2.7,1.4-2.7,1.5c0,0.1,2.1,0.9,2.1,0.9c6.9,3.2,30.3,13.3,50.7,12.8
				c19.6-0.4,30.4-10.5,33.8-14.3l1.2,0l2.9-0.1l-21,38.7l-3.2,0.1l-0.9,0c-2.8-2.8-11.9-10.3-27.3-9.9c-14.8,0.3-31,7.9-37.2,11.1
				c0,0-2.4,1.4-2.4,1.4c0,0.1,1.9,1,1.9,1c5.9,2.7,23.5,10,38.8,9.7c14.8-0.3,23.1-7.7,26-10.8l1.2,0l1.8,0l-6.7,12.4l-0.4,0.8
				c-4.1,1-17.2,5.3-25.7,21.2c-8.2,15.3-9.7,36.7-10,44.5c0,0,0,2.9,0,2.9c0.1,0.1,1.7-1.2,1.7-1.2c5.7-4,23.5-17.2,32.1-33
				c8.2-15.3,5.3-28.4,3.8-32.9l0.6-1l6.7-12.4l0.9,1.6l0.6,1c-1.1,4.1-2.8,15.2,4.8,28.1c7.9,13.3,23.3,24.4,28.8,28.1
				c0,0,1.9,1.3,1.9,1.1c0.1-0.1-0.2-2.8-0.2-2.8c-0.6-7-3-24.9-10.6-37.8c-7.9-13.3-19-17.1-22.8-18.1l-0.5-0.8l-1.7-2.8l21-38.7
				l1.5,2.5l0.6,1.1c-1.4,4.9-4,19.5,6.1,36.6c10.5,17.7,31.4,32.4,37.7,36.6c0,0,1.7,1.1,1.8,1.1c0.1-0.1-0.1-2.9-0.1-2.9
				c-0.7-8.4-3.6-32.4-13.7-49.5c-10.5-17.7-25.4-22.4-29.9-23.4l-0.4-0.7l-2.2-3.7l23.6-43.4l2.1,3.6l0.6,1.1
				c-1.6,5.7-5.4,24.2,7.5,45.9c13.4,22.6,40.3,41.2,47.4,45.9c0,0,1.6,1,1.7,0.9c0.1-0.1-0.1-2.9-0.1-2.9
				c-0.8-9.8-4.2-40.4-17.1-62.2c-13.4-22.6-32.6-28.1-37.5-29.1l-0.4-0.7l-2.9-4.8l26.8-49.4l2.7,4.5l0.7,1.1
				c-1.9,6.3-6.6,28.4,8.7,54.4c16,27.1,48.6,49.4,56.4,54.4c0,0,1.4,0.9,1.5,0.9c0.1,0,0-3,0-3c-0.9-11-4.8-47.8-20.2-73.8
				c-16.1-27.1-39.2-33.3-44.5-34.4l-0.4-0.7l-3.4-5.8l29-53.5l3.3,5.5l0.7,1.1c-2.1,6.9-7.9,32.5,9.9,62.5
				c18.6,31.4,56.7,57.2,64.8,62.5c0,0,1.5,1,1.6,0.9c0.1-0.1-0.2-3.2-0.2-3.2c-0.9-11.8-5.2-52.8-21.9-82.7l-39.5-37.4
				c-6.1-2.8-10.9-3.9-13-4.3l-0.4-0.6l-4-6.7l1.7-3.1l-1.8-1.7l-2,3.7l-7.7,0.1l-0.7,0c-4-4.3-24.2-23.7-60.3-22.9
				c-34.5,0.8-72.6,19.8-83.1,25.4C1347.7-90.2,1345-88.6,1344.9-88.6L1344.9-88.6z"/>
			<path class="st6" d="M131-49.9c0.9-0.1,2.7-0.4,4.4-0.7c1.5-0.3,4.7-3.7,5.1-5.3c0.6-2.4,0.5-4.7-0.9-6.8c-0.7-1-1.3-1.2-2.4-0.8
				c-2.3,0.9-4.6,1.8-6.9,2.6c-2.5,0.9-3.9,2.6-4.3,5.2C125.6-52.8,126.2-49.6,131-49.9L131-49.9L131-49.9z M194.9-144.6
				c0.1-1.2,0.4-2.3,0.2-3.3c-0.6-2.5-1.4-5-2.3-7.4c-0.2-0.5-1.3-1.2-1.8-1.1c-2.1,0.4-4.3,1-6.3,1.9c-0.7,0.3-1.3,1.3-1.5,2.1
				c-1,3,1.6,8.4,4.6,9.6c1.2,0.5,2.5,0.8,3.6,1.1c-0.3,1.4-0.6,2.7-0.7,4c-0.2,1.8,1,4.1,2.3,4.7c0.5,0.3,1.1,0.5,1.6,1
				c1.9,1.8,4.1,1.9,6.3,1c2-0.8,3.8-1.8,5.7-2.8c1.4-0.7,2.4-1.8,2.5-3.4c0.1-3-0.8-5.7-2.6-8c-1.2-1.5-3.7-0.5-5.1-2
				c-0.2-0.2-0.7-0.2-1,0c-1.7,0.7-3.8,0.5-4.9,2.5C195.3-144.6,194.9-144.6,194.9-144.6L194.9-144.6L194.9-144.6z M179.2,13.3
				c0,0.1,0,0.1-0.1,0.2c-0.4,0-0.9,0.1-1.3,0.1c-1.4,0.2-1.9,0.6-1.4,2c0.6,1.9,1.4,3.9,2.4,5.6c1,1.8,3.6,2,4.6,0.5
				c0.9-1.3,1.5-2.8,2-4.3c0.4-1.3-0.2-2.4-1.4-2.8C182.4,14.1,180.8,13.7,179.2,13.3L179.2,13.3L179.2,13.3z M361.5,47.3
				c2.4,0,3.5-1.4,2.7-3.3c-0.2-0.6-0.7-1.2-1.3-1.6c-1.7-1.3-3.5-2.5-5.2-3.7c-1.7-1.2-3.3-0.5-3.6,1.5c-0.3,2.1,0.4,3.9,1.6,5.5
				c0.3,0.4,0.8,0.7,1.3,0.8C358.6,46.8,360.2,47,361.5,47.3L361.5,47.3L361.5,47.3z M328-111.8c1.9,0,3.5-1.1,4.2-2.7
				c0.6-1.5-0.3-2.5-1.3-3.4c-1.2-1.1-2.4-2.3-3.6-3.3c-0.8-0.6-1.8-0.8-2.7-0.2c-0.7,0.5-1.3,1.1-1.8,1.7c-1.2,1.4-1.2,2.4-0.2,3.9
				c0.4,0.6,1.2,1,1.5,1.6C324.8-112.4,326.6-112.2,328-111.8L328-111.8L328-111.8z M319.1,68.7c1.1-0.3,2.2-0.5,3.1-1
				c2.2-1.1,2.8-4.3,1.1-5.5c-2.7-1.9-5.7-2.6-8.9-1.7c-1.7,0.5-2.3,1.5-1.5,3.1c0.9,1.8,2.2,3.3,4,4.3
				C317.6,68.2,318.3,68.4,319.1,68.7L319.1,68.7L319.1,68.7z M291.7-110.8c0.9-0.4,1.9-0.8,2.7-1.4c0.9-0.7,1.7-1.6,2.5-2.5
				c1.1-1.2,1-2.2-0.3-3.2c-1.1-0.8-2.2-1.5-3.4-2.1c-2.8-1.5-2.3-1.6-4.7,0.5c-3.5,3-3,3.4-0.8,6.4
				C288.7-111.6,289.9-111.1,291.7-110.8L291.7-110.8L291.7-110.8z M261.1-37.3c-0.9,0.4-2.1,0.9-3.1,1.6c-0.5,0.4-0.9,1.4-0.7,2
				c0.8,2.5,2.4,4.6,4.9,5.6c0.8,0.3,1.9,0.2,2.7-0.1c1.2-0.4,2.3-1.1,3.4-1.8c1.3-0.8,1.5-1.5,0.8-2.9
				C267.5-36,264.4-36.4,261.1-37.3L261.1-37.3L261.1-37.3z M253.7-105.9c0.2,0.9,0.3,1.9,0.7,2.8c0.7,2,1.5,2.5,3.6,2.1
				c1.6-0.3,3.1-0.7,4.6-1.2c0.6-0.3,1.3-1.1,1.5-1.7c0.7-2.4-0.2-4.6-1.5-6.6c-0.3-0.4-1.2-0.7-1.7-0.7c-1.5,0.2-2.9,0.7-4.3,1.1
				C254.5-109.5,253.6-108,253.7-105.9L253.7-105.9L253.7-105.9z M208.8-186.4c-0.3,0-0.7,0-1.2,0.1c-1.7,0.2-2.9,1.3-2.8,3
				c0.2,2.7,1,5.2,3.3,6.9c1.6,1.2,4.5,1.2,5.3-0.2c0.8-1.4,1.6-3,1.7-4.6C215.3-184.5,212.7-186.5,208.8-186.4L208.8-186.4
				L208.8-186.4z M354.1-145.7c-3.2,0.1-5.5,1.6-7.4,3.9c-0.9,1-1,2.3-0.3,3.5c1,1.7,2.5,2.9,4.4,2.8c2.1,0,4.1-0.8,5.2-2.6
				c0.9-1.4,1.3-3.2,1.7-4.9c0.3-1.2-0.3-2.1-1.5-2.5C355.4-145.6,354.8-145.6,354.1-145.7L354.1-145.7L354.1-145.7z M326.8,42.9
				c-0.3,0-0.7,0.1-1,0.1c-3.3,0.4-5.2,4.5-3.1,7.1c3.1,3.9,7.3,3.2,10.5,0c1.5-1.5,1.5-3.5,0.4-4.3
				C331.6,44.2,329.8,42.1,326.8,42.9L326.8,42.9L326.8,42.9z M153.6-123.4c0.2,0.2,0.3,0.3,0.4,0.5c0.9,1.3,2.1,2,3.1,1.6
				c1.4-0.6,1.4-1.9,1.3-3.1c-0.2-2.6-1.2-5-2.9-7.1c-0.8-0.9-1.6-1.8-2.2-2.9c-0.9-1.7-2.4-1.4-3.4-0.2c-2.4,2.8-2.3,8,0.1,10.7
				C151.1-122.6,152.1-122.4,153.6-123.4L153.6-123.4L153.6-123.4z M357.8-78.6c1-0.1,2.1-0.1,3.1-0.4c0.7-0.2,1.7-0.7,1.9-1.3
				c0.5-1.3,0.8-2.8,1-4.2c0.1-1.1-0.5-2.1-1.6-2.4c-2.6-0.6-5.1-1.2-7.7-1.5c-3-0.2-4.9,3.2-3.5,5.9
				C352.4-79.7,354.7-78.4,357.8-78.6L357.8-78.6z M338.8-157.8c-0.6,0.3-1.5,0.5-2.2,1.1c-0.9,0.7-1.7,1.6-2.5,2.5
				c-1.4,1.6-1.9,4.4-0.1,6.2c2.1,2.1,4.6,2.5,6.7,0.7c1.4-1.1,2.7-2.3,4.1-3.4c1.4-1.2,1.6-2.5,0.6-4
				C343.9-156.8,341.6-157.5,338.8-157.8L338.8-157.8L338.8-157.8z M313.5-152.7c0.1,3.7,2.2,6.3,6.1,7.6c3.2,1.1,4.7-1.1,6.4-3.1
				c0.1-0.1,0.1-0.1,0.2-0.2c0.9-1.2,1-2.5,0.1-3.7c-1.5-2-3.4-3.3-6-3.3c-1.5,0-3,0.1-4.5,0.2C314-155.1,313.4-154.6,313.5-152.7
				L313.5-152.7L313.5-152.7z M310.4-76.5c0.9-0.3,1.9-0.5,2.6-1.1c1.5-1.2,3-2.5,4.2-4c0.5-0.5,0.6-1.5,0.5-2.3
				c-0.5-3.3-6.1-5.7-8.7-3.6c-1.6,1.3-2.8,3-4.1,4.6c-0.4,0.5-0.4,1.4-0.2,2.1C305.4-78.4,307.9-76.7,310.4-76.5L310.4-76.5
				L310.4-76.5z M289.1-14c-4.4,0.1-6.4,3.3-4.8,6.8c0.3,0.6,0.6,1.2,0.8,1.8c0.7,1.6,2,2.3,3.7,2.1c1.1-0.1,2.2-0.6,3.3-1
				c1.8-0.6,3.5-1.4,5.3-2c1.7-0.6,2.1-1.8,0.9-3.1c-0.6-0.6-1.3-1.1-2-1.7C294.2-13.1,291.4-13.6,289.1-14L289.1-14L289.1-14z
				 M312.9-175.6c-0.2-0.4-0.5-1.2-0.9-1.8c-1.5-2-3.5-3.2-5.8-4.1c-2.2-0.8-6.9,2.1-7.2,4.5c-0.1,0.7,0,1.4,0.3,2
				c0.4,1,0.9,1.9,1.4,2.7c0.8,1.3,1.9,1.7,3.4,1.5c0.8-0.1,1.6-0.1,2.4,0c2.1,0.4,5.8-1.9,6.3-4C312.9-174.8,312.9-175,312.9-175.6
				L312.9-175.6L312.9-175.6z M236.9,6.5c1.8-0.1,3.5-0.7,5.3-1.9c1.1-0.7,2.2-1.5,3.4-1.8c1.2-0.3,2.2-0.8,2.4-1.9
				c0.2-1.4,0-3-1.2-4c-2-1.6-6.4-2-8.4-0.5c-1.5,1-2.8,2.3-4,3.6c-2,2.1-1.6,2.3-0.3,4.9C234.6,6.1,235.7,6.6,236.9,6.5L236.9,6.5
				L236.9,6.5z M285.9-179.1c1.3-0.5,2.7-0.8,4-1.4c4.4-2.1,4.4-2.4,2.3-6.7c-1.2-2.4-3.3-3.3-5.7-3.6c-0.9-0.1-2,0.3-2.7,0.8
				c-1.2,0.9-2.1,2-3,3.2c-0.4,0.6-0.7,1.5-0.6,2.2C280.3-181.7,281.9-178.8,285.9-179.1L285.9-179.1L285.9-179.1z M303.1,6.2
				c2,0,3.9-0.3,5.7-1.4c1.1-0.7,1.5-1.6,1.1-2.8c-0.5-1.5-1.5-2.5-2.8-3c-1.7-0.6-3.5-1.1-5.2-1.6c-1.8-0.5-3.6-0.1-5,0.9
				c-1.3,0.9-2.2,2.3-3.2,3.5c-0.1,0.1-0.1,0.2-0.1,0.4c-0.4,3.1,2.5,5.8,5.4,4.7C300.4,6.2,301.7,6.3,303.1,6.2L303.1,6.2
				L303.1,6.2z M214.1-119.3c0-2.7-0.9-5.1-2.3-7.3c-0.5-0.8-1.2-1.4-2.2-1.3c-2.6,0.3-5.5,2.9-6.1,5.5c-0.7,3.1,1.5,7.6,4.4,8.9
				c2.7,1.2,5.5-0.4,5.9-3.3C213.9-117.7,214-118.5,214.1-119.3L214.1-119.3L214.1-119.3z M251.6-33.5c-0.7-2.7-1.4-6-5.2-7.1
				c-0.3-0.1-0.6-0.2-0.8-0.3c-1.6-0.6-3.7-0.1-4.6,1.2c-1.8,2.5-2.3,5.2-0.6,8c0.4,0.7,0.8,1.3,1.2,2c0.7,1.1,1.6,1.7,2.9,1.5
				c1.6-0.3,3.2-0.8,4.7-1.3C251.2-30.2,251.6-30.9,251.6-33.5C251.6-33.5,251.6-33.5,251.6-33.5z M151.1-156.2
				c-0.1,0.1-0.1,0.2-0.2,0.3c-2.3,0.1-3.1,0.8-3,2.5c0,0.3,0.3,0.6,0.3,0.9c-0.2,1.4-0.6,2.9-0.7,4.3c-0.1,2,0.2,4,1.6,5.6
				c0.8,0.9,1.7,1.3,2.9,0.9c2.1-0.6,3.9-1.6,5.2-3.4c0.5-0.7,1-1.6,1.1-2.4c0.3-3-1.4-5.9-4.2-7.1c-0.1,0-0.2-0.2-0.3-0.2
				C152.9-155.3,152-155.8,151.1-156.2L151.1-156.2L151.1-156.2z M299.1,68c0,0.1,0,0.2,0,0.2c-0.5,0-1,0-1.6,0
				c-2.9,0.1-4.9,2.9-3.9,5.7c0.1,0.3,0.1,0.7,0.1,1.1c0.1,1.8,0.3,3.6,2.3,4.6c2.6,1.4,6,0.5,7.7-2.2c0.9-1.5,1.6-3.1,2.2-4.8
				c0.7-1.7-0.2-3.4-1.9-3.9C302.3,68.3,300.7,68.3,299.1,68L299.1,68L299.1,68z M191-122.6c-0.6-1.3-1.3-2.6-1.6-4
				c-0.5-2.2-3-2.2-4.1-3.8c-0.1-0.1-0.7,0-1.1,0.2c-0.8,0.3-1.5,0.7-2.2,1.1c-2.8,1.3-4,4.3-2.6,7.1c0.7,1.5,1.7,3,2.7,4.4
				c0.4,0.6,1.2,1.1,1.9,1.2C186.9-116.1,191-118.1,191-122.6L191-122.6L191-122.6z M279.7-1.8c-0.3-3.1-2.7-5.6-5.6-5.8
				c-0.6,0-1.2,0.3-1.7,0.7c-1,0.6-1.8,1.5-2.8,2.1c-2.1,1.3-3.2,3.3-3.2,5.7c0.1,2.4,1.7,3.9,3.7,4.9c1.5,0.8,2.6,0.6,3.9-0.6
				c1.6-1.6,3.1-3.2,4.5-4.8C279.1-0.2,279.3-1.1,279.7-1.8L279.7-1.8L279.7-1.8z M185.3-65.1c0,2.8,2.6,5,5.3,4.3
				c2.2-0.6,4.4-1.5,6.5-2.5c2.1-0.9,2.7-2.5,2.2-4.7c-0.7-2.8-2-3.7-4.8-3.5c-0.8,0.1-1.9,0.2-2.5-0.3c-1.1-0.8-1.9-0.7-3-0.2
				C186.3-70.5,185.2-68.1,185.3-65.1L185.3-65.1L185.3-65.1z M362.6-13.1c1.2-0.1,2.6-0.8,3.4-2.2c1.3-2.2,2.5-4.4,3.5-6.8
				c0.8-1.9,0.3-2.8-1.6-3.9c-2.1-1.3-4.3-0.8-6.4-0.3c-1.3,0.3-2.2,1.1-2.7,2.4c-0.5,1.3-1,2.7-1.5,4
				C356.1-16.8,358.9-13,362.6-13.1L362.6-13.1L362.6-13.1z M271.5,9.6c-3,0.4-4.8,1.9-6.1,3.9c-0.3,0.5-0.3,1.3-0.1,1.9
				c0.7,1.8,1.5,3.5,2.4,5.1c0.8,1.4,2.3,2,3.8,1.6c1.2-0.3,2.3-1.1,3.3-1.9c1.2-0.9,2.2-2.1,3.4-3.1c2.6-2,1.7-4.7-0.6-5.7
				C275.5,10.5,273.3,10.2,271.5,9.6L271.5,9.6L271.5,9.6z M346.6-161.9c0.3,2.2,1.2,3.8,3.2,4.7c2.1,0.9,4.2,1.1,6.3,0.5
				c1.8-0.5,3.1-1.7,3.3-3.6c0.1-1.2-0.1-2.5-0.1-3.7c0-3.1-1.5-4.4-4.5-4.2c-1.6,0.1-3.1,0.2-4.7,0.3c-1.1,0.1-2,0.5-2.3,1.6
				C347.3-164.9,347-163.4,346.6-161.9L346.6-161.9L346.6-161.9z M193.9-28.9c0.1,0,0.2-0.1,0.3-0.1c-0.6-1.8-1.2-3.6-1.9-5.3
				c-0.8-2-2.4-3-4.5-3.2c-0.6-0.1-1.4,0-1.9-0.4c-1.3-1-2.1-0.1-2.8,0.7c-1.7,2-1.7,4.3-1.2,6.6c0.4,1.7,0.8,3.5,2.7,4.3
				c1.3,0.5,2.6,1,3.9,1.4C192.4-23.8,194-25.1,193.9-28.9L193.9-28.9L193.9-28.9z M193.6-175.2c-4.2,0.1-5.5,1-6.9,4.8
				c-0.9,2.5,0.7,6,3.2,6.9c1.9,0.7,3.9,1.1,6,0.6c0.8-0.2,1.8-0.7,2.2-1.4c1.1-1.8,1.5-3.8,0.4-5.8c-0.2-0.3-0.3-0.6-0.3-0.9
				C198-174.4,197-175.3,193.6-175.2L193.6-175.2L193.6-175.2z M331.2,30.2c-0.1-1.7-0.4-3.2-2.2-3.9c-3.3-1.2-8.4,0.4-10.3,3.4
				c-0.3,0.4-0.4,0.9-0.5,1.4c-0.2,1.2-0.3,2.4-0.3,3.7c0,2.1,1,3.1,3.6,4.2c1.5,0.6,2.3,0.3,3.4-1.7c0.7-1.3,1.9-1.6,3.1-1.8
				c2.3-0.5,2.7-0.9,3-3.2C331,31.5,331.1,30.9,331.2,30.2L331.2,30.2L331.2,30.2z M336.5-43.4c0.9,0,1.5,0,2-0.1
				c2.4-0.2,3.3-1.1,3.2-3.5c-0.1-1.6-0.3-3.3-0.7-4.9c-0.2-0.7-0.8-1.5-1.4-1.9c-2.6-1.6-6.1-1.3-8.5,0.6c-0.6,0.5-1.3,0.9-2,1.2
				c-1.9,0.9-2.5,2.1-1.5,4c0.4,0.9,1.1,1.7,1.9,2.3C331.6-43.9,334-43,336.5-43.4L336.5-43.4L336.5-43.4z M323.5-94.5
				c-2.1-0.2-4.2-0.8-5.3-3.2c-0.5-1.1-1-2.2-1.5-3.3c-0.5-1-0.2-2,0.6-2.7c1.2-1.2,2.4-2.5,3.7-3.6c0.4-0.4,1.2-0.8,1.7-0.7
				c2.3,0.1,5.1,1.1,6.2,3.9c1.2,2.8,0.9,4.8-1.1,7C326.7-96,325.7-94.5,323.5-94.5L323.5-94.5L323.5-94.5z M283.2,35.6
				c1.9,0.4,3.5-0.7,5-2c1.3-1.1,1.5-2.5,0.7-3.9c-0.8-1.4-1.4-2.9-2.2-4.3c-0.5-0.8-1.1-1.8-1.8-2c-1.5-0.5-3.1-0.6-4.7-0.6
				c-1.4,0-2,1-2,2.4c0,0.4-0.3,0.9-0.5,1.2c-1.6,2.2-1.7,4.3-0.5,6.8c1.1,2.1,2.9,2.4,4.9,2.5C282.3,35.7,282.6,35.7,283.2,35.6
				L283.2,35.6L283.2,35.6z M222.3-177.3c0.3,2.4,2.2,5.9,4,7.3c1.6,1.2,4,0.7,5-0.9c1.1-1.8,2.2-3.6,3.3-5.4c1.5-2.5,1-3.9-1.7-4.8
				c-2-0.7-4.1-1.4-6.1-2.2c-1.8-0.6-2.9-0.2-3.6,1.7C222.8-180.3,222.6-178.8,222.3-177.3L222.3-177.3L222.3-177.3z M338.8,53.5
				c0,3.5,1.4,5,5.5,5.7c0.7,0.1,1.3,0.2,2,0.4c2.4,0.8,4-0.6,5.4-2.1c1.3-1.4,0.8-2.8,0.1-4.2c-0.5-1-1.1-1.9-1.6-2.8
				c-1.9-3.9-5.2-4.7-8.6-1.9c-0.5,0.4-0.9,0.8-1.4,1.2C339.1,50.8,338.5,52.1,338.8,53.5L338.8,53.5L338.8,53.5z M298.2-99.1
				c-2.4,0.6-4.7,0.3-6.2,2.2c-2.7,3.2-2.5,6.6,0.7,9.4c1.6,1.5,4.7,1.8,6.1,0.3c2-2.2,3.7-4.5,5.4-6.9c1-1.4,0.4-2.9-1.2-3.5
				C301.3-98.3,299.6-98.7,298.2-99.1L298.2-99.1L298.2-99.1z M343-114.3c1-0.5,2.1-1,3-1.7c1.7-1.3,3.4-2.7,5.1-4
				c1.8-1.4,2-3.9,0.3-5.4c-2.9-2.7-6.9-3.1-10-0.5c-0.5,0.5-1,1-1.4,1.6c-2.2,2.9-3.3,3.3-1.1,7.2c0.1,0.2,0.2,0.4,0.3,0.6
				C340.1-115.2,341.3-114.5,343-114.3L343-114.3L343-114.3z M236.4,59c-1.4,0-7.4,1.8-8.6,2.7c-0.3,0.2-0.7,0.6-0.8,1
				c-0.8,2,0.5,5.3,2.4,6.5c2,1.2,4.2,1.3,6.5,1c3.2-0.5,4.9-2,5.5-5.1C242.3,60.6,240.9,58.9,236.4,59L236.4,59L236.4,59z
				 M274.3-113.5c0.7-0.2,1.3-0.2,1.7-0.5c1.6-1.2,3-2.4,3.7-4.4c0.4-1.1,0.2-2.1-0.5-3.1c-1.8-2.7-4.4-4.1-7.5-4.6
				c-1.5-0.3-2.8,0-3.6,1.4c-0.9,1.6-1.9,3.1-2.6,4.8c-0.9,1.9-0.4,3.5,1.6,4.3C269.5-114.7,272-114.2,274.3-113.5L274.3-113.5z
				 M301.5-59.8c1.2-0.6,2.5-0.8,3.3-1.6c1-1,1.7-2.3,2.3-3.6c0.8-1.7,0.6-2.9-0.9-4.2c-1-0.9-2.1-1.9-3.3-2.5
				c-4.5-2-6.9-1.5-8.9,2.2c-0.4,0.7-0.5,1.7-0.4,2.6c0.2,1.2,0.7,2.3,1.2,3.4c0.4,0.8,1,1.6,1.8,2
				C298.1-60.8,299.8-60.4,301.5-59.8L301.5-59.8L301.5-59.8z M221.8,14.2c0.1,0.1,0.1,0.2,0.2,0.3c0.9-0.5,2.1-0.8,2.8-1.6
				c1.4-1.4,2.6-3,3.8-4.6c0.6-0.7,0.7-1.5,0.2-2.3c-1.8-3-4.4-4.6-7.8-4.8c-0.7,0-1.7,0.3-2.1,0.8c-1.4,1.7-2.8,3.5-4,5.4
				c-0.4,0.7-0.3,1.9,0.1,2.7C216.2,13.1,218.6,14.4,221.8,14.2L221.8,14.2L221.8,14.2z M279.8-92.3c1.2-0.3,2.4-0.4,3.5-0.9
				c1.7-0.8,3.1-2.2,3.2-4.2c0-2-1.4-3-3.1-3.8c-0.5-0.2-1-0.4-1.5-0.7c-0.6-0.3-1.3-0.6-1.7-1.1c-1.4-1.6-3.3-1.8-5.2-1.9
				c-0.5,0-1.2,0.3-1.5,0.6c-1.3,1.5-2.2,3.1-2.1,5.1c0,0.6,0.3,1.4,0.7,1.9c0.9,1.1,1.9,2,2.8,3C276.1-92.9,277.8-92.3,279.8-92.3
				L279.8-92.3L279.8-92.3z M148.4-68.5c2.3-0.1,6.4-1.4,8.2-2.7c0.6-0.4,1.1-1,1.4-1.7c1-2.5,1.3-5,0.1-7.6c-1-2-1.9-2.4-3.9-1.4
				c-1.5,0.8-3,1.5-4.5,2.2c-3.5,1.6-5.1,6.2-3.5,9.6C146.6-68.9,147.4-68.3,148.4-68.5L148.4-68.5L148.4-68.5z M362.2-100
				c3.4,0,4-0.4,5.1-3c0.3-0.8,0.7-1.6,0.8-2.4c0.3-1.5,0.6-3.1-0.8-4.1c-2.4-1.7-4.9-3.2-8-3.3c-1.2,0-2.3,0.4-2.8,1.5
				c-0.6,1.5-1.3,2.9-1.6,4.5c-0.2,1,0.1,2.2,0.5,3.1C356.8-100.7,359.5-99.8,362.2-100L362.2-100L362.2-100z M165.3-69.9
				c0.2,3.7,2.2,6.8,6.4,5c2.3-1,4.6-2.1,6.9-3.2c1.5-0.7,2-1.8,1.5-3.3c-0.5-1.4-1.4-2.7-2.1-4.1c-0.7-1.4-1.9-1.6-3.2-1.3
				c-2.2,0.5-4.4,1-6.5,1.7c-0.7,0.2-1.6,0.9-1.9,1.6C165.8-72.2,165.6-70.7,165.3-69.9L165.3-69.9L165.3-69.9z M145.8-10.5
				c3,0,7.1-3.5,7.5-5.9c0.1-0.5-0.1-1.2-0.3-1.6c-1.8-2.4-4.1-4.2-7.1-4.6c-0.9-0.1-2.2,0.1-2.9,0.7c-1.8,1.4-3.4,3.1-5,4.7
				c-0.4,0.4-0.7,1.3-0.6,1.7c0.9,2,1.8,4,4.3,4.4C143.2-10.8,144.8-10.6,145.8-10.5L145.8-10.5L145.8-10.5z M361.8,17.1
				c-1.8,0.4-3.5,0.8-5.3,1.2c-0.2,0.1-0.5,0.1-0.7,0.2c-0.6,0.5-1.4,0.8-1.7,1.5c-0.6,1.1-1,2.3-1.3,3.5c-0.5,2.3,0.7,4.3,2.9,5.1
				c2.6,1,5.2,0.7,7.6-0.5c0.6-0.3,1.3-0.8,1.6-1.4c0.9-1.7,1.8-3.4,2.4-5.1c0.7-1.9-0.1-3.2-2-3.8C364.3,17.3,363,17.3,361.8,17.1
				L361.8,17.1L361.8,17.1z M273.8-154c-0.1-0.1-0.2-0.1-0.3-0.2c0.1-1.4-1-2.1-2-2.4c-0.8-0.3-1-0.7-1-1.3
				c-0.1-1.4-0.8-2.3-2.2-2.7c-0.9-0.2-1.8-0.3-2.6-0.5c-3.1-0.9-3.6-0.7-4.9,2.3c-0.6,1.4-1.1,2.8-0.6,4.3c0.1,0.4,0.6,0.9,0.5,1.2
				c-0.6,2.8,1.1,4.4,3.1,5.8c1.2,0.8,2.3,0.9,3.5,0c1.6-1.2,3.3-2.4,4.8-3.7C272.8-152,273.2-153.1,273.8-154L273.8-154L273.8-154z
				 M325.2-160.6c-1.7-0.3-3.8-0.6-5.8-1.2c-1.9-0.5-3.5-3.1-3.3-5c0.1-0.6,0.4-1.4,0.9-1.8c1.9-1.5,3.8-2.8,5.8-4.1
				c0.5-0.3,1.5-0.2,2,0.1c1.6,0.8,3.1,1.8,4.6,2.7c1.4,0.8,2.5,1.9,2.8,3.6c0.1,0.6,0,1.6-0.3,2C330.2-162.3,328.1-161,325.2-160.6
				L325.2-160.6L325.2-160.6z M129.8-91.5c0,0-0.1,0-0.1,0c0-0.4,0-0.8,0-1.2c-0.3-1.2-0.6-2.4-0.9-3.6c-0.5-2.1-1.4-2.7-3.5-2.2
				c-2.3,0.5-4.6,1.3-6.8,1.9c-1.9,0.5-2.9,1.8-3,3.7c-0.1,0.8-0.1,1.7,0,2.5c0.2,1.5,1.1,2.2,2.4,2.4c1.3,0.2,2.8,0.3,3.9,1
				c1.7,1.1,3.3,0.9,5.1,0.5c1.4-0.3,2.2-1.1,2.5-2.5C129.6-89.8,129.7-90.6,129.8-91.5L129.8-91.5L129.8-91.5z M274.6-203
				c-3.4,0.1-6.8,2.6-7.7,5.2c-0.1,0.3-0.2,0.7-0.2,1c0,3,3.3,5.8,6.5,5.1c2.6-0.5,5.1-1.3,7.6-2.2c2.5-0.9,3.1-3.7,1.5-5.7
				C280.1-202.1,277-202.4,274.6-203L274.6-203L274.6-203z M301.4-198.2c-1.1,0.2-2.1,0.3-3,0.5c-2,0.4-2.5,1.4-2,3.3
				c0.6,2,1.2,4.1,1.7,6.1c0.1,0.5,0.3,0.9,0.5,1.3c1,2,3.2,2.6,5,1.1c1.4-1.2,2.9-2.3,4.2-3.7c0.9-1,1.7-2.2,2.2-3.4
				c1-2.4,0-4.5-2.4-5.4c-0.6-0.2-1.3-0.5-2-0.7c-1.7-0.5-2.7-0.2-3.8,1.2c-0.1,0.1-0.3,0.2-0.6,0.4
				C301.3-197.7,301.3-197.9,301.4-198.2L301.4-198.2L301.4-198.2z M142.3-81.9c-4.3,0.2-6.5-2.6-5.3-6.3c0.7-2,2.1-3.8,3.3-5.7
				c0.3-0.4,1.1-0.7,1.7-0.8c1.2-0.1,2.4-0.1,3.6-0.1c1.4,0,2.2,0.9,2.8,2c0.9,1.8,1.7,3.8,2.2,5.7c0.5,2.1-0.9,3.7-3.4,4.3
				c-0.2,0-0.3,0.1-0.5,0.1C145-82.3,143.3-82.1,142.3-81.9L142.3-81.9L142.3-81.9z M218.2-61.2c2.2-0.2,3.1-0.7,3.3-2.2
				c0.2-1.1,0.2-2.2,0.1-3.3c-0.2-1.7-0.8-3.3-1.6-4.9c-0.8-1.6-1.5-2.4-3.2-2.8c-4.1-1.1-8.5,2.2-8.3,6.4c0.1,1.3,0.4,2.6,0.8,3.9
				c0.1,0.4,0.4,0.9,0.8,1.1c1.6,1,3.2,1.9,5.2,1.2c0.2-0.1,0.4,0,0.6,0C216.6-61.6,217.4-61.4,218.2-61.2L218.2-61.2L218.2-61.2z
				 M262.9-138.6c0,0.1,0,0.1-0.1,0.2c-0.8,0.1-1.6,0.3-2.4,0.3c-3.7,0.4-4,0.6-5,4.2c-0.1,0.2-0.1,0.5-0.2,0.8
				c-0.6,3.2,1.2,5.6,4.4,6c1.3,0.1,2.6,0.3,3.9,0.6c2.9,0.5,4.3-0.3,5.2-3.1c0.4-1.3,0.7-2.6,1-3.9c0.4-1.9-0.3-3.3-2.1-3.9
				C266.1-138,264.5-138.2,262.9-138.6L262.9-138.6L262.9-138.6z M178.3,52.6c-3,0-3.5,0.4-4.5,2.8c-1.7,4-1.4,5.2,1.9,8.2
				c0.1,0.1,0.2,0.2,0.3,0.3c1.6,1.6,3.6,2.3,5.8,2c1.9-0.3,3.9-0.8,4.8-2.9c1.3-2.9,0.1-6.4-2.6-8c-0.3-0.2-0.7-0.4-1-0.7
				C181.6,52.9,179.9,52.5,178.3,52.6C178.3,52.6,178.3,52.6,178.3,52.6z M245.9-174.1c-3.5-0.1-5.8,0.8-7.3,3.1
				c-0.6,1-1,2.1-0.4,3.2c0.9,1.7,2.2,3.2,4.1,3.8c1.8,0.6,3.7,1,5.6,1.3c1.7,0.3,3.2-0.3,4.2-1.9c0.6-1.1,1.3-2.2,1.9-3.3
				c1.4-2.7,0.4-4.8-2.6-5.4C249.2-173.8,247.1-174,245.9-174.1L245.9-174.1L245.9-174.1z M165.9-87.1c0.1,0.7,0.2,1.5,0.4,2.1
				c0.9,2.2,1.3,3.6,4.6,3.1c1.2-0.2,2.4,0,3.5-0.1c0.8-0.1,1.9-0.1,2.3-0.6c1.4-1.7,2.5-3.6,1.9-5.9c-0.5-1.7-1.1-3.4-1.6-5.2
				c-0.3-1.2-0.8-2.4-2.2-2.6c-1.6-0.2-3.3-0.3-4.5,1.1c-1.1,1.2-2.1,2.5-3.1,3.8C166.3-90.1,165.8-88.7,165.9-87.1L165.9-87.1
				L165.9-87.1z M165.7-105c-0.6-2.2-1.3-4.7-2-7.3c-0.4-1.3-1.2-1.5-2.3-1.1c-0.9,0.3-1.8,0.7-2.6,1.1c-4.1,1.9-6.5,7.3-3.9,12.4
				c0.4,0.8,1.3,1.5,2.1,1.8c2.4,0.7,4.8,0.4,7-0.8c0.5-0.3,0.9-1,1-1.5C165.3-101.7,165.4-103.1,165.7-105L165.7-105L165.7-105z
				 M198.4,62.5c-2.6,0.1-4.6,1.5-6.6,2.7c-1.5,0.9-1.9,2.6-1,4.1c0.2,0.4,0.3,0.9,0.5,1.4c0.4,1.2,0.5,2.7,1.3,3.5
				c2.8,2.8,7.6,2.2,9.9-1.1c1.6-2.2,2.2-4.8,2.2-7.4c0-1-0.5-1.7-1.4-2C201.6,63.2,200,62.9,198.4,62.5L198.4,62.5L198.4,62.5z
				 M301.5-19.4c2.8-0.3,4.7-1.8,6.5-3.5c1.6-1.6,1.7-2.7,0.1-4.5c-2.2-2.5-5.2-3.7-8.1-4.9c-0.6-0.2-1.8,0.1-2.3,0.6
				c-1.4,1.3-2.6,2.9-3.9,4.3c-1.8,1.9-0.9,3.8,0.5,5.3C296.2-20.1,299.1-20.1,301.5-19.4L301.5-19.4L301.5-19.4z M121.1-126.2
				c-0.5-3.1-1.7-5.3-3.5-7.1c-1-0.9-2.2-1.3-3.6-0.4c-1.6,1-3.2,1.8-4.9,2.7c-3.8,2.1-3.4,6.5-1.8,9c0.9,1.3,2.7,2.1,4.2,1.7
				c3-0.9,6-1.9,8.4-3.9C120.4-124.8,120.8-125.7,121.1-126.2L121.1-126.2L121.1-126.2z M273.7-50.1c-0.3-2.6-1-6.4-3.8-9.4
				c-0.7-0.8-1.3-0.9-2.1-0.6c-2.1,0.8-3.8,2.1-4.5,4.3c-0.4,1.4-1,2.9-1.3,4.3c-0.2,1.3-0.3,2.8-0.1,4.1c0.5,2.7,1.2,3,3.9,2.5
				c1.3-0.2,2.6-0.4,3.9-0.2C272.7-44.6,274-45.7,273.7-50.1L273.7-50.1L273.7-50.1z M262.9-173c0.1,0.4,0.3,1,0.5,1.5
				c1.2,2.7,3.7,3.7,6.2,4.5c0.7,0.2,1.7-0.2,2.4-0.6c1.1-0.6,2.2-1.4,3.1-2.3c1-1,2-2,2.9-3.1c0.8-1.1,0.7-1.9-0.4-2.8
				c-0.4-0.4-0.9-0.8-1.4-1c-2.4-0.9-4.2-2.7-6.2-4.2c-1.2-0.9-2.3-1-3.2,0.2c-1.4,2-2.5,4.3-3.7,6.5
				C262.9-174,262.9-173.6,262.9-173L262.9-173L262.9-173z M184.6-53.6c0-2.8-1.7-4.9-2.9-7.2c-0.1-0.3-0.8-0.4-0.8-0.6
				c-0.1-1.7-1.3-1.4-2.3-1.2c-1.1,0.3-2.2,0.8-3.2,1.3c-4.2,2.1-4.5,6.2-3.5,9.3c0.3,0.7,0.8,1.5,1.5,1.9c1.1,0.6,2.1,1,2.8,2.1
				c0.2,0.4,0.8,0.6,1.3,0.7C180-46.9,185.3-50.4,184.6-53.6L184.6-53.6L184.6-53.6z M147-35.6c-0.3-1.2-0.4-2.5-0.8-3.6
				c-0.8-2.6-1.7-5.1-2.5-7.7c-0.4-1.3-1.1-1-2-0.4c-1.3,0.9-2.6,1.9-4,2.7c-1.9,1-2.8,2.7-3,4.7c-0.3,2.2,0.1,4.3,1.2,6.3
				c0.4,0.7,1.2,1.2,1.9,1.5c1.3,0.4,2.8,0.6,4.2,0.9C145.1-30.9,146.9-32.5,147-35.6L147-35.6L147-35.6z M228-157.7
				c-4.2,0.2-7.5,1.4-9.5,5.2c-1.7,3.3-0.7,5.9,2.7,6.4c3.9,0.5,7.8-0.4,10.9-3.2c1-0.9,1.7-2.2,2.5-3.3c1-1.5,0.8-2.4-0.7-3.4
				C232-157.5,229.8-157.5,228-157.7L228-157.7L228-157.7z M183.5-102.4c0.2,0.2,0.2,0.3,0.3,0.4c0.8,0.6,1.7,1.1,2.5,1.7
				c0.4-0.8,0.9-1.6,1.3-2.4c0.1-0.3,0.1-0.7,0.1-1c0.1-2.1-1-3.8-2-5.5c-0.8-1.4-1.6-2.7-3.7-1.9c0.3-1.3-0.5-1.5-1.3-1.5
				c-0.5,0-1.1,0.2-1.6,0.3c-4.4,0.9-6.9,4.2-6.2,8.6c0.3,1.9,1.1,3.6,3.1,4.2C177.9-99,182.2-100.6,183.5-102.4L183.5-102.4
				L183.5-102.4z M126.8-124.8c0.2,1.1,0.3,1.9,0.5,2.7c0.8,2.5,3.3,4.4,5.5,3.7c2.2-0.7,4.3-1.8,6.3-3c1.4-0.8,2.2-2.3,1.9-4.1
				c-0.3-2.4-1.6-4.5-3.1-6.3c-0.7-0.9-1.8-0.9-2.9-0.5c-1.8,0.6-3.6,1.1-5.4,1.9c-0.8,0.3-1.6,1-1.9,1.8
				C127.2-127.4,127-126,126.8-124.8L126.8-124.8L126.8-124.8z M294.9,19c-0.5,0-0.8,0-1.1-0.1c-1.6-0.6-3.1-0.2-4.7,0.4
				c-1.9,0.7-3.2,0.1-4.2-1.7c-0.3-0.5-0.5-1-0.7-1.5c-1.2-2.9-0.8-4.8,1.6-6.9c0.9-0.8,2-1.2,3.2-0.9c3.1,0.7,6.3,1.4,9.4,2.2
				c2.9,0.8,3.6,3.7,1.4,5.8C298.5,17.7,296.9,18.9,294.9,19L294.9,19L294.9,19z M259.6,46.2c1-0.4,2.1-0.6,2.9-1.2
				c2.1-1.4,4.2-2.9,6.2-4.5c0.7-0.5,1.3-1.3,1.7-2.1c0.8-1.4,0.5-3.1-0.9-3.7c-2-0.8-4.1-1.6-6.2-1.5c-2.7,0.2-5.2,1.3-7.3,3.3
				c-2.7,2.5-2.9,3.2-1.3,6.6C255.7,45.1,257.3,46.1,259.6,46.2L259.6,46.2L259.6,46.2z M311.3-117.1c-0.9,0.3-2,0.5-2.7,1.1
				c-1.5,1.2-2.9,2.6-4.3,3.9c-0.8,0.8-1.3,1.9-1,3.1c0.4,1.4,0.8,2.8,1.5,4.1c0.9,1.8,4.3,2.7,5.7,1.8c2.2-1.5,4.3-3,6.5-4.6
				c1.2-0.9,1.7-2.1,1.4-3.6C317.6-115.3,316.3-116.5,311.3-117.1L311.3-117.1L311.3-117.1z M206.2-110c0.6-1.2,3.1-1.3,3.7-0.1
				c1.1,2.3,2.3,4.6,3.1,7c1,3.2-1.6,5.4-3.6,6.2c-1.2,0.4-2.2-0.2-3.1-0.9c-0.7-0.6-1.3-0.5-2.1-0.2c-2.4,1-3.5,0.4-4.4-1.9
				c-1.7-4.3-0.2-8.2,3.7-10.3C204.6-111,205.5-110.9,206.2-110L206.2-110L206.2-110z M306.7,81c-0.2-2,0.6-3.9,2.3-5.4
				c0.5-0.5,1.4-0.9,2.1-0.8c4,0.9,7.6,2.3,9.9,6c1.5,2.3,1.3,3.8-1.1,5.2c-1.7,1-3.5,2.3-5.4,2.6C310.2,89.2,306.8,85.8,306.7,81
				L306.7,81L306.7,81z M264,87.1c-3.7,0.2-4.1,0.5-5,4.1c-0.1,0.2-0.2,0.5-0.3,0.7c-0.4,1.3-0.9,2.5-1.2,3.8
				c-0.7,2.9,1.7,5.4,4.6,4.8c1.4-0.2,2.7-0.6,4.1-0.8c3.1-0.4,5-2.1,5.8-5.1c0.2-0.7,0.5-1.3,0.6-2c0.2-1.2,0-2.3-1.2-2.9
				c-1.8-0.9-3.7-1.7-5.5-2.5C265.4,87.2,264.7,87.2,264,87.1L264,87.1L264,87.1z M253.8-117.6c0-0.1-0.1-0.6-0.1-1.1
				c-0.5-2.5-1.2-5-2.6-7.2c-1.1-1.8-2-2.4-4.1-2c-1,0.2-1.9,0.4-2.9,0.8c-3,1-4.6,4-4,7c0.4,2.2,2.2,3.3,3.4,4.9
				c0.6,0.8,1.2,1.5,2.4,1.4c0.7-0.1,1.5,0,2.2,0.1c0.4,0.1,0.8,0.4,1.3,0.6C251.9-112.6,253.9-114.4,253.8-117.6L253.8-117.6
				L253.8-117.6z M386.1-118.6c-0.1,0-0.2,0-0.3-0.1c-0.1-2.4-0.9-3.4-3.2-3.8c-2.1-0.4-4.1,0-6,0.9c-2.8,1.3-4.7,4.5-3.5,7.3
				c1.2,2.9,3.2,5.3,6.1,6.7c2.4,1.1,4.9-0.1,5.4-2.7C385.1-113.1,385.5-115.9,386.1-118.6L386.1-118.6L386.1-118.6z M371.4-36.6
				C371.4-36.5,371.4-36.5,371.4-36.6c0.4,0,0.8,0,1.2,0c2.8-0.2,3.7-1,4.5-3.8c0.5-1.7,1-3.4,1.4-5.1c0.6-2.4-0.1-3.9-2.5-4.8
				c-1.7-0.7-3.5-0.9-5.2-0.2c-0.9,0.3-1.9,0.9-2.4,1.7c-1.4,2.1-2.6,4.3-3.7,6.6c-1.5,3.3,0.5,6.1,4.2,5.9
				C369.8-36.4,370.6-36.5,371.4-36.6L371.4-36.6L371.4-36.6z M323.5-181.9c-1-0.1-2-0.2-3-0.4c-4.1-0.9-5.9-5.1-3.9-8.8
				c0.4-0.8,0.7-1.6,0.9-2.4c0.7-2.6,2.4-3.4,4.7-2c2.1,1.2,4.2,2.4,6.2,3.8c4.3,2.9,4.2,5.7-0.3,8.3c-1.4,0.8-3,1.2-4.5,1.8
				C323.6-181.7,323.5-181.8,323.5-181.9L323.5-181.9L323.5-181.9z M366.2-63c1.4-0.3,2.4-0.5,3.4-0.8c2.4-0.7,3.8-3.1,3.4-5.7
				c-0.3-2.2-2.3-3.7-4.8-3.7c-4.7,0.1-8,2.4-10.2,6.4c-2.4,4.2-1.5,6.6,3,8.4c0.2,0.1,0.3,0.1,0.5,0.2c2.1,0.6,3.2-0.1,3.8-2.1
				C365.6-61.4,366-62.4,366.2-63L366.2-63L366.2-63z M148.6-110.6c-0.1,0.6-0.1,1.4-0.3,2.1c-0.4,1.9-0.8,3.8-1.3,5.6
				c-0.5,1.9-1.5,2.6-3.4,2.1c-0.8-0.2-1.5-0.6-2.3-0.8c-1.1-0.3-2-1.2-3.4-1.1c-0.8,0.1-2-0.7-2.4-1.4c-0.9-1.8-1.5-3.7-2-5.6
				c-0.4-1.5,0.4-2,1.8-2.4c2.5-0.6,5-1.3,7.4-2.3c3.8-1.7,5.5-0.9,5.9,3.3C148.6-110.9,148.6-110.8,148.6-110.6L148.6-110.6
				L148.6-110.6z M360.4-6c-0.9,0.2-1.9,0.3-2.9,0.6c-2.4,0.6-3.8,1.9-3.7,4.3c0.1,2.5,0.4,5.1,2.2,7c2.4,2.6,4,3.2,6.7,1.8
				c3.2-1.7,5.2-4.4,5.9-8c0.2-0.8-0.1-2.1-0.7-2.6C365.8-4.6,363.4-5.8,360.4-6L360.4-6L360.4-6z M222.6-104.4
				c0.8,0.6,1.3,1.1,1.9,1.5c0.6,0.4,1.3,0.6,1.8,1.1c1.7,1.7,3.6,1.6,5.6,0.8c1.9-0.8,2.3-2.4,2.4-4.2c0-0.8,0-1.6-0.2-2.3
				c-0.5-1.5-1.2-2.9-1.7-4.4c-1-2.9-4-4.3-6.8-3c-1,0.4-2,0.9-2.9,1.4c-2.7,1.4-3.8,5.2-2.5,7.9
				C220.7-104.5,221.7-104.1,222.6-104.4L222.6-104.4L222.6-104.4z M248.5-93.5c-0.5-3-0.7-6.3-2.7-9c-0.4-0.5-1.1-0.9-1.7-1
				c-1.4-0.2-2.8,0.2-3.8,1.3c-1.4,1.7-2.9,3.4-4.1,5.3c-1.6,2.4-1.5,5.1-0.3,7.7c0.9,1.9,1.4,2.1,3.3,1.4c1.4-0.5,2.8-0.9,4.2-0.2
				c1,0.5,2,0.2,2.9-0.4C248.3-89.5,248.4-91.4,248.5-93.5L248.5-93.5L248.5-93.5z M243.5,24.6c0.4,4.4,2.3,7.5,6.3,7.7
				c3.9,0.2,7-1.6,9.5-4.4c0.5-0.6,0.7-2.1,0.3-2.9c-0.7-1.4-1.8-2.7-3-3.8c-1.9-1.9-4.5-1.7-7-2C246.9,19,243.6,21.8,243.5,24.6
				L243.5,24.6L243.5,24.6z M281.4-81.4c0-0.1-0.1-0.2-0.1-0.4c-1.6,0.5-3.4,0.7-4.6,1.7c-1.3,1-2.2,2.6-3.1,4.1
				c-0.6,1-0.5,2.1,0.5,2.9c1,0.7,2,1.3,3,1.9c0.9,0.5,1.9,0.8,2.7,1.3c2.2,1.4,4.8,1.3,6.7-0.5c1.6-1.5,3.1-3.1,4.6-4.6
				c1.2-1.2,1.1-2.4-0.3-3.4C288-80.3,285-81.7,281.4-81.4L281.4-81.4L281.4-81.4z M275.4,79.7c4,0,9.5-3.7,10.7-8.3
				c0.5-1.9,0.2-2.9-1.5-4c-1.4-0.8-2.8-1.2-4.4-1.2c-3,0-5.4,1.7-8,2.6c-0.4,0.2-0.8,0.8-1,1.3c-0.4,1-0.7,2-1,3.1
				C268.9,77,272.2,80,275.4,79.7L275.4,79.7L275.4,79.7z M174.3-160.7c-0.4-3.6-2.2-6.4-5-8.7c-0.2-0.2-0.8-0.2-1.1,0
				c-1.3,0.5-2.5,1.1-3.8,1.7c-3,1.3-4.2,3.9-4.9,6.8c-0.5,2.2,0.2,4.2,1.8,5.8c1.1,1.2,2.6,1.7,4,1.1c2.3-0.9,4.6-1.9,6.8-3.1
				C173.7-157.7,174.5-159,174.3-160.7L174.3-160.7L174.3-160.7z M268.9-88.3c-0.3-1.1-0.6-2.6-1.1-3.9c-0.9-2-1.7-2.4-3.8-1.9
				c-2.7,0.7-5.3,1.4-7.9,2.2c-1.9,0.6-3.5,3.2-3.2,5.2c0.1,1.2,0.9,2.6,3.7,2.7c0.3,0,0.6,0.4,0.8,0.6c1.9,2.4,4.4,3.3,7.3,3.2
				c2.2-0.1,3.4-1.1,3.8-3.3C268.6-84.9,268.7-86.4,268.9-88.3L268.9-88.3L268.9-88.3z M207.4,2.1c0.7-0.2,1.5-0.3,2.1-0.7
				c2.2-1.7,4.4-3.5,5.7-6.1c1.2-2.3,0.8-4.5-1.4-5.7c-1.8-1.1-3.9-1.8-5.9-2.6c-1.5-0.6-3-0.1-4.3,0.8c-0.9,0.6-1.7,1.3-2.5,2.1
				c-1.1,1.1-1.1,1.8-0.4,3.2c0.6,1.3,1.2,2.7,1.4,4.1C202.7,0,204.6,1.9,207.4,2.1L207.4,2.1L207.4,2.1z M358.1-56.6
				c1,0.3,2.5,0.6,3.9,1.2c1.5,0.6,2,1.8,2,3.4c-0.1,3.5-3.3,7.1-6.7,7c-0.7,0-1.5,0.3-2.2,0.5c-3.9,1.4-7-0.8-8.3-4.4
				c-0.1-0.4-0.2-1,0-1.4c0.6-1.4,1.3-2.8,2.2-4.1c0.3-0.5,1.1-0.9,1.7-1.1C352.9-55.8,355.2-56.1,358.1-56.6L358.1-56.6L358.1-56.6
				z M314.5-4.3c1.5,1.1,4,1,5.2-0.5c2-2.7,3.3-5.8,2.9-9.3c-0.2-1.6-0.7-2.2-2.4-2.6c-0.8-0.2-1.8-0.3-2.4-0.7
				c-3.8-2.6-6.1-1.5-9.4,0.9c-0.6,0.4-1,1.5-1,2.2c0,1.2,0.5,2.5,0.7,3.7c0.2,1.7,1.1,2.7,2.6,3.2c1,0.4,1.9,0.9,3,1.4
				c0,0,0.2-0.2,0.4-0.4c0.2,0.4,0.5,0.8,0.7,1.3C314.8-4.9,314.6-4.6,314.5-4.3L314.5-4.3L314.5-4.3z M286.7-47.2
				c1.6-0.2,3.5-0.3,4.8-2c0.8-1,1.6-2.1,2.3-3.3c0.9-1.5,0.7-3.3-0.8-4.3c-2.8-1.9-5.8-3.6-8.7-5.3c-1-0.5-2-0.3-2.7,0.5
				c-0.9,1-1.8,2-2.7,3c-0.9,1.1-1,2.3-0.5,3.5c0.6,1.4,1.2,2.8,1.9,4.1C281.5-48.4,283.6-47.2,286.7-47.2L286.7-47.2L286.7-47.2z
				 M213-23.3c2.6-0.4,5.8-0.9,8.5-3c2.4-2,2.7-4.5,0.4-6.7c-0.2-0.2-0.2-0.4-0.3-0.6c-0.3-0.4-0.5-1-0.8-1.1
				c-1.9-0.6-3.8-1-5.7-1.5c-0.3-0.1-0.6,0-0.9,0c-1.4,0.3-2.8,0.6-4.1,1.1c-3,1.1-4.3,4.6-2.8,7.4c0.4,0.8,1,1.4,1.4,2.2
				C209.6-23.3,209.9-23.1,213-23.3L213-23.3L213-23.3z M148.6-54.7c0.1,2.6,0.8,3.4,3.4,3.9c0.5,0.1,1,0.2,1.5,0.4
				c2.6,1.7,5.4,1.4,8.1,0.4c1.3-0.5,2.4-1.4,2.5-3c0.2-3.5-0.9-6.5-3.5-9c-0.6-0.6-1.4-1.2-2.2-1.4c-0.9-0.2-1.9-0.1-2.8,0.2
				c-1.1,0.4-2.1,1.1-3.1,1.6C149.7-60.1,148.5-57.7,148.6-54.7C148.6-54.7,148.6-54.7,148.6-54.7z M191.2,14.9
				c0.9-0.5,1.9-0.8,2.5-1.6c1.5-1.9,3-3.9,4.3-6c0.9-1.5,0.6-2.6-0.9-3.6c-2.5-1.6-5.1-3.1-7.7-4.5c-1.5-0.8-2.9,0-3.8,1.2
				c-1.2,1.5-2.1,3.1-3,4.8c-0.3,0.5-0.2,1.5,0.1,2.1c1.1,1.8,2.3,3.5,3.5,5.2C187.4,14.1,189.1,14.5,191.2,14.9L191.2,14.9
				L191.2,14.9z M165.5,29.6c-1.9,3.2-1.7,4-0.1,6.4c1.1,1.6,3.3,1.9,4.9,0.9c2.8-1.8,5.5-3.7,8.3-5.6c1.4-0.9,1.8-2.1,1.1-3.6
				c-0.7-1.4-1.4-2.9-2.4-4.1c-2.4-2.9-6.4-2.9-8.9-0.1c-0.9,1-1.8,2.1-2.6,3.2C165.1,27.6,164.6,28.6,165.5,29.6
				C165.5,29.6,165.5,29.6,165.5,29.6z M249.3-46.1c1.7-1.2,3.2-2.8,2.7-5.3c-0.2-1.3-0.4-2.6-0.9-3.8c-1.7-4.8-1-5-6.8-4.9
				c-2.3,0-3.7,1.2-4.4,3.3c-1.5,4.1-0.7,8,1,11.8c0.6,1.3,1.9,1.8,3.4,1.4c0.9-0.3,1.8-0.8,2.8-1.1c0.9-0.3,1.7-0.7,1.6-2.1
				C248.8-46.6,249-46.4,249.3-46.1L249.3-46.1L249.3-46.1z M166.6-30.3c0-0.1,0-0.2,0.1-0.2c1.1-0.1,2.2-0.2,3.2-0.3
				c2.5-0.3,3.2-1.1,3.2-3.6c0-2.8-0.9-5.4-2.1-7.9c-0.8-1.6-1.9-2.3-3.6-2.1c-1.8,0.2-3.6,0.3-5.4,0.7c-0.7,0.2-1.5,0.7-2,1.3
				c-1.8,2.7-1.7,7.6,0.3,10.2c0.4,0.5,0.9,1,1.5,1.1C163.4-30.8,165-30.6,166.6-30.3L166.6-30.3L166.6-30.3z M287.2,87
				c-0.4,0-0.9,0.1-1.3,0.1c-2.2,0.2-3,1.2-2.3,3.3c1,2.8,2,5.5,3.3,8.1c1.4,2.9,4.8,4.1,7.7,2.6c1.8-0.9,3.4-2.1,4.9-3.4
				c1.2-1,1.4-2.5,0.5-3.9c-0.5-0.8-1.1-1.6-1.9-2.1c-1.6-1.1-3.3-2.2-5-3.2C291.3,87.6,289.3,86.9,287.2,87L287.2,87L287.2,87z
				 M326.8-127.6c0.6-0.3,1.6-1,2.7-1.2c2.7-0.5,4.5-2.3,6.4-4c1.1-1.1,1.2-2.2,0.3-3.4c-1-1.3-1.9-2.6-3.2-3.6
				c-2-1.5-4.2-2.6-6.7-1c-0.2,0.1-0.5,0.1-0.7,0.2c-0.9,0.2-2,0.2-2.6,0.8c-1.2,1.1-2.3,2.5-3.3,3.8c-0.3,0.4-0.4,1-0.4,1.5
				C319.4-131.1,322.9-127.6,326.8-127.6L326.8-127.6L326.8-127.6z M260,75.3C260,75.3,260,75.3,260,75.3c0-0.8,0.1-1.7-0.1-2.5
				c-0.3-0.9-0.7-2.1-1.4-2.4c-1.9-1.1-4.1-1.3-6.3-1.1c-0.9,0.1-1.8,0.2-2.7,0c-2-0.5-3.1-0.2-3.6,1.7c-0.6,2.2-1,4.6-1.1,6.9
				c-0.1,1.8,1.1,3.3,2.8,3.6c1.4,0.2,2.9,0.1,4.4,0.1c0.6,0,1.3-0.2,1.9-0.1c3.4,0.9,6.2-1.3,6.2-4.7C260.1,76.4,260,75.9,260,75.3
				L260,75.3L260,75.3z M344.4-59.7c-1.5-0.4-2.9-0.5-4.2-1.1c-2.5-1-3.7-3.9-2.9-6.4c0.5-1.5,1-3,1.5-4.4c1.2-2.9,2.3-3.6,6-2.6
				c1.7,0.4,3.3,1.4,4.9,1.9c2.1,0.7,3.4,4.9,2.1,6.7c-1,1.5-2,3.2-3.4,4.4C347.4-60.3,345.7-60.2,344.4-59.7L344.4-59.7L344.4-59.7
				z M134.6-137.4c2.1,0,2.7-0.5,3-2.6c0.2-1,0.1-2.2,0.5-3.1c0.9-2.4-0.5-7-2.7-8.3c-0.5-0.3-1.3-0.2-1.7-0.5c-1-1-1.9-0.7-2.9-0.3
				c-1.5,0.5-3,1.2-4.6,1.7c-2.4,0.8-3.2,2.6-3.3,4.9c-0.1,2,0.8,3.2,2.7,3.7c0.4,0.1,0.7,0.3,1,0.6
				C128.9-139,131.3-137.3,134.6-137.4L134.6-137.4L134.6-137.4z M317.5-69c2.3,0.1,3.9,0.8,5.2,2c1.2,1.1,2.2,2.4,3.2,3.7
				c1.1,1.5,1.3,3.1,0.5,4.7c-0.6,1.2-1.4,2.4-2.2,3.5c-0.8,1.2-2,1.6-3.4,1.1c-3.1-1.2-6.2-2.2-8.8-4.3c-1-0.8-1.7-3.1-1.1-4.2
				c1.2-2.2,2.6-4.3,4.8-5.7C316.3-68.6,317.1-68.8,317.5-69L317.5-69L317.5-69z M250.5,0.9c3.6,0.6,7.1,1.2,10.1,3.2
				c0.8,0.5,1.6,1.3,2.1,2.1c1.2,1.9,0.8,3.1-1,4.4c-1.5,1-2.9,1.8-4.8,1.8c-0.5,0-1,0.3-1.4,0.6c-1.3,0.8-2.6,0.8-4.1,0.4
				c-1.1-0.4-2.3-0.4-3.5-0.7c-2.8-0.7-4.2-3.8-2.9-6.4c0.8-1.6,1.5-3.1,3-4.1C248.8,1.5,249.7,1.2,250.5,0.9L250.5,0.9L250.5,0.9z
				 M261.8,50.2c3.5-0.3,5.9,0.7,8.4,1.9c1.1,0.5,1.2,1.6,0.9,2.6c-1.6,5.2-5.1,8.6-11.3,7.7c-0.2,0-0.4-0.1-0.6,0
				c-2.5,0.5-4.1-1-5.6-2.5c-1.7-1.7-1.5-3.8,0.5-5.6C256.5,52.2,258.9,50,261.8,50.2L261.8,50.2z M212.7-87.1
				c0.1-3.3,0.8-6.5,2.5-9.4c1.4-2.5,4.1-2.3,6.1-1.1c0.8,0.5,1.4,1.7,1.8,2.7c0.8,2,1.7,4,2,6.1c0.5,3.7-1.5,8.1-6.5,8.6
				c-2.8,0.3-5.2-1.7-5.7-5.2C212.8-85.9,212.8-86.5,212.7-87.1L212.7-87.1L212.7-87.1z M297.5,56c0.2,1.9,1.2,3.8,2.7,4.6
				c1.6,0.9,3.3,1.2,5,0.1c0.9-0.6,2-1,3-1.4c3.3-1.1,4.9-3.4,5.3-6.7c0.1-0.8-0.1-1.8-0.6-2.4c-1-1.4-2.4-2.5-4.1-2.6
				c-2.8-0.2-5.5-0.3-8.3-0.2c-0.6,0-1.4,0.8-1.6,1.4C298.4,51.2,298,53.6,297.5,56L297.5,56L297.5,56z M216.5,41
				c0.4-0.3,1.2-0.7,1.7-1.4c1.1-1.5,2-3,2.9-4.6c0.5-0.8,1-1.7,1.3-2.5c0.9-2.5,0.4-3.8-1.9-5c-0.8-0.4-1.7-0.8-2.6-1.1
				c-1.7-0.5-3.3-0.9-5-1.4c-1.8-0.5-3-0.2-3.7,1.6c-0.8,1.9-1.3,3.8-1.9,5.8c-0.1,0.5-0.1,1.2,0.2,1.6c0.8,1.2,1.6,2.4,2.5,3.5
				c0.5,0.7,1.3,1.1,1.9,1.7C213,40.5,214.4,40.8,216.5,41L216.5,41L216.5,41z M332.5-74.3c-1.1,0.4-2.3,0.8-3.4,1.3
				c-2.1,0.9-3.7,0.7-4.9-1.3c-1-1.6-1.7-3.4-2.1-5.2c-0.2-1.1,0.4-2.4,0.9-3.5c0.4-0.8,1.1-1.5,1.8-2.2c3.1-3.4,7.9-2.8,10.1,1.3
				c0.5,1,1.4,1.8,2.1,2.7c0.5,0.7,1.2,1.4,1.5,2.2c0.6,1.5,0.2,2.3-1,3.3C336-74.6,334.3-74.1,332.5-74.3L332.5-74.3L332.5-74.3z
				 M176.4-134.5c-0.3-3.1-1.2-6.5-3.2-9.2c-0.3-0.5-1.2-0.6-1.9-0.7c-0.6,0-1.2,0.3-1.7,0.4c-0.5,0.1-1.3,0.2-1.5,0
				c-0.9-1.1-1.5-0.5-2.2,0.2c-0.6,0.6-1.2,1.2-1.8,1.9c-2.3,2.4-2.5,5.6-0.6,8.3c0.9,1.3,1.9,2.7,3.1,3.6c1.2,0.9,2.9,1.9,4.3,1.9
				C174.3-128.1,176.5-130.4,176.4-134.5L176.4-134.5L176.4-134.5z M233.6,13.3c1.3,0.1,2.7,0.1,4,0.3c2.8,0.4,4.6,2.7,4.2,5.5
				c0,0.3,0,0.6,0.1,0.9c0.4,1.6,0.3,3-1.1,4.2c-1,0.8-1.7,1.8-2.5,2.8c-0.7,0.9-1.6,1.3-2.8,1c-2-0.7-4.1-1.3-6.1-2.2
				c-1.8-0.8-2.7-2.5-3.2-4.3c-0.2-0.7,0-1.7,0.4-2.3c0.6-1.2,1.5-2.3,2.3-3.4C230,14,231.5,13.1,233.6,13.3L233.6,13.3L233.6,13.3z
				 M336.4-103.1c0.7,0.6,0,1-0.3,1.5c-0.6,0.9-1.6,1.7-1.7,2.6c-0.3,1.8,0.4,3.6,1.9,4.6c2.8,1.7,5.7,3.8,9.2,1.6
				c0.2-0.1,0.5-0.1,0.8-0.1c3.7-0.9,5.3-3.7,4.2-7.4c-0.7-2.2-5-5.9-7.7-6.7c-2-0.6-3-0.3-4.3,1.4c0.7,0.5,0.7,0.6-0.9,1.9
				c0.1-0.4,0.2-0.7,0.3-1c-0.1-0.1-0.2-0.1-0.2-0.2C337.2-104.2,336.8-103.7,336.4-103.1L336.4-103.1L336.4-103.1z M341.5,28.9
				c2.7,0.2,5.4,0.2,8,0.6c2.5,0.4,4.4,2.1,3.1,5.2c-1,2.4-2.2,4.7-4.9,5.7c-0.5,0.2-1,0.6-1.4,0.9c-3.1,2.5-5.9,2.1-8.2-1.1
				c-0.4-0.6-0.8-1.2-1.2-1.8c-1.7-2.7-1.3-6.3,1-8.4c0.8-0.8,2.2-0.9,3.4-1.3C341.5,28.7,341.5,28.8,341.5,28.9L341.5,28.9
				L341.5,28.9z M342.7,22.4c3,0.1,4.6-1,5.5-3.9c0.3-0.9,0.6-1.8,0.8-2.7c0.3-1.5,0.3-3.1-1-4.2c-2.9-2.5-6.1-4.2-10-2.5
				c-0.9,0.4-1.7,1.1-2.3,1.8c-0.7,0.9-1.2,2-1.8,3c-1.1,1.7-1.6,3.4-0.3,5.2c1.4,2,2.9,4,5.8,3.6C340.5,22.6,341.6,22.5,342.7,22.4
				L342.7,22.4L342.7,22.4z M346.4-182.8c-2.6,0-4.3,1.7-5.9,3.3c-0.9,0.9-1.9,1.8-3.1,2.4c-3.2,1.7-4.2,4.5-2.3,7.4
				c1.5,2.3,5.5,4,8.1,0.8c0.2-0.2,0.5-0.3,0.7-0.4c1.2-0.2,2.4-0.3,3.5-0.6c1.3-0.3,2.1-1.3,2.4-2.7c0.4-2,0.9-4,1.2-6
				c0.4-2.4-0.3-3.6-2.7-4.1C347.7-182.7,347.1-182.7,346.4-182.8L346.4-182.8L346.4-182.8z M367-160.7c0,0.1,0,0.1,0,0.2
				c-0.5,0-1,0-1.6,0.1c-2.1,0.3-2.7,0.8-3.1,3c-0.1,0.9-0.4,1.9-0.4,2.8c0,0.8,0.2,1.7,0.5,2.4c1.6,3.5,4.9,4.6,8.1,5.6
				c2.1,0.6,5.2-0.8,6-2.5c1.1-2.3,1.6-4.7,1.4-7.3c-0.2-1.9-0.8-2.8-2.7-3.1C372.5-160.1,369.7-160.4,367-160.7L367-160.7
				L367-160.7z M236.4,85.9c0,0.1,0,0.2,0,0.3c-2.4-0.2-4.1,0.8-5.1,3c-0.4,0.8-0.8,1.6-1.2,2.4c-1,2.1-0.4,4.2,1.2,5.9
				c1.7,1.7,3.8,2.4,5.9,3.1c2.7,0.9,4.5-0.1,5.9-2.6c1.3-2.3,2-4.8,2.4-7.3c0.4-2.3-0.2-3.4-2.5-3.9
				C240.8,86.3,238.6,86.2,236.4,85.9L236.4,85.9L236.4,85.9z M346.9-4.7c0,0-0.1,0-0.1,0c0-0.5,0-1,0-1.4c-0.2-2.4-1.3-3.6-3.7-3.6
				c-1.8,0-3.6,0.3-5.4,0.5c-1.4,0.1-2.8,0.4-4.2,0.4c-1,0-1.8,0.2-2.3,1.2c-1.1,2.5-1.8,5.1-1.6,7.9c0.1,1.8,1.1,2.9,2.8,3
				c1.2,0.1,2.4-0.5,3.5-0.8c0.3-0.1,0.6-0.4,0.9-0.4c1.9-0.1,3.8-0.2,5.7-0.4c2.3-0.2,3.9-1.7,4.3-4C346.8-3,346.8-3.9,346.9-4.7
				L346.9-4.7L346.9-4.7z M376.3-97.2c-2.9-0.5-4.5,0.9-5.5,3.5c-0.7,2-1.4,3.9-2.2,5.8c-0.8,2-0.3,3.7,1.3,5c1.7,1.5,3.6,2,5.8,1.1
				c0.9-0.4,1.8-0.7,2.8-0.9c3.4-0.7,4.5-1.6,4.8-5.1c0.1-1.4-0.2-2.9-0.7-4.1c-0.5-1.2-0.6-2.5-1.6-3.5
				C379.6-96.5,378.4-97.9,376.3-97.2L376.3-97.2L376.3-97.2z M320.6,4.4c0-0.1-0.1-0.2-0.1-0.3c-2.3,0.7-4.6,1.3-6.8,2
				c-0.7,0.2-1.5,0.9-1.8,1.6c-0.9,1.8-1.7,3.6-2.2,5.5c-0.2,0.8,0,1.8,0.4,2.6c1.5,2.9,4.8,3.6,7.5,1.8c0.4-0.3,0.9-0.5,1.3-0.6
				c4.2-0.6,7.2-2.8,8.5-7c0.4-1.1,0.6-2.2-0.4-3C325.2,5.5,323.3,4,320.6,4.4L320.6,4.4L320.6,4.4z M245.5-73c0-0.2,0,0,0,0.1
				c0,4-2,5.5-5.8,4.4c-1.4-0.4-2.6-0.2-3.8,0.3c-1.8,0.8-3.2,0.3-4.5-1.1c-2.1-2.2-3.2-4.6-2.3-7.6c0.8-2.7,3-4.4,5.7-4.3
				c2.3,0.1,4.5,0.4,6.8,0.5c1,0.1,1.7,0.6,2.2,1.5C244.7-77.4,245.5-75.5,245.5-73L245.5-73L245.5-73z M210.9-168.4
				c-1,0.3-2.1,0.5-3.1,0.8c-1.4,0.5-2.8,1.2-4.3,1.7c-2,0.6-4.4,4.3-3.6,6.1c0.6,1.4,1.8,2.7,3,3.6c1.3,1,2.9,1.5,4.5,0.4
				c0.1-0.1,0.4,0.1,0.6,0.2c1.6,0.9,4.7,1,5.7-0.1c1.6-1.7,3-3.6,4.3-5.5c0.4-0.5,0.4-1.5,0.2-2.1
				C217-166.9,214.9-168.3,210.9-168.4L210.9-168.4L210.9-168.4z M254.2-179.3c-0.3-0.1-0.7-0.1-1.1-0.2c-2.1-0.5-4.1-1.1-6.2-1.1
				c-0.9,0-2.1-0.8-2.6-1.6c-2.1-3.3-2.4-4-0.2-7.3c0.7-1,1.5-2,2.3-2.9c1.1-1.2,2.4-1.4,3.7-0.5c2.2,1.6,4.8,2.6,7.3,3.6
				c1.6,0.6,3,1.8,4.5,2.8c0.8,0.6,1.1,1.6,0.3,2.5c-2,2.1-4.4,3.6-7.2,4.5C254.8-179.4,254.5-179.4,254.2-179.3L254.2-179.3
				L254.2-179.3z M269.2-67.2c0.2,5.4-5.1,7.2-8.2,6c-2-0.8-3.8-2.3-6-3c-0.3-0.1-0.6-0.4-1-0.4c-1.6-0.4-2.9-2.4-2.6-4.2
				c0.3-2.1,1.3-3.8,3.5-4.4c2.1-0.6,4.3-1,6.4-1.5c1.4-0.3,2.8-0.7,4,0.7c0.6,0.7,1.8,0.8,2.3,1.5c0.7,1.1,1,2.5,1.4,3.8
				C269.2-68.2,269.2-67.5,269.2-67.2L269.2-67.2L269.2-67.2z M363.9-191.1c-0.6,0-1.2,0-1.8,0.1c-2.4,0.4-3.6,1.6-3.6,3.8
				c0,0.7,0,1.4-0.2,2c-0.8,2.5-0.4,4.8,0.5,7.2c1.3,3.5,5.8,4.7,8.7,2.3c1-0.8,2.1-1.5,3.2-2.2c1.1-0.7,1.9-1.4,2.2-2.7
				c0.6-2.4-0.7-3.8-2.5-5.1c-0.4-0.3-0.8-0.8-0.9-1.2C368.8-190.3,367.2-191.5,363.9-191.1L363.9-191.1L363.9-191.1z M202.4-54.1
				c-0.2-1.6-0.8-1.9-2.3-1.3c-1.3,0.5-2.5,1.3-3.8,1.8c-2.7,1-3.9,3.1-4.3,5.7c-0.4,3.2,1.3,5.7,3,8.1c0.8,1.1,1.9,1.3,3.2,1
				c1.2-0.3,2.4-0.4,3.6-0.5c2.2-0.2,3.7-1.6,5.1-3.1c0.3-0.3,0.3-0.9,0.3-1.3c0.3-3.4-0.7-6.5-2.7-9.3
				C204.1-53.8,203.5-54.5,202.4-54.1L202.4-54.1L202.4-54.1z M332.1,80c-2.2-0.1-3.6-1-4.1-3.1c-0.6-2.2-1.2-4.5-1.7-6.8
				c-0.3-1.3-0.1-2.5,0.8-3.6c1-1.2,2-2.3,3.1-3.3c1-0.9,2.3-0.9,3.5-0.3c0.4,0.2,0.9,0.2,1.4,0.3c2.5,0.7,4.6,1.9,6.3,3.9
				c1.5,1.8,1.5,3.6-0.2,5.3c-2.2,2.3-4.2,5-7.1,6.6C333.4,79.5,332.7,79.7,332.1,80L332.1,80L332.1,80z M185.1-87.5
				c0.2,0.9,0.3,1.9,0.8,2.6c1.8,2.6,4.4,4.1,7.5,4.7c0.4,0.1,0.8,0.5,1.3,0.7c2,0.5,4.2-0.7,4.9-2.6c0.3-1,0.4-2.1,1-2.9
				c1.8-2.8,0.7-5.2-0.6-7.7c-0.3-0.5-1.2-0.8-1.9-1.1c-0.4-0.2-1.1-0.2-1.4-0.5c-1.2-1.4-2.7-1.6-4.3-1.1c-0.9,0.3-1.7,0.6-2.5,1
				C187-93.4,185.1-90.4,185.1-87.5L185.1-87.5L185.1-87.5z M248.2-139.3c-2,0.3-3.7-0.3-5.2-1.5c-0.8-0.7-1.7-1.3-2.5-2
				c-1.4-1.1-2.1-2.6-1.5-4.4c0.8-2.1,1.6-4.3,2.6-6.3c0.7-1.4,2.1-1.2,3.3-1c1.2,0.2,2.5,0.5,3.7,0.6c2.6,0.4,4.4,2.1,6.2,3.7
				c0.4,0.4,0.7,1.2,0.6,1.8c-0.5,2.2-1.1,4.4-2,6.4C252.5-139.9,250.5-139,248.2-139.3L248.2-139.3L248.2-139.3z M282.4-132.9
				c1-0.1,2.1-0.3,3.1-0.3c2.5-0.1,4.7-1.9,5.3-4.3c0.4-1.6,0-2.9-1.2-3.9c-0.3-0.3-0.3-0.8-0.5-1.2c-0.3-0.9-0.4-2.2-1.1-2.7
				c-1.8-1.3-3.8-2.4-5.8-3.4c-1-0.5-2.2-0.5-3.1,0.3c-1.6,1.4-3,3.2-3.1,5.2c-0.1,1.5-0.9,2.6-1.5,3.7c-0.5,0.9-0.6,1.6-0.1,2.3
				C276.4-134.7,278.7-132.6,282.4-132.9L282.4-132.9L282.4-132.9z M315.4-25.2c0.1-2.4,0.3-4.8,0.4-7.3c0.1-1.5,0.8-2.5,2.2-3.1
				c2.1-0.9,4.1-1.8,6.5-1.6c1.4,0.1,2.6,0.6,3,2c0.3,1,1,1.5,1.9,1.9c2.5,1.1,2.9,3.3,1.2,5.4c-1.5,1.9-2.9,3.9-5.4,4.5
				c-0.2,0-0.3,0.4-0.4,0.6c-1.1,1.6-2.7,2.4-4.6,2c-1.2-0.2-2.3-0.5-3.4-1.1c-0.5-0.3-0.9-1-1.1-1.6
				C315.4-23.8,315.5-24.5,315.4-25.2C315.5-25.1,315.5-25.1,315.4-25.2L315.4-25.2L315.4-25.2z M345.7-202
				c-2.9,0.5-5.4,0.8-7.9,1.2c-0.9,0.2-2,0.5-1.9,1.8c0.1,1.8,0.3,3.6,0.6,5.4c0.3,1.9,1.9,4.1,3.6,4.3c2.3,0.2,4.6,0.2,6.8,0
				c2-0.1,3.2-1.8,4.7-2.8c2-1.2,2.8-3,3-5.1c0.3-2.1-0.2-3.3-2.3-3.8C350.1-201.5,347.7-201.7,345.7-202L345.7-202L345.7-202z
				 M309.6-127c0.8-0.5,1.8-0.9,2.6-1.6c0.7-0.5,1.2-1.3,1.7-2c1.3-1.8,1.4-3.2,0-5c-1.3-1.7-2.7-3.2-4.1-4.8
				c-1-1.3-2.3-2.1-3.8-2.5c-2.7-0.8-3.7-0.5-4.9,2c-1.1,2.2-1.6,4.6-1.9,7.1c-0.3,3,0.8,5,2.6,6.9c1.2,1.3,2.5,1.4,3.9,0.6
				C306.9-126.9,307.9-127.9,309.6-127L309.6-127L309.6-127z M191.6,34.3c-3.5,0.1-5.5,1.7-6.3,4.6c0,0.2,0.1,0.3,0.1,0.5
				c0,0.4,0.1,1.1-0.2,1.3c-0.8,0.5-0.5,1-0.4,1.6c1,3.7,3.9,5.8,6.8,7.8c0.5,0.3,1.2,0.4,1.7,0.4c2.9,0.1,7.1-2.5,8.3-5.2
				c0.9-2,0.4-3.8-1.3-5.4c-0.9-0.8-1.8-1.5-2.4-2.5C196.2,35,194,34,191.6,34.3L191.6,34.3L191.6,34.3z M228-125.9
				c0.6,1.5,2.4,2.8,3.7,2.4c2.6-0.9,5.5-2.8,5.2-6.4c-0.3-3.8-1.6-7.3-3.6-10.5c-0.6-1-1.5-1.2-2.6-0.8c-1.5,0.6-3,1.2-4.6,1.8
				c-1.9,0.7-3.3,2-4.5,3.6c-1.3,1.9-1.4,4.1-0.1,6.1c0.6,1,1.3,1.7,2.6,1.3C224.8-126.8,226.4-125.5,228-125.9L228-125.9L228-125.9
				z M310.8-45.2c0.7,0.5,1.4,1,2,1.7c1.5,1.5,1.3,3.4-0.6,4.3c-1.9,0.8-3.9,1.6-5.9,1.8c-1.8,0.2-3.5,0.6-5.2,1
				c-3.1,0.7-6-1.9-5.6-5c0.1-0.8,0.3-1.6,0.6-2.3c0.4-0.8,1-1.5,1.6-2.2c2-1.9,4-3.8,6-5.7c1.7-1.6,4.4-1.3,6.5,0.5
				c1.7,1.5,1.9,3.6,0.5,5.6C310.8-45.5,310.8-45.4,310.8-45.2C310.8-45.2,310.8-45.2,310.8-45.2z M366.8-125.3
				c4.1,0.4,6.2-1.2,7.5-4.2c1.3-2.9,0.2-5.4-2.8-6.6c-3.2-1.3-6.3-0.6-9.5-0.1c-3.6,0.5-4.9,2.7-5.5,5.7c-0.1,0.4-0.2,0.8-0.2,1.1
				c-0.5,4,0.4,5.6,4.1,7.2c1.8,0.8,2.9,0.4,4-1.2C365.2-124.3,365.7-125.7,366.8-125.3L366.8-125.3L366.8-125.3z M216.4,47.7
				c-4.2,0-7.3,1.5-8.7,5.7c-0.2,0.5-0.8,0.9-0.9,1.5c-1,3.1,1,6,4.3,6.3c1.6,0.2,3.2,0.3,4.6,1.3c0.7,0.5,1.5,0.8,2.3,1.1
				c2,0.7,4.3-0.7,4.7-2.8c0.2-1.4,0.2-2.8,0.4-4.3c0.1-1.1,0.5-2.2,0.2-3.2C221.7,48.5,221.6,47.7,216.4,47.7
				C216.4,47.7,216.3,47.7,216.4,47.7L216.4,47.7L216.4,47.7z M343-32.8c2.7,0.4,6.3,0.9,9.8,1.5c1.7,0.3,2.6,1.7,2.5,3.5
				c-0.1,3-3,6.5-6,6.9c-2.7,0.4-5.4,0.8-7.8,2.1c-1.2,0.7-2.2,0-3.3-0.7c-2.4-1.5-3.2-3.2-2.4-6c0.3-1.3,0.7-2.5,1.1-3.7
				C338-32.1,339-32.8,343-32.8L343-32.8L343-32.8z M223.4-55.4c-1.4,0.4-3.2,0.8-4.8,1.3c-0.6,0.2-1.1,0.7-1.5,1.2
				c-2,2.9-1.5,5.8,1.1,8.1c0.5,0.4,0.9,1,1.2,1.6c1.2,3.1,1.6,3.3,4.9,3.3c1,0,2.1,0.2,3.1,0.5c2.3,0.7,3.6,0.1,4.3-2.1
				c0.1-0.3,0.2-0.6,0.3-0.9c1.1-3.5,1.5-6.9-1.2-10c-0.1-0.1-0.1-0.4-0.1-0.6c0.3-1-0.5-1.4-1.2-1.5
				C227.6-54.9,225.7-55.1,223.4-55.4L223.4-55.4L223.4-55.4z M231.3-7.1c3.5,0,5.3-2,6.9-4.2c1.3-1.8,0.7-3.4-0.3-5.1
				c-0.1-0.2-0.1-0.3-0.2-0.5c-1.8-4-4.9-6.1-9.1-7c-0.4-0.1-0.9,0.1-1.3,0.3c-2.8,1.5-4.8,4-6.9,6.2c-0.2,0.2-0.4,0.7-0.3,0.9
				c0.6,1.4,1.2,2.7,2,4c0.4,0.7,1.3,1,1.7,1.7C225.7-7.7,228.7-7.3,231.3-7.1L231.3-7.1z M114.7-103.5c0-0.1,0-0.2,0.1-0.3
				c2.4-0.1,7.6-1.5,9.6-2.9c0.8-0.5,1.4-1.5,1.7-2.5c0.6-1.8-0.3-3.4-1.1-4.9c-1.2-2.3-2.2-2.7-4.8-2.3c-0.3,0.1-0.7-0.2-1-0.4
				c-0.6-0.3-1.3-1.1-1.8-1c-1.8,0.4-3.6,0.9-5.3,1.6c-0.9,0.4-1.9,1.2-2.3,2c-0.9,1.8-2.3,2.8-4.2,3.3c-1.1,0.3-1.8,0.9-1.8,2.1
				c0,1.5,0.6,2.9,1.8,3.2C108.5-104.7,111.6-104.1,114.7-103.5L114.7-103.5L114.7-103.5z M257.8-7.3c1.8,0.1,3.4-1.2,5-2.3
				c2.1-1.4,2.5-3,1.5-5.4c-0.8-1.9-1.7-3.7-2.2-5.6c-0.9-2.8-2.8-4.2-5.5-4.9c-1.6-0.4-3-0.1-4.1,1.2c-1.5,1.9-2.9,3.8-4.3,5.7
				c-0.7,0.9-0.7,2-0.4,3.1c0.7,2.3,2.2,4,3.9,5.7C253.4-8.1,255.2-7.3,257.8-7.3L257.8-7.3L257.8-7.3z M236.5,52.6
				c4-0.3,6.8-2.5,9-5.6c1.2-1.7,1.2-3.2-0.4-4.6c-0.6-0.6-1.5-1-2.3-1.5c-0.6-0.4-1.4-0.7-1.9-1.2c-2.3-2.2-5.2-2.6-8.1-2.6
				c-1.1,0-1.9,0.6-2.3,1.6c-0.1,0.3-0.2,0.7-0.4,0.9c-1.3,1.4-2.6,2.8-3.9,4.2c-1,1-1.2,2.1-0.6,3.3c0.4,0.7,0.9,1.7,1.5,2
				c3,1.3,6.1,2.3,9.1,3.4C236.4,52.6,236.4,52.6,236.5,52.6L236.5,52.6L236.5,52.6z M289.1,42.8c1,0.1,2.1,0.2,3.1,0.5
				c1.8,0.5,2.6,1.8,1.9,3.6c-1.1,2.9-2,5.8-4.8,7.6c-0.6,0.4-1,1-1.3,1.6c-0.8,1.7-2.2,2.7-4,2.9c-2.8,0.4-5.5,0.7-7.5-2
				c-1-1.4-1.7-2.8-1.3-4.5c0.4-1.6,0.7-3.2,1.2-4.8c0.4-1.3,1.3-1.8,2.6-1.9c0.3,0,0.7-0.1,0.8-0.2c1-1.4,2.5-1.7,4.1-2
				C285.6,43.3,287.3,43.1,289.1,42.8L289.1,42.8L289.1,42.8z M218.1,72c-1.1,0.4-3.4,1-5.5,1.8c-0.4,0.1-0.9,0.6-0.9,1
				c-0.2,2.5-0.5,5,1.7,6.9c0.2,0.2,0.2,0.6,0.3,0.9c0.5,1.4,0.4,3.1,1.9,4.1c2.4,1.6,4.8,1.2,7.1-1.1c0.3-0.3,0.9-0.6,1.4-0.7
				c1.9-0.4,3.9-0.6,5-2.5c1.2-2,1.7-4.1,1.6-6.5c-0.1-1-0.6-1.7-1.5-2C226,72.8,222.7,72,218.1,72L218.1,72L218.1,72z M280.8-18.1
				c-2,0.3-3.3-1.4-4.8-2.4c-0.3-0.2-0.8-0.4-1.2-0.4c-1.9-0.3-3.7-1.1-4.6-3.2c-0.7-1.5-0.4-2.7,0.4-3.8c1.3-1.9,2.5-3.7,3.9-5.5
				c1.1-1.3,2.6-1.7,4.4-1.4c2.9,0.6,5.5,1.6,7.9,3.3c1.8,1.3,2.5,2.9,1.7,4.9c-0.6,1.8-1.4,3.6-2.4,5.3
				C285-19.2,283.1-18.2,280.8-18.1L280.8-18.1L280.8-18.1z M159.4,18.1c2,0.3,3.6-0.7,5-2.4c0.8-0.9,1.7-1.8,2.4-2.7
				c0.7-0.8,1.3-1.8,1.7-2.7c0.5-0.9,0.3-1.9-0.6-2.6c-2.8-2-5.9-3.4-9.2-4.3c-2.2-0.6-4.7-1-6.6,1c-1.3,1.4-2.6,2.9-3.9,4.4
				c-0.3,0.4-0.5,1.1-0.4,1.4c0.9,1.9,1.8,3.8,2.8,5.7c0.7,1.4,1.9,2.2,3.4,2.3C155.8,18.2,157.4,18.1,159.4,18.1L159.4,18.1
				L159.4,18.1z M305.7,22.8c2.3-0.2,4.1,0.6,5.4,2.7c0.4,0.7,1,1.2,1.7,1.7c1.7,1.3,2.4,2.6,1.6,4.6c-0.9,2.2-1.9,4.4-3.2,6.4
				c-1.2,1.7-3.2,2.3-5.3,1.9c-2.1-0.4-4.2-0.8-6.2-1.6c-3-1.2-5.7-3.6-4.7-7.3c0.2-0.8,0.4-1.6,0.5-2.4c0.4-2.2,1.7-3.3,3.8-3.6
				c0.2,0,0.5-0.1,0.7-0.2C301.6,23.2,303.6,22.9,305.7,22.8L305.7,22.8L305.7,22.8z M195.5,23c0-0.8,0.1-1.4-0.1-2.1
				c-0.6-2.8,1.1-4.9,2.3-7.1c0.6-1,1.5-1.3,2.7-1c2.4,0.7,4.9,1.4,7.4,2.1c0.3,0.1,0.6,0.2,0.8,0.3c3.9,2,3.3,3.1,2,5.7
				c-1.4,3-3.5,4.7-6.5,6c-1.6,0.7-3,1.6-4.9,1.2c-0.1,0-0.2,0.1-0.3,0.2c-2.2,1.1-4.3,2.4-6.5,3.4c-2.1,1-4.2,0.6-6.1-0.7
				c-0.5-0.3-1.1-0.5-1.6-0.8c-1.6-1.2-1.8-2.9-0.4-4.3C187.3,22.9,191,21.9,195.5,23L195.5,23L195.5,23z M294.1-162.8
				c0.1,0.1,0.1,0.1,0.2,0.1c-0.1,0.2-0.2,0.4-0.3,0.5c-1.9,1.8-2.6,4-2.1,6.6c0.1,0.3-0.1,0.6-0.1,0.9c-0.5,2.7,1.4,6.7,3.8,8
				c1.6,0.9,2.6,0.7,3.9-0.6c1.3-1.2,2.6-2.4,4-3.5c1-0.8,2-1.5,3-2.3c1.3-1.2,1.4-2.3,0.3-3.6c-0.8-0.9-1.7-1.6-2.7-2.2
				c-2.1-1.2-4.3-2.4-6.5-3.5c-0.8-0.4-1.9-0.6-2.4-1.3c-1.4-2.1-2.9-3.9-5.3-4.8c-0.1,0-0.2-0.2-0.3-0.4c-1-1-1.9-2.1-3-3
				c-1.3-1-2.3-1-3.5,0.3c-1.3,1.4-2.5,2.9-3.6,4.4c-0.8,1.1-0.8,2.4,0,3.5c0.9,1.1,1.9,2.2,3,3.2c2.2,1.9,3.6,2,6.1,0.6
				C290.4-161,292.2-161.9,294.1-162.8L294.1-162.8L294.1-162.8z M182.9-14.5c0.9-1.1,2.2-1.4,3.5-1.2c1.9,0.3,3.9,0.5,5.8,0.9
				c3.2,0.6,5.1,2.8,5.1,6c0,0.7-0.5,1.6-1,2.1c-1.6,1.4-3.5,2.1-5.6,2.2c-0.8,0-1.5,0.2-2.2,0.5c-3.1,1.1-5.2,0.3-6.7-2.7
				c-0.4-0.9-1.2-1.7-1.6-2.6c-0.2-0.3-0.1-0.9-0.1-1.3c-1.3,0.9-2.7,1.8-3.9,2.7c-1.4,1-2.8,1.4-4.5,1.3c-1.7-0.1-3.3-0.1-5,0.6
				c-1.9,0.8-3.8,0.3-5-1.1c-1.4-1.7-1.6-3.2-0.5-5.3c0.5-0.9,1-1.8,1.4-2.8c0.1-0.1,0.1-0.3,0.1-0.5c-0.1-1.8,0.6-2.7,2.3-2.8
				c3.2-0.1,6.4-0.1,9.6,0c1,0,2,0.6,2.8,1.2c1.2,1,2.3,2.1,3.3,3.3c0.2,0.2,0.1,0.9,0,1.3c-0.1,0.4-0.3,0.8-0.4,1.1
				c0.1,0,0.1,0.1,0.2,0.1C181.2-12.5,182.1-13.5,182.9-14.5L182.9-14.5z"/>
			<path class="st7" d="M1062.1-5.8c31.4,17.2,70.4,28.8,104.1,11c6.3-3.3,12-7.6,16.8-12.8c-15.4,30.1-55.4,34.5-85.3,39.7
				c-10.8,1.9-21.6,3.7-32.5,5.6c-0.7,0.1-0.9,1.2-0.2,1.4c20.1,5.5,41.9,8.3,62.7,5.8c18-2.1,33.2-11.4,44.8-25.2
				c4.5-5.3,8.5-11.2,11.9-17.3c-2.5,5.9-5.9,11.4-9.4,16.7c-4.9,7.5-9.9,15-14.5,22.7c-9,14.8-17.2,30.2-23.4,46.4
				c-3.5,9.2-6.3,18.6-8.2,28.3c-0.1,0.7,0.7,1.1,1.2,0.7c27.6-22.4,51.2-51.6,62-85.8c1.7-5.5,3.1-11.1,4.1-16.8
				c0.5,10.1,2.2,20,5.1,29.7c4.5,14.7,12.1,28,21.1,40.4c5.5,7.5,11.4,14.6,17.3,21.7c0.4,0.5,1.3,0.3,1.4-0.4
				c4.2-30.5-20.7-54-33.5-79c-3.4-6.6-6.1-19.5-7.4-26.7c11.6,19.6,17.3,30.4,38,44.4c13.4,9,31.2,14,46.1,5.7
				c0.5-0.3,0.8-1.1,0.2-1.4c-4-2.5-8.4-3.4-12.9-4.6c-3.8-1.1-7.6-2.4-11.3-3.9c-7.5-3.1-14.7-7.3-21.2-12.2
				c-13.1-9.8-23.8-22.8-30.6-37.7c-1-2.1-1.7-4.3-2.5-6.5c-1.5-3.9-5-10.9-9.3-12c-3.5-0.9-7.1,2.3-9.8,3.9
				c-4.1,2.5-8.3,4.8-12.6,7c-16.4,8.4-33.7,13.3-52.1,14.2c-20,1-40-1.8-59.8-4.6C1061.5-7.4,1061.4-6.2,1062.1-5.8L1062.1-5.8z"/>
			<path class="st3" d="M1431,172.9c-0.8-1.6-1.2-3.3-1.4-5c-0.3-3.1-1.6-5.9-3.9-8.1c-1.2-1.2-2.2-2.6-3-4.2
				c-1.7-3.5-1.8-7.3-0.7-10.7c0.9-2.8,0.7-5.8-0.5-8.5c-0.1-0.3-0.3-0.6-0.4-0.9c-1.6-4.3,0.6-7.9,2.8-13.7
				c1.1-2.8,1.3-6.1,1.3-8.4c0-1,1.2-1.6,2-0.9c1.8,1.4,4.4,3.3,7.3,4.3c6,1.9,10.1,2.5,12.5,6.4c0.2,0.3,0.3,0.6,0.5,0.9
				c1.3,2.6,3.5,4.7,6.3,5.7c3.4,1.3,6.3,3.8,8,7.3c0.8,1.6,1.2,3.3,1.4,5c0.3,3.1,1.6,5.9,3.9,8.1c1.2,1.2,2.2,2.6,3,4.2
				c1.8,3.8,1.8,7.9,0.4,11.5c-0.8,2.1-0.8,4.4,0.1,6.5c0,0,0,0.1,0.1,0.1c1.3,3-0.4,14.2-6,18c2.7,4.1,18,26.2,21.3,30.7l-1,1.3
				c-3.5-4.7-18.9-26.9-21.7-31.2c-6.5,2.7-17-3.4-18.5-6.4c0,0,0-0.1-0.1-0.1c-1-2-2.8-3.5-5-4.2
				C1436,179.3,1432.8,176.7,1431,172.9L1431,172.9z"/>
			<path class="st3" d="M1498.3,17.2c-2.7,0.9-5.4,1.2-8,1.1c-4.8-0.2-9.6,1.3-13.4,4.3c-2.1,1.7-4.5,3-7.2,3.8
				c-5.8,1.9-11.8,1.3-16.9-1.2c-4.2-2-8.9-2.4-13.4-1c-0.5,0.2-1,0.3-1.5,0.4c-7.1,1.6-12.2-2.6-20.8-7.4
				c-4.2-2.3-9.2-3.3-12.8-3.8c-1.6-0.2-2.2-2.2-1.1-3.3c2.6-2.4,6.1-6.2,8.2-10.5c4.3-8.9,6-15.3,12.6-18.1c0.5-0.2,1-0.4,1.5-0.6
				c4.4-1.5,8.1-4.5,10.3-8.6c2.7-5,7.2-9,13-10.9c2.7-0.9,5.4-1.2,8-1.1c4.8,0.2,9.6-1.3,13.4-4.3c2.1-1.7,4.5-3,7.2-3.8
				c6.3-2,12.7-1.2,18,1.8c3.1,1.7,6.7,2.2,10.2,1.2c0.1,0,0.1,0,0.2-0.1c5-1.4,22,3.6,26.8,13.1c7-3.3,44.7-22.5,52.4-26.7l1.8,1.9
				c-8.1,4.4-46.1,23.8-53.4,27.2c2.8,10.7-8.9,25.8-13.9,27.6c-0.1,0-0.1,0-0.2,0.1c-3.4,1.2-6.1,3.7-7.6,6.9
				C1509.3,10.7,1504.5,15.2,1498.3,17.2L1498.3,17.2z"/>
		</g>
	</g>
</g>
</svg>
