<?xml version="1.0" encoding="utf-8"?>
<!-- Generator: Adobe Illustrator 27.4.0, SVG Export Plug-In . SVG Version: 6.00 Build 0)  -->
<svg version="1.1" id="b" xmlns="http://www.w3.org/2000/svg" xmlns:xlink="http://www.w3.org/1999/xlink" x="0px" y="0px"
	 viewBox="0 0 1442.2 181" style="enable-background:new 0 0 1442.2 181;" xml:space="preserve">
<style type="text/css">
	.st0{clip-path:url(#SVGID_00000024714493856876813510000007373564311011085498_);}
	.st1{fill:#42BEAD;}
	.st2{fill:#4F8636;}
	.st3{fill-rule:evenodd;clip-rule:evenodd;fill:#42BEAD;}
	.st4{fill-rule:evenodd;clip-rule:evenodd;fill:#C2CD51;}
	.st5{fill-rule:evenodd;clip-rule:evenodd;fill:#A2AA34;}
	.st6{fill-rule:evenodd;clip-rule:evenodd;fill:#4F8636;}
</style>
<g>
	<defs>
		<rect id="SVGID_1_" width="1442.2" height="181"/>
	</defs>
	<clipPath id="SVGID_00000165209111799941510830000001195927949137130941_">
		<use xlink:href="#SVGID_1_"  style="overflow:visible;"/>
	</clipPath>
	<g style="clip-path:url(#SVGID_00000165209111799941510830000001195927949137130941_);">
		<path id="e" class="st1" d="M-3.5,92.3c0,0,1.1-1.3,1.1-1.3c5.7-6.9,31.7-40.1,38.9-72.5c6.9-31-5.7-51.3-9.6-56.7l0.3-1.2
			l1.3-5.7L69.8-7.3l-1.4,6l-0.2,0.7c-4.4,2.5-23,14.5-29.2,42.5c-6,26.8,1.3,59.7,3.8,69.4c0,0,0.7,2.9,0.7,2.9
			c0,0,1.2-1.5,1.2-1.5c5.3-6.5,27.6-35.1,33.8-63.1c6-26.8-4.7-44.4-8.2-49.4l0.3-1.1l1.1-4.7l38.2,34.8l-1.1,5l-0.2,0.7
			c-4.1,2.3-19.4,12.6-24.6,35.9c-5,22.4,1,49.8,3.1,58.5c0,0,0.6,2.9,0.7,2.9l1.3-1.6c4.9-6.1,23.2-29.9,28.4-53.2
			c5-22.4-3.8-37.3-6.9-41.7l0.3-1.1l0.8-3.7l33.5,30.6l-0.9,3.9l-0.2,0.8c-3.6,2.2-15.4,10.4-19.5,28.7
			c-3.9,17.6,0.6,39.1,2.4,46.6c0,0,0.6,2.8,0.7,2.7c0.1,0,1.3-1.6,1.3-1.6c4.3-5.4,18.5-24.1,22.5-42.4c3.9-17.6-2.7-29.5-5.4-33.3
			l0.2-1.1l0.6-2.6L177,90.4l-0.7,2.9l-0.2,0.8c-3.1,1.9-11.8,8.4-14.9,22.1c-3,13.3,0.3,29.4,1.7,35.6c0,0,0.7,2.4,0.7,2.4
			c0.1,0,1.3-1.5,1.3-1.5c3.7-4.7,14.1-18.7,17.2-32.5c3-13.3-1.8-22.3-4-25.6l0.2-1.1l0.4-1.6l9.6,8.8l0.6,0.5
			c0,3.9,1,16.5,13.2,27.6c11.9,10.7,30.6,16.7,37.5,18.7c0,0,2.6,0.6,2.6,0.6c0.1,0-0.7-1.8-0.7-1.8c-2.3-6-10.2-24.8-22.4-35.9
			c-11.8-10.7-24.2-10.9-28.5-10.6l-0.8-0.7l-9.6-8.8l1.6-0.5l1.1-0.3c3.4,1.9,12.9,5.8,26.1,1.9C222.7,87.4,236,76,240.5,72
			c0,0,1.5-1.4,1.5-1.5c-0.1-0.1-2.6-0.4-2.6-0.4c-6.4-1-22.9-2.8-36.1,1.1c-13.6,4.1-19.5,13.2-21.1,16.4l-0.8,0.2l-2.8,0.9
			l-29.9-27.2l2.6-0.8l1.1-0.3c4.1,2.3,16.5,7.9,34,2.6c18.1-5.5,35.8-20.9,41-25.6c0,0,1.4-1.2,1.3-1.3c0-0.1-2.6-0.5-2.6-0.5
			c-7.6-1.2-29.7-3.9-47.2,1.4c-18.1,5.5-25.6,17.8-27.4,21.5l-0.8,0.2l-3.8,1.2l-33.5-30.6l3.7-1.1l1.1-0.3
			c4.7,2.7,20.4,10.1,42.6,3.4c23.1-7,45.6-26.9,51.4-32.2c0,0,1.2-1.2,1.2-1.3c0-0.1-2.6-0.5-2.6-0.5c-8.9-1.4-37-5.1-59.2,1.6
			c-23.1,7-32.2,22.9-34.3,27.1l-0.7,0.2l-4.9,1.5L73.2-7.2l4.7-1.4L78.9-9c5.2,3.1,23.9,12.2,50.5,4.2
			c27.7-8.4,54.7-32.6,60.9-38.3c0,0,1.1-1,1.1-1.1c0-0.1-2.7-0.6-2.7-0.6c-10-1.6-43.8-6.2-70.3,1.8c-27.7,8.4-38.4,27.6-40.5,32.2
			l-0.7,0.2l-5.9,1.8L30-46.6l5.6-1.7l1.1-0.4c5.7,3.4,27.2,14.1,58,4.9c32.1-9.7,63.5-38,70-44.1c0,0,1.2-1.1,1.2-1.2
			c-0.1-0.1-2.9-0.5-2.9-0.5c-10.7-1.8-48.3-7-78.6,1.4l-42,27.1c-3.8,4.9-5.9,8.9-6.7,10.6L35-50.4l-6.8,2.1l-2.4-2.2l-1.9,1.2
			l2.8,2.6l-1.6,6.9l-0.1,0.6C20.2-36.5-1.5-22.8-8.7,9.6c-6.9,31,1.7,69.1,4.4,79.8C-4.3,89.4-3.5,92.2-3.5,92.3z"/>
		<path id="f" class="st2" d="M3.4-14.8c5.1-1.4,22.4-5.6,42.6-3.8c0,0,0,0,0,0L32.5-6.2c0,0,0,0,0,0l21.6-11.2c0,0,0,0,0,0
			C65-15.5,76.4-11.6,87-4.4c0,0,0,0,0,0l-16.5,15c0,0,0,0,0,0L92-0.6c0,0,0,0,0,0c3.1,2.5,6,5.3,8.8,8.4c4.3,4.8,8.1,10.2,11.4,16
			c0,0,0,0,0,0L91.2,43c0,0,0,0,0,0l24.5-12.8c0,0,0,0,0,0c4.9,9.8,8.7,20.4,11.7,31.1c0,0,0,0,0,0l-19.9,18c0,0,0,0,0,0l21.6-11.3
			c0,0,0,0,0,0c3.2,13.1,5.2,26,6.5,37c0,0,0,0,0,0l-8.9,8.1c0,0,0,0,0,0l9.2-4.8c0,0,0,0,0,0c1.3,12.8,2.2,29,1.7,29
			c-4.5-0.6-16.8-2-28.6-4.5c0,0,0,0,0,0l5.7-8.8c0,0,0,0,0,0l-8.9,8.1c0,0,0,0,0,0c-10.7-2.4-23.2-5.7-35.8-10.3c0,0,0,0,0,0
			l13.4-20.5c0,0,0,0,0,0l-19.9,18c0,0,0,0,0,0c-10.2-4.1-20.3-9-29.5-14.9c0,0,0,0,0,0l15.1-23.2c0,0,0,0,0,0l-21.1,19.1
			c0,0,0,0,0,0c-5.4-4-10.3-8.3-14.6-13.1c-2.8-3.2-5.3-6.4-7.4-9.7c0,0,0,0,0,0L19.4,57c0,0,0,0,0,0L2.8,72c0,0,0,0,0,0
			c-6-11.3-8.7-23.1-9.4-34.3c0,0,0,0,0,0L6.7,17.2c0,0,0,0,0,0L-6.9,29.5c0,0,0,0,0,0C-6.6,9-0.7-7.8,1.2-12.8c0,0,0,0,0,0
			c-0.6-0.7-60.3-67.5-61.9-69.2c0,0,0,0,0,0l0.9,44.5c0,0,0,0,0,0c3.8,1.8,14.6,7.5,24.2,17.5c0,0,0,0,0,0l-12.8,0.6c0,0,0,0,0,0
			l16.7,3.7c0,0,0,0,0,0c5,6.2,9.3,13.7,11.6,22.6c0,0,0,0,0,0l-15.8,0.7c0,0,0,0,0,0l16.7,3.7c0,0,0,0,0,0c0.5,2.8,0.8,5.8,0.8,8.8
			c0.1,4.7-0.4,9.5-1.2,14.3c0,0,0,0,0,0l-20.1,0.9c0,0,0,0,0,0l19,4.2c0,0,0,0,0,0c-1.9,7.8-4.7,15.5-8.1,22.8c0,0,0,0,0,0
			l-18.9,0.8c0,0,0,0,0,0l16.7,3.7c0,0,0,0,0,0c-4.3,8.8-9.2,16.9-13.6,23.7c0,0,0,0,0,0l-8.5,0.4c0,0,0,0,0,0l7.1,1.6c0,0,0,0,0,0
			c-4.9,7.3-12.7,16.5-12.7,16.5c-2.2-2.4-7.8-8.5-13-15.4c0,0,0,0,0,0l7.1-2.2c0,0,0,0,0,0l-8.5,0.4c0,0,0,0,0,0
			c-4.7-6.3-9.8-14-14.5-22.4c0,0,0,0,0,0l16.6-5.2c0,0,0,0,0,0l-18.9,0.8c0,0,0,0,0,0c-3.6-7-6.8-14.5-8.9-22.1c0,0,0,0,0,0
			l18.8-5.9c0,0,0,0,0,0l-20.1,0.9c0,0,0,0,0,0c-1.1-4.7-1.7-9.5-1.8-14.1c-0.1-3.1,0.1-6,0.5-8.9c0,0,0,0,0,0l16.6-5.2c0,0,0,0,0,0
			l-15.8,0.7c0,0,0,0,0,0c2-9.1,6-17,10.7-23.6c0,0,0,0,0,0l16.5-5.2c0,0,0,0,0,0l-12.8,0.6c0,0,0,0,0,0
			c9.2-10.9,19.7-17.5,23.4-19.6c0,0,0,0,0,0l-0.9-47.8c0-0.1,0-0.1,0-0.2l-35.7-40c-0.5-0.5-0.5-1.3,0-1.9c0-0.1,0.1-0.1,0.2-0.2
			c0.6-0.5,1.5-0.5,2,0.1L3.4-14.8C3.4-14.8,3.4-14.8,3.4-14.8L3.4-14.8z"/>
		<path class="st3" d="M374.9,111.9c1.8,0.1,2.2-2.6,0.5-3.1c-10.1-6.2-19.4-16.2-25.3-26.4c-6-10.5-12.8-25.1-24.5-48
			S278.5-1,273.4-11.5l-15.5,7.1c0,0,30.6,35.4,40.5,46.5s19.7,21.1,24.2,30.7C332.2,93.5,350.9,111.1,374.9,111.9L374.9,111.9
			L374.9,111.9z M322.6,8.7l2.1-7c21.9,8.7,42.2,21.4,58.1,38.9c16.6,18.3,23.8,42.2,30.7,66c2.1,7.2,2.4,8.3-4.9,6.1
			c-10-3-20.6-13.1-25.7-21.3c-7.7-12.5-12-26.8-19-39.6C353.3,32.5,340.1,19.3,322.6,8.7L322.6,8.7L322.6,8.7z M325.6-1.5l1.6-5.4
			c24.9,0.9,49.8,6.4,72.8,15.5c14.9,5.9,29,13.6,42.3,22.5c6.7,4.5,13.3,9.3,19.9,14c6.7,4.8,13.9,9.3,20.2,14.7
			c1.8,1.3,1.4,3.2-0.4,3.7c-29.4,7.4-56.4-11.5-78.4-28.5c-13.1-10-26.2-20-41.5-26.5C350.5,3.5,338.1,0.5,325.6-1.5L325.6-1.5
			L325.6-1.5z M330.3-17.3c3.1-1.5,6.3-2.9,9.6-4.1c13.7-5.1,28.2-6.4,42.6-4.1c14.9,2.4,29,8.3,41.9,16
			c12.2,7.3,23.1,16.4,33.9,25.3c6.8,5.6,5.5,2.8,2.5-1.9c-7.2-11.6-13.7-23.7-22.7-34c-9.1-10.5-20.4-19.2-33.1-25
			c-21-9.5-46-10-66.6,0.4L330.3-17.3L330.3-17.3z"/>
		<path class="st4" d="M1379.6,3.3c-1.5,1.9,1,4.4,2.9,3c14.6-5.7,32.7-7.5,48.2-5.5c15.9,2,36.8,6.6,70.4,12.5
			c33.6,5.9,75.1-21.5,90.4-18.5l5-22.1c0,0-62,4-81.7,5.6s-38.1,3.9-51.8,0.9C1433.3-27.1,1399.6-21.5,1379.6,3.3L1379.6,3.3
			L1379.6,3.3z M1530.6,30.6l5.7,7.7c-26.7,16.2-56.4,27.5-87.7,30.2c-32.7,2.8-63.7-8.6-94.4-20.4c-9.3-3.6-10.7-4.1-2.5-10
			c11.3-8.2,30.4-11.3,43.1-10.1c19.4,1.8,37.9,8.8,57.2,11.7C1480.8,43.9,1505.3,40.6,1530.6,30.6L1530.6,30.6L1530.6,30.6z
			 M1539,42l4.4,6c-20.9,25.6-46.7,47.6-74.8,64.6c-18.2,11-37.6,19.8-57.7,26.7c-10.2,3.5-20.5,6.7-30.8,9.9
			c-10.5,3.3-21,7.2-31.7,9.6c-2.8,0.8-4.5-1.1-3.6-3.3c15.7-37,57.4-50.4,93-60.1c21.1-5.8,42.2-11.6,61.3-22.6
			C1513.8,64.3,1526.8,53.7,1539,42L1539,42L1539,42z M1552,59.6c-0.9,4.5-2,9-3.3,13.5c-5.6,18.5-15.8,35-29.8,48.3
			c-14.5,13.8-32,24-50.5,31.4c-17.5,7.1-35.8,11.3-53.9,15.6c-11.4,2.7-7.4,3.5-0.1,4.2c18,1.6,36,4.5,54.2,3.3
			c18.4-1.3,36.7-6.2,53-15c26.9-14.6,47.5-40.6,52.9-70.7L1552,59.6L1552,59.6z"/>
		<path id="g" class="st2" d="M-156.9,74.6c4.4-2.9,19.6-12.3,39.3-16.7c0,0,0,0,0,0l-9,15.8c0,0,0,0,0,0l17-17.4c0,0,0,0,0,0
			c11-1.6,23.1-1.4,35.3,2.2c0,0,0,0,0,0L-85.3,78c0,0,0,0,0,0l17.1-17.4c0,0,0,0,0,0c3.7,1.4,7.4,3.2,11,5.3
			c5.6,3.2,10.8,7.2,15.8,11.7c0,0,0,0,0,0l-14.1,24.7c0,0,0,0,0,0l19.3-19.7c0,0,0,0,0,0c7.7,7.8,14.6,16.7,20.7,26c0,0,0,0,0,0
			L-28.6,132c0,0,0,0,0,0l17.1-17.4c0,0,0,0,0,0c7.1,11.5,13,23.1,17.6,33.2c0,0,0,0,0,0l-6,10.5c0,0,0,0,0,0l7.3-7.4c0,0,0,0,0,0
			c5.2,11.8,11,26.9,10.5,27c-4.5,0.9-16.6,3.3-28.6,4.5c0,0,0,0,0,0l2.7-10.1c0,0,0,0,0,0l-6,10.5c0,0,0,0,0,0
			c-11,1-23.9,1.7-37.3,1.3c0,0,0,0,0,0l6.4-23.6c0,0,0,0,0,0l-13.3,23.3c0,0,0,0,0,0c-11-0.7-22.1-2.3-32.7-5.1c0,0,0,0,0,0
			l7.2-26.8c0,0,0,0,0,0l-14.1,24.7c0,0,0,0,0,0c-6.3-2.1-12.4-4.7-18-8c-3.7-2.1-7-4.5-10.1-7c0,0,0,0,0,0l6.4-23.6c0,0,0,0,0,0
			l-11.1,19.4c0,0,0,0,0,0c-9.2-8.9-15.4-19.3-19.6-29.7c0,0,0,0,0,0l6.4-23.6c0,0,0,0,0,0l-9,15.8c0,0,0,0,0,0
			c-6.1-19.5-5.6-37.4-5.3-42.7c0,0,0,0,0,0c-0.8-0.4-78.3-45.5-80.3-46.7c0,0,0,0,0,0l14.6,42.1c0,0,0,0,0,0
			c4.2,0.5,16.2,2.6,28.4,9.2c0,0,0,0,0,0l-12,4.5c0,0,0,0,0,0l17.1-1.6c0,0,0,0,0,0c6.7,4.3,13.1,10.1,18.1,17.9c0,0,0,0,0,0
			l-14.8,5.5c0,0,0,0,0,0l17.1-1.6c0,0,0,0,0,0c1.3,2.5,2.5,5.2,3.5,8.1c1.5,4.4,2.6,9.1,3.2,14c0,0,0,0,0,0l-18.8,7.1c0,0,0,0,0,0
			l19.4-1.8c0,0,0,0,0,0c0.6,8,0.3,16.2-0.6,24.2c0,0,0,0,0,0l-17.7,6.7c0,0,0,0,0,0l17.1-1.6c0,0,0,0,0,0
			c-1.4,9.7-3.5,18.9-5.6,26.7c0,0,0,0,0,0l-7.9,3c0,0,0,0,0,0l7.3-0.7c0,0,0,0,0,0c-2.4,8.5-7,19.6-7,19.6
			c-2.8-1.6-10.1-5.7-17.1-10.6c0,0,0,0,0,0l6-4.3c0,0,0,0,0,0l-7.9,3c0,0,0,0,0,0c-6.4-4.6-13.7-10.3-20.7-16.9c0,0,0,0,0,0
			L-203,173c0,0,0,0,0,0l-17.7,6.7c0,0,0,0,0,0c-5.6-5.6-10.9-11.7-15.3-18.2c0,0,0,0,0,0l16-11.4c0,0,0,0,0,0l-18.8,7.1
			c0,0,0,0,0,0c-2.5-4.2-4.5-8.5-6.1-12.9c-1-2.9-1.8-5.8-2.3-8.6c0,0,0,0,0,0l14.1-10.1c0,0,0,0,0,0l-14.8,5.5c0,0,0,0,0,0
			c-0.9-9.3,0.4-18,2.9-25.7c0,0,0,0,0,0l14.1-10.1c0,0,0,0,0,0l-12,4.5c0,0,0,0,0,0c5.4-13.2,13.3-22.7,16.2-25.9c0,0,0,0,0,0
			l-15.7-45.1c0-0.1,0-0.1,0-0.2l-46.4-26.9c-0.6-0.4-0.9-1.1-0.6-1.8c0-0.1,0.1-0.1,0.1-0.2c0.4-0.7,1.3-0.9,1.9-0.5L-156.9,74.6
			C-156.9,74.6-156.9,74.6-156.9,74.6L-156.9,74.6z"/>
		<path class="st5" d="M305.7,135.3c-8.7-18.2-12.5-37.4-13.7-57.4c-1.2-19.1-2.2-35.2-8.8-53.4c-8.8,28.5-16.2,55.7-5.7,84.9
			c0.4,1.1-0.9,1.8-1.7,1c-11.7-13-16.2-30.5-14.4-47.6c1-9.5,3.8-18.8,7.7-27.4c3.2-7.1,13.6-21,4.1-27.6
			c-16.6,23.1-25.1,48-28.6,76.3c-0.2,1.3-1.9,1.5-2.4,0.3c-7.2-15.1-5.3-32.5-0.3-48c3-9.2,7.3-17.9,12.7-26
			c2.9-4.3,6.6-8,9.6-12.2c2.9-4.1-0.8-10.4-3.7-13.6C250.2-6.4,245.2,8.1,239,19.8c-6,11.3-13.2,21.9-21.4,31.7
			c-0.9,1.1-2.5,0.3-2.4-1c0.6-28.7,12.8-54.9,35.9-71.9c1.4-1,3.8-1.9,3.5-4.1c-0.2-2-3.6-3.5-5.3-3.6c-8.4-0.6-20.7,24.5-24,31.1
			c-8,15.9-12,32.8-17.4,49.7c-0.4,1.3-2.5,1-2.6-0.3c-2.2-33,3.5-66.4,30.3-86.6c5.5-4.2,7-4.5,0.7-10.1
			c-3.7-3.2-7.4-6.3-11.1-10.1C205.7-29,207.5,4.9,195.1,34.5c-0.5,1.1-2.1,1.2-2.5,0c-4.8-12.5-5.4-26.2-2.8-39.3
			c2.6-13,8.2-25.2,14.9-36.6c2-3.4,4.1-6.7,6.3-10c0.9-1.4,1.9-2.8,2.8-4.2c1-1.4,3.2-4.8,3.9-6c0-0.1-9.7-13.7-14.9-4.8
			c-8.1,12.6-12.2,26.6-14.2,41.3c-1.7,12.6-2.8,25.4-9.1,36.8c-0.5,0.9-2.2,1.3-2.6,0c-9-31-0.8-65.7,22.8-87.7
			c-6.2-3.6-15.5-11.9-20.5-9.7c-3.4,2.5-5.2,8-6.8,11.7c-1.5,3.4-2.7,6.9-3.9,10.4c-4.9,15.6-6.4,32.1-4.4,48.4
			c0.2,1.3-1.7,2.2-2.5,1c-8-11.8-9.9-26.5-6.9-40.3c1.5-6.8,4.2-13.3,7.8-19.2c3.3-5.4,8.9-12.5,8.2-19.3c-0.4-4-2.2-4.1-3.8-5.2
			c-20.9-9.4-43.5-14.7-66.9-17c-1.8-0.2-0.6-6.5,1.2-6.3c22.9,2.3,44.9,10,65.9,19.8c0.1,0,0.1-0.1,0.2-0.1
			c4.1-1.5,7.4-0.4,11.9-2.5c9.6-4.6,16.5-13.7,23.3-21.9c8.5-10.1,18.4-18.6,29.9-25.3c1-0.6,2.6,0.2,2,1.5
			c-10.1,22-25.9,40.7-45.9,54.3c7.8,7.3,20.1-7.6,26.4-11.6c6.9-4.3,14.5-7.3,22.4-9.2c18.6-4.5,38-2.5,56.6,0.9
			c1.7,0.3,1.3,2.6-0.3,2.6c-31-0.6-61.7,9.4-86.6,27.9c2.7,1.5,5.1,1.5,8.1,2.1c13.8,2.6,29.4,1.7,43.3,0.1
			c17.2-2,34.1-6,50.4-11.8c1.1-0.4,2.4,0.9,1.5,2c-10.7,11.7-27.3,14.3-42.1,17.4c-15.4,3.2-31.3,5.6-47,2.9
			c2.3,4,9.8,4.6,13.8,5.3c4.7,0.8,9.5,1.3,14.3,1.6c9.5,0.5,19,0.1,28.4-1c18.9-2.2,37.4-6.8,55.8-11.4c1.1-0.3,1.9,1.3,1.2,2.1
			c-23.2,29.6-64.1,29.4-97,19.7c6.7,9.4,19.6,10.4,30,11.7c10.7,1.3,21.3,3.2,31.7,6c21.4,5.6,41.9,14.7,59.6,28.2
			c1,0.8,0.4,2.6-1,2.4c-17.7-3.5-35.5-6.9-53.2-10.4c-14.3-2.8-29-5.2-42-11.9c5.5,6.8,12.6,12.3,20.7,15.6c8.7,3.6,18,3.8,27,6
			c18.1,4.3,35.3,15.5,49.8,26.7c1,0.8,0.1,2.5-1.1,2C332,7.6,298.6,9.1,274.6-10c4.1,6.7,8.6,11,15.1,15.4
			c7.8,5.3,17,8.1,25.2,12.7c15.3,8.6,28.3,20.8,37.9,35.4c0.6,0.9-0.3,2.5-1.4,1.9c-23.3-12.6-45.9-23.4-64.7-42.3
			c7,14.2,13.8,25.3,25.6,36.4c12.6,11.8,27.4,21,42,30.1c0.9,0.6,0.4,2-0.6,2.1C328.5,86,311,66.6,299.2,46.3
			c1.4,3.9,2.8,7.8,4.1,11.7c3.8,8.5,7.6,17,9.9,26c4.6,17.7,0.3,34.4-5.1,51.4C307.7,136.4,306.1,136.3,305.7,135.3L305.7,135.3z"
			/>
		<path class="st4" d="M88.6,159.2c-22-18.5-38.3-41.2-51.7-66.5c-12.8-24.2-23.6-44.4-43-64.2c5.5,42.2,11.9,81.9,42.7,113.6
			c1.1,1.1-0.2,2.8-1.6,2.2c-22.8-10-39-30-46.9-53.4c-4.3-12.9-6.2-26.6-6.2-40.2c0-11.1,5.2-35.3-11-38.2
			c-7.9,39.8-4.2,77.2,7.9,115.9c0.6,1.8-1.6,3-3,1.9c-18.3-15.3-26.1-39.1-28.7-62.1c-1.6-13.7-1.1-27.6,1.1-41.2
			c1.2-7.3,3.9-14.3,5.2-21.5c1.3-7.1-7.2-13.1-12.8-15.5c-7.7,17.7-5.7,39.5-6.9,58.4c-1.1,18.2-4.2,36.2-9,53.9
			c-0.5,1.9-3,1.9-3.7,0.2C-95.2,65-95,23.7-74.9-12c1.2-2.2,3.8-4.6,2.2-7.3c-1.5-2.5-6.7-2.4-8.9-1.5c-11.3,4.1-12.4,44-12.8,54.5
			c-0.9,25.3,3.8,49.7,6.8,74.8c0.2,1.9-2.7,2.8-3.6,1.1c-22.3-41.5-34.7-88.2-11.8-130.3c4.7-8.7,6.4-10-5-13.5
			c-6.6-2-13.3-3.9-20.4-6.5c-9.8,45.8,12.6,88.7,13.9,134.4c0.1,1.7-2,2.8-3.3,1.5c-13.7-13.4-22.4-30.8-26.8-49.3
			c-4.3-18.5-4.3-37.6-2.2-56.3c0.6-5.6,1.4-11.1,2.3-16.7c0.4-2.4,0.8-4.7,1.2-7.1c0.4-2.4,1.3-8.1,1.5-10.1
			c0-0.1-20.7-12-22.3,2.5c-3.1,21.1-0.2,41.8,6,62c5.3,17.3,11.4,34.7,9.9,53.1c-0.1,1.5-2.1,3-3.4,1.6
			c-30.1-34.9-39.9-84.9-22.3-127.4c-10.2-1-27.2-6.3-32.4-0.5c-3,5.2-2,13.4-1.9,19.2c0.1,5.3,0.5,10.6,1.1,15.8
			c2.8,23.2,10.7,45.5,22.9,65.4c1,1.6-0.9,3.9-2.6,2.8c-17.4-10.6-28.5-28.5-32.7-48.2c-2.1-9.7-2.5-19.7-1.2-29.6
			c1.2-8.9,4.2-21.5-0.7-30c-2.9-4.9-5.3-4-7.9-4.5c-32.8,0.1-65.1,6.6-96.9,17.4c-2.4,0.8-4.6-8.1-2.2-8.9
			c31.2-10.5,64.3-13.6,97.2-13.3c0.1-0.1,0.1-0.1,0.2-0.2c4.4-4.4,9.4-4.8,13.9-10.3c9.7-11.6,13.3-27.6,17.4-42.2
			c5-18.2,12.9-35.1,23.9-50.4c1-1.3,3.5-1.3,3.5,0.8c-0.1,34.5-9.6,68.2-27.6,97.6c14.4,4.8,21.6-21.8,27.5-30.6
			c6.4-9.7,14.5-18.1,23.6-25.2c21.5-16.8,47.8-25.7,74-32.2c2.3-0.6,3.3,2.6,1.1,3.5c-40.7,17.5-74.6,48.7-95.9,87.4
			c4.3,0.3,7.5-1.1,11.7-2.1c19.4-4.8,39.2-15.1,56.3-25.5c21.1-12.8,40.7-28,58.4-45.1c1.2-1.1,3.7-0.2,3.1,1.6
			c-7,21.5-27,34.7-44.4,47.4c-18.1,13.3-37.3,25.8-59.3,31.5c5.4,3.8,15.5,0.2,21-1.3c6.6-1.7,13.1-3.9,19.5-6.4
			c12.6-4.9,24.7-11.2,36.3-18.1c23.2-14,44.5-30.9,65.7-47.8c1.3-1,3.2,0.5,2.8,2C-11-80.3-64.2-56.4-112.8-49.6
			c14.3,8.2,31.6,2,45.8-2.5c14.6-4.7,29.6-8.4,44.7-11c31.1-5.4,63.1-5.6,94,1.4c1.7,0.4,2,3.2,0.2,3.7c-25.1,6-50.2,12-75.2,17.9
			c-20.2,4.8-40.7,10.4-61.6,9.4c11.2,5.6,23.6,8.5,36.1,8.1c13.4-0.4,25.6-5.7,38.6-8.2c26-5,55-0.7,80.5,5.3
			c1.8,0.4,1.6,3.2-0.3,3.2C47.3-22.2,4.8-0.5-37.6-11.1C-28.3-4.8-19.8-1.9-8.9,0C4.3,2.2,18,0.5,31.3,1.6
			c24.9,2.1,49,10.3,70.2,23.6c1.3,0.8,1.1,3.4-0.7,3.2c-37.7-2.5-73.5-3.3-109-16.7C9.3,26,24.7,36.4,46.6,43.8
			c23.4,7.9,48,11.1,72.3,14.3c1.5,0.2,1.7,2.3,0.5,3.1C89.1,81.7,55,66.8,27.5,47.4c4.1,4.2,8.2,8.4,12.1,12.7
			c10,8.8,19.9,17.5,28.3,27.9c16.5,20.3,20.8,44.4,23.7,69.7C91.8,159.5,89.7,160.1,88.6,159.2L88.6,159.2z"/>
		<path class="st6" d="M1010.4,2.4c-4.6,25.7-4.6,52.2-0.6,78c1,6.1,2.2,12.3,3.6,18.3c1.5,6.4,2.8,13.5,5.6,19.5
			c2.5,5.6,7.9,6.6,13.6,7c6.7,0.5,13.5,0.5,20.3,0.1c26.8-1.5,52.9-9.4,77.4-20.2c12.4-5.5,24.5-11.9,36.3-18.7
			c13.6-7.9,26.9-16.7,38.5-27.5c18.9-17.6,32.8-42.1,31.3-68.7c-0.8-13.1-5.8-25.2-14-35.4c-4.5-5.6-9.7-10.7-15.1-15.4
			c-1.4-1.2-2.9-2.4-4.3-3.6c4.7-3.2,9.4-6.3,14.2-9.4c17.9-11.4,39.6-18.4,61-25c1.8-0.4-2.2-7.2-4-6.9
			c-22.7,4.5-43.9,17.2-62.6,29.4c-2.8,1.8-5.7,3.7-8.5,5.6c2.3-6.8,2.5-14.2,0.9-21.3c-3-12.9-12.4-23.1-23.6-29.7
			c-22.3-13.1-50.6-13-74.6-4.9C1051.3-107.8,1020-51.2,1010.4,2.4L1010.4,2.4z M1024,13.6c-1.8,0.7-3.1,1.3-3.3,1
			c-0.2-0.3,1.6-1.9,6.9-5.9c6.7-5,14.5-9,22.7-11.2c7.4-1.9,15.2-2.4,22.8-0.7c1.8,0.4,3.7,1,5.4,1.9c1.7,0.9,3.3,2,4.4,3.6
			l0.1,0.1c0.9,1.2,1.6,2.1,0.8,3.5c-0.4,0.6-0.9,1.2-1.5,1.6c-0.7,0.6-1.5,1-2.3,1.4c-1.7,0.8-3.5,1.2-5.3,1.3
			c-1.8,0.1-3.7,0-5.5-0.1c-6.6-0.6-12.8-1.1-19.1-1.1c-6.2,0-12.4,0.5-18.8,2C1028.9,11.6,1026.1,12.7,1024,13.6L1024,13.6z
			 M1021.4,55.6c-0.5-0.4,0.1-1.6,2-3.8c4.3-5,10.2-10.8,16.7-14.8c4.9-3,10.2-4.9,15.4-4.7c1.6,0.1,3.9,0.6,5.8,1.5
			c1.2,0.6,2.4,1.3,3.2,2.3c0.8,0.9,1.3,2,1.3,3.3c0,0.6-0.2,1.3-0.5,2c-0.6,1.3-1.7,2.2-2.8,2.8c-1.2,0.6-2.6,0.9-3.9,1.1l0,0
			c-9.9,0.1-21.2,4.7-28.7,7.7C1025.3,54.9,1022.1,56.2,1021.4,55.6L1021.4,55.6z M1040.1,75.9c-2.1,0.6-4.1,1.1-6.1,1.9
			c-1.2,0.4-2.4,1-3.5,1.5c-1.8,0.9-3.3,1.6-3.7,1.2c-0.5-0.4,0.5-2.1,4-6.4l0.6-0.7c3.7-4.6,8.6-10.6,16.3-6.7c1,0.5,1.7,1.3,2,2.1
			c0.2,0.5,0.3,1,0.3,1.5c0,0.5-0.1,1-0.4,1.4c-0.4,0.8-1.1,1.5-2.2,1.9C1045,74.6,1042.5,75.3,1040.1,75.9L1040.1,75.9z
			 M1076.7,97.7c-1.1,2-2.4,3.8-3.8,5.5c-1.4,1.7-3,3.2-4.7,4.6c-5,4.1-7,5.3-7.4,4.8c-0.4-0.4,0.3-2,1.3-4c0.5-1,1-2.2,1.5-3.4
			c1-2.4,0.9-5.4,0.8-8.4c-0.1-2.6-0.2-5.1,0.4-7.2c0.3-0.9,0.7-1.7,1.1-2.4c0.8-1.2,1.8-2.1,3-2.6c1.2-0.5,2.5-0.7,3.9-0.3
			c0.6,0.2,1.2,0.5,1.8,0.9c2,1.4,3.2,3.4,3.5,5.5C1078.5,93,1077.9,95.6,1076.7,97.7L1076.7,97.7z M1104.5,95.4
			c-4.9,7-6.7,9.4-7.1,9.1c-0.3-0.2,0.1-1.4,0.7-3.2c1.1-3.5,3-9.3,2.8-14.2c-0.1-2.5-0.4-5-1-7.5c-0.5-2.4-1.3-4.9-2.2-7.2
			c-1.1-2.8-2.6-5.2-4.2-7.6c-0.7-1.2-1.5-2.4-2.2-3.6c-0.7-1.2-1.4-2.6-1.6-4.1c-0.3-1.4-0.1-2.9,0.6-4.3c0.7-1.2,1.8-2.1,3.1-2.6
			c1.4-0.6,2.9-0.8,4.4-0.6c1.9,0.3,3.6,1.2,5.1,2.4c1.4,1.2,2.7,2.7,3.7,4.2c4,5.9,5.5,12.4,5.1,18.9
			C1111.3,82.4,1108.7,89.5,1104.5,95.4L1104.5,95.4z M1145.2,73c-6.2,13.3-8.8,17.3-9.7,16.9c-0.8-0.4,0-4.8,0.8-9.2l0.1-0.8
			c0.8-4.3,0.9-11,0.4-17.4c-0.4-5.9-1.4-11.5-2.9-14.8c-1.3-3-2.9-5.8-4.6-8.6c-1.7-2.8-3.6-5.4-5.7-7.9c-0.3-0.4-0.6-0.7-0.9-1.1
			c-2.5-3.1-5.5-6.7-3.2-10.8c0.9-1.6,2.4-2.8,4.1-3.6c1.8-0.8,3.9-1,5.8-0.7c5.3,1,9.3,5.6,12.8,9.6l0.6,0.7
			c5.2,5.9,7.5,13.3,7.9,21C1151.2,55.5,1148.8,65.1,1145.2,73L1145.2,73z M1177.5,55.3c-6.5,9.9-8.9,13-9.2,12.8
			c-0.3-0.2,0.5-2,1.4-4.3c0.3-0.7,0.6-1.4,0.9-2.1c1.4-3.4,2.1-6.1,2.4-8.8c0.2-2.8-0.1-5.6-0.8-9.3c-0.7-3.9-2-7.7-3.5-11.3
			c-1.6-3.6-3.5-7.1-5.5-10.5c-0.8-1.4-1.8-2.8-2.8-4.3c-5.3-7.9-12.1-18.1-5.1-26.3c0.7-0.8,1.4-1.4,2.1-1.9c2.7-1.8,5.9-1.9,9-1
			c3.1,0.9,6.2,2.9,8.8,5.1c2.1,1.8,3.9,3.8,5.2,5.7c5.3,7.9,7.3,17.4,6.8,26.9C1186.6,36.3,1183.1,46.8,1177.5,55.3L1177.5,55.3z
			 M1200.1-35.6c6,2.2,10.3,6.2,13.3,11.2c3.5,5.8,5.2,12.9,5.5,19.9c0.3,6.7-0.2,13.9-1.8,20.7c-1.4,5.9-3.7,11.6-7.1,16.5
			c-2.1,3-3.5,5.2-4.4,6.5c-1,1.6-1.5,2.2-1.6,1.8c0-0.1,0.1-0.5,0.3-1.2c0.9-2.8,3.3-10.4,2.3-19.5c-0.3-3.2-0.8-6.4-1.5-9.6
			c-0.7-3.2-1.6-6.4-2.6-9.5c-2.2-6.3-5.1-12.4-8.6-18.1c-3.6-5.6-7.8-10.9-12.6-15.5c0,0-0.1-0.1-0.1-0.1c-0.1-0.2-0.2-0.4-0.2-0.6
			c0-0.2,0.1-0.4,0.3-0.5c0,0,0.1-0.1,0.1-0.1c2.7-1.8,5.6-2.8,8.7-3.1C1193.5-37.2,1196.9-36.7,1200.1-35.6L1200.1-35.6z
			 M1185.9-60c5.9-2.2,11.3-0.3,7.9,2.3c-1.4,1.1-2.8,2.1-4.2,3.2c-7.4,5.7-15.2,11.6-21.9,17.4c-32.5,28.1-62.1,59-88.9,92.6
			c-15.8,19.2-31.9,39.2-43.5,57.2c-0.8,1.1-2.7-0.3-1.9-1.5C1044.1,90.5,1149.1-45.9,1185.9-60z M1105.4-105
			c4.4-1.6,8.9-3.1,13.5-4.3c4.6-1.2,9.2-2.2,13.9-2.8c8.2-1.1,16.7-0.7,24.6,1.5c7.1,2,13.6,5.4,19.1,10.7c1.5,1.5,2.9,3.1,4.1,4.9
			c1.2,1.7,2.3,3.4,3.1,5.3c0.6,1.3,1.2,2.7,1.6,4.1c0.4,1.3,0.7,2.7,0.9,4.1l0,0l0,0c0.1,9.6-3.5,11.7-7.4,11.8
			c-1.8,0-3.6-0.4-5.2-0.8c-0.3-0.1-0.6-0.1-0.9-0.2l0,0c-1.1-0.4-2.2-0.9-3.2-1.4c-1-0.5-2-1.2-2.9-1.8c-3.7-2.5-6.8-5.8-10-9
			c-1.8-1.8-3.6-3.7-5.4-5.4c-6.5-5.9-14.5-11.2-23-14c-7.1-2.4-14.7-3-22.2-0.9c-0.4,0.1-0.7,0-0.8-0.2c-0.1-0.1-0.1-0.2-0.2-0.3
			s0-0.2,0-0.4C1104.8-104.6,1105-104.9,1105.4-105L1105.4-105z M1050.4-57.7c6.1-6.4,13.5-10.9,21.6-13.9c9.1-3.4,19-4.8,28.7-4.7
			c6,0.1,12.1,0.7,18.1,2.2c5.4,1.3,10.6,3.3,15.3,6c8.7,5,13,9.9,14.2,14c0.7,2.2,0.5,4.2-0.3,6c-0.8,1.8-2.2,3.2-4.1,4.4
			c-4.1,2.5-10.4,3.4-16.5,1.9c-6.8-1.6-13.2-4.6-19.5-7.6c-1.9-0.9-3.9-1.8-5.8-2.7c-7.8-3.5-16.5-6.8-25.2-8.2
			c-8.7-1.3-17.5-0.7-25.6,3.7c-0.3,0.1-0.5,0.1-0.8,0c-0.1-0.1-0.2-0.1-0.3-0.2c-0.1-0.1-0.2-0.2-0.2-0.4
			C1050.1-57.3,1050.2-57.5,1050.4-57.7L1050.4-57.7z M1033.5-28.7c1.1-1,2.4-1.9,3.6-2.7c1.3-0.8,2.6-1.6,3.9-2.3
			c2.8-1.4,5.7-2.7,8.7-3.6c3-1,6.2-1.7,9.3-2.1c5.8-0.8,11.8-0.8,17.6,0.1c5.8,0.9,11.4,2.7,16.6,5.3c2.4,1.2,4.8,2.5,7,4.1
			c2.2,1.6,4.2,3.6,5.5,5.9c1.1,1.8,1.7,3.9,1.5,5.9c-0.2,1.7-0.9,3.3-2.5,4.6c-4,3.2-10.2,1.8-15,0.6c-0.6-0.1-1.1-0.3-1.8-0.4
			c-3.8-0.8-7.5-1.8-11.3-2.7c-2.4-0.6-4.8-1.2-7.3-1.8c-1.8-0.4-3.4-0.9-5-1.3c-7.1-1.9-12.5-3.3-26.4-2.7c-2,0.1-4.5,0.7-6.6,1.2
			c-2.6,0.6-4.8,1.2-5.4,0.5C1025.6-20.9,1027.3-23.1,1033.5-28.7L1033.5-28.7z"/>
		<path id="h" class="st1" d="M1438.6-5.3c0,0,0.9,0.8,0.9,0.8c5.1,4,29.3,22.4,52.7,27.2c22.4,4.6,36.9-4.7,40.7-7.6l0.8,0.2
			l4.1,0.9l-26.6,30.2l-4.3-0.9l-0.5-0.1c-1.9-3.2-10.7-16.4-31-20.5c-19.4-4-43,1.7-49.9,3.6c0,0-2.1,0.5-2.1,0.5
			c0,0,1.1,0.9,1.1,0.9c4.8,3.8,25.6,19.4,45.8,23.6c19.4,4,31.9-3.9,35.4-6.5l0.8,0.2l3.4,0.7l-24.6,27.9l-3.6-0.8l-0.5-0.1
			c-1.7-2.9-9.3-13.8-26.2-17.3c-16.2-3.3-35.9,1.3-42.1,3c0,0-2.1,0.5-2.1,0.5l1.2,0.9c4.4,3.5,21.8,16.4,38.6,19.8
			c16.2,3.3,26.8-3.2,29.9-5.4l0.8,0.2l2.7,0.6l-21.6,24.5l-2.8-0.6l-0.6-0.1c-1.6-2.6-7.7-11-20.9-13.7
			c-12.7-2.6-28.2,0.9-33.5,2.3c0,0-2,0.5-2,0.5c0,0.1,1.2,0.9,1.2,0.9c4,3.1,17.6,13,30.8,15.7c12.7,2.6,21.2-2.3,23.9-4.3l0.8,0.2
			l1.9,0.4l-19.3,21.9l-2.1-0.4l-0.6-0.1c-1.4-2.2-6.2-8.4-16.1-10.4c-9.6-2-21.2,0.5-25.6,1.7c0,0-1.7,0.5-1.7,0.6
			c0,0.1,1.1,0.9,1.1,0.9c3.4,2.6,13.7,9.9,23.6,12c9.6,2,16.1-1.6,18.4-3.2l0.8,0.2l1.2,0.2l-6.2,7l-0.4,0.4
			c-2.8,0-11.9,0.9-19.7,9.9c-7.6,8.7-11.7,22.2-13,27.2c0,0-0.4,1.9-0.4,1.9c0,0,1.3-0.5,1.3-0.5c4.3-1.7,17.7-7.6,25.6-16.6
			c7.6-8.7,7.6-17.5,7.3-20.7l0.5-0.6l6.2-7l0.4,1.1l0.2,0.8c-1.3,2.5-4,9.4-1,18.8c3.1,9.8,11.5,19.2,14.4,22.4c0,0,1,1.1,1.1,1
			c0.1,0,0.3-1.9,0.3-1.9c0.6-4.6,1.8-16.5-1.3-26c-3.1-9.8-9.8-13.9-12.1-15l-0.2-0.6l-0.7-2l19.3-21.9l0.6,1.9l0.3,0.8
			c-1.6,3-5.5,12-1.5,24.5c4.2,13,15.5,25.6,18.9,29.2c0,0,0.9,1,1,0.9c0.1,0,0.3-1.9,0.3-1.9c0.8-5.5,2.5-21.4-1.6-34
			c-4.2-13-13.1-18.2-15.8-19.5l-0.2-0.5l-0.9-2.7l21.6-24.5l0.9,2.6l0.3,0.8c-1.9,3.4-7,14.8-1.9,30.7
			c5.3,16.5,19.9,32.5,23.8,36.6c0,0,0.9,0.9,0.9,0.8c0,0,0.3-1.9,0.3-1.9c0.9-6.4,3.2-26.7-1.9-42.6c-5.3-16.6-16.9-22.9-19.9-24.3
			l-0.2-0.5l-1.1-3.5l24.6-27.9l1.1,3.3l0.3,0.8c-2.2,3.8-8.5,17.4-2.4,36.4c6.4,19.8,24.1,39,28.3,43.4c0,0,0.7,0.8,0.8,0.8
			c0.1,0,0.4-1.9,0.4-1.9c1.1-7.2,3.9-31.6-2.2-50.6c-6.4-19.9-20.4-27.3-23.7-28.8l-0.2-0.5l-1.4-4.2l26.6-30.2l1.3,4l0.3,0.8
			c-2.4,4.2-9.9,19.8-2.8,41.8c7.4,23,28.1,45.3,32.6,49.9c0,0,0.8,0.9,0.9,0.8c0.1,0,0.3-2.1,0.3-2.1c1.2-7.7,4.4-34.8-2-56.6
			l-20-29.9c-3.6-2.7-6.5-4.1-7.7-4.7l-0.1-0.5l-1.6-4.9l1.6-1.8l-0.9-1.4l-1.8,2.1l-5-1l-0.5-0.1c-2-3.4-12.1-18.8-35.5-23.6
			c-22.4-4.6-49.8,2.1-57.4,4.2C1440.7-5.9,1438.7-5.2,1438.6-5.3L1438.6-5.3z"/>
		<path id="i" class="st2" d="M1279.5-90.1c0,0,1.3,1.2,1.3,1.2c6.9,6.3,40,35.4,73.3,44.8c31.9,9,53.9-2.9,59.7-6.7l1.2,0.3
			l5.8,1.7l-41.7,40.9l-6.1-1.8l-0.7-0.2c-2.4-4.8-13.8-24.9-42.6-33c-27.6-7.8-62.3-2.1-72.6-0.1c0,0-3,0.5-3.1,0.5
			c0,0,1.5,1.4,1.5,1.4c6.5,5.9,35,30.8,63.8,39c27.6,7.8,46.6-2.3,52-5.7l1.2,0.3l4.8,1.4l-38.6,37.8l-5.1-1.5l-0.7-0.2
			c-2.2-4.4-12-21-36-27.7c-23.1-6.5-52-1.9-61.2-0.2c0,0-3.1,0.5-3.1,0.5l1.6,1.4c6,5.5,29.8,26,53.8,32.7
			c23.1,6.5,39.1-1.7,43.9-4.7l1.1,0.3l3.8,1.1l-33.8,33.2l-4-1.1l-0.8-0.2c-2-3.9-10-16.7-28.8-22c-18.2-5.1-40.9-1.7-48.7-0.2
			c0,0-2.9,0.5-2.9,0.6c0,0.1,1.6,1.4,1.6,1.4c5.4,4.9,24.1,20.7,42.9,26c18.2,5.1,30.9-1.1,35-3.6l1.1,0.3l2.7,0.8l-30.2,29.6
			l-3-0.8l-0.8-0.2c-1.8-3.3-8.1-12.8-22.2-16.8c-13.7-3.9-30.7-1.5-37.3-0.3c0,0-2.6,0.6-2.6,0.6c0,0.1,1.5,1.4,1.5,1.4
			c4.7,4.2,18.7,15.8,32.9,19.8c13.7,3.9,23.4-0.6,26.9-2.6l1.1,0.3l1.7,0.5l-9.7,9.5l-0.6,0.6c-4.1-0.2-17.3,0-29.5,12.2
			c-11.9,11.7-19.2,30.9-21.7,38c0,0-0.8,2.7-0.8,2.7c0,0.1,1.9-0.6,1.9-0.6c6.4-2,26.5-9.2,38.7-21.3
			c11.8-11.7,12.8-24.6,12.7-29.2l0.8-0.8l9.7-9.5l0.4,1.7l0.3,1.1c-2.1,3.5-6.8,13.2-3.5,27.1c3.5,14.5,14.6,29,18.5,33.9
			c0,0,1.4,1.7,1.5,1.6c0.1-0.1,0.6-2.7,0.6-2.7c1.4-6.6,4.3-23.7,0.9-37.7c-3.5-14.5-12.6-21.1-15.9-23l-0.2-0.9l-0.7-3l30.2-29.6
			l0.7,2.7l0.3,1.1c-2.6,4.1-9.2,16.8-4.7,35.3c4.6,19.2,19.7,38.6,24.3,44.2c0,0,1.2,1.5,1.3,1.5c0.1,0,0.7-2.7,0.7-2.7
			c1.7-7.9,5.8-30.8,1.3-49.3c-4.7-19.2-17.1-27.7-20.9-29.9l-0.2-0.8l-1-4.1l33.8-33.2l1,3.9l0.3,1.2c-3.1,4.7-11.7,20.7-6.1,44.2
			c5.9,24.5,25.4,49.2,30.6,55.5c0,0,1.2,1.4,1.3,1.3c0.1,0,0.7-2.7,0.7-2.7c2-9.2,7.5-38.3,1.8-61.9c-5.9-24.5-22-34.9-26.2-37.3
			l-0.2-0.8l-1.3-5.2l38.6-37.8l1.2,4.9l0.3,1.2c-3.5,5.3-14.1,24.2-7.3,52.4c7.1,29.4,30.8,59,36.4,65.8c0,0,1,1.2,1.1,1.2
			c0.1,0,0.8-2.8,0.8-2.8c2.3-10.3,9-45.3,2.2-73.5c-7.1-29.4-26.6-41.6-31.2-44.2l-0.2-0.7l-1.5-6.3l41.7-40.9l1.5,5.9l0.3,1.2
			c-3.9,5.8-16.4,27.6-8.5,60.2c8.2,34.1,35.9,68.4,42,75.6c0,0,1.1,1.3,1.2,1.3c0.1-0.1,0.7-3,0.7-3c2.5-11.1,10.1-49.9,3.1-82.1
			l-25.8-45.4c-4.9-4.3-8.9-6.7-10.7-7.6l-0.2-0.7l-1.8-7.3l2.4-2.4l-1.2-2.1l-2.9,2.8l-7.1-2l-0.7-0.2c-2.5-5.1-15.5-28.5-48.9-38
			c-31.9-9-72.2-2.3-83.5,0C1282.5-90.8,1279.6-90.1,1279.5-90.1L1279.5-90.1z"/>
		<path class="st3" d="M1108.1,71.8c16.7-23.3,38-41.1,62-56.4c23-14.6,42.3-26.8,60.4-47.6c-41.5,8.7-80.4,18-109.5,51.1
			c-1.1,1.2-2.8,0-2.3-1.4c8.1-23.4,26.8-41,49.4-50.6c12.5-5.3,25.9-8.1,39.4-9.2c11-0.9,35.5,2.4,37.1-13.8
			c-40.1-4.8-76.9,1.8-114.5,16.7c-1.7,0.7-3.1-1.4-2.1-2.8c13.8-19.3,36.8-28.9,59.4-33.3c13.5-2.6,27.3-3.2,41-2
			c7.4,0.6,14.5,2.7,21.7,3.5c7.1,0.8,12.5-8.1,14.4-13.9c-18.2-6.3-39.6-2.7-58.5-2.4c-18.2,0.3-36.3-1.4-54.1-4.8
			c-2-0.4-2.1-2.8-0.4-3.7c36.1-18.9,77.1-21.8,114-4.6c2.2,1,4.9,3.4,7.4,1.6c2.4-1.7,1.9-6.8,0.8-9c-5-10.9-44.6-9-55.1-8.6
			c-25.2,1-49,7.6-73.7,12.4c-1.9,0.4-3-2.4-1.4-3.5c39.5-25.3,84.9-41.1,128.4-21.7c9,4,10.4,5.6,13-6c1.5-6.8,2.8-13.5,4.9-20.7
			c-46.2-6.2-87.1,19.3-132.3,24.1c-1.7,0.2-2.9-1.8-1.8-3.2c12.3-14.6,28.8-24.6,46.9-30.4c18-5.7,36.9-7.1,55.7-6.5
			c5.6,0.2,11.2,0.5,16.7,1c2.4,0.2,4.8,0.4,7.1,0.7c2.4,0.3,8.1,0.6,10.2,0.7c0.1,0,10.4-21.5-4.2-21.9c-21.2-1.4-41.5,3-61.1,10.7
			c-16.8,6.5-33.6,14-51.9,13.9c-1.5,0-3.2-1.8-1.8-3.2c32.4-32.5,81.2-46.1,124.7-31.8c0.2-10.2,4.1-27.4-2-32.2
			c-5.4-2.6-13.4-1-19.2-0.4c-5.2,0.5-10.5,1.3-15.6,2.3c-22.8,4.6-44.3,14.1-63.2,27.7c-1.5,1.1-4-0.6-3-2.4
			c9.2-18,26.1-30.5,45.4-36.1c9.5-2.8,19.4-3.9,29.3-3.4c9,0.5,21.6,2.5,29.7-3c4.7-3.2,3.5-5.5,3.9-8.2
			c-2.6-32.5-11.5-64.1-24.6-94.8c-1-2.3,7.7-5.2,8.7-2.8c12.8,30.1,18.4,62.7,20.6,95.4c0.1,0.1,0.2,0.1,0.2,0.2
			c4.7,4.1,5.5,8.9,11.3,13c12.3,8.7,28.4,11.1,43.2,14c18.4,3.6,35.8,10.2,51.9,19.9c1.4,0.9,1.5,3.4-0.5,3.5
			c-34.2,2.5-68.4-4.4-99-19.9c-3.7,14.7,23.3,19.8,32.5,24.9c10.1,5.6,19,13,26.8,21.5c18.3,20,29.2,45.5,37.6,71
			c0.7,2.3-2.3,3.4-3.4,1.4c-20.5-39-54-70.3-94.1-88.5c0,4.3,1.6,7.4,3,11.5c6.3,18.9,18,37.8,29.6,53.9
			c14.3,20,30.8,38.2,49.2,54.5c1.2,1.1,0.5,3.7-1.4,3.2c-21.9-5.3-36.5-24.1-50.5-40.4c-14.6-17-28.5-35-35.8-56.4
			c-3.4,5.6,1,15.4,2.9,20.7c2.2,6.4,4.9,12.7,7.8,18.8c5.8,12.2,13,23.7,20.8,34.6c15.7,22,34.1,41.8,52.4,61.5
			c1.1,1.2-0.3,3.2-1.8,2.9c-52.7-8.5-80.5-59.5-91-107.2c-7.1,14.8,0.4,31.5,6,45.3c5.7,14.2,10.6,28.7,14.3,43.5
			c7.7,30.5,10.4,62.2,5.8,93.4c-0.3,1.8-3,2.3-3.6,0.4c-7.8-24.4-15.7-48.9-23.5-73.3c-6.3-19.7-13.4-39.6-14-60.4
			c-4.7,11.5-6.6,24-5.3,36.5c1.5,13.2,7.6,25,11.1,37.7c7,25.4,4.9,54.5,0.9,80.3c-0.3,1.8-3.1,1.8-3.2,0
			c-3.4-42.4-28.1-82.9-20.8-125.7c-5.6,9.7-7.8,18.3-8.8,29.3c-1.3,13.3,1.5,26.7,1.5,40c-0.2,24.9-6.5,49.4-18.1,71.5
			c-0.7,1.3-3.3,1.4-3.3-0.5c-0.4-37.6-2.4-73.2,8.3-109.4c-12.9,18.4-22,34.6-27.7,56.8c-6.1,23.8-7.4,48.5-8.7,72.9
			c-0.1,1.5-2.2,1.8-3,0.8c-22.6-28.5-10.5-63.6,6.6-92.2c-3.8,4.4-7.7,8.8-11.7,13c-7.9,10.6-15.9,21.1-25.5,30.2
			c-18.9,17.9-42.5,24-67.4,28.8C1108.1,75.1,1107.3,73,1108.1,71.8L1108.1,71.8z"/>
	</g>
</g>
</svg>
